<svg xmlns="http://www.w3.org/2000/svg" xmlns:xlink="http://www.w3.org/1999/xlink" width="500" zoomAndPan="magnify" viewBox="0 0 375 374.999991" height="500" preserveAspectRatio="xMidYMid meet" version="1.0"><defs><g/></defs><g fill="#000000" fill-opacity="1"><g transform="translate(53.802324, 229.975663)"><g><path d="M 4.28125 -36.75 L 4.28125 -53.4375 L 41.484375 -53.4375 L 41.484375 -36.75 Z M 4.28125 -36.75 "/></g></g></g><g fill="#000000" fill-opacity="1"><g transform="translate(91.590662, 229.975663)"><g/></g></g><g fill="#000000" fill-opacity="1"><g transform="translate(118.012785, 229.975663)"><g><path d="M 35.125 1.1875 C 25.875 1.1875 18.46875 -1.710938 12.90625 -7.515625 C 7.351562 -13.328125 4.578125 -21.300781 4.578125 -31.4375 L 4.578125 -89.890625 C 4.578125 -102.484375 7.082031 -111.976562 12.09375 -118.375 C 17.113281 -124.78125 24.988281 -127.984375 35.71875 -127.984375 C 45.070312 -127.984375 52.597656 -125.421875 58.296875 -120.296875 C 64.003906 -115.179688 66.859375 -107.800781 66.859375 -98.15625 L 66.859375 -76.3125 L 41.625 -76.3125 L 41.625 -95.0625 C 41.625 -98.695312 41.179688 -101.203125 40.296875 -102.578125 C 39.410156 -103.960938 37.882812 -104.65625 35.71875 -104.65625 C 33.457031 -104.65625 31.90625 -103.867188 31.0625 -102.296875 C 30.226562 -100.722656 29.8125 -98.410156 29.8125 -95.359375 L 29.8125 -31.734375 C 29.8125 -28.390625 30.300781 -25.953125 31.28125 -24.421875 C 32.269531 -22.898438 33.75 -22.140625 35.71875 -22.140625 C 39.65625 -22.140625 41.625 -25.335938 41.625 -31.734375 L 41.625 -54.609375 L 67.15625 -54.609375 L 67.15625 -30.703125 C 67.15625 -9.441406 56.476562 1.1875 35.125 1.1875 Z M 35.125 1.1875 "/></g></g></g><g fill="#000000" fill-opacity="1"><g transform="translate(179.862039, 229.975663)"><g/></g></g><g fill="#000000" fill-opacity="1"><g transform="translate(206.284162, 229.975663)"><g><path d="M 35.875 1.1875 C 25.632812 1.1875 17.859375 -1.9375 12.546875 -8.1875 C 7.234375 -14.4375 4.578125 -23.222656 4.578125 -34.546875 L 4.578125 -94.90625 C 4.578125 -105.832031 7.234375 -114.078125 12.546875 -119.640625 C 17.859375 -125.203125 25.632812 -127.984375 35.875 -127.984375 C 46.101562 -127.984375 53.875 -125.203125 59.1875 -119.640625 C 64.5 -114.078125 67.15625 -105.832031 67.15625 -94.90625 L 67.15625 -34.546875 C 67.15625 -23.128906 64.5 -14.316406 59.1875 -8.109375 C 53.875 -1.910156 46.101562 1.1875 35.875 1.1875 Z M 35.875 -22.140625 C 38.132812 -22.140625 39.65625 -23.125 40.4375 -25.09375 C 41.226562 -27.0625 41.625 -29.816406 41.625 -33.359375 L 41.625 -95.359375 C 41.625 -98.109375 41.253906 -100.34375 40.515625 -102.0625 C 39.773438 -103.789062 38.273438 -104.65625 36.015625 -104.65625 C 31.785156 -104.65625 29.671875 -101.457031 29.671875 -95.0625 L 29.671875 -33.21875 C 29.671875 -29.570312 30.113281 -26.8125 31 -24.9375 C 31.882812 -23.070312 33.507812 -22.140625 35.875 -22.140625 Z M 35.875 -22.140625 "/></g></g></g><g fill="#000000" fill-opacity="1"><g transform="translate(289.270353, 227.659819)"><g><path d="M 1.078125 0 L 1.078125 -8.21875 L 15.046875 -45.609375 L 1.6875 -45.609375 L 1.6875 -56.203125 L 28.953125 -56.203125 L 28.953125 -47.0625 L 15.734375 -10.0625 L 29.09375 -10.0625 L 29.09375 0 Z M 1.078125 0 "/></g></g></g></svg>