<?xml version="1.0" encoding="UTF-8" standalone="no"?>
<!DOCTYPE svg PUBLIC "-//W3C//DTD SVG 1.1//EN" "http://www.w3.org/Graphics/SVG/1.1/DTD/svg11.dtd">
<svg width="100%" height="100%" viewBox="0 0 908 908" version="1.1" xmlns="http://www.w3.org/2000/svg" xmlns:xlink="http://www.w3.org/1999/xlink" xml:space="preserve" xmlns:serif="http://www.serif.com/" style="fill-rule:evenodd;clip-rule:evenodd;stroke-linejoin:round;stroke-miterlimit:2;">
    <g transform="matrix(1,0,0,1,-168.203,-18.604)">
        <g>
            <g>
                <clipPath id="_clip1">
                    <path d="M622.188,18.604C771.521,18.604 911.302,92.042 996.026,215.005C1080.76,337.974 1099.59,494.745 1046.41,634.281L834.297,553.438C860.891,483.667 851.469,405.281 809.109,343.797C766.745,282.313 696.854,245.594 622.188,245.594L622.188,18.604"/>
                </clipPath>
                <g clip-path="url(#_clip1)">
                    <rect x="168.203" y="18.604" width="907.974" height="907.974" style="fill:rgb(39,108,119);"/>
                </g>
            </g>
        </g>
        <g>
            <g>
                <clipPath id="_clip2">
                    <path d="M1053.95,612.88C990.583,807.922 804.323,936.26 599.5,926.01L610.844,699.297C713.255,704.422 806.385,640.255 838.073,542.734L1053.95,612.88"/>
                </clipPath>
                <g clip-path="url(#_clip2)">
                    <rect x="168.203" y="18.604" width="907.974" height="907.974" style="fill:rgb(121,195,166);"/>
                </g>
            </g>
        </g>
        <g>
            <g>
                <clipPath id="_clip3">
                    <path d="M622.188,926.578C371.469,926.578 168.214,723.333 168.203,472.615C168.188,221.891 371.422,18.625 622.141,18.604L622.167,245.594C496.807,245.609 395.188,347.24 395.193,472.599C395.203,597.964 496.828,699.583 622.188,699.583L622.188,926.578"/>
                </clipPath>
                <g clip-path="url(#_clip3)">
                    <rect x="168.203" y="18.604" width="907.974" height="907.974" style="fill:rgb(138,189,196);"/>
                </g>
            </g>
        </g>
        <g transform="matrix(1,0,0,1,445.098,461.887)">
            <g>
                <g>
                    <path d="M6.016,-34.88C5.271,-35.906 4.24,-36.479 2.979,-36.479C0.63,-36.479 -1.318,-33.964 0.458,-31.615L13.286,-14.661L13.286,-3.437C13.286,-1.318 14.776,0 16.609,0C18.099,0 19.932,-1.318 19.932,-3.437L19.932,-14.661L32.474,-31.443C34.307,-33.906 32.359,-36.479 30.182,-36.479C28.922,-36.479 27.891,-35.792 27.089,-34.708L16.552,-20.505L6.016,-34.88Z" style="fill:rgb(1,91,53);fill-rule:nonzero;"/>
                </g>
            </g>
        </g>
        <g transform="matrix(1,0,0,1,480.424,461.887)">
            <g>
                <g>
                    <path d="M38.656,-18.214C38.656,-29.495 31.214,-37.052 20.047,-37.052C8.818,-37.052 1.26,-29.495 1.26,-18.214C1.26,-6.932 8.818,0.573 20.047,0.573C31.214,0.573 38.656,-6.932 38.656,-18.214ZM20.047,-5.271C12.828,-5.271 8.016,-10.479 8.016,-18.214C8.016,-26 12.828,-31.214 20.047,-31.214C27.203,-31.214 31.958,-26 31.958,-18.214C31.958,-10.479 27.203,-5.271 20.047,-5.271Z" style="fill:rgb(1,91,53);fill-rule:nonzero;"/>
                </g>
            </g>
        </g>
        <g transform="matrix(1,0,0,1,523.08,461.887)">
            <g>
                <g>
                    <path d="M31.042,-33.448L31.042,-16.094C31.042,-9.734 26.802,-5.443 20.448,-5.443C14.203,-5.443 10.021,-9.734 10.021,-16.094L10.021,-33.562C10.021,-35.562 8.302,-36.479 6.589,-36.479C4.87,-36.479 3.266,-35.505 3.266,-33.62L3.266,-16.094C3.266,-6.13 10.135,0.573 20.505,0.573C30.87,0.573 37.74,-6.13 37.74,-16.094L37.74,-33.505C37.74,-35.505 36.135,-36.479 34.422,-36.479C32.703,-36.479 31.042,-35.505 31.042,-33.448Z" style="fill:rgb(1,91,53);fill-rule:nonzero;"/>
                </g>
            </g>
        </g>
        <g transform="matrix(1,0,0,1,566.537,461.887)">
            <g>
                <g>
                    <path d="M33.047,-5.615L26.172,-12.828C32.016,-14.49 34.88,-18.729 34.88,-24.109C34.88,-30.984 29.667,-36.479 19.417,-36.479L6.646,-36.479C4.698,-36.479 3.323,-35.276 3.323,-33.505L3.323,-2.922C3.323,-1.031 4.927,0 6.646,0C8.245,0 9.964,-1.031 9.964,-2.979L9.964,-12.026L18.615,-12.026L28.865,-1.089C31.729,2.005 36.536,-1.948 33.047,-5.615ZM9.964,-17.583L9.964,-30.698L19.474,-30.698C24.854,-30.698 28.12,-27.833 28.177,-24.052C28.292,-20.562 25.599,-17.583 19.474,-17.583L9.964,-17.583Z" style="fill:rgb(1,91,53);fill-rule:nonzero;"/>
                </g>
            </g>
        </g>
        <g transform="matrix(1,0,0,1,619.785,461.887)">
            <g>
                <g>
                    <path d="M0.401,-8.646C2.349,-1.49 11.453,0.573 17.411,0.573C24.568,0.573 34.594,-1.948 34.594,-11.052C34.594,-20.161 26,-20.505 18.042,-21.245C12.427,-21.646 7.615,-22.104 7.615,-25.828C7.615,-29.839 13.802,-30.927 16.896,-30.927C20.391,-30.927 25.542,-30.469 26.917,-26.917C27.375,-25.885 28.578,-25.312 29.839,-25.312C31.786,-25.312 33.734,-26.917 33.104,-29.036C30.411,-35.333 22.792,-37.052 16.839,-37.052C9.677,-37.052 0.745,-33.734 0.745,-25.885C0.745,-17.182 9.62,-16.094 17.411,-15.464C22.505,-15.062 27.719,-14.604 27.719,-10.995C27.719,-6.474 21.417,-5.443 17.411,-5.443C13.573,-5.443 8.302,-6.302 7.042,-10.021C6.76,-11.51 5.385,-12.255 3.896,-12.255C1.891,-12.255 -0.172,-10.88 0.401,-8.646Z" style="fill:rgb(1,91,53);fill-rule:nonzero;"/>
                </g>
            </g>
        </g>
        <g transform="matrix(1,0,0,1,656.772,461.887)">
            <g>
                <g>
                    <path d="M20.047,-37.052C9.448,-37.052 1.318,-29.724 1.318,-18.672C1.318,-7.099 8.875,0.573 20.161,0.573C25.771,0.573 32.016,-2.12 35.161,-6.531C37.969,-10.422 33.047,-13.687 29.953,-9.964C27.776,-7.328 23.88,-5.271 20.276,-5.271C12.828,-5.271 7.901,-10.594 7.901,-18.672C7.901,-26.172 12.714,-31.214 19.99,-31.214C23.536,-31.214 26.688,-30.583 29.552,-27.49C32.531,-24.281 37.396,-27.891 34.307,-31.385C30.583,-35.562 25.656,-37.052 20.047,-37.052Z" style="fill:rgb(1,91,53);fill-rule:nonzero;"/>
                </g>
            </g>
        </g>
        <g transform="matrix(1,0,0,1,694.962,461.887)">
            <g>
                <g>
                    <path d="M38.656,-18.214C38.656,-29.495 31.214,-37.052 20.047,-37.052C8.818,-37.052 1.26,-29.495 1.26,-18.214C1.26,-6.932 8.818,0.573 20.047,0.573C31.214,0.573 38.656,-6.932 38.656,-18.214ZM20.047,-5.271C12.828,-5.271 8.016,-10.479 8.016,-18.214C8.016,-26 12.828,-31.214 20.047,-31.214C27.203,-31.214 31.958,-26 31.958,-18.214C31.958,-10.479 27.203,-5.271 20.047,-5.271Z" style="fill:rgb(1,91,53);fill-rule:nonzero;"/>
                </g>
            </g>
        </g>
        <g transform="matrix(1,0,0,1,737.618,461.887)">
            <g>
                <g>
                    <path d="M33.047,-5.615L26.172,-12.828C32.016,-14.49 34.88,-18.729 34.88,-24.109C34.88,-30.984 29.667,-36.479 19.417,-36.479L6.646,-36.479C4.698,-36.479 3.323,-35.276 3.323,-33.505L3.323,-2.922C3.323,-1.031 4.927,0 6.646,0C8.245,0 9.964,-1.031 9.964,-2.979L9.964,-12.026L18.615,-12.026L28.865,-1.089C31.729,2.005 36.536,-1.948 33.047,-5.615ZM9.964,-17.583L9.964,-30.698L19.474,-30.698C24.854,-30.698 28.12,-27.833 28.177,-24.052C28.292,-20.562 25.599,-17.583 19.474,-17.583L9.964,-17.583Z" style="fill:rgb(1,91,53);fill-rule:nonzero;"/>
                </g>
            </g>
        </g>
        <g transform="matrix(1,0,0,1,775.235,461.887)">
            <g>
                <g>
                    <path d="M29.839,-5.729L9.849,-5.729L9.849,-15.234L28.807,-15.234C30.813,-15.234 31.786,-16.609 31.786,-17.984C31.786,-19.417 30.755,-20.849 28.807,-20.849L9.849,-20.849L9.849,-30.87L29.839,-30.87C31.786,-30.87 32.875,-32.359 32.875,-33.734C32.875,-35.161 31.901,-36.479 29.839,-36.479L7.099,-36.479C4.813,-36.479 3.323,-34.937 3.323,-33.104L3.323,-3.437C3.323,-1.547 4.813,0 7.099,0L29.839,0C31.958,0 32.99,-1.375 32.99,-2.75C32.99,-4.182 31.844,-5.729 29.839,-5.729Z" style="fill:rgb(1,91,53);fill-rule:nonzero;"/>
                </g>
            </g>
        </g>
        <g transform="matrix(1,0,0,1,573.693,541.22)">
            <g>
                <g>
                    <path d="M12.255,-5.615L22.792,-13.802C26.63,-16.839 29.094,-20.964 28.464,-26.458C27.776,-33.161 21.76,-37.052 15.234,-37.052C8.359,-37.052 2.865,-33.906 1.948,-26.802C1.719,-24.625 3.495,-23.365 5.214,-23.365C6.703,-23.365 8.13,-24.224 8.359,-26C9.047,-29.323 11.797,-31.328 15.234,-31.328C18.672,-31.328 21.589,-29.495 22.047,-25.656C22.505,-22.792 21.13,-19.875 18.729,-18.156L2.75,-5.615C1.891,-4.927 1.432,-4.01 1.432,-3.208C1.432,-1.604 2.75,-0.172 4.755,0L26,0C28.292,0 29.38,-1.432 29.38,-2.865C29.38,-4.297 28.177,-5.786 25.943,-5.786L16.266,-5.786L12.255,-5.615Z" style="fill:rgb(1,91,53);fill-rule:nonzero;"/>
                </g>
            </g>
        </g>
        <g transform="matrix(1,0,0,1,606.215,541.22)">
            <g>
                <g>
                    <path d="M0.516,-23.25L0.516,-13.286C0.516,-4.068 7.385,0.573 14.318,0.573C21.302,0.573 28.292,-4.068 28.234,-13.286L28.234,-23.25C28.234,-32.417 21.302,-37.052 14.318,-37.052C7.385,-37.052 0.516,-32.417 0.516,-23.25ZM21.76,-23.25L21.76,-13.286C21.76,-7.385 18.042,-5.042 14.26,-5.042C10.594,-5.042 6.932,-7.672 6.932,-13.286L6.932,-23.25C6.875,-29.094 10.594,-31.443 14.26,-31.443C18.042,-31.443 21.76,-29.094 21.76,-23.25Z" style="fill:rgb(1,91,53);fill-rule:nonzero;"/>
                </g>
            </g>
        </g>
        <g transform="matrix(1,0,0,1,636.904,541.22)">
            <g>
                <g>
                    <path d="M0.516,-23.25L0.516,-13.286C0.516,-4.068 7.385,0.573 14.318,0.573C21.302,0.573 28.292,-4.068 28.234,-13.286L28.234,-23.25C28.234,-32.417 21.302,-37.052 14.318,-37.052C7.385,-37.052 0.516,-32.417 0.516,-23.25ZM21.76,-23.25L21.76,-13.286C21.76,-7.385 18.042,-5.042 14.26,-5.042C10.594,-5.042 6.932,-7.672 6.932,-13.286L6.932,-23.25C6.875,-29.094 10.594,-31.443 14.26,-31.443C18.042,-31.443 21.76,-29.094 21.76,-23.25Z" style="fill:rgb(1,91,53);fill-rule:nonzero;"/>
                </g>
            </g>
        </g>
        <g>
            <g transform="matrix(1,0,0,1,844.966,291.105)">
                <g>
                    <path d="M20.125,-26.333L20.125,-21.979L8.625,-21.979L8.625,-15L19.063,-15L19.063,-10.708L8.625,-10.708L8.625,0L3.417,0L3.417,-26.333L20.125,-26.333Z" style="fill:white;fill-rule:nonzero;"/>
                </g>
            </g>
            <g transform="matrix(1,0,0,1,866.264,291.105)">
                <g>
                    <path d="M2.854,0L2.854,-19.875L7.708,-19.875L7.708,-16.917L8.083,-16.854C8.568,-17.948 9.198,-18.755 9.979,-19.271C10.755,-19.781 11.708,-20.042 12.833,-20.042C13.958,-20.042 14.813,-19.854 15.396,-19.479L14.563,-15.167L14.188,-15.104C13.854,-15.229 13.531,-15.318 13.229,-15.375C12.938,-15.443 12.573,-15.479 12.146,-15.479C10.755,-15.479 9.693,-14.984 8.958,-14C8.219,-13.026 7.854,-11.458 7.854,-9.292L7.854,0L2.854,0Z" style="fill:white;fill-rule:nonzero;"/>
                </g>
            </g>
            <g transform="matrix(1,0,0,1,881.85,291.105)">
                <g>
                    <path d="M19.646,-8.812L6.854,-8.812C7.005,-7.073 7.5,-5.812 8.333,-5.021C9.177,-4.24 10.333,-3.854 11.792,-3.854C12.927,-3.854 13.854,-4.062 14.563,-4.479C15.271,-4.906 15.839,-5.562 16.271,-6.437L16.646,-6.437L19.958,-4.312C19.302,-2.906 18.323,-1.776 17.021,-0.917C15.714,-0.052 13.969,0.375 11.792,0.375C9.734,0.375 7.958,-0.01 6.458,-0.792C4.958,-1.568 3.802,-2.729 3,-4.271C2.193,-5.812 1.792,-7.693 1.792,-9.917C1.792,-12.177 2.214,-14.083 3.063,-15.625C3.906,-17.177 5.063,-18.339 6.521,-19.104C7.979,-19.865 9.609,-20.25 11.417,-20.25C14.234,-20.25 16.385,-19.505 17.875,-18.021C19.375,-16.531 20.125,-14.344 20.125,-11.458C20.125,-10.417 20.089,-9.604 20.021,-9.021L19.646,-8.812ZM15.354,-12.042C15.297,-13.552 14.943,-14.651 14.292,-15.333C13.635,-16.026 12.677,-16.375 11.417,-16.375C8.901,-16.375 7.422,-14.927 6.979,-12.042L15.354,-12.042Z" style="fill:white;fill-rule:nonzero;"/>
                </g>
            </g>
            <g transform="matrix(1,0,0,1,903.455,291.105)">
                <g>
                    <path d="M5.354,-22.25C4.448,-22.25 3.714,-22.521 3.146,-23.062C2.589,-23.615 2.313,-24.323 2.313,-25.187C2.313,-26.031 2.589,-26.729 3.146,-27.271C3.714,-27.823 4.448,-28.104 5.354,-28.104C5.948,-28.104 6.484,-27.979 6.958,-27.729C7.427,-27.479 7.792,-27.13 8.042,-26.687C8.302,-26.255 8.438,-25.755 8.438,-25.187C8.438,-24.615 8.302,-24.109 8.042,-23.667C7.792,-23.219 7.427,-22.875 6.958,-22.625C6.484,-22.375 5.948,-22.25 5.354,-22.25ZM2.854,0L2.854,-19.875L7.854,-19.875L7.854,0L2.854,0Z" style="fill:white;fill-rule:nonzero;"/>
                </g>
            </g>
            <g transform="matrix(1,0,0,1,914.158,291.105)">
                <g>
                    <path d="M10.313,8.438C7.031,8.438 4.609,7.948 3.042,6.979C1.484,6.021 0.708,4.688 0.708,2.979C0.708,1.922 1.042,1.063 1.708,0.396C2.375,-0.271 3.333,-0.714 4.583,-0.937L4.583,-1.312C3.901,-1.729 3.417,-2.177 3.125,-2.667C2.833,-3.167 2.688,-3.75 2.688,-4.417C2.688,-6.01 3.719,-7.089 5.792,-7.646L5.792,-8.021C4.719,-8.63 3.917,-9.385 3.375,-10.292C2.844,-11.193 2.583,-12.292 2.583,-13.583C2.583,-14.901 2.88,-16.062 3.479,-17.062C4.089,-18.073 4.979,-18.859 6.146,-19.417C7.323,-19.969 8.729,-20.25 10.354,-20.25C12.021,-20.25 13.339,-19.958 14.313,-19.375C14.938,-20.26 15.292,-21.292 15.375,-22.458L15.771,-22.708L19.354,-21.812C19.24,-20.865 18.964,-20.068 18.521,-19.417C18.073,-18.776 17.385,-18.208 16.458,-17.708L16.458,-17.312C17.568,-16.323 18.125,-14.948 18.125,-13.187C18.125,-11.964 17.818,-10.865 17.208,-9.896C16.594,-8.922 15.698,-8.151 14.521,-7.583C13.354,-7.01 11.964,-6.729 10.354,-6.729L9.604,-6.75C9.115,-6.776 8.776,-6.792 8.583,-6.792C8.135,-6.792 7.781,-6.667 7.521,-6.417C7.255,-6.177 7.125,-5.865 7.125,-5.479C7.125,-5.062 7.292,-4.734 7.625,-4.5C7.969,-4.26 8.469,-4.13 9.125,-4.104L13.563,-3.937C17.964,-3.812 20.167,-1.922 20.167,1.729C20.167,3.021 19.833,4.167 19.167,5.167C18.51,6.167 17.448,6.958 15.979,7.542C14.521,8.135 12.63,8.438 10.313,8.438ZM10.354,-10.229C11.313,-10.229 12.063,-10.505 12.604,-11.062C13.146,-11.63 13.417,-12.443 13.417,-13.5C13.417,-14.542 13.146,-15.339 12.604,-15.896C12.063,-16.448 11.313,-16.729 10.354,-16.729C9.38,-16.729 8.63,-16.448 8.104,-15.896C7.573,-15.339 7.313,-14.542 7.313,-13.5C7.313,-12.443 7.573,-11.63 8.104,-11.062C8.63,-10.505 9.38,-10.229 10.354,-10.229ZM10.313,4.813C12.005,4.813 13.24,4.568 14.021,4.083C14.797,3.609 15.188,2.984 15.188,2.208C15.188,1.583 14.984,1.125 14.583,0.833C14.193,0.542 13.568,0.38 12.708,0.354L8.771,0.188C8.646,0.188 8.521,0.177 8.396,0.167C8.281,0.151 8.172,0.146 8.063,0.146C7.229,0.146 6.589,0.323 6.146,0.688C5.714,1.047 5.5,1.547 5.5,2.188C5.5,3.021 5.901,3.667 6.708,4.125C7.51,4.583 8.714,4.813 10.313,4.813Z" style="fill:white;fill-rule:nonzero;"/>
                </g>
            </g>
            <g transform="matrix(1,0,0,1,934.825,291.105)">
                <g>
                    <path d="M2.854,0L2.854,-27.854L7.854,-27.854L7.854,-17.271L8.229,-17.208C8.896,-18.177 9.708,-18.927 10.667,-19.458C11.625,-19.984 12.781,-20.25 14.146,-20.25C18.521,-20.25 20.708,-17.76 20.708,-12.792L20.708,0L15.729,0L15.729,-12.167C15.729,-13.51 15.458,-14.49 14.917,-15.104C14.375,-15.729 13.531,-16.042 12.396,-16.042C11.005,-16.042 9.901,-15.573 9.083,-14.646C8.26,-13.714 7.854,-12.26 7.854,-10.292L7.854,0L2.854,0Z" style="fill:white;fill-rule:nonzero;"/>
                </g>
            </g>
            <g transform="matrix(1,0,0,1,958.106,291.105)">
                <g>
                    <path d="M13.708,-4.729L15,-1.042C14.458,-0.594 13.776,-0.25 12.958,0C12.151,0.25 11.229,0.375 10.188,0.375C8.047,0.375 6.417,-0.208 5.292,-1.375C4.177,-2.542 3.625,-4.24 3.625,-6.479L3.625,-15.917L0.604,-15.917L0.604,-19.896L3.625,-19.896L3.625,-23.771L8.604,-24.583L8.604,-19.896L14.25,-19.896L14.25,-15.917L8.604,-15.917L8.604,-6.854C8.604,-5.865 8.802,-5.146 9.208,-4.687C9.625,-4.24 10.219,-4.021 11,-4.021C11.885,-4.021 12.667,-4.255 13.333,-4.729L13.708,-4.729Z" style="fill:white;fill-rule:nonzero;"/>
                </g>
            </g>
        </g>
        <g>
            <g transform="matrix(1,0,0,1,724.552,745.14)">
                <g>
                    <path d="M12.792,0.375C10.594,0.375 8.693,-0.125 7.083,-1.125C5.484,-2.125 4.25,-3.635 3.375,-5.667C2.5,-7.693 2.063,-10.193 2.063,-13.167C2.063,-16.167 2.583,-18.677 3.625,-20.708C4.677,-22.734 6.13,-24.24 7.979,-25.229C9.839,-26.214 12,-26.708 14.458,-26.708C16.969,-26.708 19.115,-26.24 20.896,-25.312C22.672,-24.38 23.922,-22.984 24.646,-21.125L20.854,-18.833L20.396,-18.854C19.854,-20.021 19.089,-20.875 18.104,-21.417C17.13,-21.958 15.917,-22.229 14.458,-22.229C12.177,-22.229 10.438,-21.505 9.229,-20.062C8.031,-18.63 7.438,-16.333 7.438,-13.167C7.438,-9.984 8,-7.672 9.125,-6.229C10.25,-4.781 11.906,-4.062 14.104,-4.062C16.005,-4.062 17.401,-4.484 18.292,-5.333C19.193,-6.193 19.646,-7.469 19.646,-9.167L19.646,-10.312L13.417,-10.312L13.417,-14.542L24.833,-14.542L24.833,0L19.854,0L19.854,-3.521L19.479,-3.583C18.938,-2.318 18.115,-1.339 17.021,-0.646C15.922,0.031 14.51,0.375 12.792,0.375Z" style="fill:white;fill-rule:nonzero;"/>
                </g>
            </g>
            <g transform="matrix(1,0,0,1,752.031,745.14)">
                <g>
                    <path d="M2.854,0L2.854,-19.875L7.708,-19.875L7.708,-16.917L8.083,-16.854C8.568,-17.948 9.198,-18.755 9.979,-19.271C10.755,-19.781 11.708,-20.042 12.833,-20.042C13.958,-20.042 14.813,-19.854 15.396,-19.479L14.563,-15.167L14.188,-15.104C13.854,-15.229 13.531,-15.318 13.229,-15.375C12.938,-15.443 12.573,-15.479 12.146,-15.479C10.755,-15.479 9.693,-14.984 8.958,-14C8.219,-13.026 7.854,-11.458 7.854,-9.292L7.854,0L2.854,0Z" style="fill:white;fill-rule:nonzero;"/>
                </g>
            </g>
            <g transform="matrix(1,0,0,1,767.617,745.14)">
                <g>
                    <path d="M19.646,-8.812L6.854,-8.812C7.005,-7.073 7.5,-5.812 8.333,-5.021C9.177,-4.24 10.333,-3.854 11.792,-3.854C12.927,-3.854 13.854,-4.062 14.563,-4.479C15.271,-4.906 15.839,-5.562 16.271,-6.437L16.646,-6.437L19.958,-4.312C19.302,-2.906 18.323,-1.776 17.021,-0.917C15.714,-0.052 13.969,0.375 11.792,0.375C9.734,0.375 7.958,-0.01 6.458,-0.792C4.958,-1.568 3.802,-2.729 3,-4.271C2.193,-5.812 1.792,-7.693 1.792,-9.917C1.792,-12.177 2.214,-14.083 3.063,-15.625C3.906,-17.177 5.063,-18.339 6.521,-19.104C7.979,-19.865 9.609,-20.25 11.417,-20.25C14.234,-20.25 16.385,-19.505 17.875,-18.021C19.375,-16.531 20.125,-14.344 20.125,-11.458C20.125,-10.417 20.089,-9.604 20.021,-9.021L19.646,-8.812ZM15.354,-12.042C15.297,-13.552 14.943,-14.651 14.292,-15.333C13.635,-16.026 12.677,-16.375 11.417,-16.375C8.901,-16.375 7.422,-14.927 6.979,-12.042L15.354,-12.042Z" style="fill:white;fill-rule:nonzero;"/>
                </g>
            </g>
            <g transform="matrix(1,0,0,1,789.222,745.14)">
                <g>
                    <path d="M19.646,-8.812L6.854,-8.812C7.005,-7.073 7.5,-5.812 8.333,-5.021C9.177,-4.24 10.333,-3.854 11.792,-3.854C12.927,-3.854 13.854,-4.062 14.563,-4.479C15.271,-4.906 15.839,-5.562 16.271,-6.437L16.646,-6.437L19.958,-4.312C19.302,-2.906 18.323,-1.776 17.021,-0.917C15.714,-0.052 13.969,0.375 11.792,0.375C9.734,0.375 7.958,-0.01 6.458,-0.792C4.958,-1.568 3.802,-2.729 3,-4.271C2.193,-5.812 1.792,-7.693 1.792,-9.917C1.792,-12.177 2.214,-14.083 3.063,-15.625C3.906,-17.177 5.063,-18.339 6.521,-19.104C7.979,-19.865 9.609,-20.25 11.417,-20.25C14.234,-20.25 16.385,-19.505 17.875,-18.021C19.375,-16.531 20.125,-14.344 20.125,-11.458C20.125,-10.417 20.089,-9.604 20.021,-9.021L19.646,-8.812ZM15.354,-12.042C15.297,-13.552 14.943,-14.651 14.292,-15.333C13.635,-16.026 12.677,-16.375 11.417,-16.375C8.901,-16.375 7.422,-14.927 6.979,-12.042L15.354,-12.042Z" style="fill:white;fill-rule:nonzero;"/>
                </g>
            </g>
            <g transform="matrix(1,0,0,1,810.826,745.14)">
                <g>
                    <path d="M2.854,0L2.854,-19.875L7.667,-19.875L7.667,-16.958L8.042,-16.854C9.276,-19.115 11.281,-20.25 14.063,-20.25C16.354,-20.25 18.031,-19.625 19.104,-18.375C20.172,-17.125 20.708,-15.302 20.708,-12.917L20.708,0L15.729,0L15.729,-12.312C15.729,-13.63 15.464,-14.583 14.938,-15.167C14.406,-15.75 13.563,-16.042 12.396,-16.042C10.964,-16.042 9.844,-15.573 9.042,-14.646C8.25,-13.714 7.854,-12.26 7.854,-10.292L7.854,0L2.854,0Z" style="fill:white;fill-rule:nonzero;"/>
                </g>
            </g>
            <g transform="matrix(1,0,0,1,842.809,745.14)">
                <g>
                    <path d="M20.438,-16.437L20.438,-26.333L25.625,-26.333L25.625,0L20.438,0L20.438,-12L8.625,-12L8.625,0L3.417,0L3.417,-26.333L8.625,-26.333L8.625,-16.437L20.438,-16.437Z" style="fill:white;fill-rule:nonzero;"/>
                </g>
            </g>
            <g transform="matrix(1,0,0,1,871.874,745.14)">
                <g>
                    <path d="M9.104,0.375C6.865,0.375 5.214,-0.229 4.146,-1.437C3.089,-2.656 2.563,-4.417 2.563,-6.708L2.563,-19.875L7.542,-19.875L7.542,-7.333C7.542,-6.125 7.802,-5.234 8.333,-4.667C8.859,-4.109 9.667,-3.833 10.75,-3.833C12.135,-3.833 13.214,-4.281 13.979,-5.187C14.74,-6.104 15.125,-7.531 15.125,-9.479L15.125,-19.875L20.125,-19.875L20.125,0L15.333,0L15.333,-2.917L14.958,-3C14.318,-1.859 13.542,-1.01 12.625,-0.458C11.708,0.094 10.531,0.375 9.104,0.375Z" style="fill:white;fill-rule:nonzero;"/>
                </g>
            </g>
            <g transform="matrix(1,0,0,1,894.866,745.14)">
                <g>
                    <path d="M13.896,0.375C11.354,0.375 9.464,-0.568 8.229,-2.458L7.854,-2.396L7.854,0L2.854,0L2.854,-27.854L7.854,-27.854L7.854,-17.521L8.229,-17.458C8.906,-18.401 9.714,-19.104 10.646,-19.562C11.589,-20.021 12.708,-20.25 14,-20.25C15.609,-20.25 17.01,-19.865 18.208,-19.104C19.417,-18.354 20.354,-17.208 21.021,-15.667C21.698,-14.125 22.042,-12.208 22.042,-9.917C22.042,-7.667 21.688,-5.771 20.979,-4.229C20.281,-2.687 19.323,-1.531 18.104,-0.771C16.88,-0.005 15.479,0.375 13.896,0.375ZM12.375,-3.854C13.844,-3.854 14.964,-4.339 15.729,-5.312C16.49,-6.297 16.875,-7.833 16.875,-9.917C16.875,-12.026 16.49,-13.568 15.729,-14.542C14.964,-15.526 13.844,-16.021 12.375,-16.021C10.969,-16.021 9.854,-15.51 9.021,-14.5C8.198,-13.484 7.792,-11.958 7.792,-9.917C7.792,-7.875 8.198,-6.354 9.021,-5.354C9.854,-4.354 10.969,-3.854 12.375,-3.854Z" style="fill:white;fill-rule:nonzero;"/>
                </g>
            </g>
        </g>
        <g>
            <g transform="matrix(1,0,0,1,206.68,470.104)">
                <g>
                    <path d="M8.625,-11.562L8.625,-4.354L21.208,-4.354L21.208,0L3.417,0L3.417,-26.333L20.917,-26.333L20.917,-21.979L8.625,-21.979L8.625,-15.812L19.375,-15.812L19.375,-11.562L8.625,-11.562Z" style="fill:white;fill-rule:nonzero;"/>
                </g>
            </g>
            <g transform="matrix(1,0,0,1,229.33,470.104)">
                <g>
                    <path d="M2.854,0L2.854,-19.875L7.667,-19.875L7.667,-16.958L8.042,-16.854C9.276,-19.115 11.281,-20.25 14.063,-20.25C16.354,-20.25 18.031,-19.625 19.104,-18.375C20.172,-17.125 20.708,-15.302 20.708,-12.917L20.708,0L15.729,0L15.729,-12.312C15.729,-13.63 15.464,-14.583 14.938,-15.167C14.406,-15.75 13.563,-16.042 12.396,-16.042C10.964,-16.042 9.844,-15.573 9.042,-14.646C8.25,-13.714 7.854,-12.26 7.854,-10.292L7.854,0L2.854,0Z" style="fill:white;fill-rule:nonzero;"/>
                </g>
            </g>
            <g transform="matrix(1,0,0,1,252.61,470.104)">
                <g>
                    <path d="M19.646,-8.812L6.854,-8.812C7.005,-7.073 7.5,-5.812 8.333,-5.021C9.177,-4.24 10.333,-3.854 11.792,-3.854C12.927,-3.854 13.854,-4.062 14.563,-4.479C15.271,-4.906 15.839,-5.562 16.271,-6.437L16.646,-6.437L19.958,-4.312C19.302,-2.906 18.323,-1.776 17.021,-0.917C15.714,-0.052 13.969,0.375 11.792,0.375C9.734,0.375 7.958,-0.01 6.458,-0.792C4.958,-1.568 3.802,-2.729 3,-4.271C2.193,-5.812 1.792,-7.693 1.792,-9.917C1.792,-12.177 2.214,-14.083 3.063,-15.625C3.906,-17.177 5.063,-18.339 6.521,-19.104C7.979,-19.865 9.609,-20.25 11.417,-20.25C14.234,-20.25 16.385,-19.505 17.875,-18.021C19.375,-16.531 20.125,-14.344 20.125,-11.458C20.125,-10.417 20.089,-9.604 20.021,-9.021L19.646,-8.812ZM15.354,-12.042C15.297,-13.552 14.943,-14.651 14.292,-15.333C13.635,-16.026 12.677,-16.375 11.417,-16.375C8.901,-16.375 7.422,-14.927 6.979,-12.042L15.354,-12.042Z" style="fill:white;fill-rule:nonzero;"/>
                </g>
            </g>
            <g transform="matrix(1,0,0,1,274.215,470.104)">
                <g>
                    <path d="M2.854,0L2.854,-19.875L7.708,-19.875L7.708,-16.917L8.083,-16.854C8.568,-17.948 9.198,-18.755 9.979,-19.271C10.755,-19.781 11.708,-20.042 12.833,-20.042C13.958,-20.042 14.813,-19.854 15.396,-19.479L14.563,-15.167L14.188,-15.104C13.854,-15.229 13.531,-15.318 13.229,-15.375C12.938,-15.443 12.573,-15.479 12.146,-15.479C10.755,-15.479 9.693,-14.984 8.958,-14C8.219,-13.026 7.854,-11.458 7.854,-9.292L7.854,0L2.854,0Z" style="fill:white;fill-rule:nonzero;"/>
                </g>
            </g>
            <g transform="matrix(1,0,0,1,289.801,470.104)">
                <g>
                    <path d="M10.313,8.438C7.031,8.438 4.609,7.948 3.042,6.979C1.484,6.021 0.708,4.688 0.708,2.979C0.708,1.922 1.042,1.063 1.708,0.396C2.375,-0.271 3.333,-0.714 4.583,-0.937L4.583,-1.312C3.901,-1.729 3.417,-2.177 3.125,-2.667C2.833,-3.167 2.688,-3.75 2.688,-4.417C2.688,-6.01 3.719,-7.089 5.792,-7.646L5.792,-8.021C4.719,-8.63 3.917,-9.385 3.375,-10.292C2.844,-11.193 2.583,-12.292 2.583,-13.583C2.583,-14.901 2.88,-16.062 3.479,-17.062C4.089,-18.073 4.979,-18.859 6.146,-19.417C7.323,-19.969 8.729,-20.25 10.354,-20.25C12.021,-20.25 13.339,-19.958 14.313,-19.375C14.938,-20.26 15.292,-21.292 15.375,-22.458L15.771,-22.708L19.354,-21.812C19.24,-20.865 18.964,-20.068 18.521,-19.417C18.073,-18.776 17.385,-18.208 16.458,-17.708L16.458,-17.312C17.568,-16.323 18.125,-14.948 18.125,-13.187C18.125,-11.964 17.818,-10.865 17.208,-9.896C16.594,-8.922 15.698,-8.151 14.521,-7.583C13.354,-7.01 11.964,-6.729 10.354,-6.729L9.604,-6.75C9.115,-6.776 8.776,-6.792 8.583,-6.792C8.135,-6.792 7.781,-6.667 7.521,-6.417C7.255,-6.177 7.125,-5.865 7.125,-5.479C7.125,-5.062 7.292,-4.734 7.625,-4.5C7.969,-4.26 8.469,-4.13 9.125,-4.104L13.563,-3.937C17.964,-3.812 20.167,-1.922 20.167,1.729C20.167,3.021 19.833,4.167 19.167,5.167C18.51,6.167 17.448,6.958 15.979,7.542C14.521,8.135 12.63,8.438 10.313,8.438ZM10.354,-10.229C11.313,-10.229 12.063,-10.505 12.604,-11.062C13.146,-11.63 13.417,-12.443 13.417,-13.5C13.417,-14.542 13.146,-15.339 12.604,-15.896C12.063,-16.448 11.313,-16.729 10.354,-16.729C9.38,-16.729 8.63,-16.448 8.104,-15.896C7.573,-15.339 7.313,-14.542 7.313,-13.5C7.313,-12.443 7.573,-11.63 8.104,-11.062C8.63,-10.505 9.38,-10.229 10.354,-10.229ZM10.313,4.813C12.005,4.813 13.24,4.568 14.021,4.083C14.797,3.609 15.188,2.984 15.188,2.208C15.188,1.583 14.984,1.125 14.583,0.833C14.193,0.542 13.568,0.38 12.708,0.354L8.771,0.188C8.646,0.188 8.521,0.177 8.396,0.167C8.281,0.151 8.172,0.146 8.063,0.146C7.229,0.146 6.589,0.323 6.146,0.688C5.714,1.047 5.5,1.547 5.5,2.188C5.5,3.021 5.901,3.667 6.708,4.125C7.51,4.583 8.714,4.813 10.313,4.813Z" style="fill:white;fill-rule:nonzero;"/>
                </g>
            </g>
            <g transform="matrix(1,0,0,1,310.468,470.104)">
                <g>
                    <path d="M4.396,8.438C3.547,8.438 2.776,8.365 2.083,8.229C1.385,8.104 0.823,7.927 0.396,7.708L1.188,3.667L1.521,3.563C1.813,3.714 2.177,3.839 2.625,3.938C3.068,4.031 3.526,4.083 4,4.083C4.802,4.083 5.469,3.979 6,3.771C6.542,3.563 6.99,3.214 7.354,2.729C7.729,2.24 8.063,1.568 8.354,0.708L0.438,-19.875L5.667,-19.875L10.583,-6.062L11.021,-6.062L15.833,-19.875L20.917,-19.875L12.938,1.25C12.297,2.943 11.594,4.313 10.833,5.354C10.068,6.396 9.167,7.167 8.125,7.667C7.094,8.177 5.854,8.438 4.396,8.438Z" style="fill:white;fill-rule:nonzero;"/>
                </g>
            </g>
        </g>
        <g>
            <g transform="matrix(1,0,0,1,210.14,520.844)">
                <g>
                    <path d="M13.958,0.375C10.333,0.375 7.646,-0.484 5.896,-2.208C4.146,-3.927 3.271,-6.484 3.271,-9.875L3.271,-26.333L8.354,-26.333L8.354,-9.917C8.354,-7.984 8.813,-6.542 9.729,-5.583C10.656,-4.625 12.068,-4.146 13.958,-4.146C17.693,-4.146 19.563,-6.068 19.563,-9.917L19.563,-26.333L24.667,-26.333L24.667,-9.875C24.667,-6.484 23.781,-3.927 22.021,-2.208C20.271,-0.484 17.583,0.375 13.958,0.375Z" style="fill:white;fill-rule:nonzero;"/>
                </g>
            </g>
            <g transform="matrix(1,0,0,1,238.069,520.844)">
                <g>
                    <path d="M9.292,0.375C7.927,0.375 6.688,0.214 5.563,-0.104C4.438,-0.422 3.469,-0.859 2.667,-1.417C1.875,-1.969 1.281,-2.609 0.896,-3.333L3.667,-6.333L4.063,-6.333C4.714,-5.443 5.49,-4.776 6.396,-4.333C7.297,-3.885 8.276,-3.667 9.333,-3.667C10.302,-3.667 11.031,-3.839 11.521,-4.187C12.021,-4.531 12.271,-5.026 12.271,-5.667C12.271,-6.177 12.089,-6.604 11.729,-6.937C11.38,-7.281 10.813,-7.552 10.021,-7.75L7.396,-8.375C5.422,-8.844 3.979,-9.562 3.063,-10.521C2.156,-11.49 1.708,-12.719 1.708,-14.208C1.708,-15.443 2.021,-16.521 2.646,-17.437C3.281,-18.354 4.172,-19.047 5.313,-19.521C6.464,-20.005 7.802,-20.25 9.333,-20.25C11.125,-20.25 12.604,-19.99 13.771,-19.479C14.948,-18.964 15.875,-18.271 16.542,-17.396L13.875,-14.521L13.521,-14.521C12.964,-15.146 12.339,-15.594 11.646,-15.875C10.948,-16.167 10.177,-16.312 9.333,-16.312C7.359,-16.312 6.375,-15.698 6.375,-14.479C6.375,-13.964 6.552,-13.542 6.917,-13.208C7.292,-12.885 7.938,-12.63 8.854,-12.437L11.313,-11.896C13.323,-11.464 14.797,-10.771 15.729,-9.812C16.656,-8.854 17.125,-7.568 17.125,-5.958C17.125,-4.693 16.813,-3.583 16.188,-2.625C15.563,-1.667 14.656,-0.922 13.479,-0.396C12.313,0.115 10.917,0.375 9.292,0.375Z" style="fill:white;fill-rule:nonzero;"/>
                </g>
            </g>
            <g transform="matrix(1,0,0,1,256.394,520.844)">
                <g>
                    <path d="M7.75,0.375C6.469,0.375 5.359,0.146 4.417,-0.312C3.484,-0.781 2.771,-1.469 2.271,-2.375C1.771,-3.292 1.521,-4.385 1.521,-5.667C1.521,-6.833 1.771,-7.812 2.271,-8.604C2.771,-9.406 3.547,-10.068 4.604,-10.583C5.656,-11.094 7.042,-11.49 8.75,-11.771C9.943,-11.964 10.844,-12.172 11.458,-12.396C12.083,-12.615 12.5,-12.875 12.708,-13.167C12.927,-13.458 13.042,-13.823 13.042,-14.271C13.042,-14.906 12.818,-15.396 12.375,-15.729C11.927,-16.062 11.193,-16.229 10.167,-16.229C9.052,-16.229 8,-15.979 7,-15.479C6.01,-14.99 5.151,-14.344 4.417,-13.542L4.063,-13.542L1.958,-16.708C2.969,-17.818 4.198,-18.687 5.646,-19.312C7.104,-19.937 8.693,-20.25 10.417,-20.25C13.042,-20.25 14.943,-19.687 16.125,-18.562C17.302,-17.448 17.896,-15.865 17.896,-13.812L17.896,-5.187C17.896,-4.297 18.281,-3.854 19.063,-3.854C19.365,-3.854 19.656,-3.906 19.938,-4.021L20.188,-3.937L20.563,-0.458C20.281,-0.292 19.896,-0.146 19.396,-0.021C18.906,0.089 18.375,0.146 17.792,0.146C16.594,0.146 15.667,-0.083 15,-0.542C14.333,-1 13.854,-1.714 13.563,-2.687L13.188,-2.729C12.214,-0.656 10.401,0.375 7.75,0.375ZM9.333,-3.354C10.484,-3.354 11.401,-3.734 12.083,-4.5C12.776,-5.276 13.125,-6.359 13.125,-7.75L13.125,-9.771L12.792,-9.833C12.484,-9.594 12.089,-9.396 11.604,-9.229C11.115,-9.073 10.422,-8.917 9.521,-8.75C8.438,-8.568 7.651,-8.255 7.167,-7.812C6.693,-7.38 6.458,-6.76 6.458,-5.958C6.458,-5.109 6.708,-4.464 7.208,-4.021C7.719,-3.573 8.427,-3.354 9.333,-3.354Z" style="fill:white;fill-rule:nonzero;"/>
                </g>
            </g>
            <g transform="matrix(1,0,0,1,277.35,520.844)">
                <g>
                    <path d="M10.313,8.438C7.031,8.438 4.609,7.948 3.042,6.979C1.484,6.021 0.708,4.688 0.708,2.979C0.708,1.922 1.042,1.063 1.708,0.396C2.375,-0.271 3.333,-0.714 4.583,-0.937L4.583,-1.312C3.901,-1.729 3.417,-2.177 3.125,-2.667C2.833,-3.167 2.688,-3.75 2.688,-4.417C2.688,-6.01 3.719,-7.089 5.792,-7.646L5.792,-8.021C4.719,-8.63 3.917,-9.385 3.375,-10.292C2.844,-11.193 2.583,-12.292 2.583,-13.583C2.583,-14.901 2.88,-16.062 3.479,-17.062C4.089,-18.073 4.979,-18.859 6.146,-19.417C7.323,-19.969 8.729,-20.25 10.354,-20.25C12.021,-20.25 13.339,-19.958 14.313,-19.375C14.938,-20.26 15.292,-21.292 15.375,-22.458L15.771,-22.708L19.354,-21.812C19.24,-20.865 18.964,-20.068 18.521,-19.417C18.073,-18.776 17.385,-18.208 16.458,-17.708L16.458,-17.312C17.568,-16.323 18.125,-14.948 18.125,-13.187C18.125,-11.964 17.818,-10.865 17.208,-9.896C16.594,-8.922 15.698,-8.151 14.521,-7.583C13.354,-7.01 11.964,-6.729 10.354,-6.729L9.604,-6.75C9.115,-6.776 8.776,-6.792 8.583,-6.792C8.135,-6.792 7.781,-6.667 7.521,-6.417C7.255,-6.177 7.125,-5.865 7.125,-5.479C7.125,-5.062 7.292,-4.734 7.625,-4.5C7.969,-4.26 8.469,-4.13 9.125,-4.104L13.563,-3.937C17.964,-3.812 20.167,-1.922 20.167,1.729C20.167,3.021 19.833,4.167 19.167,5.167C18.51,6.167 17.448,6.958 15.979,7.542C14.521,8.135 12.63,8.438 10.313,8.438ZM10.354,-10.229C11.313,-10.229 12.063,-10.505 12.604,-11.062C13.146,-11.63 13.417,-12.443 13.417,-13.5C13.417,-14.542 13.146,-15.339 12.604,-15.896C12.063,-16.448 11.313,-16.729 10.354,-16.729C9.38,-16.729 8.63,-16.448 8.104,-15.896C7.573,-15.339 7.313,-14.542 7.313,-13.5C7.313,-12.443 7.573,-11.63 8.104,-11.062C8.63,-10.505 9.38,-10.229 10.354,-10.229ZM10.313,4.813C12.005,4.813 13.24,4.568 14.021,4.083C14.797,3.609 15.188,2.984 15.188,2.208C15.188,1.583 14.984,1.125 14.583,0.833C14.193,0.542 13.568,0.38 12.708,0.354L8.771,0.188C8.646,0.188 8.521,0.177 8.396,0.167C8.281,0.151 8.172,0.146 8.063,0.146C7.229,0.146 6.589,0.323 6.146,0.688C5.714,1.047 5.5,1.547 5.5,2.188C5.5,3.021 5.901,3.667 6.708,4.125C7.51,4.583 8.714,4.813 10.313,4.813Z" style="fill:white;fill-rule:nonzero;"/>
                </g>
            </g>
            <g transform="matrix(1,0,0,1,298.017,520.844)">
                <g>
                    <path d="M19.646,-8.812L6.854,-8.812C7.005,-7.073 7.5,-5.812 8.333,-5.021C9.177,-4.24 10.333,-3.854 11.792,-3.854C12.927,-3.854 13.854,-4.062 14.563,-4.479C15.271,-4.906 15.839,-5.562 16.271,-6.437L16.646,-6.437L19.958,-4.312C19.302,-2.906 18.323,-1.776 17.021,-0.917C15.714,-0.052 13.969,0.375 11.792,0.375C9.734,0.375 7.958,-0.01 6.458,-0.792C4.958,-1.568 3.802,-2.729 3,-4.271C2.193,-5.812 1.792,-7.693 1.792,-9.917C1.792,-12.177 2.214,-14.083 3.063,-15.625C3.906,-17.177 5.063,-18.339 6.521,-19.104C7.979,-19.865 9.609,-20.25 11.417,-20.25C14.234,-20.25 16.385,-19.505 17.875,-18.021C19.375,-16.531 20.125,-14.344 20.125,-11.458C20.125,-10.417 20.089,-9.604 20.021,-9.021L19.646,-8.812ZM15.354,-12.042C15.297,-13.552 14.943,-14.651 14.292,-15.333C13.635,-16.026 12.677,-16.375 11.417,-16.375C8.901,-16.375 7.422,-14.927 6.979,-12.042L15.354,-12.042Z" style="fill:white;fill-rule:nonzero;"/>
                </g>
            </g>
        </g>
    </g>
</svg>
