<svg xmlns="http://www.w3.org/2000/svg" xmlns:xlink="http://www.w3.org/1999/xlink" width="500" zoomAndPan="magnify" viewBox="0 0 375 374.999991" height="500" preserveAspectRatio="xMidYMid meet" version="1.0"><defs><clipPath id="7990c13ac3"><path d="M 140 247 L 238 247 L 238 299.25 L 140 299.25 Z M 140 247 " clip-rule="nonzero"/></clipPath><clipPath id="c976d5d1fc"><path d="M 60.523438 213 L 158 213 L 158 265 L 60.523438 265 Z M 60.523438 213 " clip-rule="nonzero"/></clipPath><clipPath id="853d8783e4"><path d="M 220 213 L 317.023438 213 L 317.023438 265 L 220 265 Z M 220 213 " clip-rule="nonzero"/></clipPath></defs><path fill="#ffffff" d="M 186.363281 161.707031 C 185.984375 161.707031 185.617188 161.636719 185.269531 161.488281 C 184.917969 161.34375 184.609375 161.136719 184.339844 160.871094 C 184.074219 160.601562 183.867188 160.292969 183.722656 159.941406 C 183.578125 159.589844 183.503906 159.226562 183.503906 158.847656 L 183.503906 130.433594 C 178.699219 129.976562 174.1875 128.574219 169.964844 126.230469 C 162.269531 121.945312 152.542969 112.472656 149.910156 91.683594 C 149.882812 91.476562 149.882812 91.273438 149.898438 91.066406 C 149.917969 90.859375 149.957031 90.660156 150.019531 90.460938 C 150.082031 90.265625 150.164062 90.078125 150.269531 89.898438 C 150.371094 89.71875 150.492188 89.550781 150.628906 89.398438 C 150.769531 89.246094 150.921875 89.109375 151.089844 88.992188 C 151.257812 88.871094 151.4375 88.769531 151.628906 88.691406 C 151.820312 88.609375 152.015625 88.550781 152.21875 88.511719 C 152.421875 88.472656 152.625 88.457031 152.832031 88.464844 C 158.605469 88.925781 163.953125 90.683594 168.878906 93.734375 C 174.519531 97.148438 181.34375 103.34375 185.734375 114.410156 C 186.816406 109.820312 188.25 105.339844 190.027344 100.972656 C 197.433594 83.011719 209.425781 73.296875 224.707031 72.878906 C 225.074219 72.867188 225.425781 72.925781 225.769531 73.050781 C 226.109375 73.175781 226.417969 73.359375 226.691406 73.601562 C 226.960938 73.84375 227.179688 74.128906 227.34375 74.457031 C 227.507812 74.78125 227.601562 75.128906 227.632812 75.492188 C 227.667969 75.867188 228.378906 84.796875 223.730469 96.042969 C 219.59375 106.054688 210.257812 119.867188 189.222656 129.53125 L 189.222656 158.847656 C 189.222656 159.226562 189.148438 159.589844 189.003906 159.941406 C 188.859375 160.292969 188.652344 160.601562 188.382812 160.871094 C 188.117188 161.136719 187.804688 161.34375 187.457031 161.488281 C 187.105469 161.636719 186.742188 161.707031 186.363281 161.707031 Z M 156.160156 94.714844 C 160.613281 118.988281 175.988281 123.734375 182.871094 124.628906 C 177.917969 102.152344 163.003906 96.25 156.160156 94.714844 Z M 221.925781 78.824219 C 198.996094 81.742188 191.859375 110.921875 189.886719 122.859375 C 203.695312 115.863281 213.253906 106.214844 218.332031 94.128906 C 220.410156 89.234375 221.609375 84.132812 221.925781 78.824219 Z M 221.925781 78.824219 " fill-opacity="1" fill-rule="nonzero"/><path fill="#ffffff" d="M 186.363281 130.539062 C 186.289062 130.539062 186.210938 130.535156 186.132812 130.527344 C 185.703125 130.492188 185.300781 130.367188 184.925781 130.152344 C 184.554688 129.933594 184.246094 129.648438 184 129.289062 C 183.8125 129.015625 165 101.53125 151.339844 93.816406 C 151.011719 93.628906 150.730469 93.386719 150.496094 93.085938 C 150.261719 92.789062 150.09375 92.457031 149.992188 92.089844 C 149.890625 91.726562 149.863281 91.355469 149.910156 90.976562 C 149.957031 90.601562 150.070312 90.246094 150.257812 89.917969 C 150.445312 89.585938 150.6875 89.304688 150.984375 89.070312 C 151.285156 88.835938 151.613281 88.667969 151.980469 88.566406 C 152.34375 88.464844 152.714844 88.4375 153.09375 88.484375 C 153.46875 88.527344 153.820312 88.644531 154.152344 88.832031 C 165.972656 95.507812 180.421875 114.476562 186.191406 122.476562 C 192.574219 112.164062 210.9375 83.382812 222.976562 73.523438 C 223.269531 73.285156 223.597656 73.109375 223.960938 73 C 224.324219 72.890625 224.695312 72.855469 225.070312 72.890625 C 225.449219 72.929688 225.804688 73.039062 226.136719 73.21875 C 226.472656 73.398438 226.757812 73.632812 227 73.925781 C 227.238281 74.222656 227.414062 74.550781 227.523438 74.914062 C 227.632812 75.277344 227.667969 75.644531 227.628906 76.023438 C 227.59375 76.402344 227.484375 76.757812 227.304688 77.09375 C 227.125 77.425781 226.890625 77.714844 226.597656 77.953125 C 212.664062 89.363281 189.058594 128.746094 188.820312 129.140625 C 188.5625 129.574219 188.214844 129.914062 187.777344 130.164062 C 187.339844 130.414062 186.867188 130.535156 186.363281 130.539062 Z M 186.363281 130.539062 " fill-opacity="1" fill-rule="nonzero"/><path fill="#ffffff" d="M 188.789062 162.253906 C 186.824219 162.257812 184.863281 162.164062 182.910156 161.976562 C 180.953125 161.785156 179.011719 161.5 177.085938 161.121094 C 175.15625 160.742188 173.253906 160.265625 171.375 159.699219 C 169.492188 159.128906 167.644531 158.472656 165.828125 157.722656 C 164.011719 156.972656 162.238281 156.136719 160.503906 155.210938 C 158.769531 154.289062 157.085938 153.28125 155.449219 152.191406 C 153.816406 151.101562 152.238281 149.933594 150.71875 148.6875 C 149.195312 147.441406 147.742188 146.125 146.351562 144.738281 C 144.960938 143.347656 143.640625 141.894531 142.390625 140.378906 C 141.144531 138.859375 139.972656 137.28125 138.878906 135.648438 C 137.785156 134.015625 136.773438 132.332031 135.84375 130.601562 C 134.917969 128.867188 134.078125 127.09375 133.320312 125.277344 C 132.566406 123.460938 131.90625 121.613281 131.332031 119.734375 C 130.757812 117.851562 130.28125 115.949219 129.894531 114.019531 C 129.507812 112.089844 129.21875 110.148438 129.023438 108.191406 C 128.828125 106.234375 128.730469 104.273438 128.730469 102.308594 C 128.726562 100.34375 128.820312 98.378906 129.011719 96.421875 C 129.203125 94.464844 129.488281 92.523438 129.867188 90.59375 C 130.25 88.664062 130.722656 86.761719 131.292969 84.878906 C 131.859375 82.996094 132.519531 81.144531 133.269531 79.328125 C 134.019531 77.511719 134.855469 75.734375 135.78125 74 C 136.707031 72.265625 137.714844 70.578125 138.804688 68.945312 C 139.894531 67.308594 141.058594 65.730469 142.304688 64.207031 C 143.550781 62.6875 144.867188 61.230469 146.253906 59.839844 C 147.640625 58.449219 149.09375 57.128906 150.613281 55.878906 C 152.128906 54.628906 153.703125 53.460938 155.335938 52.367188 C 156.96875 51.273438 158.652344 50.261719 160.382812 49.332031 C 162.117188 48.40625 163.886719 47.5625 165.703125 46.808594 C 167.515625 46.054688 169.363281 45.394531 171.242188 44.820312 C 173.121094 44.25 175.027344 43.769531 176.953125 43.386719 C 178.878906 43 180.820312 42.710938 182.773438 42.519531 C 184.730469 42.324219 186.6875 42.226562 188.652344 42.226562 C 190.617188 42.222656 192.578125 42.320312 194.53125 42.511719 C 196.488281 42.703125 198.429688 42.988281 200.355469 43.371094 C 202.28125 43.753906 204.183594 44.230469 206.066406 44.800781 C 207.945312 45.371094 209.792969 46.03125 211.609375 46.785156 C 213.421875 47.535156 215.199219 48.375 216.929688 49.300781 C 218.664062 50.226562 220.347656 51.234375 221.980469 52.328125 C 223.613281 53.417969 225.191406 54.589844 226.710938 55.835938 C 228.226562 57.082031 229.683594 58.402344 231.070312 59.792969 C 232.460938 61.179688 233.777344 62.636719 235.027344 64.15625 C 236.273438 65.675781 237.441406 67.253906 238.535156 68.886719 C 239.625 70.523438 240.632812 72.207031 241.558594 73.941406 C 242.488281 75.675781 243.324219 77.449219 244.078125 79.265625 C 244.828125 81.082031 245.492188 82.929688 246.0625 84.8125 C 246.632812 86.695312 247.109375 88.597656 247.492188 90.527344 C 247.875 92.457031 248.164062 94.398438 248.355469 96.355469 C 248.546875 98.3125 248.644531 100.273438 248.644531 102.238281 C 248.644531 104.203125 248.546875 106.160156 248.355469 108.117188 C 248.164062 110.070312 247.875 112.007812 247.492188 113.933594 C 247.109375 115.859375 246.632812 117.761719 246.066406 119.640625 C 245.496094 121.519531 244.835938 123.367188 244.085938 125.179688 C 243.335938 126.996094 242.5 128.769531 241.574219 130.5 C 240.652344 132.230469 239.644531 133.914062 238.554688 135.546875 C 237.46875 137.179688 236.300781 138.753906 235.058594 140.273438 C 233.816406 141.792969 232.5 143.246094 231.113281 144.636719 C 229.730469 146.027344 228.277344 147.34375 226.765625 148.589844 C 225.25 149.835938 223.675781 151.007812 222.046875 152.101562 C 220.417969 153.191406 218.738281 154.203125 217.007812 155.128906 C 215.28125 156.058594 213.511719 156.898438 211.699219 157.652344 C 209.890625 158.40625 208.046875 159.070312 206.167969 159.644531 C 204.292969 160.214844 202.394531 160.695312 200.46875 161.082031 C 198.546875 161.46875 196.609375 161.757812 194.660156 161.957031 C 192.707031 162.152344 190.75 162.25 188.789062 162.253906 Z M 188.789062 47.949219 C 187.011719 47.945312 185.238281 48.027344 183.46875 48.199219 C 181.699219 48.371094 179.945312 48.628906 178.199219 48.972656 C 176.457031 49.316406 174.734375 49.746094 173.03125 50.257812 C 171.332031 50.769531 169.660156 51.367188 168.015625 52.042969 C 166.371094 52.722656 164.765625 53.480469 163.199219 54.316406 C 161.628906 55.152344 160.105469 56.0625 158.625 57.046875 C 157.148438 58.035156 155.71875 59.089844 154.34375 60.214844 C 152.96875 61.34375 151.652344 62.535156 150.394531 63.789062 C 149.132812 65.046875 147.941406 66.359375 146.808594 67.734375 C 145.679688 69.105469 144.621094 70.53125 143.632812 72.011719 C 142.640625 73.488281 141.726562 75.011719 140.886719 76.578125 C 140.046875 78.144531 139.285156 79.75 138.605469 81.394531 C 137.921875 83.035156 137.320312 84.707031 136.804688 86.410156 C 136.285156 88.109375 135.851562 89.832031 135.503906 91.578125 C 135.152344 93.320312 134.890625 95.078125 134.714844 96.847656 C 134.539062 98.617188 134.449219 100.394531 134.445312 102.171875 C 134.445312 103.949219 134.527344 105.726562 134.699219 107.496094 C 134.871094 109.265625 135.132812 111.023438 135.476562 112.769531 C 135.820312 114.515625 136.25 116.238281 136.761719 117.941406 C 137.277344 119.644531 137.875 121.316406 138.550781 122.960938 C 139.230469 124.605469 139.988281 126.214844 140.824219 127.78125 C 141.660156 129.351562 142.570312 130.878906 143.554688 132.359375 C 144.542969 133.835938 145.597656 135.265625 146.722656 136.640625 C 147.851562 138.019531 149.042969 139.335938 150.296875 140.59375 C 151.550781 141.855469 152.867188 143.046875 154.238281 144.179688 C 155.613281 145.308594 157.035156 146.367188 158.511719 147.355469 C 159.988281 148.347656 161.511719 149.261719 163.078125 150.101562 C 164.644531 150.941406 166.25 151.703125 167.890625 152.382812 C 169.53125 153.066406 171.203125 153.664062 172.902344 154.183594 C 174.601562 154.699219 176.324219 155.132812 178.066406 155.480469 C 179.808594 155.832031 181.566406 156.09375 183.335938 156.269531 C 185.101562 156.441406 186.875 156.53125 188.652344 156.53125 C 190.429688 156.535156 192.203125 156.449219 193.972656 156.273438 C 195.742188 156.101562 197.496094 155.839844 199.238281 155.496094 C 200.984375 155.148438 202.703125 154.71875 204.40625 154.203125 C 206.105469 153.6875 207.777344 153.089844 209.421875 152.410156 C 211.0625 151.730469 212.667969 150.972656 214.234375 150.132812 C 215.804688 149.296875 217.324219 148.382812 218.804688 147.394531 C 220.28125 146.40625 221.707031 145.347656 223.082031 144.222656 C 224.457031 143.09375 225.773438 141.898438 227.027344 140.644531 C 228.285156 139.386719 229.480469 138.070312 230.605469 136.695312 C 231.734375 135.320312 232.792969 133.894531 233.78125 132.414062 C 234.765625 130.933594 235.679688 129.410156 236.519531 127.84375 C 237.355469 126.273438 238.117188 124.667969 238.796875 123.023438 C 239.476562 121.382812 240.074219 119.707031 240.589844 118.007812 C 241.105469 116.304688 241.539062 114.582031 241.886719 112.835938 C 242.230469 111.089844 242.492188 109.335938 242.667969 107.5625 C 242.839844 105.792969 242.929688 104.019531 242.929688 102.238281 C 242.929688 100.464844 242.839844 98.691406 242.667969 96.925781 C 242.492188 95.15625 242.234375 93.402344 241.886719 91.660156 C 241.539062 89.917969 241.109375 88.199219 240.597656 86.5 C 240.082031 84.800781 239.484375 83.128906 238.804688 81.488281 C 238.128906 79.847656 237.371094 78.242188 236.535156 76.675781 C 235.699219 75.109375 234.789062 73.589844 233.804688 72.109375 C 232.820312 70.632812 231.765625 69.207031 230.640625 67.835938 C 229.515625 66.460938 228.328125 65.144531 227.074219 63.886719 C 225.820312 62.632812 224.507812 61.4375 223.140625 60.3125 C 221.769531 59.183594 220.347656 58.125 218.871094 57.136719 C 217.398438 56.148438 215.878906 55.234375 214.316406 54.394531 C 212.753906 53.554688 211.152344 52.792969 209.511719 52.113281 C 207.875 51.429688 206.207031 50.832031 204.511719 50.3125 C 202.8125 49.792969 201.09375 49.359375 199.355469 49.011719 C 197.617188 48.660156 195.863281 48.398438 194.097656 48.21875 C 192.332031 48.042969 190.5625 47.953125 188.789062 47.949219 Z M 188.789062 47.949219 " fill-opacity="1" fill-rule="nonzero"/><path fill="#ffffff" d="M 188.789062 253.539062 C 168.355469 253.539062 151.730469 234.339844 151.730469 210.742188 C 151.730469 187.144531 168.355469 167.945312 188.789062 167.945312 C 209.222656 167.945312 225.847656 187.144531 225.847656 210.742188 C 225.847656 234.339844 209.222656 253.539062 188.789062 253.539062 Z M 188.789062 173.667969 C 171.507812 173.667969 157.449219 190.300781 157.449219 210.742188 C 157.449219 231.183594 171.507812 247.816406 188.789062 247.816406 C 206.070312 247.816406 220.128906 231.183594 220.128906 210.742188 C 220.128906 190.300781 206.070312 173.667969 188.789062 173.667969 Z M 188.789062 173.667969 " fill-opacity="1" fill-rule="nonzero"/><g clip-path="url(#7990c13ac3)"><path fill="#ffffff" d="M 226.769531 299.183594 L 150.808594 299.183594 C 150.121094 299.183594 149.441406 299.117188 148.765625 298.980469 C 148.089844 298.847656 147.4375 298.648438 146.800781 298.382812 C 146.164062 298.117188 145.5625 297.796875 144.988281 297.414062 C 144.417969 297.03125 143.886719 296.59375 143.402344 296.109375 C 142.914062 295.621094 142.480469 295.089844 142.097656 294.519531 C 141.714844 293.945312 141.394531 293.34375 141.128906 292.707031 C 140.867188 292.070312 140.667969 291.414062 140.53125 290.738281 C 140.398438 290.0625 140.328125 289.382812 140.328125 288.695312 L 140.328125 286.53125 C 140.328125 285.265625 140.394531 284 140.519531 282.738281 C 140.644531 281.476562 140.832031 280.226562 141.078125 278.980469 C 141.328125 277.738281 141.636719 276.511719 142.003906 275.296875 C 142.371094 274.085938 142.796875 272.894531 143.285156 271.722656 C 143.769531 270.550781 144.3125 269.40625 144.90625 268.289062 C 145.503906 267.171875 146.15625 266.085938 146.859375 265.03125 C 147.5625 263.980469 148.316406 262.960938 149.121094 261.984375 C 149.925781 261.003906 150.773438 260.066406 151.667969 259.167969 C 152.566406 258.273438 153.503906 257.421875 154.480469 256.617188 C 155.460938 255.8125 156.476562 255.058594 157.527344 254.355469 C 158.582031 253.648438 159.664062 253 160.78125 252.402344 C 161.898438 251.804688 163.042969 251.261719 164.210938 250.777344 C 165.382812 250.289062 166.570312 249.863281 167.785156 249.492188 C 168.996094 249.125 170.222656 248.816406 171.464844 248.566406 C 172.707031 248.320312 173.957031 248.132812 175.214844 248.007812 C 176.476562 247.882812 177.738281 247.816406 179.007812 247.816406 L 198.570312 247.816406 C 199.835938 247.816406 201.101562 247.882812 202.359375 248.007812 C 203.621094 248.132812 204.871094 248.320312 206.113281 248.566406 C 207.355469 248.816406 208.582031 249.125 209.792969 249.492188 C 211.003906 249.863281 212.195312 250.289062 213.367188 250.777344 C 214.535156 251.261719 215.679688 251.804688 216.796875 252.402344 C 217.910156 253 218.996094 253.648438 220.050781 254.355469 C 221.101562 255.058594 222.117188 255.8125 223.097656 256.617188 C 224.074219 257.421875 225.011719 258.273438 225.90625 259.167969 C 226.804688 260.066406 227.652344 261.003906 228.457031 261.984375 C 229.261719 262.960938 230.011719 263.980469 230.71875 265.03125 C 231.421875 266.085938 232.070312 267.171875 232.667969 268.289062 C 233.265625 269.40625 233.808594 270.550781 234.292969 271.722656 C 234.777344 272.894531 235.207031 274.085938 235.574219 275.296875 C 235.941406 276.511719 236.25 277.738281 236.5 278.980469 C 236.746094 280.226562 236.933594 281.476562 237.058594 282.738281 C 237.183594 284 237.246094 285.265625 237.25 286.53125 L 237.25 288.695312 C 237.25 289.382812 237.179688 290.0625 237.046875 290.738281 C 236.910156 291.414062 236.710938 292.070312 236.449219 292.707031 C 236.183594 293.34375 235.863281 293.945312 235.480469 294.519531 C 235.097656 295.089844 234.664062 295.621094 234.175781 296.109375 C 233.691406 296.59375 233.160156 297.03125 232.589844 297.414062 C 232.015625 297.796875 231.414062 298.117188 230.777344 298.382812 C 230.140625 298.648438 229.488281 298.847656 228.8125 298.980469 C 228.136719 299.117188 227.457031 299.183594 226.769531 299.183594 Z M 179.007812 253.539062 C 177.925781 253.539062 176.851562 253.59375 175.777344 253.703125 C 174.703125 253.808594 173.636719 253.96875 172.578125 254.179688 C 171.519531 254.390625 170.476562 254.652344 169.441406 254.96875 C 168.410156 255.28125 167.394531 255.648438 166.398438 256.058594 C 165.402344 256.472656 164.425781 256.9375 163.476562 257.445312 C 162.523438 257.957031 161.601562 258.511719 160.703125 259.109375 C 159.804688 259.710938 158.941406 260.355469 158.105469 261.039062 C 157.273438 261.726562 156.472656 262.449219 155.710938 263.214844 C 154.945312 263.976562 154.222656 264.777344 153.539062 265.613281 C 152.855469 266.445312 152.210938 267.3125 151.613281 268.210938 C 151.011719 269.109375 150.457031 270.035156 149.949219 270.988281 C 149.4375 271.9375 148.976562 272.914062 148.5625 273.910156 C 148.152344 274.910156 147.785156 275.925781 147.472656 276.957031 C 147.160156 277.992188 146.894531 279.039062 146.683594 280.097656 C 146.472656 281.15625 146.3125 282.222656 146.207031 283.300781 C 146.101562 284.375 146.046875 285.453125 146.046875 286.53125 L 146.046875 288.695312 C 146.046875 289.007812 146.078125 289.316406 146.136719 289.625 C 146.199219 289.929688 146.289062 290.226562 146.410156 290.515625 C 146.527344 290.804688 146.675781 291.082031 146.847656 291.339844 C 147.023438 291.601562 147.222656 291.84375 147.441406 292.0625 C 147.664062 292.285156 147.902344 292.484375 148.164062 292.65625 C 148.421875 292.832031 148.699219 292.976562 148.988281 293.097656 C 149.277344 293.21875 149.574219 293.308594 149.878906 293.371094 C 150.1875 293.429688 150.496094 293.460938 150.808594 293.460938 L 226.769531 293.460938 C 227.082031 293.460938 227.390625 293.429688 227.699219 293.371094 C 228.003906 293.308594 228.300781 293.21875 228.589844 293.097656 C 228.878906 292.976562 229.152344 292.832031 229.414062 292.65625 C 229.671875 292.484375 229.914062 292.285156 230.136719 292.0625 C 230.355469 291.84375 230.554688 291.601562 230.726562 291.339844 C 230.902344 291.082031 231.046875 290.804688 231.167969 290.515625 C 231.289062 290.226562 231.378906 289.929688 231.441406 289.625 C 231.5 289.316406 231.53125 289.007812 231.53125 288.695312 L 231.53125 286.53125 C 231.53125 285.453125 231.476562 284.375 231.371094 283.300781 C 231.261719 282.222656 231.105469 281.15625 230.894531 280.097656 C 230.679688 279.039062 230.417969 277.992188 230.105469 276.957031 C 229.789062 275.925781 229.425781 274.910156 229.011719 273.910156 C 228.601562 272.914062 228.136719 271.9375 227.628906 270.988281 C 227.121094 270.035156 226.566406 269.109375 225.964844 268.210938 C 225.367188 267.3125 224.722656 266.445312 224.039062 265.613281 C 223.355469 264.777344 222.628906 263.976562 221.867188 263.214844 C 221.105469 262.449219 220.304688 261.726562 219.472656 261.039062 C 218.636719 260.355469 217.773438 259.710938 216.875 259.109375 C 215.976562 258.511719 215.054688 257.957031 214.101562 257.445312 C 213.148438 256.9375 212.175781 256.472656 211.179688 256.058594 C 210.183594 255.648438 209.167969 255.28125 208.136719 254.96875 C 207.101562 254.652344 206.058594 254.390625 205 254.179688 C 203.941406 253.96875 202.875 253.808594 201.800781 253.703125 C 200.726562 253.59375 199.648438 253.539062 198.570312 253.539062 Z M 179.007812 253.539062 " fill-opacity="1" fill-rule="nonzero"/></g><path fill="#ffffff" d="M 108.992188 219.152344 C 88.558594 219.152344 71.933594 199.957031 71.933594 176.355469 C 71.933594 152.753906 88.558594 133.554688 108.992188 133.554688 C 129.421875 133.554688 146.046875 152.753906 146.046875 176.355469 C 146.046875 199.957031 129.421875 219.152344 108.992188 219.152344 Z M 108.992188 139.277344 C 91.710938 139.277344 77.652344 155.910156 77.652344 176.355469 C 77.652344 196.800781 91.710938 213.433594 108.992188 213.433594 C 126.269531 213.433594 140.328125 196.800781 140.328125 176.355469 C 140.328125 155.910156 126.269531 139.277344 108.992188 139.277344 Z M 108.992188 139.277344 " fill-opacity="1" fill-rule="nonzero"/><g clip-path="url(#c976d5d1fc)"><path fill="#ffffff" d="M 146.964844 264.800781 L 71.011719 264.800781 C 70.324219 264.796875 69.644531 264.730469 68.96875 264.597656 C 68.292969 264.460938 67.640625 264.261719 67.003906 263.996094 C 66.367188 263.734375 65.765625 263.410156 65.191406 263.027344 C 64.621094 262.644531 64.09375 262.210938 63.605469 261.722656 C 63.117188 261.234375 62.683594 260.707031 62.300781 260.132812 C 61.921875 259.5625 61.597656 258.957031 61.332031 258.320312 C 61.070312 257.683594 60.871094 257.03125 60.734375 256.355469 C 60.601562 255.679688 60.53125 254.996094 60.53125 254.308594 L 60.53125 252.148438 C 60.535156 250.878906 60.597656 249.613281 60.722656 248.351562 C 60.847656 247.09375 61.035156 245.839844 61.28125 244.597656 C 61.53125 243.355469 61.839844 242.125 62.207031 240.914062 C 62.574219 239.699219 63.003906 238.507812 63.488281 237.339844 C 63.972656 236.167969 64.515625 235.023438 65.113281 233.90625 C 65.710938 232.789062 66.359375 231.703125 67.0625 230.648438 C 67.769531 229.59375 68.523438 228.578125 69.324219 227.597656 C 70.128906 226.617188 70.976562 225.679688 71.875 224.785156 C 72.769531 223.886719 73.707031 223.039062 74.683594 222.234375 C 75.664062 221.429688 76.679688 220.675781 77.734375 219.96875 C 78.785156 219.265625 79.871094 218.613281 80.988281 218.015625 C 82.101562 217.417969 83.246094 216.875 84.414062 216.390625 C 85.585938 215.90625 86.777344 215.476562 87.988281 215.109375 C 89.199219 214.738281 90.425781 214.429688 91.667969 214.183594 C 92.910156 213.933594 94.160156 213.746094 95.421875 213.621094 C 96.679688 213.496094 97.945312 213.433594 99.210938 213.433594 L 118.769531 213.433594 C 120.035156 213.433594 121.296875 213.496094 122.558594 213.621094 C 123.820312 213.746094 125.070312 213.933594 126.3125 214.183594 C 127.554688 214.429688 128.78125 214.738281 129.992188 215.109375 C 131.203125 215.476562 132.394531 215.90625 133.5625 216.390625 C 134.734375 216.875 135.875 217.417969 136.992188 218.015625 C 138.109375 218.613281 139.195312 219.265625 140.246094 219.96875 C 141.300781 220.675781 142.316406 221.429688 143.292969 222.234375 C 144.273438 223.039062 145.210938 223.886719 146.105469 224.785156 C 147 225.679688 147.851562 226.617188 148.652344 227.597656 C 149.457031 228.578125 150.210938 229.59375 150.914062 230.648438 C 151.621094 231.703125 152.269531 232.789062 152.867188 233.90625 C 153.464844 235.023438 154.007812 236.167969 154.492188 237.339844 C 154.976562 238.507812 155.402344 239.699219 155.773438 240.914062 C 156.140625 242.125 156.449219 243.355469 156.695312 244.597656 C 156.945312 245.839844 157.132812 247.09375 157.257812 248.351562 C 157.382812 249.613281 157.445312 250.878906 157.449219 252.148438 L 157.449219 254.308594 C 157.445312 254.996094 157.378906 255.679688 157.242188 256.355469 C 157.109375 257.03125 156.910156 257.683594 156.644531 258.320312 C 156.382812 258.957031 156.058594 259.5625 155.675781 260.132812 C 155.292969 260.707031 154.859375 261.234375 154.375 261.722656 C 153.886719 262.210938 153.359375 262.644531 152.785156 263.027344 C 152.214844 263.410156 151.609375 263.734375 150.976562 263.996094 C 150.339844 264.261719 149.683594 264.460938 149.011719 264.597656 C 148.335938 264.730469 147.652344 264.796875 146.964844 264.800781 Z M 99.210938 219.152344 C 98.132812 219.15625 97.054688 219.210938 95.980469 219.316406 C 94.90625 219.421875 93.839844 219.582031 92.78125 219.792969 C 91.722656 220.003906 90.679688 220.269531 89.648438 220.582031 C 88.613281 220.898438 87.597656 221.261719 86.601562 221.675781 C 85.605469 222.089844 84.632812 222.550781 83.679688 223.0625 C 82.730469 223.570312 81.804688 224.125 80.90625 224.726562 C 80.011719 225.324219 79.144531 225.96875 78.308594 226.65625 C 77.476562 227.339844 76.675781 228.066406 75.914062 228.828125 C 75.152344 229.59375 74.425781 230.390625 73.742188 231.226562 C 73.058594 232.0625 72.414062 232.929688 71.816406 233.824219 C 71.214844 234.722656 70.660156 235.648438 70.152344 236.601562 C 69.644531 237.554688 69.183594 238.527344 68.769531 239.527344 C 68.355469 240.523438 67.992188 241.539062 67.675781 242.574219 C 67.363281 243.605469 67.101562 244.652344 66.890625 245.710938 C 66.675781 246.773438 66.519531 247.839844 66.410156 248.914062 C 66.304688 249.988281 66.25 251.066406 66.25 252.148438 L 66.25 254.308594 C 66.25 254.621094 66.28125 254.929688 66.339844 255.238281 C 66.402344 255.546875 66.492188 255.84375 66.613281 256.132812 C 66.734375 256.421875 66.878906 256.695312 67.054688 256.957031 C 67.226562 257.214844 67.425781 257.457031 67.644531 257.679688 C 67.867188 257.898438 68.109375 258.097656 68.367188 258.273438 C 68.628906 258.445312 68.902344 258.59375 69.191406 258.710938 C 69.480469 258.832031 69.777344 258.921875 70.085938 258.984375 C 70.390625 259.046875 70.699219 259.078125 71.011719 259.078125 L 146.964844 259.078125 C 147.277344 259.078125 147.589844 259.046875 147.894531 258.984375 C 148.203125 258.921875 148.5 258.832031 148.789062 258.710938 C 149.078125 258.59375 149.351562 258.445312 149.613281 258.273438 C 149.871094 258.097656 150.113281 257.898438 150.332031 257.679688 C 150.554688 257.457031 150.753906 257.214844 150.925781 256.957031 C 151.101562 256.695312 151.246094 256.421875 151.367188 256.132812 C 151.484375 255.84375 151.578125 255.546875 151.636719 255.238281 C 151.699219 254.929688 151.730469 254.621094 151.730469 254.308594 L 151.730469 252.148438 C 151.730469 251.066406 151.675781 249.988281 151.566406 248.914062 C 151.460938 247.839844 151.300781 246.773438 151.089844 245.710938 C 150.878906 244.652344 150.617188 243.605469 150.300781 242.574219 C 149.988281 241.539062 149.625 240.523438 149.210938 239.527344 C 148.796875 238.527344 148.335938 237.554688 147.828125 236.601562 C 147.316406 235.648438 146.765625 234.722656 146.164062 233.824219 C 145.5625 232.929688 144.921875 232.0625 144.238281 231.226562 C 143.550781 230.390625 142.828125 229.59375 142.066406 228.828125 C 141.300781 228.066406 140.503906 227.339844 139.667969 226.65625 C 138.835938 225.96875 137.96875 225.324219 137.074219 224.726562 C 136.175781 224.125 135.25 223.570312 134.300781 223.0625 C 133.347656 222.550781 132.375 222.089844 131.378906 221.675781 C 130.378906 221.261719 129.367188 220.898438 128.332031 220.582031 C 127.300781 220.269531 126.253906 220.003906 125.195312 219.792969 C 124.136719 219.582031 123.074219 219.421875 122 219.316406 C 120.925781 219.210938 119.847656 219.15625 118.769531 219.152344 Z M 99.210938 219.152344 " fill-opacity="1" fill-rule="nonzero"/></g><path fill="#ffffff" d="M 268.589844 219.308594 C 248.15625 219.308594 231.53125 200.109375 231.53125 176.511719 C 231.53125 152.910156 248.15625 133.714844 268.589844 133.714844 C 289.019531 133.714844 305.644531 152.910156 305.644531 176.511719 C 305.644531 200.109375 289.019531 219.308594 268.589844 219.308594 Z M 268.589844 139.433594 C 251.308594 139.433594 237.25 156.066406 237.25 176.511719 C 237.25 196.953125 251.308594 213.585938 268.589844 213.585938 C 285.867188 213.585938 299.925781 196.953125 299.925781 176.511719 C 299.925781 156.066406 285.867188 139.433594 268.589844 139.433594 Z M 268.589844 139.433594 " fill-opacity="1" fill-rule="nonzero"/><g clip-path="url(#853d8783e4)"><path fill="#ffffff" d="M 306.5625 264.953125 L 230.609375 264.953125 C 229.921875 264.953125 229.242188 264.882812 228.566406 264.75 C 227.894531 264.613281 227.238281 264.414062 226.601562 264.148438 C 225.964844 263.886719 225.363281 263.5625 224.792969 263.179688 C 224.21875 262.796875 223.691406 262.363281 223.203125 261.875 C 222.71875 261.390625 222.28125 260.859375 221.898438 260.285156 C 221.519531 259.714844 221.195312 259.109375 220.929688 258.472656 C 220.667969 257.839844 220.46875 257.183594 220.332031 256.507812 C 220.199219 255.832031 220.132812 255.148438 220.128906 254.460938 L 220.128906 252.300781 C 220.132812 251.03125 220.195312 249.765625 220.320312 248.507812 C 220.445312 247.246094 220.632812 245.992188 220.878906 244.75 C 221.128906 243.507812 221.4375 242.277344 221.804688 241.066406 C 222.175781 239.851562 222.601562 238.660156 223.085938 237.492188 C 223.570312 236.320312 224.113281 235.175781 224.710938 234.058594 C 225.308594 232.941406 225.957031 231.855469 226.664062 230.800781 C 227.367188 229.746094 228.121094 228.730469 228.921875 227.75 C 229.726562 226.769531 230.578125 225.832031 231.472656 224.9375 C 232.367188 224.039062 233.304688 223.191406 234.28125 222.386719 C 235.261719 221.582031 236.277344 220.828125 237.332031 220.121094 C 238.382812 219.417969 239.46875 218.765625 240.585938 218.167969 C 241.699219 217.570312 242.84375 217.027344 244.015625 216.542969 C 245.183594 216.058594 246.375 215.628906 247.585938 215.261719 C 248.796875 214.890625 250.023438 214.582031 251.265625 214.335938 C 252.507812 214.085938 253.757812 213.898438 255.019531 213.773438 C 256.277344 213.648438 257.542969 213.585938 258.808594 213.585938 L 278.367188 213.585938 C 279.632812 213.585938 280.894531 213.648438 282.15625 213.773438 C 283.417969 213.898438 284.667969 214.085938 285.910156 214.335938 C 287.152344 214.582031 288.378906 214.890625 289.589844 215.261719 C 290.800781 215.628906 291.992188 216.058594 293.160156 216.542969 C 294.332031 217.027344 295.472656 217.570312 296.589844 218.167969 C 297.707031 218.765625 298.792969 219.417969 299.84375 220.121094 C 300.898438 220.828125 301.914062 221.582031 302.890625 222.386719 C 303.871094 223.191406 304.808594 224.039062 305.703125 224.9375 C 306.597656 225.832031 307.449219 226.769531 308.253906 227.75 C 309.054688 228.730469 309.808594 229.746094 310.511719 230.800781 C 311.21875 231.855469 311.867188 232.941406 312.464844 234.058594 C 313.0625 235.175781 313.605469 236.320312 314.089844 237.492188 C 314.574219 238.660156 315 239.851562 315.371094 241.066406 C 315.738281 242.277344 316.046875 243.507812 316.292969 244.75 C 316.542969 245.992188 316.730469 247.246094 316.855469 248.507812 C 316.980469 249.765625 317.042969 251.03125 317.046875 252.300781 L 317.046875 254.460938 C 317.042969 255.148438 316.976562 255.832031 316.84375 256.507812 C 316.707031 257.183594 316.507812 257.839844 316.246094 258.472656 C 315.980469 259.109375 315.65625 259.714844 315.273438 260.285156 C 314.894531 260.859375 314.457031 261.390625 313.972656 261.875 C 313.484375 262.363281 312.957031 262.796875 312.382812 263.179688 C 311.8125 263.5625 311.207031 263.886719 310.574219 264.148438 C 309.9375 264.414062 309.28125 264.613281 308.609375 264.75 C 307.933594 264.882812 307.253906 264.953125 306.5625 264.953125 Z M 258.808594 219.308594 C 257.730469 219.308594 256.652344 219.363281 255.578125 219.46875 C 254.503906 219.574219 253.4375 219.734375 252.378906 219.945312 C 251.324219 220.160156 250.277344 220.421875 249.246094 220.734375 C 248.210938 221.050781 247.199219 221.414062 246.199219 221.828125 C 245.203125 222.242188 244.230469 222.703125 243.277344 223.214844 C 242.328125 223.722656 241.402344 224.277344 240.503906 224.878906 C 239.609375 225.480469 238.742188 226.121094 237.90625 226.808594 C 237.074219 227.492188 236.273438 228.21875 235.511719 228.980469 C 234.75 229.746094 234.023438 230.542969 233.339844 231.378906 C 232.65625 232.214844 232.011719 233.082031 231.414062 233.976562 C 230.8125 234.875 230.257812 235.800781 229.75 236.753906 C 229.242188 237.707031 228.78125 238.683594 228.367188 239.679688 C 227.953125 240.675781 227.589844 241.691406 227.273438 242.726562 C 226.960938 243.761719 226.699219 244.804688 226.488281 245.867188 C 226.273438 246.925781 226.117188 247.992188 226.007812 249.066406 C 225.902344 250.140625 225.847656 251.21875 225.847656 252.300781 L 225.847656 254.460938 C 225.847656 254.773438 225.878906 255.085938 225.941406 255.390625 C 226 255.699219 226.089844 255.996094 226.210938 256.285156 C 226.332031 256.574219 226.476562 256.847656 226.652344 257.109375 C 226.824219 257.371094 227.023438 257.609375 227.242188 257.832031 C 227.464844 258.054688 227.707031 258.25 227.964844 258.425781 C 228.226562 258.597656 228.5 258.746094 228.789062 258.867188 C 229.078125 258.984375 229.375 259.074219 229.683594 259.136719 C 229.988281 259.199219 230.296875 259.230469 230.609375 259.230469 L 306.5625 259.230469 C 306.875 259.230469 307.1875 259.199219 307.492188 259.136719 C 307.800781 259.074219 308.097656 258.984375 308.386719 258.867188 C 308.675781 258.746094 308.949219 258.597656 309.210938 258.425781 C 309.46875 258.25 309.710938 258.054688 309.929688 257.832031 C 310.152344 257.609375 310.351562 257.371094 310.523438 257.109375 C 310.699219 256.847656 310.84375 256.574219 310.964844 256.285156 C 311.085938 255.996094 311.175781 255.699219 311.234375 255.390625 C 311.296875 255.085938 311.328125 254.773438 311.328125 254.460938 L 311.328125 252.300781 C 311.328125 251.21875 311.273438 250.140625 311.167969 249.066406 C 311.058594 247.992188 310.898438 246.925781 310.6875 245.867188 C 310.476562 244.804688 310.214844 243.761719 309.902344 242.726562 C 309.585938 241.691406 309.222656 240.675781 308.808594 239.679688 C 308.394531 238.683594 307.933594 237.707031 307.425781 236.753906 C 306.917969 235.800781 306.363281 234.875 305.761719 233.976562 C 305.160156 233.082031 304.519531 232.214844 303.835938 231.378906 C 303.148438 230.542969 302.425781 229.746094 301.664062 228.980469 C 300.898438 228.21875 300.101562 227.492188 299.265625 226.808594 C 298.433594 226.121094 297.566406 225.480469 296.671875 224.878906 C 295.773438 224.277344 294.847656 223.722656 293.898438 223.214844 C 292.945312 222.703125 291.972656 222.242188 290.976562 221.828125 C 289.976562 221.414062 288.964844 221.050781 287.929688 220.734375 C 286.898438 220.421875 285.851562 220.160156 284.792969 219.945312 C 283.738281 219.734375 282.671875 219.574219 281.597656 219.46875 C 280.523438 219.363281 279.445312 219.308594 278.367188 219.308594 Z M 258.808594 219.308594 " fill-opacity="1" fill-rule="nonzero"/></g></svg>