<svg xmlns="http://www.w3.org/2000/svg" xmlns:xlink="http://www.w3.org/1999/xlink" width="500" zoomAndPan="magnify" viewBox="0 0 375 374.999991" height="500" preserveAspectRatio="xMidYMid meet" version="1.0"><defs><clipPath id="a3e0f75451"><path d="M 37.5 152 L 338 152 L 338 337.851562 L 37.5 337.851562 Z M 37.5 152 " clip-rule="nonzero"/></clipPath><clipPath id="555063022d"><path d="M 65 37.851562 L 156 37.851562 L 156 148 L 65 148 Z M 65 37.851562 " clip-rule="nonzero"/></clipPath></defs><g clip-path="url(#a3e0f75451)"><path fill="#ffffff" d="M 314.269531 199.667969 C 311.089844 194.214844 305.179688 191.03125 299.273438 191.03125 L 265.644531 191.03125 C 264.28125 191.03125 263.371094 191.488281 262.460938 192.398438 C 261.554688 193.304688 261.097656 194.214844 261.097656 195.578125 L 261.097656 269.667969 L 178.84375 269.667969 C 180.660156 267.398438 182.023438 264.667969 183.386719 261.941406 C 188.386719 251.941406 191.113281 240.578125 191.113281 228.761719 C 191.113281 187.851562 157.484375 152.851562 114.3125 152.851562 C 71.136719 152.851562 37.507812 187.851562 37.507812 228.761719 C 37.507812 270.578125 72.046875 304.667969 114.3125 304.667969 C 122.492188 304.667969 130.21875 303.304688 137.488281 301.03125 L 137.488281 307.398438 C 137.488281 310.125 139.304688 311.941406 142.03125 311.941406 L 166.574219 311.941406 C 166.574219 312.398438 166.574219 312.398438 166.574219 312.851562 C 166.574219 326.488281 177.933594 337.851562 191.566406 337.851562 C 205.203125 337.851562 216.5625 326.488281 216.5625 312.851562 C 216.5625 312.398438 216.5625 312.398438 216.5625 311.941406 L 266.097656 311.941406 C 266.097656 312.398438 266.097656 312.398438 266.097656 312.851562 C 266.097656 326.488281 277.457031 337.851562 291.09375 337.851562 C 304.726562 337.851562 316.085938 326.488281 316.085938 312.851562 C 316.085938 312.398438 316.085938 312.398438 316.085938 311.941406 L 332.902344 311.941406 C 335.628906 311.941406 337.445312 310.125 337.445312 307.398438 L 337.445312 242.851562 C 337.445312 239.667969 336.539062 236.488281 334.71875 233.761719 Z M 306.542969 204.214844 L 327.449219 238.304688 L 270.1875 238.304688 L 270.1875 200.125 L 299.273438 200.125 C 302 200.125 304.726562 201.941406 306.542969 204.214844 Z M 270.1875 247.398438 L 328.355469 247.398438 L 328.355469 269.667969 L 270.1875 269.667969 Z M 130.21875 293.761719 C 134.761719 286.488281 137.941406 276.488281 140.667969 265.125 L 171.570312 265.125 C 162.027344 279.214844 147.03125 289.667969 130.21875 293.761719 Z M 97.496094 264.667969 L 131.125 264.667969 C 127.035156 284.214844 119.765625 295.578125 114.3125 295.578125 C 108.859375 295.578125 101.585938 284.214844 97.496094 264.667969 Z M 52.507812 201.488281 L 86.589844 201.488281 C 85.679688 208.761719 84.773438 216.488281 84.773438 223.761719 L 46.597656 223.761719 C 47.507812 216.03125 49.324219 208.761719 52.507812 201.488281 Z M 114.3125 161.941406 C 119.765625 161.941406 127.035156 173.304688 131.125 192.851562 L 97.496094 192.851562 C 101.585938 173.304688 108.859375 161.941406 114.3125 161.941406 Z M 132.945312 201.488281 C 133.851562 208.304688 134.761719 215.578125 134.761719 223.761719 L 94.316406 223.761719 C 94.316406 215.578125 95.222656 207.851562 96.132812 201.488281 Z M 176.117188 255.578125 L 142.03125 255.578125 C 142.941406 248.304688 143.851562 240.578125 143.851562 233.304688 L 182.023438 233.304688 C 181.117188 241.03125 179.296875 248.761719 176.117188 255.578125 Z M 181.570312 224.214844 L 143.394531 224.214844 C 143.394531 216.488281 142.488281 209.214844 141.578125 201.941406 L 175.660156 201.941406 C 179.296875 208.761719 181.117188 216.03125 181.570312 224.214844 Z M 46.597656 233.304688 L 84.773438 233.304688 C 84.773438 241.03125 85.679688 248.304688 86.589844 255.578125 L 52.507812 255.578125 C 49.324219 248.761719 47.507812 241.03125 46.597656 233.304688 Z M 93.859375 233.304688 L 134.308594 233.304688 C 134.308594 241.488281 133.398438 249.214844 132.488281 255.578125 L 95.679688 255.578125 C 94.769531 248.761719 94.316406 241.488281 93.859375 233.304688 Z M 171.117188 192.398438 L 140.214844 192.398438 C 137.941406 181.03125 134.308594 170.578125 129.761719 163.761719 C 147.03125 167.851562 162.027344 178.304688 171.117188 192.398438 Z M 98.40625 163.761719 C 93.859375 171.03125 90.679688 181.03125 87.953125 192.398438 L 57.503906 192.398438 C 66.59375 178.304688 81.136719 167.851562 98.40625 163.761719 Z M 57.503906 264.667969 L 88.40625 264.667969 C 90.679688 276.03125 94.316406 286.488281 98.859375 293.304688 C 81.136719 289.667969 66.59375 279.214844 57.503906 264.667969 Z M 191.566406 328.761719 C 182.933594 328.761719 175.660156 321.488281 175.660156 312.851562 C 175.660156 304.214844 182.933594 296.941406 191.566406 296.941406 C 200.203125 296.941406 207.472656 304.214844 207.472656 312.851562 C 207.929688 321.488281 200.65625 328.761719 191.566406 328.761719 Z M 291.09375 328.761719 C 282.457031 328.761719 275.1875 321.488281 275.1875 312.851562 C 275.1875 304.214844 282.457031 296.941406 291.09375 296.941406 C 299.726562 296.941406 307 304.214844 307 312.851562 C 307.453125 321.488281 300.179688 328.761719 291.09375 328.761719 Z M 328.355469 302.851562 L 314.269531 302.851562 C 310.632812 293.761719 301.542969 287.851562 291.09375 287.851562 C 280.640625 287.851562 272.003906 294.214844 267.914062 302.851562 L 214.746094 302.851562 C 211.109375 293.761719 202.019531 287.851562 191.566406 287.851562 C 181.117188 287.851562 172.480469 294.214844 168.390625 302.851562 L 146.578125 302.851562 L 146.578125 297.398438 C 156.121094 292.851562 164.753906 286.488281 171.570312 278.761719 L 328.355469 278.761719 Z M 328.355469 302.851562 " fill-opacity="1" fill-rule="nonzero"/></g><path fill="#ffffff" d="M 149.304688 120.578125 C 149.304688 121.941406 150.210938 123.304688 151.578125 124.214844 L 167.9375 134.667969 C 162.484375 140.578125 158.847656 144.667969 160.664062 149.214844 C 162.027344 152.398438 165.210938 152.851562 170.207031 152.851562 C 172.027344 152.851562 174.296875 152.851562 176.570312 152.398438 L 173.84375 171.488281 C 173.84375 172.851562 174.296875 174.214844 175.207031 175.578125 C 176.117188 176.488281 177.933594 176.941406 179.296875 176.941406 L 189.75 175.125 C 191.113281 174.667969 192.476562 173.761719 192.929688 172.398438 L 203.382812 149.214844 C 217.472656 145.578125 240.195312 138.761719 266.097656 128.761719 L 268.824219 167.398438 C 268.824219 170.578125 272.003906 172.398438 275.1875 171.488281 L 290.636719 165.578125 C 292 165.125 293.363281 163.761719 293.363281 162.398438 L 302.90625 110.578125 C 330.628906 94.214844 341.992188 79.667969 336.082031 66.488281 C 330.175781 53.761719 311.542969 52.851562 281.09375 63.761719 L 234.742188 38.761719 C 233.378906 37.851562 231.558594 37.851562 230.195312 38.761719 L 216.109375 46.941406 C 214.746094 47.851562 213.835938 48.761719 213.835938 50.578125 C 213.835938 51.941406 214.289062 53.304688 215.199219 54.214844 L 243.375 81.03125 C 219.289062 94.667969 199.292969 107.851562 187.476562 116.03125 L 162.9375 109.214844 C 161.574219 108.761719 159.757812 109.214844 158.847656 110.125 L 150.667969 116.941406 C 149.757812 117.851562 149.304688 119.214844 149.304688 120.578125 Z M 162.9375 118.304688 L 187.476562 125.125 C 188.386719 125.578125 190.203125 125.125 191.566406 124.214844 C 203.382812 115.125 226.105469 100.578125 253.371094 85.578125 C 256.101562 84.214844 256.554688 80.125 254.28125 78.304688 L 225.652344 51.488281 L 232.46875 47.851562 L 278.367188 72.851562 C 278.367188 72.851562 278.820312 72.851562 278.820312 72.851562 C 279.730469 73.304688 280.640625 73.304688 282.003906 72.851562 C 307.453125 63.304688 323.8125 62.398438 327.449219 70.125 C 331.082031 77.851562 319.722656 90.125 296.546875 103.304688 C 295.636719 103.761719 294.726562 105.125 294.273438 106.488281 L 284.277344 157.398438 L 277.003906 160.578125 L 274.277344 121.488281 C 274.277344 118.761719 271.097656 116.488281 267.914062 117.398438 C 238.832031 129.214844 212.925781 136.941406 198.382812 140.125 C 197.476562 140.578125 195.65625 141.488281 195.203125 142.851562 L 184.75 166.03125 L 182.933594 166.488281 L 185.207031 148.304688 C 185.660156 145.578125 183.386719 143.304688 180.660156 143.304688 C 177.480469 143.304688 173.84375 143.761719 171.117188 143.761719 C 172.933594 141.488281 175.660156 138.761719 177.480469 136.488281 C 179.296875 134.667969 178.84375 131.03125 176.570312 129.667969 L 161.574219 119.667969 Z M 162.9375 118.304688 " fill-opacity="1" fill-rule="nonzero"/><g clip-path="url(#555063022d)"><path fill="#ffffff" d="M 106.585938 146.03125 C 107.496094 146.941406 108.859375 147.851562 110.222656 147.851562 C 111.585938 147.851562 112.949219 147.398438 113.855469 146.03125 L 154.304688 92.851562 C 155.210938 91.488281 155.667969 89.667969 154.757812 88.304688 C 153.847656 86.941406 152.484375 85.578125 150.667969 85.578125 L 133.398438 85.578125 L 133.398438 42.398438 C 133.398438 39.667969 131.582031 37.851562 128.855469 37.851562 L 91.589844 37.851562 C 88.863281 37.851562 87.042969 39.667969 87.042969 42.398438 L 87.042969 85.578125 L 69.773438 85.578125 C 67.957031 85.578125 66.59375 86.488281 65.683594 88.304688 C 64.777344 89.667969 65.230469 91.488281 66.140625 92.851562 Z M 91.589844 94.667969 C 94.316406 94.667969 96.132812 92.851562 96.132812 90.125 L 96.132812 46.941406 L 124.308594 46.941406 L 124.308594 90.125 C 124.308594 92.851562 126.128906 94.667969 128.855469 94.667969 L 141.578125 94.667969 L 110.675781 135.578125 L 79.320312 94.667969 Z M 91.589844 94.667969 " fill-opacity="1" fill-rule="nonzero"/></g><path fill="#ffffff" d="M 250.191406 230.125 L 204.292969 230.125 C 201.566406 230.125 199.746094 231.941406 199.746094 234.667969 L 199.746094 260.125 C 199.746094 262.851562 201.566406 264.667969 204.292969 264.667969 L 250.191406 264.667969 C 252.917969 264.667969 254.738281 262.851562 254.738281 260.125 L 254.738281 234.667969 C 254.738281 232.398438 252.464844 230.125 250.191406 230.125 Z M 245.648438 255.578125 L 208.835938 255.578125 L 208.835938 239.214844 L 245.648438 239.214844 Z M 245.648438 255.578125 " fill-opacity="1" fill-rule="nonzero"/><path fill="#ffffff" d="M 254.738281 195.578125 C 254.738281 192.851562 252.917969 191.03125 250.191406 191.03125 L 204.292969 191.03125 C 201.566406 191.03125 199.746094 192.851562 199.746094 195.578125 L 199.746094 221.03125 C 199.746094 223.761719 201.566406 225.578125 204.292969 225.578125 L 250.191406 225.578125 C 252.917969 225.578125 254.738281 223.761719 254.738281 221.03125 Z M 245.648438 216.488281 L 208.835938 216.488281 L 208.835938 200.125 L 245.648438 200.125 Z M 245.648438 216.488281 " fill-opacity="1" fill-rule="nonzero"/></svg>