<?xml version="1.0" encoding="UTF-8" standalone="no"?>
<!DOCTYPE svg PUBLIC "-//W3C//DTD SVG 1.1//EN" "http://www.w3.org/Graphics/SVG/1.1/DTD/svg11.dtd">
<svg width="100%" height="100%" viewBox="0 0 882 882" version="1.1" xmlns="http://www.w3.org/2000/svg" xmlns:xlink="http://www.w3.org/1999/xlink" xml:space="preserve" xmlns:serif="http://www.serif.com/" style="fill-rule:evenodd;clip-rule:evenodd;stroke-linejoin:round;stroke-miterlimit:2;">
    <g transform="matrix(1,0,0,1,-197.859,-31.958)">
        <g>
            <clipPath id="_clip1">
                <path d="M638.49,31.958C837.536,31.958 1011.87,165.401 1063.84,357.542L851.167,415.068C825.182,318.995 738.016,252.271 638.49,252.271L638.49,31.958"/>
            </clipPath>
            <g clip-path="url(#_clip1)">
                <rect x="197.859" y="31.958" width="881.266" height="881.266" style="fill:rgb(65,126,92);"/>
            </g>
        </g>
        <g>
            <clipPath id="_clip2">
                <path d="M1057.56,336.427C1088.65,432.099 1086.06,535.526 1050.23,629.526L844.359,551.057C862.276,504.057 863.568,452.344 848.026,404.51L1057.56,336.427"/>
            </clipPath>
            <g clip-path="url(#_clip2)">
                <rect x="197.859" y="31.958" width="881.266" height="881.266" style="fill:rgb(123,169,142);"/>
            </g>
        </g>
        <g>
            <clipPath id="_clip3">
                <path d="M1057.56,608.75C1012.77,746.599 903.057,853.599 764.135,894.927C625.214,936.255 474.854,906.625 362,815.677L500.245,644.135C556.672,689.609 631.854,704.422 701.313,683.76C770.776,663.094 825.63,609.594 848.026,540.672L1057.56,608.75"/>
            </clipPath>
            <g clip-path="url(#_clip3)">
                <rect x="197.859" y="31.958" width="881.266" height="881.266" style="fill:rgb(39,108,119);"/>
            </g>
        </g>
        <g>
            <clipPath id="_clip4">
                <path d="M379.495,829.068C218.464,712.073 155.859,501.646 226.755,315.651L432.625,394.12C397.177,487.12 428.479,592.328 508.995,650.828L379.495,829.068"/>
            </clipPath>
            <g clip-path="url(#_clip4)">
                <rect x="197.859" y="31.958" width="881.266" height="881.266" style="fill:rgb(121,195,166);"/>
            </g>
        </g>
        <g>
            <clipPath id="_clip5">
                <path d="M219.427,336.427C278.411,154.891 447.573,31.974 638.448,31.958L638.469,252.271C543.031,252.281 458.453,313.74 428.958,404.51L219.427,336.427"/>
            </clipPath>
            <g clip-path="url(#_clip5)">
                <rect x="197.859" y="31.958" width="881.266" height="881.266" style="fill:rgb(138,189,196);"/>
            </g>
        </g>
        <g transform="matrix(1,0,0,1,464.618,459.645)">
            <path d="M5.839,-33.854L16.063,-19.901L26.292,-33.687C27.068,-34.74 28.073,-35.406 29.292,-35.406C31.406,-35.406 33.297,-32.906 31.516,-30.516L19.344,-14.229L19.344,-3.333C19.344,-1.276 17.563,0 16.12,0C14.339,0 12.896,-1.276 12.896,-3.333L12.896,-14.229L0.443,-30.682C-1.276,-32.964 0.609,-35.406 2.891,-35.406C4.115,-35.406 5.115,-34.854 5.839,-33.854ZM71.809,-17.677C71.809,-6.724 64.58,0.557 53.741,0.557C42.851,0.557 35.512,-6.724 35.512,-17.677C35.512,-28.625 42.851,-35.964 53.741,-35.964C64.58,-35.964 71.809,-28.625 71.809,-17.677ZM53.741,-5.115C60.689,-5.115 65.304,-10.172 65.304,-17.677C65.304,-25.234 60.689,-30.292 53.741,-30.292C46.741,-30.292 42.069,-25.234 42.069,-17.677C42.069,-10.172 46.741,-5.115 53.741,-5.115ZM105.814,-32.464C105.814,-34.464 107.429,-35.406 109.095,-35.406C110.762,-35.406 112.319,-34.464 112.319,-32.516L112.319,-15.62C112.319,-5.948 105.647,0.557 95.59,0.557C85.528,0.557 78.856,-5.948 78.856,-15.62L78.856,-32.63C78.856,-34.464 80.413,-35.406 82.08,-35.406C83.752,-35.406 85.418,-34.521 85.418,-32.573L85.418,-15.62C85.418,-9.448 89.475,-5.281 95.533,-5.281C101.705,-5.281 105.814,-9.448 105.814,-15.62L105.814,-32.464ZM149.941,-5.448C153.332,-1.891 148.665,1.948 145.884,-1.057L135.936,-11.672L127.54,-11.672L127.54,-2.891C127.54,-1 125.873,0 124.316,0C122.649,0 121.092,-1 121.092,-2.833L121.092,-32.516C121.092,-34.24 122.425,-35.406 124.316,-35.406L136.712,-35.406C146.66,-35.406 151.722,-30.073 151.722,-23.401C151.722,-18.177 148.941,-14.062 143.269,-12.453L149.941,-5.448ZM127.54,-17.062L136.769,-17.062C142.717,-17.062 145.326,-19.953 145.217,-23.344C145.16,-27.016 141.993,-29.792 136.769,-29.792L127.54,-29.792L127.54,-17.062ZM169.94,-8.396C169.382,-10.562 171.382,-11.896 173.33,-11.896C174.773,-11.896 176.106,-11.172 176.388,-9.729C177.612,-6.115 182.721,-5.281 186.445,-5.281C190.341,-5.281 196.45,-6.281 196.45,-10.672C196.45,-14.172 191.393,-14.62 186.445,-15.01C178.888,-15.62 170.273,-16.677 170.273,-25.125C170.273,-32.74 178.945,-35.964 185.893,-35.964C191.674,-35.964 199.065,-34.297 201.679,-28.182C202.289,-26.125 200.398,-24.568 198.507,-24.568C197.289,-24.568 196.117,-25.125 195.674,-26.125C194.341,-29.573 189.335,-30.016 185.945,-30.016C182.945,-30.016 176.94,-28.958 176.94,-25.068C176.94,-21.458 181.612,-21.01 187.059,-20.62C194.783,-19.901 203.122,-19.568 203.122,-10.729C203.122,-1.891 193.393,0.557 186.445,0.557C180.664,0.557 171.83,-1.443 169.94,-8.396ZM224.901,-35.964C230.349,-35.964 235.13,-34.521 238.745,-30.464C241.745,-27.068 237.021,-23.568 234.13,-26.682C231.349,-29.682 228.292,-30.292 224.849,-30.292C217.787,-30.292 213.12,-25.401 213.12,-18.12C213.12,-10.281 217.901,-5.115 225.125,-5.115C228.625,-5.115 232.406,-7.115 234.521,-9.672C237.521,-13.286 242.302,-10.115 239.578,-6.339C236.521,-2.057 230.464,0.557 225.016,0.557C214.063,0.557 206.724,-6.891 206.724,-18.12C206.724,-28.849 214.62,-35.964 224.901,-35.964ZM280.036,-17.677C280.036,-6.724 272.807,0.557 261.968,0.557C251.078,0.557 243.739,-6.724 243.739,-17.677C243.739,-28.625 251.078,-35.964 261.968,-35.964C272.807,-35.964 280.036,-28.625 280.036,-17.677ZM261.968,-5.115C268.916,-5.115 273.531,-10.172 273.531,-17.677C273.531,-25.234 268.916,-30.292 261.968,-30.292C254.968,-30.292 250.296,-25.234 250.296,-17.677C250.296,-10.172 254.968,-5.115 261.968,-5.115ZM315.989,-5.448C319.38,-1.891 314.713,1.948 311.932,-1.057L301.984,-11.672L293.588,-11.672L293.588,-2.891C293.588,-1 291.921,0 290.364,0C288.697,0 287.14,-1 287.14,-2.833L287.14,-32.516C287.14,-34.24 288.473,-35.406 290.364,-35.406L302.76,-35.406C312.708,-35.406 317.77,-30.073 317.77,-23.401C317.77,-18.177 314.989,-14.062 309.317,-12.453L315.989,-5.448ZM293.588,-17.062L302.817,-17.062C308.765,-17.062 311.374,-19.953 311.265,-23.344C311.208,-27.016 308.041,-29.792 302.817,-29.792L293.588,-29.792L293.588,-17.062ZM349.384,-5.557C351.332,-5.557 352.442,-4.057 352.442,-2.667C352.442,-1.333 351.442,0 349.384,0L327.317,0C325.093,0 323.65,-1.5 323.65,-3.333L323.65,-32.13C323.65,-33.906 325.093,-35.406 327.317,-35.406L349.384,-35.406C351.39,-35.406 352.332,-34.13 352.332,-32.74C352.332,-31.406 351.275,-29.958 349.384,-29.958L329.989,-29.958L329.989,-20.234L348.384,-20.234C350.275,-20.234 351.275,-18.844 351.275,-17.453C351.275,-16.12 350.332,-14.786 348.384,-14.786L329.989,-14.786L329.989,-5.557L349.384,-5.557ZM161.906,71.995C166.801,71.995 169.525,69.052 169.635,64.38C167.411,66.052 164.577,66.828 162.072,66.828C154.124,66.828 148.791,61.823 148.734,54.266C148.676,46.203 155.406,41.036 162.577,41.036C169.244,41.036 175.749,45.594 175.749,52.984L175.749,64.104C175.749,72.333 169.968,77.557 161.853,77.557C157.739,77.557 153.572,76.609 150.9,73.385C149.458,71.495 154.182,67.771 155.682,69.552C157.072,71.276 159.63,71.995 161.906,71.995ZM162.577,46.536C158.63,46.536 154.958,49.484 154.958,54.266C154.958,58.49 157.796,61.323 162.02,61.323C166.468,61.323 169.411,58.49 169.411,55.266L169.411,53.042C169.411,49.042 166.187,46.536 162.577,46.536ZM197.475,47.375L182.412,47.375C180.355,47.375 179.298,45.984 179.298,44.536C179.298,43.036 180.355,41.594 182.412,41.594L201.923,41.594C204.313,41.594 205.699,42.703 205.699,44.37C205.699,44.984 205.48,45.703 205.032,46.427L188.579,75.557C188.136,76.391 186.97,77 185.803,77C184.188,77 182.631,75.557 182.631,74.167C182.631,73.609 182.798,73.109 182.964,72.776L197.475,47.375Z" style="fill:rgb(1,91,53);"/>
        </g>
        <g transform="matrix(1,0,0,1,298.429,580.821)">
            <path d="M10.438,0.313C8.646,0.313 7.089,-0.094 5.771,-0.917C4.464,-1.734 3.458,-2.969 2.75,-4.625C2.042,-6.276 1.688,-8.318 1.688,-10.75C1.688,-13.193 2.109,-15.24 2.958,-16.896C3.818,-18.547 5.005,-19.776 6.521,-20.583C8.031,-21.385 9.792,-21.792 11.792,-21.792C13.844,-21.792 15.594,-21.406 17.042,-20.646C18.5,-19.88 19.521,-18.75 20.104,-17.25L17,-15.354L16.646,-15.375C16.198,-16.333 15.573,-17.031 14.771,-17.479C13.979,-17.922 12.984,-18.146 11.792,-18.146C9.943,-18.146 8.526,-17.552 7.542,-16.375C6.552,-15.208 6.063,-13.333 6.063,-10.75C6.063,-8.151 6.521,-6.26 7.438,-5.083C8.354,-3.901 9.708,-3.312 11.5,-3.312C13.052,-3.312 14.198,-3.656 14.938,-4.354C15.672,-5.062 16.042,-6.104 16.042,-7.479L16.042,-8.417L10.958,-8.417L10.958,-11.854L20.25,-11.854L20.25,0L16.208,0L16.208,-2.875L15.896,-2.917C15.448,-1.885 14.776,-1.089 13.875,-0.521C12.984,0.031 11.839,0.313 10.438,0.313ZM24.732,0L24.732,-16.208L28.691,-16.208L28.691,-13.812L29.003,-13.75C29.389,-14.651 29.904,-15.312 30.545,-15.729C31.18,-16.146 31.951,-16.354 32.857,-16.354C33.784,-16.354 34.488,-16.198 34.962,-15.896L34.274,-12.375L33.962,-12.312C33.696,-12.422 33.441,-12.5 33.191,-12.542C32.951,-12.594 32.659,-12.625 32.316,-12.625C31.175,-12.625 30.305,-12.219 29.712,-11.417C29.113,-10.625 28.816,-9.344 28.816,-7.583L28.816,0L24.732,0ZM51.125,-7.187L40.708,-7.187C40.818,-5.771 41.213,-4.74 41.896,-4.104C42.588,-3.464 43.526,-3.146 44.708,-3.146C45.635,-3.146 46.396,-3.318 46.979,-3.667C47.562,-4.01 48.026,-4.542 48.375,-5.25L48.687,-5.25L51.396,-3.521C50.864,-2.38 50.068,-1.458 49,-0.75C47.927,-0.042 46.5,0.313 44.708,0.313C43.042,0.313 41.594,-0.005 40.375,-0.646C39.151,-1.281 38.208,-2.229 37.542,-3.479C36.885,-4.74 36.562,-6.281 36.562,-8.104C36.562,-9.937 36.906,-11.484 37.604,-12.75C38.297,-14.01 39.234,-14.958 40.417,-15.583C41.609,-16.208 42.943,-16.521 44.417,-16.521C46.708,-16.521 48.463,-15.906 49.687,-14.687C50.906,-13.479 51.521,-11.698 51.521,-9.354C51.521,-8.49 51.489,-7.823 51.437,-7.354L51.125,-7.187ZM47.625,-9.812C47.583,-11.047 47.292,-11.943 46.75,-12.5C46.219,-13.068 45.443,-13.354 44.417,-13.354C42.359,-13.354 41.151,-12.172 40.792,-9.812L47.625,-9.812ZM68.736,-7.187L58.319,-7.187C58.429,-5.771 58.824,-4.74 59.507,-4.104C60.199,-3.464 61.137,-3.146 62.319,-3.146C63.246,-3.146 64.007,-3.318 64.59,-3.667C65.173,-4.01 65.637,-4.542 65.986,-5.25L66.298,-5.25L69.007,-3.521C68.475,-2.38 67.679,-1.458 66.611,-0.75C65.538,-0.042 64.111,0.313 62.319,0.313C60.653,0.313 59.205,-0.005 57.986,-0.646C56.762,-1.281 55.819,-2.229 55.153,-3.479C54.496,-4.74 54.173,-6.281 54.173,-8.104C54.173,-9.937 54.517,-11.484 55.215,-12.75C55.908,-14.01 56.845,-14.958 58.028,-15.583C59.22,-16.208 60.554,-16.521 62.028,-16.521C64.319,-16.521 66.074,-15.906 67.298,-14.687C68.517,-13.479 69.132,-11.698 69.132,-9.354C69.132,-8.49 69.1,-7.823 69.048,-7.354L68.736,-7.187ZM65.236,-9.812C65.194,-11.047 64.903,-11.943 64.361,-12.5C63.83,-13.068 63.054,-13.354 62.028,-13.354C59.97,-13.354 58.762,-12.172 58.403,-9.812L65.236,-9.812ZM72.658,0L72.658,-16.208L76.575,-16.208L76.575,-13.833L76.888,-13.75C77.888,-15.594 79.518,-16.521 81.783,-16.521C83.658,-16.521 85.033,-16.005 85.908,-14.979C86.783,-13.964 87.221,-12.484 87.221,-10.542L87.221,0L83.158,0L83.158,-10.042C83.158,-11.125 82.94,-11.901 82.513,-12.375C82.08,-12.844 81.388,-13.083 80.429,-13.083C79.263,-13.083 78.351,-12.698 77.7,-11.937C77.059,-11.187 76.742,-10.005 76.742,-8.396L76.742,0L72.658,0ZM-48.505,42.099C-50.495,42.099 -52.245,41.692 -53.755,40.869C-55.255,40.036 -56.437,38.802 -57.297,37.161C-58.146,35.51 -58.567,33.468 -58.567,31.036C-58.567,28.619 -58.146,26.588 -57.297,24.932C-56.437,23.281 -55.255,22.046 -53.755,21.224C-52.245,20.406 -50.495,19.994 -48.505,19.994C-46.437,19.994 -44.682,20.401 -43.234,21.203C-41.791,22.01 -40.765,23.239 -40.151,24.89L-43.255,26.786L-43.609,26.786C-44.067,25.661 -44.692,24.859 -45.484,24.369C-46.276,23.885 -47.286,23.64 -48.505,23.64C-50.297,23.64 -51.692,24.234 -52.692,25.411C-53.692,26.593 -54.192,28.468 -54.192,31.036C-54.192,33.593 -53.692,35.463 -52.692,36.64C-51.692,37.822 -50.297,38.411 -48.505,38.411C-45.713,38.411 -44.005,37.057 -43.38,34.349L-43.005,34.349L-39.88,35.974C-40.463,38.015 -41.474,39.552 -42.901,40.578C-44.317,41.593 -46.187,42.099 -48.505,42.099ZM-29.775,42.099C-31.359,42.099 -32.754,41.776 -33.963,41.119C-35.161,40.468 -36.088,39.515 -36.754,38.265C-37.411,37.005 -37.734,35.474 -37.734,33.682C-37.734,31.906 -37.411,30.385 -36.754,29.119C-36.088,27.859 -35.161,26.901 -33.963,26.244C-32.754,25.593 -31.359,25.265 -29.775,25.265C-28.182,25.265 -26.786,25.593 -25.588,26.244C-24.395,26.901 -23.463,27.859 -22.796,29.119C-22.129,30.385 -21.796,31.906 -21.796,33.682C-21.796,35.474 -22.129,37.005 -22.796,38.265C-23.463,39.515 -24.395,40.468 -25.588,41.119C-26.786,41.776 -28.182,42.099 -29.775,42.099ZM-29.775,38.64C-27.249,38.64 -25.984,36.989 -25.984,33.682C-25.984,31.974 -26.312,30.724 -26.963,29.932C-27.619,29.13 -28.557,28.724 -29.775,28.724C-32.291,28.724 -33.546,30.38 -33.546,33.682C-33.546,36.989 -32.291,38.64 -29.775,38.64ZM-13.634,42.099C-15.092,42.099 -16.212,41.703 -16.988,40.911C-17.754,40.119 -18.134,38.927 -18.134,37.328L-18.134,19.057L-14.05,19.057L-14.05,37.161C-14.05,38.151 -13.644,38.64 -12.821,38.64C-12.587,38.64 -12.337,38.599 -12.071,38.515L-11.863,38.578L-11.509,41.703C-11.733,41.828 -12.03,41.921 -12.405,41.994C-12.769,42.062 -13.175,42.099 -13.634,42.099ZM-4.321,42.099C-5.779,42.099 -6.899,41.703 -7.675,40.911C-8.441,40.119 -8.821,38.927 -8.821,37.328L-8.821,19.057L-4.737,19.057L-4.737,37.161C-4.737,38.151 -4.331,38.64 -3.508,38.64C-3.274,38.64 -3.024,38.599 -2.758,38.515L-2.55,38.578L-2.196,41.703C-2.42,41.828 -2.717,41.921 -3.092,41.994C-3.456,42.062 -3.862,42.099 -4.321,42.099ZM4.575,42.099C3.543,42.099 2.647,41.911 1.887,41.536C1.121,41.151 0.533,40.588 0.116,39.849C-0.3,39.099 -0.509,38.203 -0.509,37.161C-0.509,36.203 -0.3,35.401 0.116,34.744C0.533,34.093 1.168,33.557 2.033,33.14C2.892,32.724 4.017,32.406 5.408,32.182C6.377,32.031 7.116,31.864 7.616,31.682C8.116,31.489 8.455,31.276 8.637,31.036C8.814,30.802 8.908,30.505 8.908,30.14C8.908,29.63 8.726,29.234 8.366,28.953C8.002,28.677 7.397,28.536 6.554,28.536C5.647,28.536 4.788,28.739 3.97,29.14C3.163,29.546 2.46,30.072 1.866,30.724L1.575,30.724L-0.134,28.161C0.684,27.244 1.684,26.536 2.866,26.036C4.059,25.526 5.356,25.265 6.762,25.265C8.897,25.265 10.45,25.724 11.408,26.64C12.377,27.546 12.866,28.838 12.866,30.515L12.866,37.557C12.866,38.281 13.179,38.64 13.804,38.64C14.054,38.64 14.293,38.599 14.533,38.515L14.741,38.557L15.033,41.411C14.809,41.552 14.496,41.671 14.095,41.765C13.689,41.859 13.246,41.911 12.762,41.911C11.804,41.911 11.043,41.724 10.491,41.349C9.95,40.974 9.559,40.39 9.325,39.599L9.012,39.557C8.22,41.255 6.741,42.099 4.575,42.099ZM5.866,39.057C6.809,39.057 7.559,38.744 8.116,38.119C8.684,37.484 8.97,36.599 8.97,35.474L8.97,33.828L8.7,33.765C8.45,33.963 8.121,34.13 7.72,34.265C7.33,34.39 6.767,34.515 6.033,34.64C5.142,34.796 4.502,35.052 4.116,35.411C3.726,35.76 3.533,36.26 3.533,36.911C3.533,37.619 3.741,38.156 4.158,38.515C4.575,38.88 5.142,39.057 5.866,39.057ZM26.677,42.099C24.604,42.099 23.063,41.322 22.052,39.765L21.761,39.828L21.761,41.786L17.677,41.786L17.677,19.057L21.761,19.057L21.761,27.474L22.052,27.536C22.62,26.776 23.282,26.203 24.032,25.828C24.792,25.453 25.703,25.265 26.761,25.265C28.078,25.265 29.224,25.578 30.198,26.203C31.183,26.817 31.948,27.755 32.49,29.015C33.042,30.265 33.323,31.822 33.323,33.682C33.323,35.531 33.037,37.088 32.469,38.349C31.896,39.599 31.115,40.536 30.115,41.161C29.115,41.786 27.969,42.099 26.677,42.099ZM25.448,38.64C26.641,38.64 27.552,38.244 28.177,37.453C28.802,36.651 29.115,35.39 29.115,33.682C29.115,31.974 28.802,30.724 28.177,29.932C27.552,29.13 26.641,28.724 25.448,28.724C24.292,28.724 23.386,29.135 22.719,29.953C22.052,30.776 21.719,32.015 21.719,33.682C21.719,35.349 22.052,36.593 22.719,37.411C23.386,38.234 24.292,38.64 25.448,38.64ZM44.163,42.099C42.579,42.099 41.184,41.776 39.975,41.119C38.777,40.468 37.85,39.515 37.184,38.265C36.527,37.005 36.204,35.474 36.204,33.682C36.204,31.906 36.527,30.385 37.184,29.119C37.85,27.859 38.777,26.901 39.975,26.244C41.184,25.593 42.579,25.265 44.163,25.265C45.756,25.265 47.152,25.593 48.35,26.244C49.543,26.901 50.475,27.859 51.142,29.119C51.809,30.385 52.142,31.906 52.142,33.682C52.142,35.474 51.809,37.005 51.142,38.265C50.475,39.515 49.543,40.468 48.35,41.119C47.152,41.776 45.756,42.099 44.163,42.099ZM44.163,38.64C46.689,38.64 47.954,36.989 47.954,33.682C47.954,31.974 47.626,30.724 46.975,29.932C46.319,29.13 45.381,28.724 44.163,28.724C41.647,28.724 40.392,30.38 40.392,33.682C40.392,36.989 41.647,38.64 44.163,38.64ZM55.909,41.786L55.909,25.578L59.868,25.578L59.868,27.974L60.18,28.036C60.566,27.135 61.081,26.474 61.722,26.057C62.357,25.64 63.128,25.432 64.034,25.432C64.961,25.432 65.665,25.588 66.139,25.89L65.451,29.411L65.139,29.474C64.873,29.364 64.618,29.286 64.368,29.244C64.128,29.192 63.836,29.161 63.493,29.161C62.352,29.161 61.482,29.567 60.889,30.369C60.29,31.161 59.993,32.442 59.993,34.203L59.993,41.786L55.909,41.786ZM72.594,42.099C71.562,42.099 70.666,41.911 69.906,41.536C69.14,41.151 68.552,40.588 68.135,39.849C67.719,39.099 67.51,38.203 67.51,37.161C67.51,36.203 67.719,35.401 68.135,34.744C68.552,34.093 69.187,33.557 70.052,33.14C70.911,32.724 72.036,32.406 73.427,32.182C74.396,32.031 75.135,31.864 75.635,31.682C76.135,31.489 76.474,31.276 76.656,31.036C76.833,30.802 76.927,30.505 76.927,30.14C76.927,29.63 76.745,29.234 76.385,28.953C76.021,28.677 75.416,28.536 74.573,28.536C73.666,28.536 72.807,28.739 71.989,29.14C71.182,29.546 70.479,30.072 69.885,30.724L69.594,30.724L67.885,28.161C68.703,27.244 69.703,26.536 70.885,26.036C72.078,25.526 73.375,25.265 74.781,25.265C76.916,25.265 78.469,25.724 79.427,26.64C80.396,27.546 80.885,28.838 80.885,30.515L80.885,37.557C80.885,38.281 81.198,38.64 81.823,38.64C82.073,38.64 82.312,38.599 82.552,38.515L82.76,38.557L83.052,41.411C82.828,41.552 82.515,41.671 82.114,41.765C81.708,41.859 81.265,41.911 80.781,41.911C79.823,41.911 79.062,41.724 78.51,41.349C77.969,40.974 77.578,40.39 77.344,39.599L77.031,39.557C76.239,41.255 74.76,42.099 72.594,42.099ZM73.885,39.057C74.828,39.057 75.578,38.744 76.135,38.119C76.703,37.484 76.989,36.599 76.989,35.474L76.989,33.828L76.719,33.765C76.469,33.963 76.14,34.13 75.739,34.265C75.349,34.39 74.786,34.515 74.052,34.64C73.161,34.796 72.521,35.052 72.135,35.411C71.745,35.76 71.552,36.26 71.552,36.911C71.552,37.619 71.76,38.156 72.177,38.515C72.594,38.88 73.161,39.057 73.885,39.057ZM94.551,37.911L95.613,40.932C95.165,41.296 94.613,41.578 93.946,41.786C93.28,41.994 92.519,42.099 91.676,42.099C89.926,42.099 88.592,41.619 87.676,40.661C86.769,39.703 86.321,38.317 86.321,36.494L86.321,28.786L83.842,28.786L83.842,25.557L86.321,25.557L86.321,22.39L90.384,21.744L90.384,25.557L94.988,25.557L94.988,28.786L90.384,28.786L90.384,36.203C90.384,37.01 90.551,37.599 90.884,37.974C91.217,38.338 91.702,38.515 92.342,38.515C93.061,38.515 93.696,38.317 94.238,37.911L94.551,37.911ZM100.325,23.64C99.585,23.64 98.981,23.421 98.513,22.974C98.054,22.515 97.825,21.942 97.825,21.244C97.825,20.552 98.054,19.984 98.513,19.536C98.981,19.078 99.585,18.849 100.325,18.849C100.809,18.849 101.242,18.953 101.617,19.161C102.002,19.369 102.304,19.656 102.513,20.015C102.721,20.364 102.825,20.776 102.825,21.244C102.825,21.703 102.721,22.114 102.513,22.474C102.304,22.838 102.002,23.119 101.617,23.328C101.242,23.536 100.809,23.64 100.325,23.64ZM98.283,41.786L98.283,25.578L102.367,25.578L102.367,41.786L98.283,41.786ZM114.092,42.099C112.508,42.099 111.113,41.776 109.904,41.119C108.706,40.468 107.779,39.515 107.113,38.265C106.456,37.005 106.133,35.474 106.133,33.682C106.133,31.906 106.456,30.385 107.113,29.119C107.779,27.859 108.706,26.901 109.904,26.244C111.113,25.593 112.508,25.265 114.092,25.265C115.685,25.265 117.081,25.593 118.279,26.244C119.472,26.901 120.404,27.859 121.071,29.119C121.738,30.385 122.071,31.906 122.071,33.682C122.071,35.474 121.738,37.005 121.071,38.265C120.404,39.515 119.472,40.468 118.279,41.119C117.081,41.776 115.685,42.099 114.092,42.099ZM114.092,38.64C116.618,38.64 117.883,36.989 117.883,33.682C117.883,31.974 117.555,30.724 116.904,29.932C116.248,29.13 115.31,28.724 114.092,28.724C111.576,28.724 110.321,30.38 110.321,33.682C110.321,36.989 111.576,38.64 114.092,38.64ZM125.838,41.786L125.838,25.578L129.755,25.578L129.755,27.953L130.068,28.036C131.068,26.192 132.698,25.265 134.963,25.265C136.838,25.265 138.213,25.781 139.088,26.807C139.963,27.822 140.401,29.302 140.401,31.244L140.401,41.786L136.338,41.786L136.338,31.744C136.338,30.661 136.12,29.885 135.693,29.411C135.26,28.942 134.568,28.703 133.609,28.703C132.443,28.703 131.531,29.088 130.88,29.849C130.239,30.599 129.922,31.781 129.922,33.39L129.922,41.786L125.838,41.786Z" style="fill:white;"/>
        </g>
        <g transform="matrix(1,0,0,1,776.893,181.959)">
            <path d="M12.417,0.375C10.276,0.375 8.427,-0.109 6.875,-1.083C5.318,-2.068 4.115,-3.542 3.271,-5.5C2.438,-7.458 2.021,-9.885 2.021,-12.792C2.021,-15.693 2.526,-18.125 3.542,-20.083C4.552,-22.052 5.958,-23.521 7.75,-24.479C9.552,-25.448 11.646,-25.937 14.021,-25.937C16.464,-25.937 18.547,-25.479 20.271,-24.562C22.005,-23.656 23.219,-22.312 23.917,-20.521L20.229,-18.271L19.792,-18.292C19.26,-19.427 18.526,-20.26 17.583,-20.792C16.635,-21.318 15.448,-21.583 14.021,-21.583C11.823,-21.583 10.146,-20.88 8.979,-19.479C7.813,-18.089 7.229,-15.859 7.229,-12.792C7.229,-9.693 7.771,-7.443 8.854,-6.042C9.948,-4.651 11.563,-3.958 13.688,-3.958C15.531,-3.958 16.896,-4.365 17.771,-5.187C18.646,-6.021 19.083,-7.255 19.083,-8.896L19.083,-10L13.021,-10L13.021,-14.104L24.104,-14.104L24.104,0L19.271,0L19.271,-3.437L18.896,-3.479C18.38,-2.255 17.589,-1.302 16.521,-0.625C15.448,0.042 14.083,0.375 12.417,0.375ZM29.441,0L29.441,-19.292L34.149,-19.292L34.149,-16.417L34.524,-16.354C34.983,-17.422 35.592,-18.208 36.358,-18.708C37.118,-19.208 38.045,-19.458 39.128,-19.458C40.222,-19.458 41.055,-19.271 41.628,-18.896L40.795,-14.729L40.441,-14.646C40.118,-14.781 39.816,-14.88 39.524,-14.937C39.233,-14.99 38.878,-15.021 38.462,-15.021C37.097,-15.021 36.066,-14.542 35.358,-13.583C34.649,-12.635 34.295,-11.115 34.295,-9.021L34.295,0L29.441,0ZM60.861,-8.542L48.465,-8.542C48.6,-6.875 49.074,-5.656 49.881,-4.896C50.699,-4.13 51.819,-3.75 53.236,-3.75C54.345,-3.75 55.241,-3.948 55.923,-4.354C56.616,-4.771 57.173,-5.401 57.59,-6.25L57.965,-6.25L61.173,-4.187C60.548,-2.823 59.595,-1.719 58.319,-0.875C57.053,-0.042 55.361,0.375 53.236,0.375C51.236,0.375 49.506,0 48.048,-0.75C46.6,-1.51 45.486,-2.646 44.694,-4.146C43.913,-5.646 43.527,-7.469 43.527,-9.625C43.527,-11.818 43.933,-13.667 44.756,-15.167C45.59,-16.677 46.704,-17.802 48.111,-18.542C49.527,-19.276 51.116,-19.646 52.881,-19.646C55.616,-19.646 57.704,-18.922 59.152,-17.479C60.611,-16.031 61.34,-13.917 61.34,-11.125C61.34,-10.109 61.303,-9.323 61.236,-8.771L60.861,-8.542ZM56.694,-11.687C56.652,-13.146 56.308,-14.208 55.673,-14.875C55.032,-15.552 54.1,-15.896 52.881,-15.896C50.433,-15.896 48.996,-14.49 48.569,-11.687L56.694,-11.687ZM81.83,-8.542L69.434,-8.542C69.569,-6.875 70.043,-5.656 70.85,-4.896C71.668,-4.13 72.788,-3.75 74.205,-3.75C75.314,-3.75 76.21,-3.948 76.892,-4.354C77.585,-4.771 78.142,-5.401 78.559,-6.25L78.934,-6.25L82.142,-4.187C81.517,-2.823 80.564,-1.719 79.288,-0.875C78.022,-0.042 76.33,0.375 74.205,0.375C72.205,0.375 70.475,0 69.017,-0.75C67.569,-1.51 66.455,-2.646 65.663,-4.146C64.882,-5.646 64.496,-7.469 64.496,-9.625C64.496,-11.818 64.902,-13.667 65.725,-15.167C66.559,-16.677 67.673,-17.802 69.08,-18.542C70.496,-19.276 72.085,-19.646 73.85,-19.646C76.585,-19.646 78.673,-18.922 80.121,-17.479C81.58,-16.031 82.309,-13.917 82.309,-11.125C82.309,-10.109 82.272,-9.323 82.205,-8.771L81.83,-8.542ZM77.663,-11.687C77.621,-13.146 77.277,-14.208 76.642,-14.875C76.001,-15.552 75.069,-15.896 73.85,-15.896C71.402,-15.896 69.965,-14.49 69.538,-11.687L77.663,-11.687ZM86.507,0L86.507,-19.292L91.174,-19.292L91.174,-16.458L91.528,-16.375C92.736,-18.552 94.684,-19.646 97.382,-19.646C99.601,-19.646 101.236,-19.042 102.278,-17.833C103.319,-16.625 103.84,-14.859 103.84,-12.542L103.84,0L99.007,0L99.007,-11.937C99.007,-13.229 98.746,-14.151 98.236,-14.708C97.72,-15.276 96.892,-15.562 95.757,-15.562C94.382,-15.562 93.304,-15.109 92.528,-14.208C91.746,-13.318 91.361,-11.906 91.361,-9.979L91.361,0L86.507,0ZM-15.754,23.686C-13.936,23.686 -12.373,24.019 -11.066,24.686C-9.764,25.352 -8.785,26.29 -8.129,27.498C-7.462,28.706 -7.129,30.113 -7.129,31.706C-7.129,33.305 -7.462,34.706 -8.129,35.915C-8.785,37.113 -9.764,38.05 -11.066,38.727C-12.373,39.394 -13.936,39.727 -15.754,39.727L-20.587,39.727L-20.587,49.248L-25.649,49.248L-25.649,23.686L-15.754,23.686ZM-16.42,35.706C-13.618,35.706 -12.212,34.373 -12.212,31.706C-12.212,29.029 -13.618,27.686 -16.42,27.686L-20.587,27.686L-20.587,35.706L-16.42,35.706ZM-2.826,49.248L-2.826,29.956L1.882,29.956L1.882,32.831L2.257,32.894C2.716,31.826 3.325,31.04 4.091,30.54C4.851,30.04 5.778,29.79 6.861,29.79C7.955,29.79 8.788,29.977 9.361,30.352L8.528,34.519L8.174,34.602C7.851,34.467 7.549,34.368 7.257,34.311C6.966,34.258 6.611,34.227 6.195,34.227C4.83,34.227 3.799,34.706 3.091,35.665C2.382,36.613 2.028,38.133 2.028,40.227L2.028,49.248L-2.826,49.248ZM20.739,49.623C18.849,49.623 17.187,49.238 15.76,48.456C14.328,47.68 13.219,46.54 12.427,45.04C11.646,43.54 11.26,41.738 11.26,39.623C11.26,37.498 11.646,35.686 12.427,34.186C13.219,32.675 14.328,31.534 15.76,30.769C17.187,29.993 18.849,29.602 20.739,29.602C22.625,29.602 24.286,29.993 25.719,30.769C27.146,31.534 28.26,32.675 29.052,34.186C29.844,35.686 30.239,37.498 30.239,39.623C30.239,41.738 29.844,43.54 29.052,45.04C28.26,46.54 27.146,47.68 25.719,48.456C24.286,49.238 22.625,49.623 20.739,49.623ZM20.739,45.498C23.739,45.498 25.239,43.54 25.239,39.623C25.239,37.581 24.849,36.092 24.073,35.144C23.307,34.186 22.198,33.706 20.739,33.706C17.739,33.706 16.239,35.68 16.239,39.623C16.239,43.54 17.739,45.498 20.739,45.498ZM34.723,57.061L34.723,29.956L39.577,29.956L39.577,32.477L39.952,32.54C40.52,31.571 41.275,30.842 42.223,30.352C43.181,29.852 44.306,29.602 45.598,29.602C47.14,29.602 48.483,29.972 49.64,30.706C50.806,31.43 51.712,32.54 52.369,34.04C53.02,35.54 53.348,37.404 53.348,39.623C53.348,41.821 52.999,43.665 52.306,45.165C51.624,46.654 50.681,47.769 49.473,48.519C48.265,49.253 46.869,49.623 45.285,49.623C44.077,49.623 43.035,49.42 42.16,49.019C41.285,48.618 40.546,47.988 39.952,47.123L39.577,47.206L39.577,57.061L34.723,57.061ZM43.931,45.498C45.374,45.498 46.462,45.029 47.202,44.081C47.952,43.139 48.327,41.654 48.327,39.623C48.327,37.581 47.952,36.092 47.202,35.144C46.462,34.186 45.374,33.706 43.931,33.706C42.582,33.706 41.504,34.201 40.702,35.186C39.91,36.159 39.515,37.639 39.515,39.623C39.515,41.581 39.91,43.055 40.702,44.04C41.504,45.014 42.582,45.498 43.931,45.498ZM74.117,40.706L61.721,40.706C61.856,42.373 62.33,43.592 63.137,44.352C63.955,45.118 65.075,45.498 66.492,45.498C67.601,45.498 68.497,45.3 69.179,44.894C69.872,44.477 70.429,43.847 70.846,42.998L71.221,42.998L74.429,45.061C73.804,46.425 72.851,47.529 71.575,48.373C70.309,49.206 68.617,49.623 66.492,49.623C64.492,49.623 62.762,49.248 61.304,48.498C59.856,47.738 58.742,46.602 57.95,45.102C57.169,43.602 56.783,41.779 56.783,39.623C56.783,37.43 57.189,35.581 58.012,34.081C58.846,32.571 59.96,31.446 61.367,30.706C62.783,29.972 64.372,29.602 66.137,29.602C68.872,29.602 70.96,30.326 72.408,31.769C73.867,33.217 74.596,35.331 74.596,38.123C74.596,39.139 74.559,39.925 74.492,40.477L74.117,40.706ZM69.95,37.561C69.908,36.102 69.564,35.04 68.929,34.373C68.288,33.696 67.356,33.352 66.137,33.352C63.689,33.352 62.252,34.758 61.825,37.561L69.95,37.561ZM78.794,49.248L78.794,29.956L83.502,29.956L83.502,32.831L83.877,32.894C84.336,31.826 84.945,31.04 85.711,30.54C86.471,30.04 87.398,29.79 88.481,29.79C89.575,29.79 90.408,29.977 90.981,30.352L90.148,34.519L89.794,34.602C89.471,34.467 89.169,34.368 88.877,34.311C88.586,34.258 88.231,34.227 87.815,34.227C86.45,34.227 85.419,34.706 84.711,35.665C84.002,36.613 83.648,38.133 83.648,40.227L83.648,49.248L78.794,49.248ZM104.464,44.644L105.714,48.227C105.182,48.659 104.526,48.998 103.734,49.248C102.943,49.498 102.047,49.623 101.047,49.623C98.964,49.623 97.38,49.055 96.297,47.915C95.214,46.779 94.672,45.123 94.672,42.956L94.672,33.79L91.734,33.79L91.734,29.936L94.672,29.936L94.672,26.186L99.505,25.394L99.505,29.936L104.984,29.936L104.984,33.79L99.505,33.79L99.505,42.602C99.505,43.561 99.698,44.264 100.089,44.706C100.49,45.139 101.073,45.352 101.839,45.352C102.698,45.352 103.448,45.118 104.089,44.644L104.464,44.644ZM110.41,57.436C109.577,57.436 108.827,57.363 108.16,57.227C107.493,57.102 106.941,56.936 106.514,56.727L107.285,52.811L107.618,52.706C107.894,52.857 108.248,52.982 108.681,53.081C109.123,53.175 109.566,53.227 110.014,53.227C110.806,53.227 111.457,53.123 111.972,52.915C112.483,52.706 112.92,52.363 113.285,51.894C113.644,51.42 113.962,50.769 114.243,49.936L106.556,29.956L111.639,29.956L116.431,43.373L116.847,43.373L121.514,29.956L126.431,29.956L118.702,50.456C118.077,52.107 117.394,53.436 116.66,54.436C115.92,55.446 115.045,56.196 114.035,56.686C113.019,57.186 111.811,57.436 110.41,57.436Z" style="fill:white;"/>
        </g>
        <g transform="matrix(1,0,0,1,693.83,788.292)">
            <path d="M20.5,-25.562L20.5,-21.312L13.125,-21.312L13.125,0L8.083,0L8.083,-21.312L0.708,-21.312L0.708,-25.562L20.5,-25.562ZM23.967,0L23.967,-19.292L28.675,-19.292L28.675,-16.417L29.05,-16.354C29.509,-17.422 30.118,-18.208 30.884,-18.708C31.644,-19.208 32.571,-19.458 33.654,-19.458C34.748,-19.458 35.581,-19.271 36.154,-18.896L35.321,-14.729L34.967,-14.646C34.644,-14.781 34.342,-14.88 34.05,-14.937C33.759,-14.99 33.404,-15.021 32.988,-15.021C31.623,-15.021 30.592,-14.542 29.884,-13.583C29.175,-12.635 28.821,-11.115 28.821,-9.021L28.821,0L23.967,0ZM43.845,0.375C42.605,0.375 41.532,0.146 40.616,-0.312C39.709,-0.771 39.017,-1.437 38.532,-2.312C38.043,-3.198 37.803,-4.26 37.803,-5.5C37.803,-6.635 38.043,-7.589 38.532,-8.354C39.017,-9.13 39.772,-9.771 40.803,-10.271C41.829,-10.771 43.168,-11.151 44.824,-11.417C45.975,-11.609 46.85,-11.812 47.449,-12.021C48.043,-12.24 48.449,-12.49 48.657,-12.771C48.876,-13.062 48.991,-13.422 48.991,-13.854C48.991,-14.464 48.772,-14.927 48.345,-15.25C47.913,-15.583 47.189,-15.75 46.178,-15.75C45.105,-15.75 44.084,-15.505 43.116,-15.021C42.157,-14.547 41.324,-13.922 40.616,-13.146L40.262,-13.146L38.22,-16.208C39.204,-17.292 40.397,-18.13 41.803,-18.729C43.22,-19.339 44.762,-19.646 46.428,-19.646C48.98,-19.646 50.829,-19.104 51.97,-18.021C53.105,-16.937 53.678,-15.401 53.678,-13.417L53.678,-5.042C53.678,-4.177 54.058,-3.75 54.824,-3.75C55.116,-3.75 55.397,-3.797 55.678,-3.896L55.928,-3.833L56.282,-0.458C56.001,-0.276 55.626,-0.13 55.157,-0.021C54.683,0.089 54.157,0.146 53.574,0.146C52.418,0.146 51.517,-0.073 50.866,-0.521C50.225,-0.964 49.767,-1.656 49.491,-2.604L49.116,-2.646C48.168,-0.63 46.413,0.375 43.845,0.375ZM45.387,-3.25C46.496,-3.25 47.387,-3.625 48.053,-4.375C48.73,-5.125 49.074,-6.172 49.074,-7.521L49.074,-9.479L48.741,-9.542C48.449,-9.318 48.064,-9.125 47.595,-8.958C47.121,-8.802 46.439,-8.651 45.553,-8.5C44.512,-8.318 43.751,-8.01 43.282,-7.583C42.824,-7.167 42.595,-6.568 42.595,-5.792C42.595,-4.958 42.834,-4.323 43.324,-3.896C43.824,-3.464 44.512,-3.25 45.387,-3.25ZM69.935,0L64.164,0L57.039,-19.292L62.102,-19.292L66.893,-5.542L67.289,-5.542L72.102,-19.292L77.06,-19.292L69.935,0ZM96.468,-8.542L84.072,-8.542C84.207,-6.875 84.681,-5.656 85.488,-4.896C86.306,-4.13 87.426,-3.75 88.843,-3.75C89.952,-3.75 90.848,-3.948 91.53,-4.354C92.223,-4.771 92.78,-5.401 93.197,-6.25L93.572,-6.25L96.78,-4.187C96.155,-2.823 95.202,-1.719 93.926,-0.875C92.66,-0.042 90.968,0.375 88.843,0.375C86.843,0.375 85.113,0 83.655,-0.75C82.207,-1.51 81.093,-2.646 80.301,-4.146C79.52,-5.646 79.134,-7.469 79.134,-9.625C79.134,-11.818 79.54,-13.667 80.363,-15.167C81.197,-16.677 82.311,-17.802 83.718,-18.542C85.134,-19.276 86.723,-19.646 88.488,-19.646C91.223,-19.646 93.311,-18.922 94.759,-17.479C96.218,-16.031 96.947,-13.917 96.947,-11.125C96.947,-10.109 96.91,-9.323 96.843,-8.771L96.468,-8.542ZM92.301,-11.687C92.259,-13.146 91.915,-14.208 91.28,-14.875C90.639,-15.552 89.707,-15.896 88.488,-15.896C86.04,-15.896 84.603,-14.49 84.176,-11.687L92.301,-11.687ZM106.374,0.375C104.634,0.375 103.312,-0.094 102.395,-1.042C101.489,-1.984 101.041,-3.406 101.041,-5.312L101.041,-27.042L105.874,-27.042L105.874,-5.5C105.874,-4.333 106.364,-3.75 107.353,-3.75C107.629,-3.75 107.921,-3.792 108.228,-3.875L108.478,-3.812L108.916,-0.083C108.65,0.052 108.296,0.167 107.853,0.25C107.405,0.333 106.916,0.375 106.374,0.375Z" style="fill:white;"/>
        </g>
        <g transform="matrix(1,0,0,1,944.116,453.053)">
            <path d="M8.958,0.271C7.417,0.271 6.083,-0.073 4.958,-0.771C3.844,-1.479 2.984,-2.542 2.375,-3.958C1.76,-5.385 1.458,-7.146 1.458,-9.229C1.458,-11.323 1.818,-13.083 2.542,-14.5C3.276,-15.927 4.292,-16.99 5.583,-17.687C6.885,-18.38 8.401,-18.729 10.125,-18.729C11.885,-18.729 13.396,-18.396 14.646,-17.729C15.896,-17.073 16.771,-16.104 17.271,-14.812L14.604,-13.187L14.292,-13.208C13.917,-14.026 13.38,-14.625 12.688,-15C12.005,-15.385 11.151,-15.583 10.125,-15.583C8.526,-15.583 7.302,-15.073 6.458,-14.062C5.625,-13.062 5.208,-11.448 5.208,-9.229C5.208,-6.99 5.604,-5.365 6.396,-4.354C7.188,-3.354 8.344,-2.854 9.875,-2.854C11.208,-2.854 12.188,-3.151 12.813,-3.75C13.448,-4.344 13.771,-5.234 13.771,-6.417L13.771,-7.229L9.396,-7.229L9.396,-10.187L17.396,-10.187L17.396,0L13.917,0L13.917,-2.479L13.646,-2.521C13.271,-1.63 12.693,-0.943 11.917,-0.458C11.151,0.026 10.167,0.271 8.958,0.271ZM21.256,0L21.256,-13.917L24.652,-13.917L24.652,-11.854L24.923,-11.812C25.256,-12.573 25.694,-13.135 26.235,-13.5C26.787,-13.859 27.454,-14.042 28.235,-14.042C29.027,-14.042 29.631,-13.906 30.048,-13.646L29.464,-10.625L29.194,-10.583C28.97,-10.667 28.746,-10.729 28.527,-10.771C28.319,-10.823 28.058,-10.854 27.756,-10.854C26.782,-10.854 26.037,-10.505 25.527,-9.812C25.011,-9.13 24.756,-8.031 24.756,-6.521L24.756,0L21.256,0ZM43.928,-6.167L34.991,-6.167C35.084,-4.958 35.428,-4.073 36.011,-3.521C36.605,-2.979 37.412,-2.708 38.428,-2.708C39.23,-2.708 39.876,-2.854 40.366,-3.146C40.866,-3.448 41.267,-3.901 41.574,-4.5L41.845,-4.5L44.157,-3.021C43.709,-2.047 43.032,-1.255 42.116,-0.646C41.199,-0.031 39.97,0.271 38.428,0.271C36.996,0.271 35.751,0 34.699,-0.542C33.657,-1.094 32.85,-1.917 32.282,-3C31.709,-4.083 31.428,-5.401 31.428,-6.958C31.428,-8.542 31.725,-9.875 32.324,-10.958C32.918,-12.042 33.725,-12.844 34.741,-13.375C35.767,-13.917 36.912,-14.187 38.178,-14.187C40.147,-14.187 41.657,-13.667 42.699,-12.625C43.751,-11.583 44.282,-10.047 44.282,-8.021C44.282,-7.297 44.251,-6.734 44.199,-6.333L43.928,-6.167ZM40.928,-8.437C40.897,-9.49 40.657,-10.26 40.199,-10.75C39.741,-11.234 39.063,-11.479 38.178,-11.479C36.412,-11.479 35.376,-10.464 35.074,-8.437L40.928,-8.437ZM59.068,-6.167L50.131,-6.167C50.224,-4.958 50.568,-4.073 51.151,-3.521C51.745,-2.979 52.552,-2.708 53.568,-2.708C54.37,-2.708 55.016,-2.854 55.506,-3.146C56.006,-3.448 56.407,-3.901 56.714,-4.5L56.985,-4.5L59.297,-3.021C58.849,-2.047 58.172,-1.255 57.256,-0.646C56.339,-0.031 55.11,0.271 53.568,0.271C52.136,0.271 50.891,0 49.839,-0.542C48.797,-1.094 47.99,-1.917 47.422,-3C46.849,-4.083 46.568,-5.401 46.568,-6.958C46.568,-8.542 46.865,-9.875 47.464,-10.958C48.058,-12.042 48.865,-12.844 49.881,-13.375C50.907,-13.917 52.052,-14.187 53.318,-14.187C55.287,-14.187 56.797,-13.667 57.839,-12.625C58.891,-11.583 59.422,-10.047 59.422,-8.021C59.422,-7.297 59.391,-6.734 59.339,-6.333L59.068,-6.167ZM56.068,-8.437C56.037,-9.49 55.797,-10.26 55.339,-10.75C54.881,-11.234 54.203,-11.479 53.318,-11.479C51.552,-11.479 50.516,-10.464 50.214,-8.437L56.068,-8.437ZM62.454,0L62.454,-13.917L65.829,-13.917L65.829,-11.875L66.079,-11.812C66.954,-13.396 68.36,-14.187 70.308,-14.187C71.902,-14.187 73.079,-13.75 73.829,-12.875C74.589,-12 74.975,-10.719 74.975,-9.042L74.975,0L71.475,0L71.475,-8.625C71.475,-9.552 71.287,-10.219 70.912,-10.625C70.548,-11.026 69.959,-11.229 69.142,-11.229C68.142,-11.229 67.355,-10.901 66.787,-10.25C66.23,-9.609 65.954,-8.594 65.954,-7.208L65.954,0L62.454,0ZM-28.026,17.359L-28.026,35.817L-31.672,35.817L-31.672,17.359L-28.026,17.359ZM-23.608,35.817L-23.608,21.9L-20.233,21.9L-20.233,23.942L-19.983,24.005C-19.108,22.421 -17.702,21.63 -15.754,21.63C-14.16,21.63 -12.983,22.067 -12.233,22.942C-11.473,23.817 -11.087,25.098 -11.087,26.775L-11.087,35.817L-14.587,35.817L-14.587,27.192C-14.587,26.265 -14.775,25.598 -15.15,25.192C-15.514,24.791 -16.103,24.588 -16.92,24.588C-17.92,24.588 -18.707,24.916 -19.275,25.567C-19.832,26.208 -20.108,27.223 -20.108,28.609L-20.108,35.817L-23.608,35.817ZM0.289,35.817L-3.877,35.817L-9.023,21.9L-5.377,21.9L-1.919,31.817L-1.627,31.817L1.852,21.9L5.435,21.9L0.289,35.817ZM19.432,29.65L10.495,29.65C10.588,30.859 10.932,31.744 11.515,32.296C12.109,32.838 12.916,33.109 13.932,33.109C14.734,33.109 15.38,32.963 15.87,32.671C16.37,32.369 16.771,31.916 17.078,31.317L17.349,31.317L19.661,32.796C19.213,33.77 18.536,34.562 17.62,35.171C16.703,35.786 15.474,36.088 13.932,36.088C12.5,36.088 11.255,35.817 10.203,35.275C9.161,34.723 8.354,33.9 7.786,32.817C7.213,31.734 6.932,30.416 6.932,28.859C6.932,27.275 7.229,25.942 7.828,24.859C8.422,23.775 9.229,22.973 10.245,22.442C11.271,21.9 12.416,21.63 13.682,21.63C15.651,21.63 17.161,22.15 18.203,23.192C19.255,24.234 19.786,25.77 19.786,27.796C19.786,28.52 19.755,29.083 19.703,29.484L19.432,29.65ZM16.432,27.38C16.401,26.327 16.161,25.557 15.703,25.067C15.245,24.583 14.567,24.338 13.682,24.338C11.916,24.338 10.88,25.353 10.578,27.38L16.432,27.38ZM27.342,36.088C26.384,36.088 25.509,35.973 24.717,35.755C23.925,35.536 23.248,35.228 22.696,34.838C22.139,34.437 21.722,33.984 21.446,33.484L23.404,31.38L23.654,31.38C24.123,32.005 24.675,32.478 25.3,32.796C25.936,33.103 26.623,33.255 27.363,33.255C28.04,33.255 28.555,33.14 28.904,32.9C29.248,32.65 29.425,32.296 29.425,31.838C29.425,31.494 29.3,31.202 29.05,30.963C28.8,30.713 28.394,30.52 27.842,30.38L25.988,29.942C24.613,29.624 23.602,29.124 22.967,28.442C22.342,27.765 22.029,26.9 22.029,25.859C22.029,24.984 22.243,24.228 22.675,23.588C23.118,22.952 23.743,22.463 24.55,22.13C25.352,21.796 26.29,21.63 27.363,21.63C28.613,21.63 29.644,21.812 30.467,22.171C31.3,22.536 31.946,23.02 32.404,23.63L30.55,25.65L30.279,25.65C29.904,25.208 29.472,24.89 28.988,24.692C28.498,24.484 27.956,24.38 27.363,24.38C25.988,24.38 25.3,24.812 25.3,25.671C25.3,26.036 25.425,26.333 25.675,26.567C25.925,26.791 26.373,26.973 27.029,27.109L28.759,27.484C30.16,27.791 31.186,28.275 31.842,28.942C32.493,29.609 32.821,30.505 32.821,31.63C32.821,32.52 32.597,33.307 32.154,33.984C31.722,34.65 31.092,35.171 30.259,35.546C29.436,35.906 28.467,36.088 27.342,36.088ZM43.267,32.505L44.184,35.088C43.793,35.395 43.314,35.64 42.746,35.817C42.173,35.994 41.528,36.088 40.809,36.088C39.309,36.088 38.163,35.682 37.371,34.859C36.59,34.041 36.205,32.848 36.205,31.275L36.205,24.65L34.08,24.65L34.08,21.88L36.205,21.88L36.205,19.171L39.705,18.588L39.705,21.88L43.642,21.88L43.642,24.65L39.705,24.65L39.705,31.025C39.705,31.708 39.84,32.208 40.121,32.525C40.413,32.848 40.83,33.005 41.371,33.005C41.996,33.005 42.538,32.838 42.996,32.505L43.267,32.505ZM46.484,35.817L46.484,21.9L49.859,21.9L49.859,23.755L50.109,23.817C50.567,23.067 51.099,22.52 51.713,22.171C52.323,21.812 53.099,21.63 54.047,21.63C55.099,21.63 55.948,21.838 56.588,22.255C57.224,22.671 57.692,23.275 57.984,24.067L58.255,24.067C58.682,23.234 59.239,22.624 59.922,22.234C60.599,21.833 61.442,21.63 62.442,21.63C65.328,21.63 66.776,23.234 66.776,26.442L66.776,35.817L63.276,35.817L63.276,26.9C63.276,26.083 63.114,25.494 62.797,25.13C62.474,24.77 61.963,24.588 61.255,24.588C59.338,24.588 58.38,25.874 58.38,28.442L58.38,35.817L54.88,35.817L54.88,26.9C54.88,26.083 54.718,25.494 54.401,25.13C54.078,24.77 53.567,24.588 52.859,24.588C51.953,24.588 51.244,24.89 50.734,25.484C50.234,26.083 49.984,27.041 49.984,28.359L49.984,35.817L46.484,35.817ZM82.324,29.65L73.387,29.65C73.48,30.859 73.824,31.744 74.407,32.296C75.001,32.838 75.808,33.109 76.824,33.109C77.626,33.109 78.272,32.963 78.762,32.671C79.262,32.369 79.663,31.916 79.97,31.317L80.241,31.317L82.553,32.796C82.105,33.77 81.428,34.562 80.512,35.171C79.595,35.786 78.366,36.088 76.824,36.088C75.392,36.088 74.147,35.817 73.095,35.275C72.053,34.723 71.246,33.9 70.678,32.817C70.105,31.734 69.824,30.416 69.824,28.859C69.824,27.275 70.121,25.942 70.72,24.859C71.314,23.775 72.121,22.973 73.137,22.442C74.163,21.9 75.308,21.63 76.574,21.63C78.543,21.63 80.053,22.15 81.095,23.192C82.147,24.234 82.678,25.77 82.678,27.796C82.678,28.52 82.647,29.083 82.595,29.484L82.324,29.65ZM79.324,27.38C79.293,26.327 79.053,25.557 78.595,25.067C78.137,24.583 77.459,24.338 76.574,24.338C74.808,24.338 73.772,25.353 73.47,27.38L79.324,27.38ZM85.714,35.817L85.714,21.9L89.089,21.9L89.089,23.942L89.339,24.005C90.214,22.421 91.62,21.63 93.568,21.63C95.162,21.63 96.339,22.067 97.089,22.942C97.849,23.817 98.235,25.098 98.235,26.775L98.235,35.817L94.735,35.817L94.735,27.192C94.735,26.265 94.547,25.598 94.172,25.192C93.808,24.791 93.219,24.588 92.402,24.588C91.402,24.588 90.615,24.916 90.047,25.567C89.49,26.208 89.214,27.223 89.214,28.609L89.214,35.817L85.714,35.817ZM109.638,32.505L110.555,35.088C110.164,35.395 109.685,35.64 109.117,35.817C108.544,35.994 107.899,36.088 107.18,36.088C105.68,36.088 104.534,35.682 103.742,34.859C102.961,34.041 102.576,32.848 102.576,31.275L102.576,24.65L100.451,24.65L100.451,21.88L102.576,21.88L102.576,19.171L106.076,18.588L106.076,21.88L110.013,21.88L110.013,24.65L106.076,24.65L106.076,31.025C106.076,31.708 106.211,32.208 106.492,32.525C106.784,32.848 107.201,33.005 107.742,33.005C108.367,33.005 108.909,32.838 109.367,32.505L109.638,32.505Z" style="fill:white;"/>
        </g>
        <g transform="matrix(1,0,0,1,394.39,181.959)">
            <path d="M8.375,-11.229L8.375,-4.229L20.583,-4.229L20.583,0L3.313,0L3.313,-25.562L20.292,-25.562L20.292,-21.333L8.375,-21.333L8.375,-15.354L18.792,-15.354L18.792,-11.229L8.375,-11.229ZM24.755,0L24.755,-19.292L29.422,-19.292L29.422,-16.458L29.776,-16.375C30.984,-18.552 32.932,-19.646 35.63,-19.646C37.849,-19.646 39.484,-19.042 40.526,-17.833C41.567,-16.625 42.088,-14.859 42.088,-12.542L42.088,0L37.255,0L37.255,-11.937C37.255,-13.229 36.994,-14.151 36.484,-14.708C35.968,-15.276 35.14,-15.562 34.005,-15.562C32.63,-15.562 31.552,-15.109 30.776,-14.208C29.994,-13.318 29.609,-11.906 29.609,-9.979L29.609,0L24.755,0ZM63.642,-8.542L51.246,-8.542C51.381,-6.875 51.855,-5.656 52.662,-4.896C53.48,-4.13 54.6,-3.75 56.017,-3.75C57.126,-3.75 58.022,-3.948 58.704,-4.354C59.397,-4.771 59.954,-5.401 60.371,-6.25L60.746,-6.25L63.954,-4.187C63.329,-2.823 62.376,-1.719 61.1,-0.875C59.834,-0.042 58.142,0.375 56.017,0.375C54.017,0.375 52.287,0 50.829,-0.75C49.381,-1.51 48.267,-2.646 47.475,-4.146C46.694,-5.646 46.308,-7.469 46.308,-9.625C46.308,-11.818 46.714,-13.667 47.537,-15.167C48.371,-16.677 49.485,-17.802 50.892,-18.542C52.308,-19.276 53.897,-19.646 55.662,-19.646C58.397,-19.646 60.485,-18.922 61.933,-17.479C63.392,-16.031 64.121,-13.917 64.121,-11.125C64.121,-10.109 64.084,-9.323 64.017,-8.771L63.642,-8.542ZM59.475,-11.687C59.433,-13.146 59.089,-14.208 58.454,-14.875C57.813,-15.552 56.881,-15.896 55.662,-15.896C53.214,-15.896 51.777,-14.49 51.35,-11.687L59.475,-11.687ZM68.319,0L68.319,-19.292L73.027,-19.292L73.027,-16.417L73.402,-16.354C73.861,-17.422 74.47,-18.208 75.236,-18.708C75.996,-19.208 76.923,-19.458 78.006,-19.458C79.1,-19.458 79.933,-19.271 80.506,-18.896L79.673,-14.729L79.319,-14.646C78.996,-14.781 78.694,-14.88 78.402,-14.937C78.111,-14.99 77.756,-15.021 77.34,-15.021C75.975,-15.021 74.944,-14.542 74.236,-13.583C73.527,-12.635 73.173,-11.115 73.173,-9.021L73.173,0L68.319,0ZM90.676,8.188C87.494,8.188 85.145,7.719 83.634,6.792C82.119,5.859 81.364,4.552 81.364,2.875C81.364,1.859 81.681,1.026 82.322,0.375C82.973,-0.26 83.905,-0.693 85.114,-0.917L85.114,-1.271C84.457,-1.672 83.989,-2.109 83.697,-2.583C83.416,-3.068 83.28,-3.635 83.28,-4.292C83.28,-5.833 84.285,-6.875 86.301,-7.417L86.301,-7.792C85.27,-8.375 84.494,-9.104 83.968,-9.979C83.436,-10.865 83.176,-11.937 83.176,-13.187C83.176,-14.464 83.468,-15.589 84.051,-16.562C84.645,-17.531 85.509,-18.292 86.634,-18.833C87.77,-19.375 89.14,-19.646 90.739,-19.646C92.332,-19.646 93.614,-19.365 94.572,-18.812C95.166,-19.672 95.515,-20.672 95.614,-21.812L95.968,-22.042L99.447,-21.167C99.348,-20.25 99.082,-19.479 98.655,-18.854C98.223,-18.229 97.551,-17.672 96.634,-17.187L96.634,-16.812C97.718,-15.854 98.259,-14.51 98.259,-12.792C98.259,-11.609 97.957,-10.547 97.364,-9.604C96.78,-8.656 95.916,-7.906 94.78,-7.354C93.64,-6.812 92.291,-6.542 90.739,-6.542L89.989,-6.562C89.53,-6.573 89.202,-6.583 89.009,-6.583C88.561,-6.583 88.218,-6.464 87.968,-6.229C87.718,-5.99 87.593,-5.687 87.593,-5.312C87.593,-4.906 87.749,-4.589 88.072,-4.354C88.405,-4.13 88.89,-4.005 89.53,-3.979L93.843,-3.833C98.103,-3.708 100.239,-1.865 100.239,1.688C100.239,2.922 99.916,4.026 99.28,5C98.655,5.984 97.624,6.76 96.197,7.333C94.78,7.901 92.936,8.188 90.676,8.188ZM90.676,4.667C92.327,4.667 93.53,4.427 94.28,3.958C95.041,3.5 95.426,2.896 95.426,2.146C95.426,1.547 95.228,1.104 94.843,0.813C94.452,0.521 93.843,0.365 93.009,0.354L89.197,0.167C89.072,0.167 88.952,0.156 88.843,0.146L88.509,0.146C87.686,0.146 87.061,0.318 86.634,0.667C86.218,1.01 86.009,1.5 86.009,2.125C86.009,2.927 86.395,3.552 87.176,4C87.952,4.443 89.119,4.667 90.676,4.667ZM90.739,-9.937C91.666,-9.937 92.39,-10.208 92.905,-10.75C93.431,-11.302 93.697,-12.089 93.697,-13.104C93.697,-14.115 93.431,-14.896 92.905,-15.437C92.39,-15.979 91.666,-16.25 90.739,-16.25C89.791,-16.25 89.061,-15.979 88.551,-15.437C88.035,-14.896 87.78,-14.115 87.78,-13.104C87.78,-12.073 88.035,-11.292 88.551,-10.75C89.061,-10.208 89.791,-9.937 90.739,-9.937ZM105.007,8.188C104.174,8.188 103.424,8.115 102.757,7.979C102.09,7.854 101.538,7.688 101.111,7.479L101.882,3.563L102.215,3.458C102.491,3.609 102.845,3.734 103.278,3.833C103.72,3.927 104.163,3.979 104.611,3.979C105.403,3.979 106.054,3.875 106.569,3.667C107.08,3.458 107.517,3.115 107.882,2.646C108.241,2.172 108.559,1.521 108.84,0.688L101.153,-19.292L106.236,-19.292L111.028,-5.875L111.444,-5.875L116.111,-19.292L121.028,-19.292L113.299,1.208C112.674,2.859 111.991,4.188 111.257,5.188C110.517,6.198 109.642,6.948 108.632,7.438C107.616,7.938 106.408,8.188 105.007,8.188ZM16.921,49.623C13.389,49.623 10.775,48.79 9.066,47.123C7.368,45.446 6.525,42.956 6.525,39.665L6.525,23.686L11.462,23.686L11.462,39.623C11.462,41.498 11.91,42.904 12.816,43.831C13.717,44.764 15.087,45.227 16.921,45.227C20.546,45.227 22.358,43.363 22.358,39.623L22.358,23.686L27.296,23.686L27.296,39.665C27.296,42.956 26.441,45.446 24.733,47.123C23.035,48.79 20.431,49.623 16.921,49.623ZM39.487,49.623C38.164,49.623 36.956,49.467 35.862,49.165C34.763,48.847 33.825,48.415 33.049,47.873C32.284,47.331 31.716,46.717 31.341,46.019L34.029,43.102L34.404,43.102C35.039,43.967 35.799,44.618 36.674,45.061C37.549,45.493 38.497,45.706 39.529,45.706C40.471,45.706 41.18,45.54 41.654,45.206C42.138,44.863 42.383,44.373 42.383,43.748C42.383,43.248 42.206,42.842 41.862,42.519C41.513,42.186 40.956,41.925 40.195,41.727L37.633,41.123C35.716,40.665 34.32,39.972 33.445,39.04C32.57,38.097 32.133,36.904 32.133,35.456C32.133,34.248 32.435,33.206 33.049,32.331C33.659,31.446 34.518,30.769 35.633,30.311C36.742,29.842 38.039,29.602 39.529,29.602C41.263,29.602 42.7,29.852 43.841,30.352C44.976,30.852 45.872,31.519 46.529,32.352L43.924,35.144L43.591,35.144C43.049,34.55 42.435,34.113 41.758,33.831C41.091,33.555 40.346,33.415 39.529,33.415C37.612,33.415 36.654,34.008 36.654,35.186C36.654,35.686 36.825,36.097 37.174,36.415C37.534,36.738 38.164,36.993 39.07,37.186L41.445,37.706C43.404,38.123 44.831,38.8 45.737,39.727C46.638,40.659 47.091,41.904 47.091,43.456C47.091,44.68 46.784,45.764 46.174,46.706C45.575,47.639 44.7,48.363 43.549,48.873C42.409,49.373 41.055,49.623 39.487,49.623ZM55.773,49.623C54.533,49.623 53.46,49.394 52.544,48.936C51.637,48.477 50.945,47.811 50.46,46.936C49.971,46.05 49.731,44.988 49.731,43.748C49.731,42.613 49.971,41.659 50.46,40.894C50.945,40.118 51.7,39.477 52.731,38.977C53.757,38.477 55.096,38.097 56.752,37.831C57.903,37.639 58.778,37.436 59.377,37.227C59.971,37.008 60.377,36.758 60.585,36.477C60.804,36.186 60.919,35.826 60.919,35.394C60.919,34.784 60.7,34.321 60.273,33.998C59.841,33.665 59.117,33.498 58.106,33.498C57.033,33.498 56.012,33.743 55.044,34.227C54.085,34.701 53.252,35.326 52.544,36.102L52.19,36.102L50.148,33.04C51.132,31.956 52.325,31.118 53.731,30.519C55.148,29.909 56.69,29.602 58.356,29.602C60.908,29.602 62.757,30.144 63.898,31.227C65.033,32.311 65.606,33.847 65.606,35.831L65.606,44.206C65.606,45.071 65.986,45.498 66.752,45.498C67.044,45.498 67.325,45.451 67.606,45.352L67.856,45.415L68.21,48.79C67.929,48.972 67.554,49.118 67.085,49.227C66.611,49.337 66.085,49.394 65.502,49.394C64.346,49.394 63.445,49.175 62.794,48.727C62.153,48.284 61.695,47.592 61.419,46.644L61.044,46.602C60.096,48.618 58.341,49.623 55.773,49.623ZM57.315,45.998C58.424,45.998 59.315,45.623 59.981,44.873C60.658,44.123 61.002,43.076 61.002,41.727L61.002,39.769L60.669,39.706C60.377,39.93 59.992,40.123 59.523,40.29C59.049,40.446 58.367,40.597 57.481,40.748C56.44,40.93 55.679,41.238 55.21,41.665C54.752,42.081 54.523,42.68 54.523,43.456C54.523,44.29 54.762,44.925 55.252,45.352C55.752,45.784 56.44,45.998 57.315,45.998ZM78.591,57.436C75.409,57.436 73.06,56.967 71.549,56.04C70.034,55.107 69.279,53.8 69.279,52.123C69.279,51.107 69.596,50.274 70.237,49.623C70.888,48.988 71.82,48.555 73.029,48.331L73.029,47.977C72.372,47.576 71.904,47.139 71.612,46.665C71.331,46.18 71.195,45.613 71.195,44.956C71.195,43.415 72.2,42.373 74.216,41.831L74.216,41.456C73.185,40.873 72.409,40.144 71.883,39.269C71.351,38.383 71.091,37.311 71.091,36.061C71.091,34.784 71.383,33.659 71.966,32.686C72.56,31.717 73.424,30.956 74.549,30.415C75.685,29.873 77.055,29.602 78.654,29.602C80.247,29.602 81.529,29.883 82.487,30.436C83.081,29.576 83.43,28.576 83.529,27.436L83.883,27.206L87.362,28.081C87.263,28.998 86.997,29.769 86.57,30.394C86.138,31.019 85.466,31.576 84.549,32.061L84.549,32.436C85.633,33.394 86.174,34.738 86.174,36.456C86.174,37.639 85.872,38.701 85.279,39.644C84.695,40.592 83.831,41.342 82.695,41.894C81.555,42.436 80.206,42.706 78.654,42.706L77.904,42.686C77.445,42.675 77.117,42.665 76.924,42.665C76.476,42.665 76.133,42.784 75.883,43.019C75.633,43.258 75.508,43.561 75.508,43.936C75.508,44.342 75.664,44.659 75.987,44.894C76.32,45.118 76.805,45.243 77.445,45.269L81.758,45.415C86.018,45.54 88.154,47.383 88.154,50.936C88.154,52.17 87.831,53.274 87.195,54.248C86.57,55.232 85.539,56.008 84.112,56.581C82.695,57.149 80.851,57.436 78.591,57.436ZM78.591,53.915C80.242,53.915 81.445,53.675 82.195,53.206C82.956,52.748 83.341,52.144 83.341,51.394C83.341,50.795 83.143,50.352 82.758,50.061C82.367,49.769 81.758,49.613 80.924,49.602L77.112,49.415C76.987,49.415 76.867,49.404 76.758,49.394L76.424,49.394C75.601,49.394 74.976,49.566 74.549,49.915C74.133,50.258 73.924,50.748 73.924,51.373C73.924,52.175 74.31,52.8 75.091,53.248C75.867,53.691 77.034,53.915 78.591,53.915ZM78.654,39.311C79.581,39.311 80.305,39.04 80.82,38.498C81.346,37.946 81.612,37.159 81.612,36.144C81.612,35.133 81.346,34.352 80.82,33.811C80.305,33.269 79.581,32.998 78.654,32.998C77.706,32.998 76.976,33.269 76.466,33.811C75.95,34.352 75.695,35.133 75.695,36.144C75.695,37.175 75.95,37.956 76.466,38.498C76.976,39.04 77.706,39.311 78.654,39.311ZM107.714,40.706L95.318,40.706C95.453,42.373 95.927,43.592 96.734,44.352C97.552,45.118 98.672,45.498 100.089,45.498C101.198,45.498 102.094,45.3 102.776,44.894C103.469,44.477 104.026,43.847 104.443,42.998L104.818,42.998L108.026,45.061C107.401,46.425 106.448,47.529 105.172,48.373C103.906,49.206 102.214,49.623 100.089,49.623C98.089,49.623 96.359,49.248 94.901,48.498C93.453,47.738 92.339,46.602 91.547,45.102C90.766,43.602 90.38,41.779 90.38,39.623C90.38,37.43 90.786,35.581 91.609,34.081C92.443,32.571 93.557,31.446 94.964,30.706C96.38,29.972 97.969,29.602 99.734,29.602C102.469,29.602 104.557,30.326 106.005,31.769C107.464,33.217 108.193,35.331 108.193,38.123C108.193,39.139 108.156,39.925 108.089,40.477L107.714,40.706ZM103.547,37.561C103.505,36.102 103.161,35.04 102.526,34.373C101.885,33.696 100.953,33.352 99.734,33.352C97.286,33.352 95.849,34.758 95.422,37.561L103.547,37.561Z" style="fill:white;"/>
        </g>
    </g>
</svg>
