<svg xmlns="http://www.w3.org/2000/svg" xmlns:xlink="http://www.w3.org/1999/xlink" width="500" zoomAndPan="magnify" viewBox="0 0 375 374.999991" height="500" preserveAspectRatio="xMidYMid meet" version="1.0"><defs><clipPath id="2877dae1d3"><path d="M 42.074219 30.183594 L 337.574219 30.183594 L 337.574219 325.683594 L 42.074219 325.683594 Z M 42.074219 30.183594 " clip-rule="nonzero"/></clipPath></defs><g clip-path="url(#2877dae1d3)"><path fill="#ffffff" d="M 337.574219 248.785156 C 337.574219 248.738281 337.550781 248.699219 337.546875 248.65625 L 337.574219 98.4375 C 337.574219 97.890625 337.378906 97.355469 337.027344 96.933594 C 334.609375 94.042969 327.992188 89.457031 320.25 92.796875 C 318.390625 93.601562 316.945312 94.671875 315.765625 95.847656 L 236.738281 95.847656 C 235.441406 95.847656 234.394531 96.898438 234.394531 98.191406 L 234.394531 145.859375 L 219.199219 145.859375 L 219.199219 140.128906 C 219.199219 138.832031 218.152344 137.78125 216.855469 137.78125 C 215.558594 137.78125 214.507812 138.832031 214.507812 140.128906 L 214.507812 145.863281 L 192.167969 145.863281 L 192.167969 32.527344 C 192.167969 31.234375 191.121094 30.183594 189.824219 30.183594 L 131.191406 30.183594 C 129.894531 30.183594 128.847656 31.234375 128.847656 32.527344 L 128.847656 112.265625 L 104.597656 112.265625 L 104.597656 81.121094 C 104.597656 79.824219 103.550781 78.773438 102.253906 78.773438 L 44.417969 78.773438 C 43.792969 78.773438 43.199219 79.019531 42.761719 79.460938 C 42.320312 79.902344 42.074219 80.496094 42.074219 81.121094 L 42.101562 259.226562 C 42.097656 259.277344 42.074219 259.320312 42.074219 259.371094 C 42.074219 259.421875 42.097656 259.460938 42.101562 259.515625 L 42.105469 272.964844 C 42.101562 273.011719 42.074219 273.058594 42.074219 273.113281 C 42.074219 273.167969 42.101562 273.214844 42.105469 273.265625 L 42.109375 323.296875 C 42.109375 324.59375 43.160156 325.644531 44.457031 325.644531 L 335.1875 325.644531 C 336.484375 325.644531 337.535156 324.59375 337.535156 323.296875 L 337.539062 299.558594 C 337.542969 299.496094 337.574219 299.445312 337.574219 299.382812 C 337.574219 299.324219 337.542969 299.269531 337.539062 299.210938 L 337.542969 273.261719 C 337.546875 273.210938 337.574219 273.164062 337.574219 273.113281 C 337.574219 273.058594 337.546875 273.011719 337.542969 272.960938 L 337.546875 259.507812 C 337.546875 259.457031 337.574219 259.417969 337.574219 259.367188 C 337.574219 259.320312 337.546875 259.28125 337.546875 259.230469 L 337.546875 248.910156 C 337.550781 248.871094 337.574219 248.828125 337.574219 248.785156 Z M 312.226562 312.402344 L 312.226562 320.953125 L 278.902344 320.953125 L 278.902344 312.402344 C 278.902344 303.929688 272.011719 297.039062 263.539062 297.039062 L 222.3125 297.039062 C 213.84375 297.039062 206.949219 303.929688 206.949219 312.402344 L 206.949219 320.953125 L 172.695312 320.953125 L 172.695312 312.402344 C 172.695312 303.929688 165.804688 297.039062 157.328125 297.039062 L 116.105469 297.039062 C 107.632812 297.039062 100.742188 303.929688 100.742188 312.402344 L 100.742188 320.953125 L 67.421875 320.953125 L 67.421875 312.402344 C 67.421875 303.929688 60.53125 297.039062 52.058594 297.039062 L 46.796875 297.039062 L 46.792969 275.460938 L 332.851562 275.460938 L 332.84375 297.039062 L 327.585938 297.039062 C 319.117188 297.039062 312.226562 303.933594 312.226562 312.402344 Z M 274.210938 320.953125 L 211.640625 320.953125 L 211.640625 312.402344 C 211.640625 306.519531 216.425781 301.730469 222.3125 301.730469 L 263.539062 301.730469 C 269.425781 301.730469 274.210938 306.519531 274.210938 312.402344 Z M 168.003906 320.953125 L 105.433594 320.953125 L 105.433594 312.402344 C 105.433594 306.519531 110.21875 301.730469 116.105469 301.730469 L 157.328125 301.730469 C 163.214844 301.730469 168.003906 306.519531 168.003906 312.402344 Z M 142.542969 254.078125 C 142.542969 252.453125 143.867188 251.128906 145.492188 251.128906 C 147.121094 251.128906 148.441406 252.453125 148.441406 254.078125 C 148.441406 255.703125 147.121094 257.027344 145.492188 257.027344 C 143.867188 257.027344 142.542969 255.703125 142.542969 254.078125 Z M 87.910156 217.023438 L 87.011719 217.800781 L 81.089844 217.800781 L 81.089844 210.980469 L 87.910156 210.980469 Z M 89.269531 222.050781 L 95.914062 216.308594 C 98.847656 216.808594 106.957031 218.023438 116.882812 218.023438 C 130.121094 218.023438 146.550781 215.859375 158.097656 206.9375 C 177.234375 192.15625 186.824219 166.28125 189.113281 159.398438 L 332.875 159.398438 L 332.859375 236.570312 L 94.671875 236.570312 C 90.4375 236.570312 87.890625 233.789062 86.925781 231.1875 C 85.957031 228.582031 86.066406 224.816406 89.269531 222.050781 Z M 166.074219 155.699219 C 169.464844 152.769531 173.691406 151.007812 178.128906 150.632812 C 173.652344 168.15625 164.449219 183.824219 152.578125 193.949219 C 142.246094 202.765625 127.957031 206.386719 109.019531 204.984375 Z M 102.925781 210.246094 C 103.480469 210.078125 103.925781 209.722656 104.21875 209.242188 C 108.566406 209.714844 112.726562 209.984375 116.660156 209.984375 C 133.015625 209.984375 145.839844 205.863281 155.625 197.515625 C 168.496094 186.535156 178.386719 169.496094 182.972656 150.550781 L 332.875 150.550781 L 332.875 154.707031 L 187.402344 154.707031 C 186.363281 154.707031 185.449219 155.386719 185.152344 156.382812 C 185.058594 156.691406 175.753906 187.371094 155.230469 203.222656 C 139.261719 215.558594 111.789062 213.648438 100.621094 212.238281 Z M 97.015625 241.257812 L 332.859375 241.257812 L 332.859375 246.4375 L 99.976562 246.4375 C 98.34375 246.4375 97.015625 245.109375 97.015625 243.476562 Z M 190.582031 254.078125 C 190.582031 252.453125 191.902344 251.128906 193.53125 251.128906 C 195.160156 251.128906 196.480469 252.453125 196.480469 254.078125 C 196.480469 255.703125 195.160156 257.027344 193.53125 257.027344 C 191.902344 257.027344 190.582031 255.703125 190.582031 254.078125 Z M 186.488281 257.027344 L 152.535156 257.027344 C 152.917969 256.117188 153.128906 255.125 153.128906 254.078125 C 153.128906 253.03125 152.917969 252.039062 152.535156 251.128906 L 186.484375 251.128906 C 186.105469 252.039062 185.890625 253.03125 185.890625 254.078125 C 185.890625 255.125 186.105469 256.117188 186.488281 257.027344 Z M 200.574219 251.128906 L 287.914062 251.128906 C 287.53125 252.039062 287.320312 253.03125 287.320312 254.078125 C 287.320312 255.125 287.535156 256.117188 287.914062 257.027344 L 200.574219 257.027344 C 200.957031 256.117188 201.167969 255.125 201.167969 254.078125 C 201.167969 253.03125 200.957031 252.039062 200.574219 251.128906 Z M 292.011719 254.078125 C 292.011719 252.453125 293.335938 251.128906 294.960938 251.128906 C 296.589844 251.128906 297.910156 252.453125 297.910156 254.078125 C 297.910156 255.703125 296.589844 257.027344 294.960938 257.027344 C 293.335938 257.027344 292.011719 255.703125 292.011719 254.078125 Z M 302.003906 251.128906 L 332.855469 251.128906 L 332.855469 257.027344 L 302.003906 257.027344 C 302.386719 256.117188 302.597656 255.125 302.597656 254.078125 C 302.597656 253.03125 302.386719 252.039062 302.003906 251.128906 Z M 332.855469 261.714844 L 332.851562 270.769531 L 46.792969 270.769531 L 46.792969 261.714844 Z M 322.113281 97.105469 C 327.34375 94.835938 331.445312 98.015625 332.882812 99.378906 L 332.875 145.863281 L 279.570312 145.863281 L 279.570312 140.128906 C 279.570312 138.832031 278.519531 137.78125 277.222656 137.78125 C 275.925781 137.78125 274.878906 138.832031 274.878906 140.128906 L 274.878906 145.863281 L 256.519531 145.863281 C 256.28125 143.902344 256.277344 140.757812 258.359375 139.175781 C 261.515625 136.78125 265.851562 139.296875 265.886719 139.316406 C 266.574219 139.730469 267.433594 139.761719 268.148438 139.402344 C 268.871094 139.039062 269.355469 138.332031 269.433594 137.53125 C 269.441406 137.453125 270.253906 129.863281 275.765625 126.550781 C 281.238281 123.261719 288.25 126.316406 288.3125 126.34375 C 289.0625 126.683594 289.929688 126.605469 290.605469 126.144531 C 291.28125 125.679688 291.667969 124.894531 291.621094 124.078125 C 291.617188 123.984375 291.183594 114.664062 297.910156 110.46875 C 304.640625 106.273438 312.375 109.988281 312.445312 110.023438 C 313.183594 110.394531 314.074219 110.339844 314.769531 109.886719 C 315.46875 109.4375 315.871094 108.644531 315.835938 107.816406 C 315.820312 107.496094 315.578125 99.933594 322.113281 97.105469 Z M 239.085938 100.539062 L 312.609375 100.539062 C 311.984375 102.011719 311.601562 103.449219 311.398438 104.660156 C 307.734375 103.609375 301.421875 102.746094 295.421875 106.488281 C 289.246094 110.339844 287.535156 117.011719 287.078125 121.019531 C 283.726562 120.179688 278.265625 119.578125 273.34375 122.535156 C 268.351562 125.535156 266.230469 130.726562 265.351562 134.035156 C 262.78125 133.257812 258.949219 132.839844 255.523438 135.441406 C 251.84375 138.238281 251.535156 142.839844 251.804688 145.863281 L 239.085938 145.863281 Z M 133.539062 34.875 L 187.476562 34.875 L 187.476562 145.863281 L 179.910156 145.863281 C 173.703125 145.863281 167.703125 148.09375 163.011719 152.148438 L 159.335938 155.324219 L 159.328125 114.613281 C 159.328125 113.316406 158.277344 112.265625 156.984375 112.265625 L 133.539062 112.265625 Z M 154.636719 116.957031 L 154.644531 159.378906 L 148.886719 164.351562 L 148.886719 153.699219 C 148.886719 152.40625 147.839844 151.355469 146.542969 151.355469 L 135.027344 151.355469 C 133.730469 151.355469 132.683594 152.40625 132.683594 153.699219 L 132.683594 165.207031 C 132.683594 166.5 133.730469 167.550781 135.027344 167.550781 L 145.183594 167.550781 L 104.597656 202.605469 L 104.597656 116.957031 Z M 144.195312 156.042969 L 144.195312 162.859375 L 137.375 162.859375 L 137.375 156.042969 Z M 99.910156 83.464844 L 99.910156 206.660156 L 92.601562 212.972656 L 92.601562 208.632812 C 92.601562 207.339844 91.554688 206.289062 90.257812 206.289062 L 78.742188 206.289062 C 77.445312 206.289062 76.398438 207.339844 76.398438 208.632812 L 76.398438 220.148438 C 76.398438 221.441406 77.445312 222.492188 78.742188 222.492188 L 83.113281 222.492188 C 81.519531 225.636719 81.234375 229.335938 82.527344 232.820312 C 84.15625 237.195312 87.875 240.226562 92.328125 241.027344 L 92.328125 243.476562 C 92.328125 247.695312 95.761719 251.128906 99.980469 251.128906 L 138.449219 251.128906 C 138.066406 252.035156 137.855469 253.03125 137.855469 254.074219 C 137.855469 255.121094 138.070312 256.117188 138.449219 257.023438 L 46.792969 257.023438 L 46.761719 83.464844 Z M 46.796875 301.730469 L 52.058594 301.730469 C 57.945312 301.730469 62.730469 306.519531 62.730469 312.402344 L 62.730469 320.953125 L 46.804688 320.953125 Z M 316.917969 320.953125 L 316.917969 312.402344 C 316.917969 306.519531 321.703125 301.730469 327.589844 301.730469 L 332.847656 301.730469 L 332.84375 320.953125 Z M 316.917969 320.953125 " fill-opacity="1" fill-rule="nonzero"/></g><path fill="#ffffff" d="M 116.429688 231.550781 C 118.3125 232.265625 123.472656 234.070312 127.59375 234.070312 C 129.09375 234.070312 130.457031 233.832031 131.472656 233.21875 C 133.667969 231.890625 134.722656 229.222656 134.234375 226.257812 C 133.695312 223.003906 131.523438 220.496094 128.695312 219.871094 C 123.839844 218.808594 117.371094 225.683594 115.5 227.8125 C 114.996094 228.394531 114.804688 229.179688 114.988281 229.925781 C 115.175781 230.671875 115.714844 231.277344 116.429688 231.550781 Z M 127.683594 224.449219 C 128.75 224.683594 129.429688 225.945312 129.605469 227.019531 C 129.742188 227.851562 129.625 228.851562 129.042969 229.203125 C 128.199219 229.710938 125.035156 229.292969 121.558594 228.304688 C 124.125 225.929688 126.734375 224.246094 127.683594 224.449219 Z M 127.683594 224.449219 " fill-opacity="1" fill-rule="nonzero"/><path fill="#ffffff" d="M 225.453125 225.125 L 236.804688 225.125 C 242.171875 225.125 246.535156 220.757812 246.535156 215.394531 L 246.535156 173.714844 C 246.535156 168.351562 242.171875 163.984375 236.804688 163.984375 L 225.453125 163.984375 C 220.085938 163.984375 215.71875 168.351562 215.71875 173.714844 L 215.71875 215.394531 C 215.71875 220.757812 220.085938 225.125 225.453125 225.125 Z M 220.410156 173.714844 C 220.410156 170.933594 222.671875 168.675781 225.453125 168.675781 L 236.804688 168.675781 C 239.585938 168.675781 241.84375 170.933594 241.84375 173.714844 L 241.84375 215.394531 C 241.84375 218.175781 239.585938 220.4375 236.804688 220.4375 L 225.453125 220.4375 C 222.671875 220.4375 220.410156 218.175781 220.410156 215.394531 Z M 220.410156 173.714844 " fill-opacity="1" fill-rule="nonzero"/><path fill="#ffffff" d="M 225.519531 189.214844 L 236.738281 189.214844 C 238.035156 189.214844 239.085938 188.164062 239.085938 186.871094 L 239.085938 175.648438 C 239.085938 174.355469 238.035156 173.304688 236.738281 173.304688 L 225.519531 173.304688 C 224.222656 173.304688 223.171875 174.355469 223.171875 175.648438 L 223.171875 186.871094 C 223.171875 188.164062 224.222656 189.214844 225.519531 189.214844 Z M 227.863281 177.992188 L 234.394531 177.992188 L 234.394531 184.527344 L 227.863281 184.527344 Z M 227.863281 177.992188 " fill-opacity="1" fill-rule="nonzero"/><path fill="#ffffff" d="M 56.144531 108.210938 L 67.65625 108.210938 C 68.953125 108.210938 70.003906 107.160156 70.003906 105.867188 L 70.003906 94.351562 C 70.003906 93.058594 68.953125 92.007812 67.65625 92.007812 L 56.144531 92.007812 C 54.847656 92.007812 53.800781 93.058594 53.800781 94.351562 L 53.800781 105.867188 C 53.800781 107.160156 54.847656 108.210938 56.144531 108.210938 Z M 58.488281 96.699219 L 65.3125 96.699219 L 65.3125 103.519531 L 58.488281 103.519531 Z M 58.488281 96.699219 " fill-opacity="1" fill-rule="nonzero"/><path fill="#ffffff" d="M 78.742188 108.210938 L 90.257812 108.210938 C 91.554688 108.210938 92.601562 107.160156 92.601562 105.867188 L 92.601562 94.351562 C 92.601562 93.058594 91.554688 92.007812 90.257812 92.007812 L 78.742188 92.007812 C 77.445312 92.007812 76.398438 93.058594 76.398438 94.351562 L 76.398438 105.867188 C 76.398438 107.160156 77.445312 108.210938 78.742188 108.210938 Z M 81.089844 96.699219 L 87.910156 96.699219 L 87.910156 103.519531 L 81.089844 103.519531 Z M 81.089844 96.699219 " fill-opacity="1" fill-rule="nonzero"/><path fill="#ffffff" d="M 56.144531 136.78125 L 67.65625 136.78125 C 68.953125 136.78125 70.003906 135.730469 70.003906 134.4375 L 70.003906 122.921875 C 70.003906 121.628906 68.953125 120.578125 67.65625 120.578125 L 56.144531 120.578125 C 54.847656 120.578125 53.800781 121.628906 53.800781 122.921875 L 53.800781 134.4375 C 53.800781 135.730469 54.847656 136.78125 56.144531 136.78125 Z M 58.488281 125.269531 L 65.3125 125.269531 L 65.3125 132.089844 L 58.488281 132.089844 Z M 58.488281 125.269531 " fill-opacity="1" fill-rule="nonzero"/><path fill="#ffffff" d="M 78.742188 136.78125 L 90.257812 136.78125 C 91.554688 136.78125 92.601562 135.730469 92.601562 134.4375 L 92.601562 122.921875 C 92.601562 121.628906 91.554688 120.578125 90.257812 120.578125 L 78.742188 120.578125 C 77.445312 120.578125 76.398438 121.628906 76.398438 122.921875 L 76.398438 134.4375 C 76.398438 135.730469 77.445312 136.78125 78.742188 136.78125 Z M 81.089844 125.269531 L 87.910156 125.269531 L 87.910156 132.089844 L 81.089844 132.089844 Z M 81.089844 125.269531 " fill-opacity="1" fill-rule="nonzero"/><path fill="#ffffff" d="M 112.429688 141.972656 L 123.941406 141.972656 C 125.238281 141.972656 126.289062 140.921875 126.289062 139.628906 L 126.289062 128.113281 C 126.289062 126.820312 125.238281 125.769531 123.941406 125.769531 L 112.429688 125.769531 C 111.132812 125.769531 110.085938 126.820312 110.085938 128.113281 L 110.085938 139.628906 C 110.085938 140.925781 111.132812 141.972656 112.429688 141.972656 Z M 114.777344 130.460938 L 121.597656 130.460938 L 121.597656 137.285156 L 114.777344 137.285156 Z M 114.777344 130.460938 " fill-opacity="1" fill-rule="nonzero"/><path fill="#ffffff" d="M 135.027344 141.972656 L 146.542969 141.972656 C 147.839844 141.972656 148.886719 140.921875 148.886719 139.628906 L 148.886719 128.113281 C 148.886719 126.820312 147.839844 125.769531 146.542969 125.769531 L 135.027344 125.769531 C 133.730469 125.769531 132.683594 126.820312 132.683594 128.113281 L 132.683594 139.628906 C 132.683594 140.925781 133.730469 141.972656 135.027344 141.972656 Z M 137.375 130.460938 L 144.195312 130.460938 L 144.195312 137.285156 L 137.375 137.285156 Z M 137.375 130.460938 " fill-opacity="1" fill-rule="nonzero"/><path fill="#ffffff" d="M 112.429688 167.546875 L 123.941406 167.546875 C 125.238281 167.546875 126.289062 166.496094 126.289062 165.203125 L 126.289062 153.695312 C 126.289062 152.402344 125.238281 151.351562 123.941406 151.351562 L 112.429688 151.351562 C 111.132812 151.351562 110.085938 152.402344 110.085938 153.695312 L 110.085938 165.203125 C 110.085938 166.5 111.132812 167.546875 112.429688 167.546875 Z M 114.777344 156.042969 L 121.597656 156.042969 L 121.597656 162.859375 L 114.777344 162.859375 Z M 114.777344 156.042969 " fill-opacity="1" fill-rule="nonzero"/><path fill="#ffffff" d="M 56.144531 165.351562 L 67.65625 165.351562 C 68.953125 165.351562 70.003906 164.300781 70.003906 163.007812 L 70.003906 151.492188 C 70.003906 150.199219 68.953125 149.148438 67.65625 149.148438 L 56.144531 149.148438 C 54.847656 149.148438 53.800781 150.199219 53.800781 151.492188 L 53.800781 163.007812 C 53.800781 164.300781 54.847656 165.351562 56.144531 165.351562 Z M 58.488281 153.839844 L 65.3125 153.839844 L 65.3125 160.664062 L 58.488281 160.664062 Z M 58.488281 153.839844 " fill-opacity="1" fill-rule="nonzero"/><path fill="#ffffff" d="M 78.742188 165.351562 L 90.257812 165.351562 C 91.554688 165.351562 92.601562 164.300781 92.601562 163.007812 L 92.601562 151.492188 C 92.601562 150.199219 91.554688 149.148438 90.257812 149.148438 L 78.742188 149.148438 C 77.445312 149.148438 76.398438 150.199219 76.398438 151.492188 L 76.398438 163.007812 C 76.398438 164.300781 77.445312 165.351562 78.742188 165.351562 Z M 81.089844 153.839844 L 87.910156 153.839844 L 87.910156 160.664062 L 81.089844 160.664062 Z M 81.089844 153.839844 " fill-opacity="1" fill-rule="nonzero"/><path fill="#ffffff" d="M 56.144531 193.921875 L 67.65625 193.921875 C 68.953125 193.921875 70.003906 192.871094 70.003906 191.578125 L 70.003906 180.0625 C 70.003906 178.769531 68.953125 177.71875 67.65625 177.71875 L 56.144531 177.71875 C 54.847656 177.71875 53.800781 178.769531 53.800781 180.0625 L 53.800781 191.578125 C 53.800781 192.871094 54.847656 193.921875 56.144531 193.921875 Z M 58.488281 182.40625 L 65.3125 182.40625 L 65.3125 189.230469 L 58.488281 189.230469 Z M 58.488281 182.40625 " fill-opacity="1" fill-rule="nonzero"/><path fill="#ffffff" d="M 78.742188 193.921875 L 90.257812 193.921875 C 91.554688 193.921875 92.601562 192.871094 92.601562 191.578125 L 92.601562 180.0625 C 92.601562 178.769531 91.554688 177.71875 90.257812 177.71875 L 78.742188 177.71875 C 77.445312 177.71875 76.398438 178.769531 76.398438 180.0625 L 76.398438 191.578125 C 76.398438 192.871094 77.445312 193.921875 78.742188 193.921875 Z M 81.089844 182.40625 L 87.910156 182.40625 L 87.910156 189.230469 L 81.089844 189.230469 Z M 81.089844 182.40625 " fill-opacity="1" fill-rule="nonzero"/><path fill="#ffffff" d="M 56.144531 222.492188 L 67.65625 222.492188 C 68.953125 222.492188 70.003906 221.441406 70.003906 220.148438 L 70.003906 208.632812 C 70.003906 207.339844 68.953125 206.289062 67.65625 206.289062 L 56.144531 206.289062 C 54.847656 206.289062 53.800781 207.339844 53.800781 208.632812 L 53.800781 220.148438 C 53.800781 221.441406 54.847656 222.492188 56.144531 222.492188 Z M 58.488281 210.980469 L 65.3125 210.980469 L 65.3125 217.800781 L 58.488281 217.800781 Z M 58.488281 210.980469 " fill-opacity="1" fill-rule="nonzero"/><path fill="#ffffff" d="M 142.917969 58.324219 L 154.644531 58.324219 C 155.941406 58.324219 156.988281 57.273438 156.988281 55.980469 L 156.988281 44.253906 C 156.988281 42.960938 155.941406 41.910156 154.644531 41.910156 L 142.917969 41.910156 C 141.621094 41.910156 140.574219 42.960938 140.574219 44.253906 L 140.574219 55.980469 C 140.574219 57.273438 141.621094 58.324219 142.917969 58.324219 Z M 145.261719 46.597656 L 152.300781 46.597656 L 152.300781 53.636719 L 145.261719 53.636719 Z M 145.261719 46.597656 " fill-opacity="1" fill-rule="nonzero"/><path fill="#ffffff" d="M 166.371094 58.324219 L 178.097656 58.324219 C 179.394531 58.324219 180.441406 57.273438 180.441406 55.980469 L 180.441406 44.253906 C 180.441406 42.960938 179.394531 41.910156 178.097656 41.910156 L 166.371094 41.910156 C 165.074219 41.910156 164.027344 42.960938 164.027344 44.253906 L 164.027344 55.980469 C 164.027344 57.273438 165.074219 58.324219 166.371094 58.324219 Z M 168.714844 46.597656 L 175.75 46.597656 L 175.75 53.636719 L 168.714844 53.636719 Z M 168.714844 46.597656 " fill-opacity="1" fill-rule="nonzero"/><path fill="#ffffff" d="M 142.917969 81.777344 L 154.644531 81.777344 C 155.941406 81.777344 156.988281 80.726562 156.988281 79.433594 L 156.988281 67.707031 C 156.988281 66.414062 155.941406 65.363281 154.644531 65.363281 L 142.917969 65.363281 C 141.621094 65.363281 140.574219 66.414062 140.574219 67.707031 L 140.574219 79.433594 C 140.574219 80.726562 141.621094 81.777344 142.917969 81.777344 Z M 145.261719 70.050781 L 152.300781 70.050781 L 152.300781 77.085938 L 145.261719 77.085938 Z M 145.261719 70.050781 " fill-opacity="1" fill-rule="nonzero"/><path fill="#ffffff" d="M 166.371094 81.777344 L 178.097656 81.777344 C 179.394531 81.777344 180.441406 80.726562 180.441406 79.433594 L 180.441406 67.707031 C 180.441406 66.414062 179.394531 65.363281 178.097656 65.363281 L 166.371094 65.363281 C 165.074219 65.363281 164.027344 66.414062 164.027344 67.707031 L 164.027344 79.433594 C 164.027344 80.726562 165.074219 81.777344 166.371094 81.777344 Z M 168.714844 70.050781 L 175.75 70.050781 L 175.75 77.085938 L 168.714844 77.085938 Z M 168.714844 70.050781 " fill-opacity="1" fill-rule="nonzero"/><path fill="#ffffff" d="M 156.988281 91.160156 C 156.988281 89.863281 155.941406 88.8125 154.644531 88.8125 L 142.917969 88.8125 C 141.621094 88.8125 140.574219 89.863281 140.574219 91.160156 L 140.574219 102.886719 C 140.574219 104.179688 141.621094 105.230469 142.917969 105.230469 L 154.644531 105.230469 C 155.941406 105.230469 156.988281 104.179688 156.988281 102.886719 Z M 152.300781 100.539062 L 145.261719 100.539062 L 145.261719 93.503906 L 152.300781 93.503906 Z M 152.300781 100.539062 " fill-opacity="1" fill-rule="nonzero"/><path fill="#ffffff" d="M 166.371094 105.230469 L 178.097656 105.230469 C 179.394531 105.230469 180.441406 104.179688 180.441406 102.886719 L 180.441406 91.160156 C 180.441406 89.863281 179.394531 88.8125 178.097656 88.8125 L 166.371094 88.8125 C 165.074219 88.8125 164.027344 89.863281 164.027344 91.160156 L 164.027344 102.886719 C 164.027344 104.179688 165.074219 105.230469 166.371094 105.230469 Z M 168.714844 93.503906 L 175.75 93.503906 L 175.75 100.539062 L 168.714844 100.539062 Z M 168.714844 93.503906 " fill-opacity="1" fill-rule="nonzero"/></svg>