<svg version="1.1" viewBox="0 0 1113 37" xmlns="http://www.w3.org/2000/svg">
<path d="m0 24.308 39.4-0.2 36.1-4.441c24.344-5.847 52.783-9.648 80.5-13.809l12 0.75 10.5 1.5 11.193 0.942c2.551 0.716 7.574 1.275 11.75 1.45l4.65 0.45 2.7 1.05h8.85l2.384 1.25 6.166-0.05 23.4 8.7 56.305-0.5 6.283-1 22.2-0.3 9.6 2.25h7.05c18.566-5.504 39.602-10.019 61.725-14.1h7.2l5.25 2.25 13.65 1.35 15.975 6.45 12.45 0.15c3.364-2.503 7.053-2.731 10.95-1.5 2.569-2.204 5.522-3.57 10.05-1.5 2.604-2.262 5.921-3.602 11.55-1.95l5.517 0.033c3.262-0.79 6.326-0.692 9.233 0.117l8.85 3.067 5.911-0.089 1.189-0.628 2 0.783c32.292 0.969 56.708-2.251 74.28-9.283l2.91 0.48 3.463-1.646 4.997-0.034 14.97 5.97 15.03 0.03 1.897 1.2c35.941 0.448 59.739-1.278 72.48-5.79l8.43 0.09s14.656 4.838 22.26 4.44c8.13-0.425 26.52-6.99 26.52-6.99l7.492 0.05 27.308-5.3 63.398 20.821 9.615 1.979 15.48 1.32 18.795 0.215c23.426-2.852 44.327-6.622 60.712-12.035l22.74-1.02 16.628 2.67 25.132 0.9 14.85 0.45 18.75 0.15 32.932 4.658v16.2h-1113.6v-12z"/>
</svg>
