<?xml version="1.0" encoding="UTF-8" standalone="no"?><!DOCTYPE svg PUBLIC "-//W3C//DTD SVG 1.1//EN" "http://www.w3.org/Graphics/SVG/1.1/DTD/svg11.dtd"><svg width="100%" height="100%" viewBox="0 0 382 154" version="1.1" xmlns="http://www.w3.org/2000/svg" xmlns:xlink="http://www.w3.org/1999/xlink" xml:space="preserve" xmlns:serif="http://www.serif.com/" style="fill-rule:evenodd;clip-rule:evenodd;stroke-linejoin:round;stroke-miterlimit:2;"><path d="M364.774,35.444l-8.143,-3.365l-5.315,4.369l1.779,-6.65l-6.433,-6.033l8.144,3.364l5.315,-4.368l-1.78,6.649l6.433,6.034Zm-31.057,-20.131l-0.89,3.718l-0.491,-3.787l-2.783,-1.06l2.886,-0.764l0.89,-3.719l0.49,3.787l2.783,1.061l-2.885,0.764Zm-149.791,8.474l4.881,-4.585l-1.357,-5.052l4.037,3.319l6.194,-2.555l-4.882,4.585l1.357,5.053l-4.037,-3.32l-6.193,2.555Zm197.683,46.513c-3.741,-6.935 -9.455,-11.36 -15.854,-11.36c-8.942,-0 -16.527,8.645 -19.298,20.678l0.216,-3.456c1.517,-9.82 10.288,-21.157 16.733,-21.157l-15.375,-0l-0,-0.023l-138.351,-0c8.28,7.06 12.284,17.873 12.865,28.024c-7.208,-19.937 -19.652,-25.526 -35.597,-25.526c-15.945,-0 -33.225,9.683 -42.806,37.867c-0.387,-9.718 5.087,-29.393 19.276,-40.365c-17.964,-0 -46.615,17.861 -55.432,17.485c0,-0 20.211,-8.258 27.522,-17.485c0,-0 9.113,-11.543 -1.802,-14.383c-3.114,-0.809 -7.448,-0.33 -12.261,1.061c-0.011,0 -0.023,0.011 -0.046,0.011c-0.205,0.058 -0.433,0.137 -0.65,0.206c-0.444,0.137 -0.889,0.274 -1.334,0.433c-11.725,3.878 -35.107,14.223 -46.592,19.059c-1.369,0.582 -2.909,1.232 -4.551,1.939c-1.38,0.593 -2.874,0.901 -4.369,0.901l-63.746,0c-0.16,0 -0.217,-0.217 -0.08,-0.296c6.912,-4.392 11.451,-7.756 14.907,-10.665c2.943,-2.304 5.829,-4.927 8.304,-7.835c-0,-0 73.03,-8.258 120.159,-7.973c47.128,0.285 80.866,2.418 80.866,2.418c0,-0 21.922,-28.902 22.492,-30.043c0.57,-1.14 3.422,-3.992 -6.695,-5.121c-10.105,-1.14 -40.011,-3.273 -74.605,5.27c0,-0 23.245,-8.167 50.402,-9.399c35.472,-1.608 55.534,0.035 75.597,7.266c21.739,7.836 56.949,33.738 56.949,33.738c-0,-0 4.254,3.216 8.394,3.752c4.084,0.525 18.215,0.913 18.957,0.913c0.787,-0 1.471,1.494 0.308,1.939c-1.552,0.581 -8.829,3.136 -6.65,4.459c1.756,1.061 7.049,6.159 12.147,17.668Zm-65.891,-46.946c-15.523,-9.113 -31.89,-14.52 -43.991,-16.801c-12.102,-2.281 -16.801,4.551 -19.652,8.11c-2.852,3.558 -19.219,25.948 -19.219,25.948c-0,-0 81.437,3.102 97.382,2.247c15.945,-0.856 0.992,-10.391 -14.52,-19.504Zm-47.174,5.703c8.076,1.414 13.995,8.417 13.995,8.417l-33.498,-1.072c1.836,-5.669 9.512,-9.102 19.503,-7.345Zm41.825,0.924l2.783,2.612l-3.536,-1.46l-2.304,1.893l0.776,-2.874l-2.783,-2.612l3.536,1.46l2.304,-1.894l-0.776,2.875Zm-90.424,29.814l83.444,0.069l-78.825,2.543c-0.194,1.665 -0.399,3.216 -0.582,4.494c-1.083,-2.498 -2.429,-4.893 -4.037,-7.106Z" style="fill:url(#_Linear1);"/><path d="M140.1,127.84l-7.179,-0l0,-6.938l6.08,-0c1.368,-0 2.414,-0.335 3.14,-1.005c0.718,-0.67 1.077,-1.556 1.077,-2.658c0,-1.102 -0.359,-1.988 -1.077,-2.658c-0.726,-0.669 -1.772,-1.004 -3.14,-1.004l-6.08,-0l0,-7.242l7.681,0c2.477,0 4.654,0.454 6.53,1.361c1.877,0.907 3.352,2.162 4.427,3.767c1.067,1.604 1.601,3.481 1.601,5.63c-0,2.141 -0.544,4.015 -1.633,5.619c-1.088,1.612 -2.602,2.867 -4.541,3.767c-1.947,0.907 -4.242,1.361 -6.886,1.361Zm-5.274,14.263l-10.046,-0l0,-35.768l10.046,0l-0,35.768Zm20.646,-0l-11.406,-0l-9.742,-15.268l9.041,-1.957l12.107,17.225Zm12.453,-0l-9.837,-0l0,-24.717l9.837,-0l0,24.717Zm1.915,-30.745l-11.207,4.019l-2.512,-4.866l9.544,-6.781l4.175,7.628Zm13.405,42.099c-2.777,-0 -5.236,-0.461 -7.377,-1.382c-2.142,-0.92 -3.799,-2.218 -4.971,-3.892l5.818,-5.777c0.775,0.837 1.629,1.497 2.564,1.978c0.942,0.488 2.082,0.733 3.422,0.733c1.604,-0 2.867,-0.384 3.788,-1.152c0.921,-0.774 1.381,-1.897 1.381,-3.369l0,-6.53l1.612,-5.326l-1.361,-5.274l0,-6.08l9.596,-0l0,22.812c0,2.707 -0.638,5.051 -1.915,7.032c-1.269,1.975 -2.992,3.506 -5.169,4.594c-2.177,1.089 -4.639,1.633 -7.388,1.633Zm-0.45,-12.359c-2.309,0 -4.35,-0.537 -6.122,-1.611c-1.779,-1.068 -3.17,-2.522 -4.175,-4.364c-1.005,-1.842 -1.507,-3.886 -1.507,-6.132c0,-2.274 0.502,-4.326 1.507,-6.153c1.005,-1.821 2.396,-3.269 4.175,-4.343c1.772,-1.074 3.813,-1.612 6.122,-1.612c1.444,0 2.777,0.245 3.997,0.733c1.221,0.488 2.243,1.165 3.067,2.03c0.816,0.872 1.342,1.877 1.58,3.014l-0,12.662c-0.238,1.137 -0.764,2.142 -1.58,3.014c-0.824,0.872 -1.846,1.548 -3.067,2.03c-1.22,0.488 -2.553,0.732 -3.997,0.732Zm1.81,-8.392c0.803,-0 1.49,-0.182 2.062,-0.544c0.565,-0.37 1.001,-0.841 1.308,-1.413c0.3,-0.565 0.45,-1.169 0.45,-1.811c-0,-0.634 -0.15,-1.234 -0.45,-1.799c-0.307,-0.572 -0.736,-1.043 -1.287,-1.413c-0.551,-0.37 -1.228,-0.555 -2.03,-0.555c-0.775,0 -1.444,0.185 -2.009,0.555c-0.573,0.37 -1.009,0.847 -1.309,1.434c-0.3,0.586 -0.45,1.179 -0.45,1.778c0,0.573 0.15,1.152 0.45,1.738c0.3,0.586 0.726,1.07 1.277,1.454c0.558,0.384 1.221,0.576 1.988,0.576Zm28.083,9.899c-2.316,0 -4.36,-0.551 -6.132,-1.653c-1.772,-1.11 -3.161,-2.627 -4.165,-4.552c-1.005,-1.926 -1.507,-4.144 -1.507,-6.656c-0,-2.511 0.502,-4.737 1.507,-6.676c1.004,-1.946 2.393,-3.464 4.165,-4.552c1.772,-1.088 3.816,-1.633 6.132,-1.633c1.437,0 2.766,0.245 3.987,0.733c1.221,0.488 2.243,1.165 3.066,2.03c0.823,0.872 1.35,1.877 1.58,3.014l-0,14.169c-0.23,1.137 -0.757,2.141 -1.58,3.013c-0.823,0.872 -1.845,1.549 -3.066,2.031c-1.221,0.488 -2.55,0.732 -3.987,0.732Zm2.208,-8.644c1.235,0 2.229,-0.39 2.982,-1.172c0.754,-0.788 1.13,-1.803 1.13,-3.045c0,-0.837 -0.167,-1.566 -0.502,-2.187c-0.335,-0.614 -0.809,-1.106 -1.423,-1.475c-0.621,-0.37 -1.333,-0.555 -2.135,-0.555c-0.809,0 -1.521,0.185 -2.135,0.555c-0.621,0.369 -1.116,0.872 -1.486,1.507c-0.369,0.634 -0.554,1.353 -0.554,2.155c-0,0.803 0.178,1.525 0.533,2.166c0.349,0.635 0.841,1.138 1.476,1.507c0.635,0.363 1.339,0.544 2.114,0.544Zm13.405,8.142l-9.586,-0l0,-6.635l1.35,-6.027l-1.35,-5.975l0,-6.08l9.586,-0l-0,24.717Zm30.294,-0l-9.847,-0l0,-13.866c0,-0.969 -0.275,-1.712 -0.826,-2.229c-0.551,-0.523 -1.246,-0.784 -2.083,-0.784c-0.572,-0 -1.085,0.118 -1.538,0.355c-0.454,0.231 -0.806,0.572 -1.057,1.026c-0.251,0.453 -0.377,0.998 -0.377,1.632l-3.809,-1.705c0,-2.01 0.443,-3.733 1.329,-5.17c0.886,-1.444 2.107,-2.55 3.663,-3.317c1.555,-0.774 3.324,-1.162 5.305,-1.162c1.772,0 3.352,0.395 4.741,1.183c1.388,0.788 2.487,1.859 3.296,3.212c0.802,1.361 1.203,2.927 1.203,4.699l0,16.126Zm-15.728,-0l-9.836,-0l-0,-24.717l9.836,-0l0,24.717Z" style="fill:url(#_Linear2);fill-rule:nonzero;"/><defs><linearGradient id="_Linear1" x1="0" y1="0" x2="1" y2="0" gradientUnits="userSpaceOnUse" gradientTransform="matrix(158.56,0,0,158.56,111.955,-1.27111)"><stop offset="0" style="stop-color:#5d28dd;stop-opacity:1"/><stop offset="1" style="stop-color:#8460da;stop-opacity:1"/></linearGradient><linearGradient id="_Linear2" x1="0" y1="0" x2="1" y2="0" gradientUnits="userSpaceOnUse" gradientTransform="matrix(133.815,0,0,133.815,124.78,128.593)"><stop offset="0" style="stop-color:#bfc5cd;stop-opacity:1"/><stop offset="1" style="stop-color:#fff;stop-opacity:1"/></linearGradient></defs></svg>