<?xml version="1.0" encoding="UTF-8" standalone="no"?><!DOCTYPE svg PUBLIC "-//W3C//DTD SVG 1.1//EN" "http://www.w3.org/Graphics/SVG/1.1/DTD/svg11.dtd"><svg width="100%" height="100%" viewBox="0 0 428 159" version="1.1" xmlns="http://www.w3.org/2000/svg" xmlns:xlink="http://www.w3.org/1999/xlink" xml:space="preserve" xmlns:serif="http://www.serif.com/" style="fill-rule:evenodd;clip-rule:evenodd;stroke-linejoin:round;stroke-miterlimit:2;"><path id="a" d="M1.294,79.595c0,42.286 35.201,77.081 77.978,77.081c42.777,0 77.978,-34.795 77.978,-77.081c-0,-42.285 -35.201,-77.081 -77.978,-77.081c-42.777,0 -77.978,34.796 -77.978,77.081" style="fill:url(#_Linear1);fill-rule:nonzero;"/><path id="s" d="M58.48,53.948c-0.032,-0.001 -0.064,-0.001 -0.097,-0.001c-9.413,0 -17.159,7.746 -17.159,17.159c0,9.413 7.746,17.159 17.159,17.159c9.413,0 17.159,-7.746 17.159,-17.159c-0.01,-9.372 -7.689,-17.095 -17.062,-17.158Zm0,30.426c-0.032,0.001 -0.064,0.001 -0.097,0.001c-7.278,-0 -13.268,-5.99 -13.268,-13.268c0,-7.279 5.99,-13.268 13.268,-13.268c7.279,-0 13.268,5.989 13.268,13.267c-0.01,7.238 -5.933,13.205 -13.171,13.268Zm34.163,-71.242l-0,-0.117c-0.047,-0.122 -0.105,-0.24 -0.175,-0.35c-0.195,-0.307 -0.462,-0.561 -0.779,-0.739l-0.33,-0.117l-1.109,-0l-18.949,5.175c-0.871,0.234 -1.471,1.044 -1.44,1.945l0,13.268c-0.98,-0.507 -2.067,-0.773 -3.171,-0.778c-3.874,0 -7.062,3.188 -7.062,7.062c0,3.874 3.188,7.062 7.062,7.062c3.874,0 7.062,-3.188 7.062,-7.062l0,-18.19l15.058,-4.105l0,10.72c-0.98,-0.507 -2.067,-0.774 -3.171,-0.779c-3.874,0 -7.062,3.188 -7.062,7.062c0,3.875 3.188,7.063 7.062,7.063c3.874,-0 7.062,-3.188 7.062,-7.063l0,-19.454c0.006,-0.084 0.006,-0.169 0,-0.253c-0.008,-0.118 -0.027,-0.236 -0.058,-0.35Zm-25.933,28.365c-1.74,-0 -3.171,-1.432 -3.171,-3.171c-0,-1.74 1.431,-3.172 3.171,-3.172c1.739,0 3.171,1.432 3.171,3.172c-0,1.739 -1.432,3.171 -3.171,3.171Zm18.948,-5.175c-1.739,-0 -3.171,-1.432 -3.171,-3.171c0,-1.74 1.432,-3.172 3.171,-3.172c1.74,0 3.172,1.432 3.172,3.172c-0,0.006 -0,0.013 -0,0.019c-0,1.74 -1.432,3.171 -3.171,3.171c-0,0 -0.001,0 -0.001,0l0,-0.019Zm52.936,43.772c0.006,-0.084 0.006,-0.168 0,-0.252c-0.006,-0.085 0,-0 0,-0.117c-0.08,-0.107 -0.171,-0.204 -0.272,-0.292c-0.111,-0.249 -0.294,-0.459 -0.525,-0.603l-0.292,-0.195l-0.35,-0.116l-0.973,-0l-24.26,6.595c-0.871,0.234 -1.47,1.044 -1.439,1.945l-0,17.898c-1.369,-0.881 -2.964,-1.35 -4.592,-1.35c-4.653,0 -8.482,3.829 -8.482,8.483c0,4.653 3.829,8.482 8.482,8.482c4.653,-0 8.482,-3.829 8.482,-8.482c0,-0.004 0,-0.008 0,-0.012l0,-23.618l20.369,-5.545l0,15.35c-1.369,-0.881 -2.963,-1.35 -4.591,-1.35c-4.653,0 -8.482,3.829 -8.482,8.482c-0,4.653 3.829,8.482 8.482,8.482c4.653,0 8.482,-3.829 8.482,-8.482c0,-0.004 0,-0.008 0,-0.012l0,-25.018c-0.007,-0.085 -0.02,-0.17 -0.039,-0.253l0,-0.02Zm-32.703,36.497c-2.489,-0.042 -4.513,-2.101 -4.513,-4.59c-0,-2.519 2.072,-4.592 4.591,-4.592c2.518,0 4.591,2.073 4.591,4.591c-0.01,2.522 -2.088,4.592 -4.61,4.592c-0.02,-0 -0.039,-0.001 -0.059,-0.001Zm24.26,-6.614c-2.529,-0 -4.611,-2.082 -4.611,-4.611c0,-2.529 2.082,-4.611 4.611,-4.611c2.529,0 4.611,2.082 4.611,4.611c-0,2.529 -2.082,4.611 -4.611,4.611Zm-50.718,-109.977c-43.576,0 -79.433,35.857 -79.433,79.433c0,43.576 35.857,79.433 79.433,79.433c43.576,0 79.433,-35.857 79.433,-79.433c-0.053,-43.556 -35.877,-79.38 -79.433,-79.433Zm15.194,153.36c-15.43,3.159 -31.468,1.41 -45.854,-4.999c-0.887,-3.496 -0.493,-7.197 1.109,-10.428c4.241,-8.171 1.653,-17.062 -7.315,-25.038c-13.366,-11.887 -27.023,-33.073 -21.556,-53.5c2.237,-8.443 6.809,-16.381 11.245,-24.046l1.537,-2.607c1.614,-2.84 3.579,-5.836 6.4,-6.517c1.394,-0.235 2.822,0.165 3.891,1.089c1.097,0.833 1.774,2.107 1.848,3.483c-0.177,1.722 -0.735,3.383 -1.634,4.863l-2.646,5.448c-1.945,3.89 -3.891,8.073 -6.05,12.042c-3.346,6.42 -6.07,12.276 -5.447,19.182c0.611,5.36 2.876,10.399 6.478,14.416c6.537,7.684 17.509,14.863 28.462,11.964c9.922,-2.606 14.649,-12.061 18.813,-20.407c0.836,-1.654 1.634,-3.288 2.47,-4.806l1.459,-2.665c3.126,-5.745 6.265,-11.491 9.416,-17.237c0.91,-1.263 2.375,-2.013 3.931,-2.013c2.658,-0 4.845,2.187 4.845,4.844c-0,0.547 -0.093,1.089 -0.274,1.605l-16.595,32.781c-0.972,1.498 -9.98,16.186 -1.731,30.913l2.159,3.891c6.109,10.486 8.696,15.058 5.039,27.742Zm4.261,-0.953c3.21,-12.84 -0,-18.462 -5.837,-28.812l-2.159,-3.794c-7.335,-13.132 1.556,-26.75 1.653,-26.944l16.673,-33.073c0.659,-1.254 1.004,-2.65 1.004,-4.066c-0,-4.793 -3.944,-8.737 -8.737,-8.737c-3.241,-0 -6.225,1.803 -7.733,4.671l-9.416,17.237l-1.44,2.762c-0.856,1.557 -1.693,3.23 -2.529,4.942c-3.891,7.976 -8.093,16.225 -16.323,18.384c-9.279,2.451 -19.007,-4.26 -24.512,-10.719c-3.051,-3.407 -4.975,-7.676 -5.506,-12.218c-0.525,-5.836 1.946,-11.186 5.019,-17.042c2.101,-4.008 4.125,-8.132 6.09,-12.12l2.645,-5.331c1.177,-2.005 1.876,-4.256 2.043,-6.575c-0.149,-4.792 -4.131,-8.652 -8.925,-8.652c-0.51,-0 -1.019,0.044 -1.522,0.131c-4.766,1.031 -7.49,5.836 -8.969,8.384l-1.556,2.666c-4.552,7.898 -9.28,16.069 -11.673,24.999c-5.836,22.178 8.541,44.745 22.723,57.41c5.37,4.708 10.798,12.159 6.459,20.33c-1.613,3.127 -2.288,6.654 -1.945,10.156c-24.898,-13.001 -40.567,-38.859 -40.567,-66.946c0,-41.431 34.092,-75.523 75.523,-75.523c41.43,0 75.522,34.092 75.522,75.523c0,34.086 -23.077,64.148 -56.005,72.957Z" style="fill:#1c1c30;fill-rule:nonzero;"/><path id="f" d="M198.503,77.052c-0.83,-4.153 -2.01,-8.791 -3.533,-12.75c-1.289,-3.596 -4.816,-11.515 -10.369,-9.294c-1.813,0.362 -2.351,-3.65 -2.381,-3.994c-0.418,-4.781 5.173,-6.18 8.708,-4.926c8.212,2.914 10.018,15.097 11.109,22.285c3.011,-7.695 6.803,-15.049 13.057,-20.624c3.972,-3.54 12.333,-2.693 9.793,4.187c-0.315,0.855 -0.727,1.71 -1.344,2.381c-2.122,2.305 -4.859,-0.424 -7.489,1.229c-4.318,2.714 -6.778,8.539 -8.564,12.98c-2.08,5.309 -5.481,15.34 -0.922,20.508c3.671,5.506 -5.936,7.054 -9.37,5.185c-2.415,-1.315 -0.733,-8.382 -0.576,-9.217c0.502,-2.677 1.146,-5.328 1.881,-7.95Zm21.43,16.898c1.095,-4.281 1.97,-8.844 1.997,-13.288c0.021,-3.47 0.183,-8.397 -3.917,-9.678c-3.234,-1.386 0.085,-5.369 1.882,-6.337c1.085,-0.584 2.343,-0.852 3.571,-0.96c5.621,-0.495 4.644,7.701 4.225,10.83c-0.194,1.444 -0.483,2.873 -0.768,4.302l0.23,0.076c1.747,-4.628 4.543,-10.222 8.833,-13.211c4.699,-3.273 12.421,-3.135 14.594,3.073c1.729,4.94 -1.45,9.272 -1.46,14.132c-0.004,1.96 0.709,3.796 2.333,4.969c1.899,1.371 3.885,1.337 2.43,4.325c-2.537,5.209 -9.651,4.389 -11.33,-1.142c-0.301,-0.993 -0.422,-2.045 -0.422,-3.082c-0,-1.301 0.2,-2.598 0.422,-3.879c0.609,-3.507 4.553,-11.682 -1.958,-12.021c-1.004,-0.052 -2.032,0.194 -2.958,0.586c-0.956,0.405 -1.808,1.054 -2.573,1.757c-1.521,1.399 -3.246,4.027 -4.07,5.876c-1.04,2.332 -2.037,4.696 -2.766,7.143l0,1.844c0,2.433 -1.046,5.038 -3.427,6.067c-1.081,0.468 -5.304,1.235 -4.868,-1.382Zm45.164,-6.836c-7.275,-3.748 -5.918,-14.192 -0.672,-19.058c3.598,-3.339 8.315,-4.509 13.115,-4.522c3.706,-0.01 6.582,0.429 9.793,2.342c2.208,1.317 2.789,6.059 -0.039,7.028c-0.268,0.092 -2.464,-0.501 -2.611,-0.537c1.624,8.122 -3.265,15.146 -11.675,16.129c-0.322,0.023 -4.138,-0.038 -4.225,1.69c-0.07,1.415 2.991,1.56 3.303,1.613c4.757,0.804 13.366,0.743 15.468,6.731c3.145,8.961 -5.706,15.719 -13.432,17.176c-4.538,0.855 -10.058,0.806 -14.018,-1.94c-3.631,-2.516 -4.539,-7.636 -1.651,-11.06c0.553,-0.656 1.23,-1.248 2.006,-1.613c5.219,-2.456 1.666,4.793 6.251,6.183c3.542,1.074 6.722,1.405 10.292,0.576c1.85,-0.429 5.282,-1.368 5.223,-3.994c-0.068,-3.017 -4.197,-3.464 -6.222,-3.879c-4.238,-0.867 -10.718,-0.463 -14.056,-3.955c-3.177,-3.325 0.077,-7.401 3.15,-8.91Zm14.132,-15.439c-2.082,-0.65 -4.375,-0.746 -6.533,-0.518c-1.082,0.114 -2.18,0.345 -3.188,0.768c-1.21,0.508 -2.35,1.322 -2.99,2.496c-1.075,1.971 -0.683,4.687 1.113,6.087c3.986,3.108 11.022,0.944 11.934,-4.143c0.281,-1.562 0.045,-3.167 -0.336,-4.69Zm19.663,18.358c-0.318,-5.419 -1.162,-11.323 -3.686,-16.207c-1.162,-2.248 -4.695,-0.943 -4.609,-3.84c0.188,-6.301 7.617,-8.342 10.888,-2.91c2.809,4.667 2.598,10.924 2.515,16.159c-0.02,1.27 -0.636,4.179 1.652,4.032c6.004,-0.385 11.234,-7.206 9.255,-13.057c-0.636,-1.88 -3.032,-3.38 -3.111,-5.377c-0.137,-3.457 6.476,-6.324 9.121,-4.608c2.591,1.68 1.651,7.46 1.248,9.774c-1.253,7.207 -5.149,15.165 -11.175,19.567c-3.117,2.277 -9.593,4.348 -11.493,-0.624c-0.353,-0.925 -0.517,-1.923 -0.605,-2.909Zm35.332,-33.259c-0.66,-0.023 -1.319,-0.13 -1.939,-0.364c-2.996,-1.132 -3.584,-4.982 -1.887,-7.472c1.054,-1.546 2.759,-2.268 4.594,-2.225c1.261,0.029 2.575,0.403 3.495,1.305c1.919,1.882 1.429,5.46 -0.345,7.259c-1.044,1.057 -2.456,1.497 -3.918,1.497Zm0.077,38.942c-6.783,0 -4.801,-8.215 -3.763,-12.366c0.288,-1.153 0.683,-2.284 0.883,-3.456c0.211,-1.242 0.353,-2.504 0.346,-3.764c-0.007,-1.061 -0.157,-2.816 -0.999,-3.754c-0.977,-1.087 -3.669,-1.462 -3.533,-3.389c0.24,-3.403 4.301,-4.955 7.066,-5.3c3.62,-0.451 4.326,4.114 4.301,6.683c-0.035,3.68 -0.53,5.584 -1.152,9.14c-0.359,2.056 -1.052,4.583 -0.384,6.673c0.633,1.977 3.944,2.123 3.994,4.157c0.086,3.422 -3.9,5.376 -6.759,5.376Zm12.981,-46.622c-1.203,-2.673 -0.296,-4.46 2.381,-5.723c1.739,-0.82 4.603,-1.124 5.53,1.152c3.737,9.173 1.355,20.949 0.154,30.378c-0.157,1.228 -0.966,6.367 -0.845,7.835c0.108,1.321 0.197,2.744 0.883,3.879c0.938,1.549 4.184,1.928 3.956,3.725c-0.426,3.362 -3.534,5.445 -6.836,5.376c-5.297,-0.109 -4.462,-5.717 -4.148,-9.293c1.034,-11.782 4.6,-26.207 -1.075,-37.329Zm40.939,16.897c-0.046,-3.128 -0.037,-6.282 -0.538,-9.37c-0.426,-2.632 -1.438,-5.135 -2.227,-7.681c-0.13,-0.419 -0.823,-1.511 -0.692,-2.074c0.659,-2.818 4.563,-5.311 7.345,-3.696c2,1.16 2.413,4.613 2.641,6.269c1.17,8.517 -0.167,17.399 -1.229,25.846c-0.013,0.098 -0.873,5.969 -0.768,6.76c0.196,1.485 0.291,3.127 1.171,4.339c0.564,0.777 4.857,1.79 4.743,3.725c-0.254,4.288 -4.932,6.924 -8.833,4.974c-2.87,-1.435 -2.842,-6.207 -2.842,-8.43c-1.287,2.344 -3.306,4.966 -5.453,6.606c-5.635,4.3 -14.475,3.493 -16.85,-4.014c-1.994,-6.299 0.235,-14.109 4.176,-19.183c4.548,-5.855 12.941,-9.06 19.356,-4.071Zm-0.461,9.448c-1.801,-1.624 -3.954,-2.847 -6.351,-3.312c-1.976,-0.384 -4.156,-0.314 -6.054,0.403c-3.176,1.2 -5.567,4.601 -5.338,8.055c0.245,3.695 2.147,7.004 6.299,7.143c0.725,0.025 1.459,-0.123 2.15,-0.345c0.758,-0.244 1.48,-0.609 2.151,-1.037c1.401,-0.894 2.929,-2.383 3.84,-3.764c1.456,-2.206 2.414,-4.674 3.303,-7.143Zm16.13,-4.455c-1.831,-0.784 -1.62,-2.512 -0.538,-4.071c2.657,-3.827 9.129,-4.856 10.341,0.663c0.189,0.863 0.259,1.756 0.259,2.64c1.68,-3.733 4.258,-6.482 8.526,-6.682c1.604,-0.076 3.75,0.523 4.493,2.131c0.518,1.123 0.397,2.675 0.009,3.792c-0.232,0.67 -0.589,1.301 -1.008,1.873c-0.377,0.515 -0.821,1.001 -1.353,1.353c-1.869,1.237 -2.105,-0.202 -3.562,-0.931c-1.114,-0.557 -2.439,-0.322 -3.438,0.423c-2.982,2.222 -3.567,6.907 -3.667,10.254c0.187,4.683 1.407,13.302 -5.684,13.364c-0.668,0.006 -1.339,-0.172 -1.959,-0.422c-0.586,-0.237 -0.589,-0.939 -0.499,-1.421c0.419,-2.251 1.081,-4.457 1.421,-6.721c0.646,-4.297 2.583,-14.394 -3.341,-16.245Z" style="fill:#7b3dc7;fill-rule:nonzero;stroke:#000;stroke-width:1.07px;"/><defs><linearGradient id="_Linear1" x1="0" y1="0" x2="1" y2="0.0115649" gradientUnits="userSpaceOnUse" gradientTransform="matrix(-109.169,-107.914,109.169,-107.914,133.856,133.552)"><stop offset="0" style="stop-color:#8383f7;stop-opacity:1"/><stop offset="1" style="stop-color:#c27cde;stop-opacity:1"/></linearGradient></defs></svg>