<?xml version="1.0" encoding="UTF-8" standalone="no"?><!DOCTYPE svg PUBLIC "-//W3C//DTD SVG 1.1//EN" "http://www.w3.org/Graphics/SVG/1.1/DTD/svg11.dtd"><svg width="100%" height="100%" viewBox="0 0 445 217" version="1.1" xmlns="http://www.w3.org/2000/svg" xmlns:xlink="http://www.w3.org/1999/xlink" xml:space="preserve" xmlns:serif="http://www.serif.com/" style="fill-rule:evenodd;clip-rule:evenodd;stroke-linejoin:round;stroke-miterlimit:2;"><path d="M204.398,72.987c0.959,-0.561 2.403,-1.099 4.332,-1.614c1.941,-0.502 3.893,-0.754 5.857,-0.754c2.806,0 5.291,0.409 7.454,1.228c2.163,0.807 3.548,2.081 4.156,3.823c1.017,2.923 2.116,6.319 3.297,10.189c1.169,3.87 2.344,7.868 3.525,11.996c1.181,4.127 2.332,8.195 3.455,12.206c1.122,4.01 2.104,7.558 2.946,10.645c-0.678,0.783 -1.689,1.414 -3.034,1.894c-1.344,0.479 -2.94,0.719 -4.788,0.719c-1.356,-0 -2.496,-0.111 -3.419,-0.333c-0.924,-0.223 -1.678,-0.562 -2.263,-1.018c-0.596,-0.444 -1.075,-1.034 -1.438,-1.771c-0.362,-0.725 -0.684,-1.567 -0.964,-2.525l-1.526,-5.805l-15.222,-0c-0.456,1.683 -0.906,3.425 -1.351,5.226c-0.456,1.789 -0.906,3.525 -1.35,5.209c-0.783,0.28 -1.614,0.52 -2.49,0.719c-0.866,0.198 -1.918,0.298 -3.157,0.298c-2.853,-0 -4.969,-0.491 -6.349,-1.473c-1.379,-0.982 -2.069,-2.345 -2.069,-4.087c-0,-0.783 0.117,-1.566 0.351,-2.35c0.222,-0.783 0.473,-1.712 0.754,-2.788c0.386,-1.508 0.929,-3.385 1.631,-5.629c0.701,-2.245 1.473,-4.671 2.315,-7.278c0.842,-2.619 1.742,-5.303 2.7,-8.05c0.959,-2.748 1.859,-5.343 2.701,-7.787c0.842,-2.443 1.614,-4.618 2.315,-6.523c0.702,-1.906 1.245,-3.362 1.631,-4.367Zm10.61,10.855l-0.508,0c-0.784,2.35 -1.666,4.975 -2.649,7.875c-0.982,2.887 -1.864,5.816 -2.648,8.786l10.435,-0c-0.783,-3.028 -1.584,-5.986 -2.403,-8.874c-0.806,-2.888 -1.549,-5.483 -2.227,-7.787Zm47.67,39.985c-3.309,0 -6.378,-0.462 -9.207,-1.385c-2.841,-0.935 -5.314,-2.327 -7.418,-4.174c-2.105,-1.847 -3.759,-4.174 -4.963,-6.98c-1.205,-2.806 -1.807,-6.091 -1.807,-9.856c0,-3.706 0.602,-6.892 1.807,-9.558c1.204,-2.665 2.788,-4.852 4.752,-6.559c1.964,-1.718 4.209,-2.981 6.734,-3.788c2.526,-0.818 5.11,-1.227 7.752,-1.227c2.97,-0 5.676,0.45 8.12,1.35c2.443,0.9 4.548,2.134 6.313,3.701c1.766,1.578 3.139,3.46 4.121,5.647c0.982,2.186 1.474,4.571 1.474,7.155c-0,1.905 -0.532,3.361 -1.596,4.367c-1.064,1.017 -2.549,1.666 -4.455,1.946l-20.799,3.104c0.62,1.859 1.882,3.25 3.788,4.174c1.906,0.924 4.092,1.386 6.559,1.386c2.303,-0 4.478,-0.293 6.524,-0.877c2.058,-0.597 3.729,-1.286 5.015,-2.07c0.901,0.561 1.661,1.351 2.28,2.368c0.608,1.005 0.912,2.069 0.912,3.192c0,2.525 -1.175,4.407 -3.525,5.647c-1.8,0.947 -3.823,1.59 -6.068,1.929c-2.244,0.339 -4.349,0.508 -6.313,0.508Zm-2.35,-33.093c-1.345,0 -2.508,0.228 -3.49,0.684c-0.982,0.445 -1.783,1.018 -2.403,1.719c-0.619,0.702 -1.081,1.491 -1.385,2.368c-0.316,0.865 -0.503,1.747 -0.561,2.648l14.398,-2.368c-0.164,-1.122 -0.778,-2.245 -1.842,-3.367c-1.075,-1.122 -2.648,-1.684 -4.717,-1.684Zm21.662,11.294c-0,-3.706 0.561,-6.921 1.684,-9.645c1.122,-2.724 2.677,-4.981 4.664,-6.769c2,-1.801 4.332,-3.134 6.998,-3.999c2.666,-0.877 5.542,-1.315 8.628,-1.315c1.123,-0 2.216,0.099 3.28,0.298c1.064,0.199 1.935,0.438 2.613,0.719l-0,-13.644c0.561,-0.164 1.455,-0.345 2.683,-0.544c1.239,-0.198 2.502,-0.298 3.788,-0.298c1.239,0 2.35,0.088 3.332,0.263c0.982,0.164 1.806,0.497 2.473,1c0.678,0.503 1.186,1.192 1.526,2.069c0.339,0.865 0.508,2 0.508,3.402l0,39.898c0,2.642 -1.239,4.747 -3.718,6.313c-1.625,1.076 -3.729,2.017 -6.313,2.824c-2.572,0.818 -5.542,1.227 -8.909,1.227c-3.648,0 -6.921,-0.508 -9.821,-1.525c-2.888,-1.006 -5.325,-2.462 -7.313,-4.367c-1.999,-1.906 -3.513,-4.192 -4.542,-6.857c-1.041,-2.666 -1.561,-5.682 -1.561,-9.05Zm23.903,-10.522c-3.028,0 -5.354,0.865 -6.98,2.596c-1.636,1.742 -2.455,4.384 -2.455,7.926c0,3.473 0.76,6.092 2.28,7.857c1.52,1.777 3.706,2.666 6.559,2.666c1.017,-0 1.929,-0.158 2.736,-0.474c0.818,-0.304 1.45,-0.654 1.894,-1.052l-0,-18.519c-1.123,-0.667 -2.467,-1 -4.034,-1Zm49.61,24.903l-0,-19.852c-0,-1.742 -0.491,-3.022 -1.473,-3.841c-0.982,-0.807 -2.315,-1.21 -3.999,-1.21c-1.122,0 -2.233,0.14 -3.332,0.421c-1.087,0.281 -2.023,0.701 -2.806,1.263l0,29.199c-0.561,0.176 -1.45,0.345 -2.666,0.509c-1.204,0.164 -2.449,0.245 -3.735,0.245c-1.239,0 -2.35,-0.081 -3.332,-0.245c-0.982,-0.164 -1.806,-0.503 -2.473,-1.017c-0.678,-0.503 -1.198,-1.187 -1.561,-2.052c-0.362,-0.877 -0.543,-2.017 -0.543,-3.42l-0,-25.254c-0,-1.508 0.321,-2.741 0.964,-3.7c0.643,-0.947 1.526,-1.818 2.648,-2.613c1.906,-1.345 4.303,-2.438 7.191,-3.28c2.899,-0.841 6.114,-1.262 9.645,-1.262c6.337,-0 11.218,1.391 14.644,4.174c3.425,2.771 5.138,6.629 5.138,11.574l0,26.341c-0.561,0.176 -1.444,0.345 -2.648,0.509c-1.204,0.164 -2.455,0.245 -3.753,0.245c-1.228,0 -2.332,-0.081 -3.315,-0.245c-0.982,-0.164 -1.812,-0.503 -2.49,-1.017c-0.678,-0.503 -1.198,-1.187 -1.561,-2.052c-0.362,-0.877 -0.543,-2.017 -0.543,-3.42Zm37.151,-3.016c0.958,-0 2.011,-0.1 3.156,-0.299c1.146,-0.198 2,-0.467 2.561,-0.806l-0,-6.735l-6.051,0.509c-1.578,0.117 -2.87,0.456 -3.875,1.017c-1.006,0.561 -1.508,1.403 -1.508,2.526c-0,1.122 0.432,2.034 1.297,2.735c0.865,0.702 2.339,1.053 4.42,1.053Zm-0.667,-33.093c3.028,-0 5.788,0.31 8.278,0.929c2.502,0.62 4.636,1.561 6.401,2.824c1.765,1.262 3.127,2.858 4.086,4.787c0.959,1.941 1.438,4.233 1.438,6.875l0,18.853c0,1.461 -0.409,2.654 -1.227,3.577c-0.819,0.924 -1.789,1.725 -2.912,2.403c-3.647,2.186 -8.78,3.279 -15.397,3.279c-2.97,0 -5.647,-0.28 -8.032,-0.841c-2.385,-0.562 -4.437,-1.403 -6.156,-2.526c-1.707,-1.122 -3.022,-2.554 -3.946,-4.296c-0.935,-1.743 -1.403,-3.765 -1.403,-6.068c0,-3.87 1.152,-6.84 3.455,-8.909c2.303,-2.081 5.869,-3.373 10.698,-3.876l11.031,-1.175l-0,-0.596c-0,-1.625 -0.719,-2.789 -2.157,-3.49c-1.427,-0.702 -3.49,-1.052 -6.191,-1.052c-2.128,-0 -4.203,0.222 -6.226,0.666c-2.022,0.456 -3.846,1.017 -5.471,1.684c-0.725,-0.503 -1.339,-1.275 -1.842,-2.315c-0.514,-1.041 -0.771,-2.122 -0.771,-3.245c-0,-1.45 0.35,-2.613 1.052,-3.49c0.701,-0.865 1.783,-1.607 3.244,-2.227c1.625,-0.62 3.549,-1.07 5.77,-1.35c2.221,-0.281 4.314,-0.421 6.278,-0.421Zm39.761,15.415l-0,12.697c-0,1.461 0.462,2.502 1.385,3.122c0.924,0.619 2.227,0.929 3.911,0.929c0.842,0 1.713,-0.07 2.613,-0.21c0.9,-0.141 1.684,-0.322 2.35,-0.544c0.503,0.608 0.941,1.292 1.315,2.052c0.363,0.76 0.544,1.672 0.544,2.736c0,2.139 -0.801,3.881 -2.403,5.226c-1.601,1.344 -4.419,2.017 -8.453,2.017c-4.945,-0 -8.751,-1.123 -11.416,-3.368c-2.666,-2.244 -3.999,-5.892 -3.999,-10.943l0,-36.021c0.62,-0.176 1.503,-0.363 2.648,-0.562c1.158,-0.187 2.38,-0.28 3.666,-0.28c2.467,-0 4.39,0.432 5.769,1.298c1.38,0.865 2.07,2.7 2.07,5.506l-0,5.402l11.013,-0c0.339,0.608 0.667,1.379 0.982,2.315c0.304,0.923 0.456,1.946 0.456,3.069c0,1.964 -0.432,3.379 -1.298,4.244c-0.876,0.877 -2.046,1.315 -3.507,1.315l-7.646,0Z" style="fill:#0b122d;fill-rule:nonzero;"/><path d="M105.5,177.834c-0,2.743 2.257,5 5,5c2.743,0 5,-2.257 5,-5c-0,-2.742 -2.257,-5 -5,-5c-2.743,0 -5,2.258 -5,5" style="fill:#8aceae;fill-rule:nonzero;"/><path d="M140,175.334c-0,2.743 2.257,5 5,5c2.743,0 5,-2.257 5,-5c-0,-2.742 -2.257,-5 -5,-5c-2.743,0 -5,2.258 -5,5" style="fill:#8aceae;fill-rule:nonzero;"/><path d="M82.5,203.834c-0,2.743 2.257,5 5,5c2.743,0 5,-2.257 5,-5c-0,-2.742 -2.257,-5 -5,-5c-2.743,0 -5,2.258 -5,5" style="fill:#8aceae;fill-rule:nonzero;"/><path d="M118.027,24.032c25.761,13.526 43.471,40.62 43.395,71.497c-0.11,44.129 -36.513,80.351 -80.641,80.241c-3.585,-0.009 -7.118,-0.257 -10.584,-0.73c-0.704,1.914 -2.552,3.294 -4.697,3.294c-2.743,0 -5,-2.257 -5,-5c-0,-0.079 0.002,-0.159 0.006,-0.238c-34.424,-9.17 -60.058,-40.833 -59.966,-77.967c0.092,-36.854 25.497,-68.194 59.577,-77.461c5.924,-8.798 15.976,-14.633 27.284,-14.633c13.855,-0 25.824,8.76 30.626,20.997Z" style="fill:#8aceae;"/><path d="M97.974,137.601c16.585,4.759 31.584,13.013 43.064,25.424c0.162,-0.049 0.325,-0.098 0.491,-0.141c16.591,-3.652 22.723,19.91 6.453,24.808c-11.399,2.97 -20.403,-9.935 -13.852,-19.556c-10.502,-11.315 -25.524,-19.316 -43.072,-23.58c6.979,5.863 12.769,12.687 17.483,20.58c16.031,-2.122 20.87,20.482 5.269,25.056c-12.3,3.143 -21.13,-11.626 -12.77,-20.951c-3.852,-6.385 -8.508,-11.989 -14.04,-16.889c4.502,12.676 6.654,27.334 3.292,39.047c12.788,3.12 13.124,21.395 0.23,24.862c-14.487,3.434 -22.283,-15.73 -9.743,-23.437c5.481,-13.585 1.62,-29.424 -3.723,-42.486c-1.023,-2.398 -2.024,-4.962 -3.51,-7.115c-0.655,-0.951 -1.467,-1.275 -2.461,-1.809c-3.567,-0.28 -7.196,-0.424 -10.875,-0.431c3.906,5.435 6.229,11.914 7.122,19.786c13.719,2.085 15.006,21.33 1.452,25.096c-14.414,3.424 -22.256,-15.585 -9.855,-23.372c-0.895,-9.371 -3.909,-15.813 -9.798,-21.12c-14.289,0.999 -29.601,4.225 -43.422,9.221c-5.397,1.716 -8.147,-5.927 -2.891,-8.041c8.682,-3.178 17.946,-5.676 27.477,-7.386l-3.706,0c-1.302,0 -2.53,-0.603 -3.327,-1.632c-0.796,-1.029 -1.071,-2.369 -0.745,-3.629l26.323,-101.61c0.001,-0.001 0.001,-0.001 0.001,-0.002c0,-0.001 0,-0.002 0.001,-0.003c4.339,-16.658 19.405,-28.291 36.637,-28.291c20.827,0 37.858,16.937 37.858,37.858l0,42.345c0,21.469 -12.311,40.1 -30.21,49.142c2.574,1.968 4.373,4.902 4.847,8.256Zm-12.495,-129.188c-8.059,-0 -15.506,3.273 -20.899,8.697c1.341,-0.185 2.7,-0.284 4.074,-0.284c6.017,-0 11.875,1.891 16.825,5.383c4.951,-3.492 10.809,-5.383 16.826,-5.383c1.363,-0 2.712,0.097 4.043,0.28c-5.337,-5.366 -12.721,-8.693 -20.869,-8.693Zm-27.883,19.967c-0.992,2.928 -1.562,6.067 -1.562,9.478c0,16.236 13.209,29.445 29.445,29.445c16.237,0 29.446,-13.209 29.446,-29.445c-0,-3.315 -0.552,-6.504 -1.566,-9.481c-3.316,-2.055 -7.11,-3.138 -11.054,-3.138c-5.12,-0 -10.095,1.942 -14.01,5.469c-0.8,0.72 -1.808,1.081 -2.816,1.081c-1.007,-0 -2.015,-0.361 -2.815,-1.081c-3.915,-3.527 -8.891,-5.469 -14.011,-5.469c-3.944,-0 -7.74,1.084 -11.057,3.141Zm-22.594,98.374c16.236,0 29.445,-13.209 29.445,-29.445l-0,-27.988c-5.825,-3.908 -10.511,-9.387 -13.444,-15.828l-18.979,73.261l2.978,0Zm33.651,0c25.514,0 46.271,-20.882 46.271,-46.551l0,-18.579c-6.946,8.589 -17.564,14.092 -29.445,14.092c-4.423,0 -8.67,-0.765 -12.619,-2.165l-0,23.758c-0,11.881 -5.503,22.499 -14.092,29.445l9.885,0Zm-2.02,50.842c2.28,-0.593 3.652,-2.931 3.059,-5.21c-1.631,-5.423 -9.486,-3.381 -8.269,2.151c0.593,2.279 2.93,3.652 5.21,3.059Zm48.085,-0.883c-0.593,-2.281 -2.93,-3.653 -5.21,-3.06c-5.422,1.632 -3.381,9.487 2.151,8.27c2.28,-0.593 3.652,-2.931 3.059,-5.21Zm-26.347,31.279c2.28,-0.593 3.652,-2.93 3.059,-5.21c-1.631,-5.422 -9.486,-3.381 -8.269,2.151c0.593,2.28 2.93,3.652 5.21,3.059Zm57.46,-28.569c2.28,-0.594 3.652,-2.931 3.059,-5.211c-0.682,-2.862 -4.295,-4.151 -6.632,-2.385c-0.006,0.004 -0.012,0.008 -0.018,0.012c-3.738,2.797 -1.009,8.695 3.591,7.584Z" style="fill:#0b122d;"/><path d="M67.456,39.658l5.404,4.862l-0,5.957c-0,1.116 0.443,2.186 1.232,2.975l8.413,8.413c0.821,0.821 1.898,1.232 2.974,1.232c1.077,-0 2.154,-0.411 2.975,-1.232l8.413,-8.413c0.789,-0.789 1.232,-1.859 1.232,-2.975l-0,-5.957l5.404,-4.861c1.727,-1.554 1.867,-4.214 0.313,-5.941c-1.553,-1.727 -4.213,-1.868 -5.94,-0.314l-6.797,6.115c-0.887,0.798 -1.393,1.934 -1.393,3.127l-0,6.089l-4.207,4.206l-4.206,-4.206l-0,-6.089c-0,-1.193 -0.507,-2.329 -1.393,-3.127l-6.797,-6.115c-1.727,-1.554 -4.387,-1.413 -5.941,0.314c-1.554,1.727 -1.413,4.387 0.314,5.94Z" style="fill:#0b122d;fill-rule:nonzero;"/></svg>