<?xml version="1.0" encoding="UTF-8" standalone="no"?><!DOCTYPE svg PUBLIC "-//W3C//DTD SVG 1.1//EN" "http://www.w3.org/Graphics/SVG/1.1/DTD/svg11.dtd"><svg width="100%" height="100%" viewBox="0 0 499 168" version="1.1" xmlns="http://www.w3.org/2000/svg" xmlns:xlink="http://www.w3.org/1999/xlink" xml:space="preserve" xmlns:serif="http://www.serif.com/" style="fill-rule:evenodd;clip-rule:evenodd;stroke-linejoin:round;stroke-miterlimit:2;"><path d="M112.646,-0c46.205,-0 83.794,37.59 83.794,83.793c0,46.204 -37.589,83.794 -83.794,83.794l-105.625,0c-3.515,0 -6.365,-2.849 -6.365,-6.364c0,-3.515 2.85,-6.364 6.365,-6.364l61.279,-0c-4.633,-2.901 -8.962,-6.242 -12.931,-9.964l-29.166,-0c-3.515,-0 -6.364,-2.85 -6.364,-6.364c-0,-3.515 2.849,-6.365 6.364,-6.365l18.058,0c-9.7,-13.674 -15.409,-30.369 -15.409,-48.372c0,-15.473 4.221,-29.976 11.563,-42.429l-34.051,0c-3.514,0 -6.364,-2.849 -6.364,-6.364c-0,-3.515 2.85,-6.365 6.364,-6.365l43.258,-0c5.404,-6.168 11.698,-11.536 18.678,-15.907l-33.083,-0c-3.515,-0 -6.364,-2.85 -6.364,-6.365c-0,-3.514 2.849,-6.364 6.364,-6.364l77.429,0Zm30.916,125.561c12.775,-9.481 21.069,-24.673 21.069,-41.767c0,-28.665 -23.32,-51.985 -51.985,-51.985c-28.664,-0 -51.985,23.32 -51.985,51.985c0,17.094 8.295,32.286 21.07,41.767c0.117,0.098 0.233,0.197 0.359,0.289c0.142,0.103 0.287,0.2 0.435,0.289c8.504,6.067 18.903,9.639 30.121,9.639c11.219,0 21.619,-3.572 30.122,-9.639c0.147,-0.089 0.293,-0.186 0.435,-0.289c0.126,-0.091 0.242,-0.191 0.359,-0.289Zm-51.42,-41.767c0,-10.94 9.002,-19.941 19.941,-19.941c10.94,-0 19.941,9.001 19.941,19.941c0,10.939 -9.001,19.941 -19.941,19.941c-10.939,-0 -19.941,-9.002 -19.941,-19.941Z" style="fill:#f5f5f5;"/><path d="M218.585,107.513l-0.837,-1.013c-1.241,-1.528 -2.096,-3.44 -2.436,-5.378c-0.601,-3.421 5.617,-8.931 8.982,-8.573c2.842,0.302 5.511,2.9 7.288,4.676c2.915,3.568 7.603,5.268 12.044,4.056c3.334,-0.909 6.562,-5.2 4.294,-8.64c-2.659,-4.031 -11.542,-4.452 -15.403,-5.84c-7.401,-2.662 -13.499,-6.202 -15.398,-14.321c-2.369,-10.134 2.735,-20.825 12.772,-24.502c6.253,-2.291 13.424,-1.747 19.694,-0.088c2.276,0.602 4.614,1.441 6.411,2.962l2.338,1.773c1.322,1.233 2.78,2.776 2.903,4.579c0.229,3.355 -4.915,10.152 -8.787,9.82c-5.511,-0.473 -6.618,-5.376 -12.392,-5.242c-2.372,0.056 -5.399,0.84 -6.572,3.186c-4.1,8.2 11.884,9.243 15.593,10.337c3.482,1.027 8.182,2.359 11.023,5.153c5.028,4.945 5.937,12.907 4.448,19.5c-4.342,19.222 -34.954,23.252 -45.965,7.555Zm52.656,0.39l-0,-32.832c-0,-1.363 -0.057,-4.406 0.935,-5.709c2.663,-3.5 10.372,-3.349 13.659,-0.838c1.944,1.486 1.773,4.602 1.773,6.722l-0,32.734c-0,1.621 0.09,4.245 -1.033,5.709c-2.823,3.683 -11.615,3.595 -14.399,-0.097c-1.008,-1.337 -0.935,-4.292 -0.935,-5.689Zm15.392,-50.193c-1.259,2.45 -4.894,2.494 -7.209,2.494c-0.884,0 -1.771,-0.036 -2.65,-0.141c-1.18,-0.141 -2.606,-0.426 -3.585,-1.198c-1.055,-0.833 -1.606,-2.464 -1.812,-3.668c-0.461,-2.705 -0.454,-6.334 0.799,-8.846c0.482,-0.968 1.506,-1.552 2.474,-1.885c2.309,-0.797 5.083,-0.789 7.472,-0.472c1.178,0.157 2.583,0.487 3.556,1.257c0.986,0.78 1.6,2.507 1.793,3.574c0.488,2.696 0.46,6.398 -0.838,8.885Zm39.691,55.044l-0,-2.806c-6.623,8.733 -19.811,4.072 -25.856,-2.474c-8.888,-9.624 -8.897,-23.83 0.039,-33.436c6.11,-6.568 19.709,-11.265 25.914,-2.065c0.633,-6.061 8.169,-6.153 12.529,-4.754c3.319,1.064 3.37,4.733 3.37,7.482l0,38.716c0,13.827 -10.903,23.282 -24.316,23.946c-5.328,0.264 -19.026,-2.816 -20.011,-9.742c-0.475,-3.339 4.121,-10.174 7.852,-9.898c2.749,0.203 4.794,2.785 7.39,3.712c6.844,2.441 13.089,-1.138 13.089,-8.681Zm-16.64,-21.92c-0,5.005 5.043,8.684 9.815,7.737c2.584,-0.513 4.706,-2.511 5.699,-4.912c0.377,-0.909 0.558,-1.841 0.561,-2.825c0.002,-0.983 -0.181,-1.948 -0.536,-2.864c-0.56,-1.446 -1.536,-2.848 -2.774,-3.795c-5.193,-3.97 -12.765,0.409 -12.765,6.659Zm73.593,-23.44c1.195,0.377 2.182,1.02 2.962,1.929c0.779,0.896 1.169,2.345 1.169,4.345c-0,1.988 -0.598,4.17 -1.793,6.547c-1.182,2.364 -2.896,3.546 -5.144,3.546c-1.117,0 -2.188,-0.247 -3.215,-0.74c-1.026,-0.507 -2.383,-0.76 -4.072,-0.76c-1.689,-0 -3.26,0.597 -4.715,1.792c-1.468,1.182 -2.202,2.611 -2.202,4.287l0,19.64c0,1.442 -0.045,2.52 -0.136,3.235c-0.104,0.714 -0.403,1.539 -0.897,2.474c-0.935,1.624 -3.364,2.436 -7.287,2.436c-3.001,0 -5.157,-0.533 -6.469,-1.598c-0.987,-0.87 -1.546,-2.208 -1.675,-4.014l-0,-35.539c-0,-1.429 0.045,-2.507 0.136,-3.235c0.091,-0.714 0.357,-1.507 0.799,-2.377c0.87,-1.689 3.299,-2.533 7.287,-2.533c3.741,-0 6.079,0.721 7.015,2.163c0.688,1 1.032,2.026 1.032,3.078c0.312,-0.428 0.767,-0.954 1.364,-1.578c0.585,-0.623 1.845,-1.468 3.78,-2.533c1.936,-1.065 3.637,-1.598 5.105,-1.598c1.468,0 2.695,0.078 3.683,0.234c1,0.156 2.091,0.422 3.273,0.799Zm9.267,23.947l-0,-16.367c-0,-1.383 -0.069,-4.383 0.935,-5.709c2.673,-3.528 11.125,-3.662 14.061,-0.519c1.472,1.576 1.468,4.597 1.468,6.325l0,16.367c0,10.736 16.368,10.576 16.368,0l-0,-16.562c-0,-1.613 -0.084,-4.252 1.032,-5.709c2.795,-3.649 11.65,-3.586 14.399,0.098c0.992,1.328 0.936,4.313 0.936,5.709l-0,33.104c-0,1.554 0.092,4.123 -1.033,5.514c-3.842,4.75 -15.159,3.558 -15.159,-3.644c-3.811,6.819 -13.545,7.035 -19.767,4.194c-8.712,-3.976 -13.24,-13.593 -13.24,-22.801Zm105.875,0.097l0,16.465c0,1.376 0.068,4.301 -0.935,5.611c-2.669,3.486 -11.159,3.702 -14.098,0.574c-1.434,-1.527 -1.431,-4.726 -1.431,-6.283l-0,-16.464c-0,-10.75 -16.367,-10.593 -16.367,-0l-0,16.562c-0,1.642 0.102,4.138 -1.033,5.611c-2.824,3.666 -11.592,3.777 -14.399,0c-0.985,-1.325 -0.935,-4.313 -0.935,-5.709l-0,-33.104c-0,-1.552 -0.089,-4.143 1.032,-5.534c3.793,-4.703 15.14,-3.431 15.14,3.663c4.833,-8.216 16.992,-6.956 23.498,-1.968c6.372,4.885 9.528,12.687 9.528,20.576Z" style="fill:#f5f5f5;fill-rule:nonzero;"/></svg>