<svg xmlns="http://www.w3.org/2000/svg" xmlns:xlink="http://www.w3.org/1999/xlink" width="500" zoomAndPan="magnify" viewBox="0 0 375 374.999991" height="500" preserveAspectRatio="xMidYMid meet" version="1.0"><defs><clipPath id="5b9d419d9a"><path d="M 33.902344 209.082031 L 341.265625 209.082031 L 341.265625 343.628906 L 33.902344 343.628906 Z M 33.902344 209.082031 " clip-rule="nonzero"/></clipPath><clipPath id="c9b9d71320"><path d="M 34 31.636719 L 341 31.636719 L 341 166 L 34 166 Z M 34 31.636719 " clip-rule="nonzero"/></clipPath></defs><g clip-path="url(#5b9d419d9a)"><path fill="#ffffff" d="M 42.496094 277.410156 L 56.394531 271.5 C 56.515625 271.804688 56.667969 272.105469 56.855469 272.394531 C 85.757812 317 134.6875 343.628906 187.746094 343.628906 C 206.488281 343.628906 224.8125 340.335938 242.21875 333.839844 C 259.035156 327.5625 274.546875 318.476562 288.3125 306.828125 C 316.042969 283.378906 334.816406 250.878906 341.183594 215.316406 C 341.691406 212.480469 339.804688 209.769531 336.972656 209.261719 C 334.136719 208.753906 331.425781 210.640625 330.917969 213.476562 C 318.5 282.847656 258.289062 333.195312 187.746094 333.195312 C 138.507812 333.195312 93.078125 308.609375 66.050781 267.394531 L 77.964844 262.328125 C 82.398438 260.441406 83.132812 254.457031 79.28125 251.558594 L 48.492188 228.363281 C 44.644531 225.460938 39.101562 227.820312 38.515625 232.605469 L 33.835938 270.886719 C 33.25 275.671875 38.0625 279.296875 42.496094 277.410156 " fill-opacity="1" fill-rule="nonzero"/></g><g clip-path="url(#c9b9d71320)"><path fill="#ffffff" d="M 38.632812 165.226562 C 38.953125 165.285156 39.269531 165.3125 39.585938 165.3125 C 42.050781 165.3125 44.242188 163.554688 44.707031 161.039062 C 57.421875 92.105469 117.578125 42.070312 187.746094 42.070312 C 236.46875 42.070312 281.621094 66.25 308.726562 106.792969 L 296.585938 112.066406 C 292.167969 113.988281 291.484375 119.976562 295.355469 122.84375 L 326.324219 145.800781 C 330.199219 148.667969 335.71875 146.269531 336.269531 141.480469 L 340.648438 103.160156 C 341.195312 98.371094 336.355469 94.785156 331.9375 96.703125 L 318.363281 102.605469 C 318.246094 102.332031 318.105469 102.0625 317.9375 101.804688 C 288.957031 57.867188 240.285156 31.636719 187.746094 31.636719 C 169.074219 31.636719 150.804688 34.90625 133.457031 41.355469 C 116.691406 47.589844 101.222656 56.617188 87.476562 68.183594 C 59.808594 91.464844 40.976562 123.769531 34.453125 159.148438 C 33.929688 161.980469 35.800781 164.703125 38.632812 165.226562 " fill-opacity="1" fill-rule="nonzero"/></g><path fill="#ffffff" d="M 279.789062 173.222656 C 276.910156 173.222656 274.578125 175.558594 274.578125 178.441406 C 274.578125 181.320312 276.910156 183.65625 279.789062 183.65625 L 301.105469 183.65625 C 303.988281 183.65625 306.320312 181.320312 306.320312 178.441406 C 306.320312 175.558594 303.988281 173.222656 301.105469 173.222656 L 279.789062 173.222656 " fill-opacity="1" fill-rule="nonzero"/><path fill="#ffffff" d="M 192.714844 88.570312 L 192.714844 67.238281 C 192.714844 64.359375 190.382812 62.019531 187.503906 62.019531 C 184.621094 62.019531 182.289062 64.359375 182.289062 67.238281 L 182.289062 88.570312 C 182.289062 91.453125 184.621094 93.789062 187.503906 93.789062 C 190.382812 93.789062 192.714844 91.453125 192.714844 88.570312 " fill-opacity="1" fill-rule="nonzero"/><path fill="#ffffff" d="M 125.828125 119.003906 C 127.863281 116.96875 127.863281 113.664062 125.828125 111.625 L 110.757812 96.542969 C 108.71875 94.503906 105.417969 94.503906 103.382812 96.542969 C 101.347656 98.578125 101.347656 101.882812 103.382812 103.921875 L 118.457031 119.003906 C 120.492188 121.042969 123.792969 121.042969 125.828125 119.003906 " fill-opacity="1" fill-rule="nonzero"/><path fill="#ffffff" d="M 271.644531 96.542969 C 269.609375 94.503906 266.308594 94.503906 264.273438 96.542969 L 249.199219 111.625 C 247.164062 113.664062 247.164062 116.96875 249.199219 119.003906 C 251.234375 121.042969 254.535156 121.042969 256.570312 119.003906 L 271.644531 103.921875 C 273.679688 101.882812 273.679688 98.578125 271.644531 96.542969 " fill-opacity="1" fill-rule="nonzero"/><path fill="#ffffff" d="M 263.257812 270.628906 C 265.292969 272.664062 268.597656 272.664062 270.632812 270.628906 C 272.667969 268.589844 272.667969 265.285156 270.632812 263.246094 L 255.558594 248.164062 C 253.523438 246.125 250.222656 246.125 248.1875 248.164062 C 246.152344 250.203125 246.148438 253.507812 248.1875 255.542969 L 263.257812 270.628906 " fill-opacity="1" fill-rule="nonzero"/><path fill="#ffffff" d="M 111.757812 270.652344 L 126.832031 255.570312 C 128.867188 253.53125 128.867188 250.226562 126.832031 248.191406 C 124.796875 246.152344 121.496094 246.152344 119.457031 248.191406 L 104.386719 263.273438 C 102.347656 265.3125 102.347656 268.617188 104.386719 270.652344 C 106.421875 272.691406 109.722656 272.691406 111.757812 270.652344 " fill-opacity="1" fill-rule="nonzero"/><path fill="#ffffff" d="M 73.945312 173.222656 C 71.066406 173.222656 68.734375 175.558594 68.734375 178.441406 C 68.734375 181.320312 71.066406 183.65625 73.945312 183.65625 L 95.261719 183.65625 C 98.144531 183.65625 100.476562 181.320312 100.476562 178.441406 C 100.476562 175.558594 98.144531 173.222656 95.261719 173.222656 L 73.945312 173.222656 " fill-opacity="1" fill-rule="nonzero"/><path fill="#ffffff" d="M 162.976562 233.28125 C 161.664062 234.746094 159.34375 233.136719 160.25 231.394531 L 180.761719 191.929688 C 181.339844 190.816406 180.535156 189.488281 179.277344 189.488281 L 165.96875 189.488281 C 164.730469 189.488281 163.921875 188.179688 164.476562 187.070312 L 189.539062 136.753906 C 189.820312 136.183594 190.402344 135.828125 191.03125 135.828125 L 216.019531 135.828125 C 217.335938 135.828125 218.132812 137.277344 217.429688 138.390625 L 197.265625 170.308594 C 196.5625 171.421875 197.359375 172.875 198.675781 172.875 L 213.320312 172.875 C 214.765625 172.875 215.527344 174.582031 214.566406 175.660156 Z M 221.460938 237.515625 C 227.683594 227.371094 259.5625 192.699219 244.507812 155.796875 C 229.449219 118.898438 194.726562 116.746094 187.511719 116.746094 C 180.292969 116.746094 145.570312 118.898438 130.511719 155.796875 C 115.457031 192.699219 147.335938 227.371094 153.558594 237.515625 C 159.78125 247.664062 156.554688 262.195312 160.703125 264.5 C 164.851562 266.808594 210.167969 266.808594 214.316406 264.5 C 218.464844 262.195312 215.238281 247.664062 221.460938 237.515625 " fill-opacity="1" fill-rule="nonzero"/><path fill="#ffffff" d="M 169.636719 276.214844 C 166.871094 276.050781 164.691406 275.859375 162.925781 275.636719 L 162.925781 297.21875 C 162.925781 297.632812 163.109375 298.023438 163.421875 298.285156 L 171.679688 305.230469 C 171.933594 305.441406 172.246094 305.558594 172.578125 305.558594 C 173.109375 305.558594 173.597656 305.863281 173.832031 306.347656 L 176.761719 312.453125 C 176.992188 312.9375 177.480469 313.246094 178.015625 313.246094 L 197.003906 313.246094 C 197.539062 313.246094 198.027344 312.9375 198.257812 312.453125 L 201.1875 306.347656 C 201.421875 305.863281 201.910156 305.558594 202.445312 305.558594 C 202.773438 305.558594 203.089844 305.441406 203.339844 305.230469 L 211.597656 298.285156 C 211.910156 298.023438 212.09375 297.632812 212.09375 297.21875 L 212.09375 275.636719 C 210.328125 275.859375 208.148438 276.050781 205.386719 276.214844 C 200.449219 276.503906 194.101562 276.664062 187.507812 276.664062 C 180.917969 276.664062 174.566406 276.503906 169.636719 276.214844 " fill-opacity="1" fill-rule="nonzero"/></svg>