<svg xmlns="http://www.w3.org/2000/svg" xmlns:xlink="http://www.w3.org/1999/xlink" width="500" zoomAndPan="magnify" viewBox="0 0 375 374.999991" height="500" preserveAspectRatio="xMidYMid meet" version="1.0"><defs><clipPath id="385e7b81fa"><path d="M 89 160 L 301 160 L 301 311.25 L 89 311.25 Z M 89 160 " clip-rule="nonzero"/></clipPath><clipPath id="0c3316cab6"><path d="M 52.574219 39 L 337.574219 39 L 337.574219 165 L 52.574219 165 Z M 52.574219 39 " clip-rule="nonzero"/></clipPath></defs><g clip-path="url(#385e7b81fa)"><path fill="#ffffff" d="M 287.242188 291.4375 C 287.242188 295.078125 284.277344 297.984375 280.6875 297.984375 L 234.628906 297.984375 C 230.984375 297.984375 228.074219 295.023438 228.074219 291.4375 L 228.074219 223.242188 C 228.074219 212.371094 219.242188 203.546875 208.355469 203.546875 L 182.019531 203.546875 C 171.132812 203.546875 162.296875 212.371094 162.296875 223.242188 L 162.296875 291.4375 C 162.296875 295.078125 159.332031 297.984375 155.742188 297.984375 L 109.515625 297.984375 C 105.867188 297.984375 102.960938 295.023438 102.960938 291.4375 L 102.960938 160.003906 L 89.792969 160.003906 L 89.792969 291.4375 C 89.792969 302.308594 98.628906 311.132812 109.515625 311.132812 L 155.570312 311.132812 C 166.457031 311.132812 175.292969 302.308594 175.292969 291.4375 L 175.292969 223.242188 C 175.292969 219.601562 178.257812 216.695312 181.847656 216.695312 L 208.183594 216.695312 C 211.832031 216.695312 214.738281 219.65625 214.738281 223.242188 L 214.738281 291.4375 C 214.738281 302.308594 223.574219 311.132812 234.460938 311.132812 L 280.515625 311.132812 C 291.402344 311.132812 300.238281 302.308594 300.238281 291.4375 L 300.238281 160.003906 L 287.070312 160.003906 Z M 287.242188 291.4375 " fill-opacity="1" fill-rule="nonzero"/></g><g clip-path="url(#0c3316cab6)"><path fill="#ffffff" d="M 207.898438 43.992188 C 200.429688 37.617188 189.65625 37.617188 182.191406 43.992188 L 52.574219 154.992188 L 61.121094 164.953125 L 190.796875 53.953125 C 193.304688 51.847656 196.898438 51.847656 199.347656 53.953125 L 329.023438 164.953125 L 337.574219 154.992188 Z M 207.898438 43.992188 " fill-opacity="1" fill-rule="nonzero"/></g></svg>