<svg xmlns="http://www.w3.org/2000/svg" xmlns:xlink="http://www.w3.org/1999/xlink" width="500" zoomAndPan="magnify" viewBox="0 0 375 374.999991" height="500" preserveAspectRatio="xMidYMid meet" version="1.0"><defs><clipPath id="6e2bca63c8"><path d="M 51.632812 117 L 323 117 L 323 337.636719 L 51.632812 337.636719 Z M 51.632812 117 " clip-rule="nonzero"/></clipPath><clipPath id="bb6af624ee"><path d="M 193 33.886719 L 239 33.886719 L 239 112 L 193 112 Z M 193 33.886719 " clip-rule="nonzero"/></clipPath></defs><g clip-path="url(#6e2bca63c8)"><path fill="#ffffff" d="M 320.082031 242.652344 C 315.652344 236.3125 306.226562 233.964844 298.609375 237.292969 L 277.988281 245.808594 C 262.164062 233.898438 241.515625 227.121094 219.347656 226.535156 L 219.347656 207.707031 L 238.945312 196.730469 C 244.609375 204.1875 253.558594 209.011719 263.617188 209.011719 C 280.707031 209.011719 294.609375 195.089844 294.609375 177.980469 C 294.609375 160.871094 280.707031 146.949219 263.617188 146.949219 C 246.527344 146.949219 232.625 160.871094 232.625 177.980469 C 232.625 182.761719 233.714844 187.292969 235.652344 191.34375 L 219.34375 200.472656 L 219.34375 120.804688 C 219.34375 119.0625 217.933594 117.648438 216.195312 117.648438 C 214.453125 117.648438 213.042969 119.0625 213.042969 120.804688 L 213.042969 200.839844 L 195.933594 191.257812 C 197.847656 187.230469 198.921875 182.730469 198.921875 177.980469 C 198.921875 160.871094 185.019531 146.949219 167.929688 146.949219 C 150.84375 146.949219 136.9375 160.871094 136.9375 177.980469 C 136.9375 195.089844 150.84375 209.011719 167.929688 209.011719 C 178.019531 209.011719 186.996094 204.15625 192.660156 196.65625 L 213.042969 208.070312 L 213.042969 226.542969 C 193.628906 227.070312 174.980469 232.488281 160.03125 241.945312 C 152.136719 239.601562 141.265625 238.234375 130.15625 238.234375 L 110.546875 238.234375 L 110.546875 232.972656 C 110.546875 227.28125 105.925781 222.652344 100.242188 222.652344 L 89.679688 222.652344 L 89.679688 218.046875 C 89.679688 216.304688 88.269531 214.894531 86.53125 214.894531 L 54.933594 214.894531 C 53.191406 214.894531 51.78125 216.304688 51.78125 218.046875 L 51.78125 334.453125 C 51.78125 336.195312 53.191406 337.609375 54.933594 337.609375 L 86.53125 337.609375 C 88.269531 337.609375 89.679688 336.195312 89.679688 334.453125 L 89.679688 328.378906 L 100.242188 328.378906 C 105.925781 328.378906 110.546875 323.75 110.546875 318.0625 L 110.546875 311.351562 L 194.242188 330.796875 C 196.011719 331.183594 197.972656 331.367188 200.019531 331.367188 C 206.578125 331.367188 214.035156 329.480469 218.921875 326.328125 L 315.332031 262.964844 C 318.921875 260.652344 321.429688 257.03125 322.21875 253.023438 C 322.941406 249.34375 322.183594 245.660156 320.082031 242.652344 Z M 263.617188 153.261719 C 277.230469 153.261719 288.304688 164.351562 288.304688 177.980469 C 288.304688 191.609375 277.230469 202.699219 263.617188 202.699219 C 255.054688 202.699219 247.5 198.3125 243.070312 191.667969 C 243.003906 191.425781 242.917969 191.1875 242.792969 190.960938 C 242.625 190.65625 242.402344 190.40625 242.160156 190.183594 C 240.109375 186.582031 238.929688 182.417969 238.929688 177.980469 C 238.929688 164.351562 250.003906 153.261719 263.617188 153.261719 Z M 167.929688 202.699219 C 154.316406 202.699219 143.242188 191.609375 143.242188 177.980469 C 143.242188 164.351562 154.316406 153.261719 167.929688 153.261719 C 181.542969 153.261719 192.617188 164.351562 192.617188 177.980469 C 192.617188 191.609375 181.542969 202.699219 167.929688 202.699219 Z M 83.378906 331.296875 L 58.082031 331.296875 L 58.082031 221.203125 L 83.378906 221.203125 Z M 104.246094 241.355469 C 104.246094 241.367188 104.242188 241.378906 104.242188 241.390625 C 104.242188 241.398438 104.246094 241.410156 104.246094 241.421875 L 104.246094 307.285156 C 104.246094 307.300781 104.246094 307.3125 104.246094 307.328125 L 104.246094 318.0625 C 104.246094 320.273438 102.449219 322.070312 100.242188 322.070312 L 89.679688 322.070312 L 89.679688 228.964844 L 100.242188 228.964844 C 102.449219 228.964844 104.246094 230.761719 104.246094 232.972656 Z M 216.195312 232.796875 C 236.765625 232.796875 256.042969 238.394531 271.117188 248.648438 L 247.84375 258.261719 C 245.710938 251.902344 239.628906 247.367188 232.480469 247.367188 L 187.507812 247.367188 C 182.226562 247.367188 174.316406 246.15625 168.074219 244.515625 C 182.007812 236.925781 198.832031 232.796875 216.195312 232.796875 Z M 316.035156 251.804688 C 315.574219 254.136719 314.078125 256.269531 311.898438 257.675781 L 215.488281 321.039062 C 210.503906 324.253906 201.390625 325.898438 195.625 324.640625 L 110.546875 304.875 L 110.546875 244.542969 L 130.15625 244.542969 C 142.023438 244.542969 153.480469 246.152344 160.816406 248.84375 L 161.070312 248.945312 C 161.097656 248.957031 161.125 248.964844 161.15625 248.976562 C 168.195312 251.570312 180.019531 253.679688 187.507812 253.679688 L 232.480469 253.679688 C 237.765625 253.679688 242.101562 257.683594 242.347656 262.835938 C 242.355469 262.972656 242.359375 263.109375 242.359375 263.25 C 242.359375 263.863281 242.300781 264.460938 242.175781 265.074219 C 241.273438 269.5625 237.195312 272.816406 232.480469 272.816406 L 187.582031 272.816406 C 186.261719 272.765625 174.191406 272.523438 164.160156 281.203125 C 162.84375 282.34375 162.695312 284.335938 163.835938 285.65625 C 164.457031 286.378906 165.335938 286.746094 166.222656 286.746094 C 166.949219 286.746094 167.683594 286.496094 168.28125 285.980469 C 176.703125 278.691406 187.238281 279.117188 187.335938 279.125 C 187.390625 279.125 187.449219 279.128906 187.507812 279.128906 L 232.480469 279.128906 C 240.183594 279.128906 246.863281 273.742188 248.355469 266.320312 C 248.457031 265.808594 248.535156 265.296875 248.585938 264.78125 L 301.042969 243.113281 C 301.066406 243.105469 301.085938 243.09375 301.109375 243.085938 C 305.914062 240.976562 312.238281 242.433594 314.917969 246.273438 C 316.027344 247.859375 316.421875 249.824219 316.035156 251.804688 Z M 316.035156 251.804688 " fill-opacity="1" fill-rule="nonzero"/></g><path fill="#ffffff" d="M 166.292969 169.796875 L 175.21875 169.796875 C 176.960938 169.796875 178.371094 168.386719 178.371094 166.644531 C 178.371094 164.898438 176.960938 163.488281 175.21875 163.488281 L 171.078125 163.488281 L 171.078125 160.273438 C 171.078125 158.53125 169.667969 157.117188 167.925781 157.117188 C 166.1875 157.117188 164.777344 158.53125 164.777344 160.273438 L 164.777344 163.628906 C 160.640625 164.351562 157.480469 167.964844 157.480469 172.3125 C 157.480469 177.175781 161.433594 181.132812 166.292969 181.132812 L 169.558594 181.132812 C 170.941406 181.132812 172.070312 182.261719 172.070312 183.648438 C 172.070312 185.035156 170.941406 186.160156 169.558594 186.160156 L 167.933594 186.160156 C 167.929688 186.160156 167.929688 186.160156 167.925781 186.160156 C 167.925781 186.160156 167.921875 186.160156 167.921875 186.160156 L 160.632812 186.160156 C 158.890625 186.160156 157.480469 187.574219 157.480469 189.316406 C 157.480469 191.058594 158.890625 192.472656 160.632812 192.472656 L 164.773438 192.472656 L 164.773438 195.683594 C 164.773438 197.429688 166.1875 198.839844 167.925781 198.839844 C 169.667969 198.839844 171.078125 197.429688 171.078125 195.683594 L 171.078125 192.332031 C 175.214844 191.609375 178.371094 187.996094 178.371094 183.648438 C 178.371094 178.785156 174.417969 174.824219 169.558594 174.824219 L 166.292969 174.824219 C 164.910156 174.824219 163.785156 173.695312 163.785156 172.3125 C 163.785156 170.925781 164.910156 169.796875 166.292969 169.796875 Z M 166.292969 169.796875 " fill-opacity="1" fill-rule="nonzero"/><path fill="#ffffff" d="M 261.980469 181.136719 L 265.246094 181.136719 C 266.628906 181.136719 267.753906 182.261719 267.753906 183.648438 C 267.753906 185.035156 266.628906 186.164062 265.246094 186.164062 L 263.621094 186.164062 C 263.617188 186.164062 263.617188 186.160156 263.613281 186.160156 C 263.613281 186.160156 263.609375 186.164062 263.609375 186.164062 L 256.320312 186.164062 C 254.578125 186.164062 253.167969 187.574219 253.167969 189.316406 C 253.167969 191.0625 254.578125 192.472656 256.320312 192.472656 L 260.460938 192.472656 L 260.460938 195.6875 C 260.460938 197.429688 261.871094 198.839844 263.613281 198.839844 C 265.355469 198.839844 266.765625 197.429688 266.765625 195.6875 L 266.765625 192.332031 C 270.902344 191.609375 274.058594 187.996094 274.058594 183.648438 C 274.058594 178.785156 270.105469 174.824219 265.246094 174.824219 L 261.980469 174.824219 C 260.597656 174.824219 259.472656 173.699219 259.472656 172.3125 C 259.472656 170.925781 260.597656 169.800781 261.980469 169.800781 L 270.90625 169.800781 C 272.648438 169.800781 274.058594 168.386719 274.058594 166.644531 C 274.058594 164.902344 272.648438 163.488281 270.90625 163.488281 L 266.765625 163.488281 L 266.765625 160.273438 C 266.765625 158.53125 265.355469 157.121094 263.613281 157.121094 C 261.871094 157.121094 260.460938 158.53125 260.460938 160.273438 L 260.460938 163.628906 C 256.324219 164.351562 253.167969 167.964844 253.167969 172.3125 C 253.167969 177.175781 257.121094 181.136719 261.980469 181.136719 Z M 261.980469 181.136719 " fill-opacity="1" fill-rule="nonzero"/><path fill="#ffffff" d="M 140.171875 95.15625 C 140.292969 96.160156 143.359375 119.9375 161.648438 131.605469 C 168.089844 135.71875 175.554688 137.777344 183.964844 137.777344 C 190.539062 137.777344 197.691406 136.519531 205.390625 134.003906 C 205.410156 133.996094 205.429688 133.980469 205.453125 133.972656 C 205.5 133.957031 205.546875 133.945312 205.589844 133.925781 C 205.613281 133.917969 205.636719 133.90625 205.660156 133.894531 C 205.761719 133.851562 205.859375 133.804688 205.957031 133.75 C 205.980469 133.738281 206 133.71875 206.023438 133.707031 C 206.042969 133.695312 206.058594 133.683594 206.078125 133.671875 C 206.121094 133.644531 206.164062 133.621094 206.203125 133.589844 C 206.273438 133.542969 206.339844 133.488281 206.40625 133.433594 C 206.449219 133.402344 206.488281 133.371094 206.523438 133.335938 C 206.554688 133.308594 206.582031 133.285156 206.613281 133.257812 C 206.628906 133.238281 206.644531 133.21875 206.664062 133.199219 C 206.742188 133.121094 206.816406 133.042969 206.886719 132.953125 C 206.902344 132.929688 206.914062 132.90625 206.933594 132.882812 C 206.941406 132.871094 206.949219 132.859375 206.957031 132.847656 C 206.988281 132.804688 207.019531 132.757812 207.050781 132.710938 C 207.074219 132.675781 207.097656 132.644531 207.121094 132.609375 C 207.136719 132.582031 207.144531 132.554688 207.160156 132.527344 C 207.191406 132.464844 207.226562 132.402344 207.253906 132.339844 C 207.289062 132.269531 207.316406 132.199219 207.34375 132.128906 C 207.367188 132.070312 207.390625 132.011719 207.40625 131.949219 C 207.425781 131.890625 207.445312 131.832031 207.457031 131.769531 C 207.476562 131.695312 207.492188 131.617188 207.503906 131.539062 C 207.515625 131.476562 207.527344 131.414062 207.535156 131.351562 C 207.542969 131.285156 207.546875 131.222656 207.550781 131.160156 C 207.554688 131.085938 207.550781 131.007812 207.550781 130.933594 C 207.550781 130.867188 207.546875 130.800781 207.542969 130.738281 C 207.539062 130.667969 207.527344 130.601562 207.515625 130.53125 C 207.511719 130.492188 207.515625 130.457031 207.507812 130.417969 C 204.09375 112.257812 196.3125 99.726562 184.375 93.167969 C 165.363281 82.726562 143.066406 91.46875 142.128906 91.84375 C 142.058594 91.871094 142.003906 91.914062 141.9375 91.945312 C 141.839844 91.992188 141.742188 92.039062 141.652344 92.09375 C 141.5625 92.148438 141.480469 92.214844 141.394531 92.277344 C 141.316406 92.335938 141.242188 92.394531 141.167969 92.460938 C 141.089844 92.535156 141.019531 92.613281 140.945312 92.695312 C 140.882812 92.765625 140.820312 92.835938 140.765625 92.914062 C 140.703125 92.996094 140.652344 93.085938 140.597656 93.171875 C 140.546875 93.261719 140.496094 93.347656 140.453125 93.441406 C 140.410156 93.527344 140.378906 93.617188 140.347656 93.707031 C 140.308594 93.808594 140.273438 93.910156 140.25 94.015625 C 140.226562 94.109375 140.210938 94.203125 140.199219 94.296875 C 140.179688 94.402344 140.164062 94.511719 140.160156 94.621094 C 140.15625 94.722656 140.160156 94.820312 140.164062 94.921875 C 140.171875 95 140.160156 95.078125 140.171875 95.15625 Z M 181.378906 98.722656 C 190 103.472656 196.117188 112.140625 199.644531 124.507812 L 171.609375 107.890625 C 170.109375 107 168.175781 107.496094 167.289062 108.996094 C 166.402344 110.496094 166.898438 112.429688 168.394531 113.320312 L 196.433594 129.941406 C 183.90625 132.792969 173.375 131.589844 165.070312 126.308594 C 152.488281 118.304688 148.140625 102.914062 146.878906 96.894531 C 152.753906 95.109375 168.324219 91.527344 181.378906 98.722656 Z M 181.378906 98.722656 " fill-opacity="1" fill-rule="nonzero"/><path fill="#ffffff" d="M 224.027344 130.53125 C 224.019531 130.601562 224.007812 130.667969 224.003906 130.738281 C 223.996094 130.800781 223.996094 130.867188 223.996094 130.933594 C 223.992188 131.007812 223.992188 131.085938 223.996094 131.160156 C 224 131.222656 224.003906 131.289062 224.011719 131.351562 C 224.015625 131.414062 224.027344 131.476562 224.039062 131.539062 C 224.054688 131.617188 224.066406 131.695312 224.085938 131.769531 C 224.101562 131.832031 224.117188 131.890625 224.136719 131.949219 C 224.15625 132.007812 224.179688 132.070312 224.199219 132.128906 C 224.230469 132.199219 224.257812 132.269531 224.289062 132.339844 C 224.320312 132.402344 224.351562 132.464844 224.386719 132.523438 C 224.398438 132.550781 224.40625 132.582031 224.421875 132.609375 C 224.445312 132.644531 224.472656 132.675781 224.496094 132.710938 C 224.523438 132.757812 224.554688 132.800781 224.585938 132.847656 C 224.59375 132.859375 224.601562 132.871094 224.613281 132.882812 C 224.628906 132.90625 224.640625 132.929688 224.660156 132.953125 C 224.730469 133.039062 224.804688 133.121094 224.882812 133.203125 C 224.898438 133.21875 224.914062 133.238281 224.929688 133.257812 C 224.960938 133.285156 224.992188 133.308594 225.019531 133.335938 C 225.058594 133.371094 225.097656 133.402344 225.136719 133.433594 C 225.203125 133.488281 225.269531 133.542969 225.34375 133.589844 C 225.382812 133.617188 225.425781 133.644531 225.464844 133.671875 C 225.484375 133.683594 225.503906 133.695312 225.523438 133.707031 C 225.546875 133.722656 225.566406 133.738281 225.585938 133.75 C 225.683594 133.804688 225.785156 133.851562 225.890625 133.894531 C 225.910156 133.90625 225.933594 133.917969 225.953125 133.925781 C 226 133.945312 226.046875 133.957031 226.089844 133.972656 C 226.113281 133.980469 226.132812 133.992188 226.15625 134 C 233.855469 136.519531 241.007812 137.777344 247.582031 137.777344 C 255.992188 137.777344 263.453125 135.71875 269.898438 131.605469 C 288.183594 119.9375 291.25 96.160156 291.375 95.15625 C 291.382812 95.085938 291.375 95.023438 291.378906 94.953125 C 291.382812 94.839844 291.390625 94.726562 291.382812 94.613281 C 291.378906 94.511719 291.363281 94.417969 291.351562 94.316406 C 291.335938 94.214844 291.320312 94.113281 291.292969 94.011719 C 291.269531 93.910156 291.234375 93.816406 291.203125 93.71875 C 291.167969 93.625 291.132812 93.53125 291.089844 93.4375 C 291.046875 93.347656 291 93.265625 290.949219 93.179688 C 290.894531 93.089844 290.839844 93 290.777344 92.914062 C 290.722656 92.839844 290.660156 92.769531 290.597656 92.695312 C 290.527344 92.617188 290.457031 92.535156 290.375 92.460938 C 290.304688 92.394531 290.226562 92.335938 290.148438 92.277344 C 290.066406 92.214844 289.980469 92.152344 289.894531 92.09375 C 289.800781 92.039062 289.703125 91.992188 289.605469 91.945312 C 289.542969 91.914062 289.484375 91.875 289.417969 91.847656 C 288.476562 91.46875 266.183594 82.726562 247.171875 93.171875 C 235.234375 99.726562 227.449219 112.257812 224.039062 130.417969 C 224.03125 130.457031 224.035156 130.492188 224.027344 130.53125 Z M 250.167969 98.722656 C 263.226562 91.527344 278.804688 95.113281 284.675781 96.898438 C 283.429688 102.902344 279.113281 118.246094 266.511719 126.285156 C 258.203125 131.585938 247.65625 132.796875 235.113281 129.941406 L 263.148438 113.320312 C 264.648438 112.429688 265.144531 110.496094 264.257812 108.996094 C 263.371094 107.496094 261.4375 107 259.9375 107.890625 L 231.90625 124.507812 C 235.429688 112.140625 241.546875 103.472656 250.167969 98.722656 Z M 250.167969 98.722656 " fill-opacity="1" fill-rule="nonzero"/><g clip-path="url(#bb6af624ee)"><path fill="#ffffff" d="M 213.449219 110.472656 C 213.488281 110.511719 213.535156 110.535156 213.574219 110.570312 C 213.625 110.609375 213.671875 110.652344 213.722656 110.6875 C 213.761719 110.714844 213.800781 110.738281 213.839844 110.765625 C 213.933594 110.824219 214.027344 110.871094 214.121094 110.921875 C 214.175781 110.949219 214.226562 110.984375 214.28125 111.007812 C 214.308594 111.019531 214.335938 111.027344 214.363281 111.039062 C 214.480469 111.085938 214.605469 111.121094 214.730469 111.152344 C 214.746094 111.160156 214.765625 111.167969 214.78125 111.171875 C 214.832031 111.183594 214.882812 111.199219 214.933594 111.210938 C 215.109375 111.246094 215.285156 111.261719 215.464844 111.265625 C 215.484375 111.265625 215.503906 111.273438 215.523438 111.273438 C 215.523438 111.273438 215.527344 111.273438 215.53125 111.273438 C 215.535156 111.273438 215.539062 111.273438 215.542969 111.273438 C 215.746094 111.273438 215.945312 111.25 216.140625 111.214844 C 216.15625 111.210938 216.167969 111.210938 216.179688 111.207031 C 216.226562 111.199219 216.269531 111.179688 216.3125 111.167969 C 216.445312 111.132812 216.578125 111.097656 216.703125 111.046875 C 216.730469 111.035156 216.757812 111.027344 216.785156 111.015625 C 216.835938 110.992188 216.882812 110.964844 216.929688 110.9375 C 217.03125 110.890625 217.128906 110.839844 217.222656 110.777344 C 217.261719 110.753906 217.300781 110.730469 217.339844 110.703125 C 217.386719 110.671875 217.429688 110.632812 217.476562 110.597656 C 217.519531 110.566406 217.566406 110.539062 217.605469 110.503906 C 231.554688 98.402344 238.445312 85.355469 238.085938 71.726562 C 237.515625 50.023438 218.738281 35.144531 217.941406 34.523438 C 217.890625 34.480469 217.832031 34.457031 217.777344 34.417969 C 217.679688 34.351562 217.582031 34.289062 217.480469 34.230469 C 217.394531 34.1875 217.304688 34.148438 217.214844 34.113281 C 217.117188 34.070312 217.019531 34.03125 216.917969 34 C 216.820312 33.972656 216.722656 33.949219 216.625 33.929688 C 216.523438 33.910156 216.425781 33.890625 216.324219 33.882812 C 216.226562 33.871094 216.128906 33.871094 216.035156 33.871094 C 215.925781 33.867188 215.820312 33.867188 215.714844 33.878906 C 215.621094 33.886719 215.53125 33.902344 215.441406 33.921875 C 215.332031 33.941406 215.226562 33.960938 215.121094 33.992188 C 215.027344 34.019531 214.9375 34.054688 214.847656 34.089844 C 214.75 34.128906 214.652344 34.167969 214.558594 34.21875 C 214.460938 34.265625 214.371094 34.328125 214.28125 34.386719 C 214.222656 34.425781 214.160156 34.453125 214.101562 34.496094 C 213.292969 35.109375 194.328125 49.742188 193.476562 71.4375 C 192.941406 85.058594 199.660156 98.191406 213.449219 110.472656 Z M 199.773438 71.726562 C 200.339844 56.808594 211.429688 45.289062 215.984375 41.167969 C 220.480469 45.332031 231.390625 56.9375 231.785156 71.890625 C 232.042969 81.761719 227.660156 91.441406 218.742188 100.742188 L 218.953125 68.101562 C 218.964844 66.359375 217.5625 64.9375 215.824219 64.925781 C 215.816406 64.925781 215.808594 64.925781 215.800781 64.925781 C 214.070312 64.925781 212.664062 66.324219 212.652344 68.058594 L 212.441406 100.699219 C 203.65625 91.300781 199.398438 81.578125 199.773438 71.726562 Z M 199.773438 71.726562 " fill-opacity="1" fill-rule="nonzero"/></g></svg>