<svg xmlns="http://www.w3.org/2000/svg" xmlns:xlink="http://www.w3.org/1999/xlink" width="500" zoomAndPan="magnify" viewBox="0 0 375 374.999991" height="500" preserveAspectRatio="xMidYMid meet" version="1.0"><defs><clipPath id="016be01a08"><path d="M 54.375 37.640625 L 320.625 37.640625 L 320.625 337.359375 L 54.375 337.359375 Z M 54.375 37.640625 " clip-rule="nonzero"/></clipPath></defs><g clip-path="url(#016be01a08)"><path fill="#ffffff" d="M 306.480469 256.183594 C 304.808594 259.074219 302.117188 261.140625 298.894531 262 C 295.652344 262.875 292.296875 262.414062 289.417969 260.75 C 286.53125 259.089844 284.464844 256.390625 283.601562 253.175781 C 282.734375 249.957031 283.1875 246.585938 284.847656 243.695312 C 286.515625 240.808594 289.214844 238.742188 292.433594 237.882812 C 293.507812 237.59375 294.589844 237.449219 295.675781 237.449219 C 297.847656 237.449219 299.980469 238.015625 301.90625 239.132812 C 304.800781 240.792969 306.859375 243.492188 307.726562 246.707031 C 308.589844 249.925781 308.140625 253.296875 306.480469 256.183594 Z M 187.511719 224.964844 C 166.851562 224.964844 150.046875 208.160156 150.046875 187.5 C 150.046875 166.839844 166.851562 150.035156 187.511719 150.035156 C 208.171875 150.035156 224.976562 166.839844 224.976562 187.5 C 224.976562 208.160156 208.171875 224.964844 187.511719 224.964844 Z M 200 312.382812 C 200 319.265625 194.40625 324.871094 187.511719 324.871094 C 180.625 324.871094 175.023438 319.265625 175.023438 312.382812 C 175.023438 305.5 180.625 299.894531 187.511719 299.894531 C 194.40625 299.894531 200 305.5 200 312.382812 Z M 175.023438 62.617188 C 175.023438 55.734375 180.625 50.128906 187.511719 50.128906 C 194.40625 50.128906 200 55.734375 200 62.617188 C 200 69.5 194.40625 75.105469 187.511719 75.105469 C 180.625 75.105469 175.023438 69.5 175.023438 62.617188 Z M 91.425781 253.175781 C 90.558594 256.390625 88.5 259.089844 85.605469 260.75 C 82.71875 262.414062 79.375 262.875 76.132812 262 C 72.914062 261.140625 70.214844 259.074219 68.546875 256.183594 C 66.886719 253.296875 66.433594 249.925781 67.300781 246.707031 C 68.164062 243.492188 70.230469 240.792969 73.117188 239.132812 C 75.042969 238.015625 77.179688 237.449219 79.351562 237.449219 C 80.425781 237.449219 81.523438 237.59375 82.59375 237.882812 C 85.816406 238.742188 88.507812 240.808594 90.179688 243.695312 C 91.839844 246.585938 92.289062 249.957031 91.425781 253.175781 Z M 90.179688 131.304688 C 88.507812 134.191406 85.816406 136.257812 82.59375 137.117188 C 79.359375 137.976562 75.996094 137.542969 73.117188 135.867188 C 70.230469 134.207031 68.164062 131.507812 67.300781 128.292969 C 66.433594 125.074219 66.886719 121.703125 68.546875 118.816406 C 70.214844 115.925781 72.914062 113.859375 76.132812 113 C 77.207031 112.710938 78.300781 112.566406 79.375 112.566406 C 81.546875 112.566406 83.679688 113.132812 85.605469 114.25 C 88.5 115.910156 90.558594 118.609375 91.425781 121.824219 C 92.289062 125.042969 91.839844 128.414062 90.179688 131.304688 Z M 283.601562 121.824219 C 284.464844 118.609375 286.53125 115.910156 289.417969 114.25 C 291.34375 113.132812 293.480469 112.566406 295.652344 112.566406 C 296.726562 112.566406 297.824219 112.710938 298.894531 113 C 302.117188 113.859375 304.808594 115.925781 306.480469 118.816406 C 308.140625 121.703125 308.589844 125.074219 307.726562 128.292969 C 306.859375 131.507812 304.800781 134.207031 301.90625 135.867188 C 299.027344 137.53125 295.660156 137.980469 292.433594 137.117188 C 289.214844 136.257812 286.515625 134.191406 284.847656 131.304688 C 283.1875 128.414062 282.734375 125.042969 283.601562 121.824219 Z M 308.148438 228.3125 C 302.371094 224.984375 295.636719 224.089844 289.199219 225.820312 C 284.832031 226.988281 281.011719 229.339844 277.925781 232.488281 L 233.550781 206.871094 C 236.070312 200.910156 237.464844 194.363281 237.464844 187.5 C 237.464844 180.636719 236.070312 174.089844 233.550781 168.128906 L 277.925781 142.511719 C 281.011719 145.660156 284.832031 148.011719 289.199219 149.179688 C 291.34375 149.761719 293.53125 150.050781 295.699219 150.050781 C 300.027344 150.050781 304.296875 148.910156 308.148438 146.6875 C 313.929688 143.351562 318.066406 137.964844 319.785156 131.523438 C 321.515625 125.078125 320.628906 118.347656 317.289062 112.570312 C 313.957031 106.792969 308.566406 102.664062 302.125 100.9375 C 295.699219 99.207031 288.953125 100.101562 283.171875 103.429688 C 277.394531 106.765625 273.261719 112.152344 271.539062 118.59375 C 270.363281 122.964844 270.496094 127.449219 271.679688 131.699219 L 227.132812 157.414062 C 219.207031 147.003906 207.367188 139.902344 193.753906 138.175781 L 193.753906 86.707031 C 204.496094 83.914062 212.488281 74.222656 212.488281 62.617188 C 212.488281 48.839844 201.28125 37.640625 187.511719 37.640625 C 173.746094 37.640625 162.535156 48.839844 162.535156 62.617188 C 162.535156 74.222656 170.53125 83.914062 181.265625 86.707031 L 181.265625 138.175781 C 167.664062 139.902344 155.824219 147.003906 147.894531 157.414062 L 103.347656 131.699219 C 104.53125 127.449219 104.660156 122.964844 103.484375 118.59375 C 101.765625 112.152344 97.628906 106.765625 91.847656 103.429688 C 86.070312 100.101562 79.335938 99.21875 72.898438 100.9375 C 66.457031 102.664062 61.066406 106.792969 57.742188 112.570312 C 54.398438 118.347656 53.507812 125.078125 55.238281 131.523438 C 56.960938 137.964844 61.09375 143.351562 66.871094 146.6875 C 70.726562 148.910156 74.996094 150.050781 79.328125 150.050781 C 81.496094 150.050781 83.679688 149.761719 85.824219 149.179688 C 90.195312 148.011719 94.011719 145.660156 97.097656 142.511719 L 141.472656 168.128906 C 138.957031 174.089844 137.558594 180.636719 137.558594 187.5 C 137.558594 194.363281 138.957031 200.910156 141.472656 206.871094 L 97.097656 232.488281 C 94.011719 229.339844 90.195312 226.988281 85.824219 225.820312 C 79.410156 224.085938 72.652344 224.980469 66.871094 228.3125 C 61.09375 231.648438 56.960938 237.035156 55.238281 243.476562 C 53.507812 249.921875 54.398438 256.652344 57.742188 262.429688 C 61.066406 268.207031 66.457031 272.335938 72.898438 274.0625 C 75.042969 274.644531 77.230469 274.933594 79.398438 274.933594 C 83.726562 274.933594 87.996094 273.792969 91.847656 271.570312 C 97.628906 268.234375 101.765625 262.847656 103.484375 256.40625 C 104.660156 252.035156 104.53125 247.550781 103.347656 243.300781 L 147.894531 217.585938 C 155.824219 227.996094 167.664062 235.097656 181.265625 236.824219 L 181.265625 288.292969 C 170.53125 291.085938 162.535156 300.777344 162.535156 312.382812 C 162.535156 326.160156 173.746094 337.359375 187.511719 337.359375 C 201.28125 337.359375 212.488281 326.160156 212.488281 312.382812 C 212.488281 300.777344 204.496094 291.085938 193.753906 288.292969 L 193.753906 236.824219 C 207.367188 235.097656 219.207031 227.996094 227.132812 217.585938 L 271.679688 243.300781 C 270.496094 247.550781 270.363281 252.035156 271.539062 256.40625 C 273.261719 262.847656 277.394531 268.234375 283.171875 271.570312 C 287.027344 273.792969 291.296875 274.933594 295.628906 274.933594 C 297.796875 274.933594 299.980469 274.644531 302.125 274.0625 C 308.566406 272.335938 313.957031 268.207031 317.289062 262.429688 C 320.628906 256.652344 321.515625 249.921875 319.785156 243.476562 C 318.066406 237.035156 313.929688 231.648438 308.148438 228.3125 " fill-opacity="1" fill-rule="nonzero"/></g></svg>