<svg version="1.1" viewBox="0 0 535 800" xmlns="http://www.w3.org/2000/svg">
    <path d="m267.19 143.62c-39.599-0-71.808-32.208-71.808-71.809s32.207-71.807 71.808-71.807 71.809 32.208 71.809 71.809-32.209 71.807-71.809 71.807zm0-118.08c-25.519 0-46.276 20.758-46.276 46.277s20.757 46.276 46.276 46.276c25.506 0 46.277-20.757 46.277-46.276s-20.771-46.277-46.277-46.277z" fill="#acc1c1"/>
    <path d="m267.19 23.399c-35.604 0-65.157 26.069-70.761 60.103 5.604 34.034 35.157 60.102 70.761 60.102 35.605 0 65.158-26.068 70.762-60.102-5.606-34.034-35.159-60.103-70.762-60.103zm46.275 71.809c0 25.519-20.77 46.276-46.276 46.276-25.519 0-46.277-20.757-46.277-46.276 0-4.06 0.702-7.94 1.673-11.706-0.971-3.767-1.673-7.647-1.673-11.706 0-25.519 20.758-46.277 46.277-46.277 25.506 0 46.276 20.758 46.276 46.277 0 4.059-0.702 7.939-1.685 11.706 0.983 3.766 1.685 7.646 1.685 11.706z" fill="#8da09f"/>
    <path d="m534.3 765.4c-0 19.111-15.486 34.595-34.584 34.595h-465.06c-19.124 0-34.583-15.486-34.583-34.595v-645.7c-0-19.111 15.459-34.595 34.583-34.595h465.06c19.098 0 34.583 15.486 34.583 34.595v645.7h-1e-3z" fill="#3babff"/>
    <path d="m53.145 615.66v-426.46l-53.069-67.204c-0.916-11.618 6.234-37.011 34.585-36.902h465.06c19.098 0 34.583 15.486 34.583 34.595v645.7c0 19.111-15.485 34.595-34.583 34.595l-14.759-22.216c-5.378 8.497-15.238 14.212-25.773 14.212h-222.69l-183.36-176.32z" fill="#075cd8"/>
    <path d="m53.145 202.59c-0-15.766 12.791-41.927 28.544-41.927h371.04c15.753-0 28.519 12.779 28.519 28.545v440.8l-428.1-427.41z" fill="#ffc200"/>
    <path d="m481.25 189.2v427.41l-246-427.41h246z" fill="#ffb000"/>
    <path d="m372.17 507.71 109.08 108.9v100.57c-0 15.753-12.766 28.532-28.519 28.532h-216.23l-183.36-176.32v-380.19l78.778 78.651h274.22c4.531-0 8.221 3.241 8.221 7.263 0 4.008-3.688 7.264-8.234 7.264h-259.66l41.863 41.796h217.81c4.531-0 8.221 3.267 8.221 7.264 0 4.008-3.688 7.276-8.234 7.276h-203.23l41.861 41.794h161.39c4.531 0 8.221 3.256 8.221 7.264s-3.688 7.264-8.234 7.264h-146.82l41.863 41.795h104.97c4.531-0.011 8.221 3.256 8.221 7.277 0 4.008-3.688 7.277-8.234 7.277h-90.381l41.863 41.795h48.531c4.531-0.012 8.221 3.243 8.221 7.251 0 4.021-3.688 7.277-8.234 7.277h-33.967zm-319.02-318.52c-0-15.766 12.791-28.545 28.544-28.545h371.03c13.575-0 24.925 9.473 27.817 22.177-2.894-12.694-14.242-22.164-27.804-22.164h-371.04c-15.748-0-28.537 12.772-28.544 28.532z" fill="#ffd400"/>
    <path d="m213.36 575.83v142.33c0 2.042 0.268 4.021 0.676 5.962l21.944 21.103c1.621 0.28 3.243 0.485 4.94 0.485h149.3l-176.65-169.88h-0.205z" fill="#ffc200"/>
    <path d="m213.36 575.83v142.33c0 2.042 0.268 4.021 0.676 5.962l21.944 21.103c1.621 0.28 3.243 0.485 4.94 0.485h76.175l-85.264-142.46-18.471-27.421z" fill="#ffb000"/>
    <path d="m236.5 745.72h0.23v-147.43c-0-15.753-12.792-28.532-28.545-28.532h-154.7l183.01 175.96z" fill="#acc1c1"/>
    <path d="m66.052 569.74-0.346-0.346v-380.19c0-15.766 12.766-28.545 28.545-28.545h-12.562c-15.753-0-28.544 12.779-28.544 28.545v380.19l0.345 0.345h12.562v-1e-3z" fill="#f9e385"/>
    <path d="m423.7 173.48c-0 8.769-7.11 15.867-15.855 15.867h-281.31c-8.759 0-15.855-7.109-15.855-15.867v-82.89c-0-8.769 7.109-15.868 15.855-15.868h281.3c8.758 0 15.855 7.11 15.855 15.868v82.89h0.013z" fill="#acc1c1"/>
    <path d="m407.85 74.719h-281.31c-8.759 0-15.855 7.11-15.855 15.868v40.34c-0 8.77 7.109 15.868 15.855 15.868h281.3c8.758 0 15.855-7.109 15.855-15.868v-40.34c0.013-8.758-7.099-15.868-15.842-15.868z" fill="#c5d8d7"/>
    <path d="m126.54 74.719c-5.362 0-9.869 2.848-12.741 6.919 2.872 4.073 7.379 6.919 12.741 6.919h281.3c5.361-0 9.868-2.848 12.74-6.919-2.872-4.073-7.379-6.919-12.74-6.919h-281.3z" fill="#d1e5e3"/>
    <path d="m53.503 569.74 183.01 175.98h0.217v-147.43l-183.23-28.545z" fill="#93a4a5"/>
    <circle cx="193" cy="118.08" r="7.175" fill="#acc1c1"/>
    <circle cx="242.45" cy="118.08" r="7.175" fill="#acc1c1"/>
    <circle cx="291.93" cy="118.08" r="7.175" fill="#acc1c1"/>
    <circle cx="341.36" cy="118.08" r="7.175" fill="#acc1c1"/>
</svg>
