<svg clip-rule="evenodd" fill-rule="evenodd" stroke-miterlimit="10" version="1.1" viewBox="0 0 449 462" xml:space="preserve" xmlns="http://www.w3.org/2000/svg" xmlns:serif="http://www.serif.com/"><path d="m382.78 249.7c87.565 48.484 87.565 127.09-1e-3 175.58s-229.54 48.484-317.1-0c-87.565-48.483-87.565-127.09 1e-3 -175.57 87.566-48.484 229.54-48.484 317.1-1e-3z" fill="#0e4b6f" fill-rule="nonzero"/><g fill-rule="nonzero"><path d="m303.79 261.49v110.94c0 0.714-0.501 1.582-1.119 1.939l-2.381 1.374c-0.618 0.357-1.621 0.357-2.239-0l-2.38-1.374c-0.618-0.357-1.12-1.225-1.12-1.939v-110.94c0-0.714 0.502-1.003 1.12-0.646l2.38 1.374c0.618 0.357 1.621 0.357 2.239-0l2.381-1.374c0.618-0.357 1.119-0.068 1.119 0.646z" fill="#37474f"/><path d="m298.05 375.75-2.38-1.374c-0.618-0.357-1.12-1.225-1.12-1.939v-110.94c0-0.714 0.502-1.003 1.12-0.646l2.38 1.374c0.618 0.357 1.12 1.225 1.12 1.939l-1e-3 110.94c0 0.714-0.501 1.003-1.119 0.646z" fill="#455a64"/><path d="m405.3 202.85v110.94c0 0.715-0.501 1.582-1.119 1.939l-2.382 1.375c-0.618 0.357-1.62 0.357-2.239 0l-2.38-1.375c-0.618-0.357-1.119-1.224-1.119-1.939v-110.94c0-0.714 0.501-1.003 1.119-0.646l2.381 1.374c0.618 0.357 1.62 0.357 2.238 0l2.382-1.374c0.618-0.357 1.119-0.068 1.119 0.646z" fill="#37474f"/><path d="m399.56 317.1-2.38-1.375c-0.618-0.356-1.119-1.224-1.119-1.938v-110.94c-0-0.714 0.501-1.003 1.119-0.646l2.381 1.374c0.618 0.357 1.119 1.225 1.119 1.939v110.94c-0 0.713-0.501 1.003-1.12 0.646z" fill="#455a64"/><path d="m167.08 182.6v110.94c-0 0.714-0.501 1.582-1.12 1.939l-2.381 1.374c-0.618 0.357-1.621 0.357-2.239 0l-2.38-1.374c-0.618-0.357-1.12-1.225-1.12-1.939v-110.94c-0-0.714 0.502-1.003 1.12-0.646l2.381 1.374c0.618 0.357 1.62 0.357 2.239 0l2.38-1.374c0.619-0.357 1.12-0.068 1.12 0.646z" fill="#37474f"/><path d="m161.34 296.86-2.38-1.374c-0.619-0.357-1.12-1.225-1.12-1.939v-110.94c-0-0.714 0.501-1.003 1.12-0.646l2.38 1.374c0.619 0.357 1.12 1.225 1.12 1.939v110.94c-0 0.713-0.502 1.003-1.12 0.646z" fill="#455a64"/></g><path d="m313.18 278.36c-0.737 0-1.475-0.162-2.037-0.487l-112.25-64.746 2.144-6 112.14 65.715 1e-3 3e-3c0.737 0 112.16-64.092 112.16-64.092 0.988-0.581 1.113-1.459 0.376-2.087 0.957 0.738 1.663 2.118 1.663 3.263v0.815c-0 1.302-0.91 2.871-2.039 3.53l-110.12 63.606c-0.564 0.314-1.302 0.486-2.039 0.486v-6e-3z" fill="#767676"/><path d="m425.35 208.75-110.13 63.603c-1.126 0.65-2.95 0.65-4.075 0l-179.02-103.25c-1.125-0.65-1.125-1.704-0-2.353l110.13-63.603c1.125-0.65 2.95-0.65 4.075 0l179.02 103.25c1.125 0.649 1.125 1.703-0 2.353z" fill="#bdbdbd" fill-rule="nonzero"/><g fill-rule="nonzero"><path d="m299.66 207.36-26.092 15.107c-0.807 0.468-2.116 0.469-2.924 3e-3l-77.084-44.443c-0.808-0.466-0.809-1.223-2e-3 -1.69l26.092-15.107c0.807-0.468 2.116-0.469 2.924-3e-3l77.084 44.444c0.809 0.466 0.809 1.222 2e-3 1.689z" fill="#a2a2a2"/><path d="m195.14 173.66s0.202-0.611 0.605-0.845l24.514-14.15c0.807-0.466 2.116-0.465 2.923 1e-3l74.796 43.255c0.404 0.234 0.606 0.539 0.605 0.844v2.57c1e-3 0.306-0.201 0.612-0.607 0.845l-24.5 14.148c-0.808 0.465-2.118 0.464-2.925-2e-3l-74.806-43.186c-0.401-0.232-0.603-0.536-0.605-0.841-1e-3 -0.306-0-2.334-0-2.639z" fill="#263238"/><path d="m273.47 217.69 24.5-14.084c0.809-0.465 0.81-1.22 2e-3 -1.687l-74.796-43.255c-0.808-0.467-2.116-0.467-2.924-1e-3l-24.513 14.15c-0.807 0.466-0.807 1.222-0 1.689l74.805 43.185c0.808 0.466 2.117 0.467 2.926 3e-3z" fill="#37474f"/><path d="m272.1 218.04v2.628c0.495-0.011 0.991-0.124 1.374-0.337l24.491-14.149c0.406-0.236 0.609-0.54 0.609-0.844v-2.577c-0 0.303-0.203 0.608-0.609 0.844l-24.491 14.092c-0.383 0.214-0.879 0.332-1.374 0.343z" fill="#263238"/><path d="m290.66 202.39c0-0.017 0.014-0.029 0.02-0.033l1.029-0.608 2.055 1.186-1.055 0.651-2.043-1.179-6e-3 -0.017zm-3.358-1.94c0-0.017 0.011-0.029 0.017-0.033l1.03-0.607 2.054 1.185-1.055 0.651-2.042-1.179-4e-3 -0.017zm-2.226 5.163c0-0.015 0.012-0.028 0.018-0.031l2.425-1.4 2.054 1.185-2.442 1.448-2.049-1.183-6e-3 -0.019zm-1.135-7.103c0-0.017 0.012-0.029 0.018-0.033l1.03-0.607 2.054 1.186-1.055 0.65-2.043-1.179-4e-3 -0.017zm-2.225 5.163c0-0.015 0.011-0.028 0.017-0.031l2.426-1.4 2.054 1.185-2.443 1.448-2.048-1.184-6e-3 -0.018zm-1.134-7.103c0-0.017 0.011-0.029 0.016-0.032l1.031-0.608 2.053 1.185-1.054 0.651-2.043-1.179-3e-3 -0.017zm-2.226 5.163c0-0.015 0.011-0.027 0.017-0.03l2.426-1.401 2.053 1.185-2.442 1.448-2.049-1.184-5e-3 -0.018zm-0.438 4.133c0-0.016 0.012-0.027 0.017-0.03l2.427-1.403 2.053 1.186-2.443 1.449-2.048-1.184-6e-3 -0.018zm-0.436 4.133c0-0.016 0.011-0.028 0.017-0.032l6.224-3.594 2.052 1.186-6.237 3.643-2.052-1.185-4e-3 -0.018zm-1.944-15.214c0-0.017 0.012-0.029 0.018-0.032l2.425-1.402 2.054 1.186-2.442 1.449-2.051-1.184-4e-3 -0.017zm-0.542 5.008c0-0.015 0.011-0.028 0.017-0.031l2.425-1.4 2.054 1.185-2.442 1.448-2.048-1.184-6e-3 -0.018zm-0.439 4.134c0-0.016 0.012-0.028 0.018-0.031l2.427-1.402 2.053 1.186-2.443 1.448-2.049-1.184-6e-3 -0.017zm-0.435 4.132c0-0.017 0.012-0.028 0.017-0.032l2.425-1.401 2.053 1.186-2.441 1.449-2.05-1.184-4e-3 -0.018zm-1.944-15.215c0-0.016 0.011-0.028 0.017-0.031l2.426-1.402 2.054 1.187-2.443 1.448-2.051-1.184-3e-3 -0.018zm-0.981 9.143c0-0.016 0.012-0.028 0.018-0.031l2.427-1.402 2.052 1.186-2.442 1.448-2.049-1.184-6e-3 -0.017zm-0.267-4.542c0-0.016 0.01-0.028 0.016-0.032l2.426-1.4 2.054 1.186-2.443 1.447-2.05-1.183-3e-3 -0.018zm-0.168 8.674c0-0.017 0.011-0.028 0.017-0.032l2.425-1.401 2.053 1.186-2.442 1.449-2.05-1.184-3e-3 -0.018zm-0.438 4.132c0-0.016 0.011-0.028 0.017-0.032l2.425-1.4 2.054 1.186-2.442 1.448-2.051-1.184-3e-3 -0.018zm-0.438 4.133c0-0.016 0.011-0.028 0.017-0.032l6.224-3.593 2.054 1.186-6.239 3.642-2.053-1.185-3e-3 -0.018zm-1.068-23.479c0-0.017 0.011-0.029 0.017-0.032l2.426-1.401 2.053 1.186-2.442 1.448-2.05-1.184-4e-3 -0.017zm-1.249 4.6c0-0.016 0.011-0.028 0.017-0.032l2.426-1.4 2.053 1.186-2.442 1.447-2.05-1.183-4e-3 -0.018zm-0.168 8.674c0-0.017 0.012-0.028 0.018-0.032l2.425-1.401 2.052 1.186-2.44 1.448-2.051-1.183-4e-3 -0.018zm-0.27-4.541c0-0.017 0.011-0.029 0.017-0.033l2.425-1.4 2.055 1.186-2.443 1.449-2.05-1.184-4e-3 -0.018zm-0.167 8.674c0-0.017 0.011-0.029 0.016-0.033l2.426-1.4 2.055 1.186-2.444 1.448-2.049-1.184-4e-3 -0.017zm-0.439 4.132c0-0.016 0.012-0.029 0.018-0.032l2.425-1.399 2.054 1.185-2.442 1.448-2.051-1.184-4e-3 -0.018zm-1.81-23.908c0-0.017 0.011-0.029 0.017-0.032l2.425-1.402 2.053 1.186-2.441 1.449-2.05-1.184-4e-3 -0.017zm-0.506 5.029c0-0.015 0.011-0.028 0.016-0.031l2.426-1.402 2.055 1.186-2.443 1.448-2.05-1.183-4e-3 -0.018zm-0.439 4.133c0-0.016 0.012-0.029 0.018-0.033l2.426-1.399 2.053 1.185-2.442 1.449-2.051-1.184-4e-3 -0.018zm-0.167 8.673c0-0.016 0.012-0.028 0.017-0.032l2.426-1.4 2.054 1.186-2.441 1.449-2.052-1.184-4e-3 -0.019zm-2.248-19.775c0-0.017 0.011-0.029 0.017-0.032l2.426-1.402 2.051 1.186-2.44 1.449-2.051-1.184-3e-3 -0.017zm-0.945 9.162c0-0.016 0.012-0.029 0.018-0.033l2.425-1.399 2.054 1.186-2.44 1.448-2.052-1.184-5e-3 -0.018zm-0.604 12.806c0-0.016 0.01-0.028 0.016-0.031l2.426-1.401 5.414 3.126-2.442 1.448-5.412-3.124-2e-3 -0.018zm-1.257-18.267c0-0.016 0.011-0.028 0.016-0.032l2.426-1.399 3.647 2.105-2.444 1.447-3.639-2.102-6e-3 -0.019zm-0.554-5.641c0-0.017 0.011-0.029 0.017-0.032l2.425-1.401 2.052 1.186-2.44 1.448-2.051-1.184-3e-3 -0.017zm-1.82 17.427c0-0.016 0.011-0.028 0.016-0.032l2.428-1.4 2.053 1.186-2.443 1.448-2.05-1.184-4e-3 -0.018zm-0.439 4.133c0-0.016 0.012-0.029 0.02-0.033l2.425-1.399 2.052 1.185-2.442 1.448-2.049-1.184-6e-3 -0.017zm-0.548-17.859c0-0.016 0.012-0.028 0.018-0.031l2.425-1.4 2.054 1.186-2.442 1.448-2.049-1.185-6e-3 -0.018zm-0.553-5.641c0-0.017 0.011-0.029 0.016-0.032l2.426-1.401 2.055 1.186-2.444 1.448-2.049-1.184-4e-3 -0.017zm-2.005 8.549c0-0.016 0.01-0.028 0.016-0.031l2.426-1.401 2.053 1.185-2.444 1.449-2.047-1.183-4e-3 -0.019zm-0.251 13.011c0-0.016 0.01-0.029 0.016-0.032l2.426-1.401 2.052 1.186-2.442 1.448-2.049-1.184-3e-3 -0.017zm-0.551-17.858c0-0.016 0.012-0.028 0.018-0.031l2.424-1.401 2.055 1.186-2.442 1.447-2.049-1.184-6e-3 -0.017zm-2.016-6.487c0-0.016 0.011-0.028 0.017-0.031l2.426-1.402 2.053 1.186-2.442 1.449-2.051-1.184-3e-3 -0.018zm-0.097 14.037c0-0.015 0.011-0.026 0.017-0.03l2.427-1.402 1.876 1.084c0.131 0.076 0.352 0.121 0.592 0.121 0.251-0 0.477-0.046 0.621-0.129l3.184-1.84 2.407 1.391-6.237 3.642-4.881-2.819-6e-3 -0.018zm-0.446-4.642c0-0.017 0.012-0.029 0.017-0.032l2.426-1.402 2.052 1.187-2.44 1.447-2.051-1.183-4e-3 -0.017zm-0.253 13.01c0-0.016 0.011-0.027 0.017-0.03l2.428-1.403 2.052 1.186-2.443 1.448-2.048-1.184-6e-3 -0.017zm-0.548-17.859c0-0.016 0.011-0.028 0.017-0.031l2.427-1.401 2.053 1.186-2.443 1.449-2.049-1.185-5e-3 -0.018zm-2.016-6.485c0-0.017 0.011-0.029 0.017-0.032l2.425-1.402 2.054 1.186-2.442 1.449-2.05-1.184-4e-3 -0.017zm-0.098 14.036c0-0.015 0.012-0.028 0.018-0.031l2.427-1.401 2.052 1.186-2.442 1.448-2.049-1.184-6e-3 -0.018zm-0.445-4.642c0-0.017 0.012-0.029 0.018-0.032l2.425-1.401 2.054 1.186-2.442 1.448-2.051-1.184-4e-3 -0.017zm-0.801-4.849c0-0.016 0.011-0.028 0.017-0.031l2.428-1.401 2.051 1.187-2.442 1.448-2.049-1.184-5e-3 -0.019zm-0.783 12.706c0-0.017 0.014-0.028 0.02-0.032l2.424-1.402 6.476 3.739-2.443 1.448-6.471-3.736-6e-3 -0.017zm-0.612 4.03c0-0.017 0.01-0.029 0.016-0.031l2.426-1.402 3.291 1.901-2.442 1.448-3.288-1.898-3e-3 -0.018zm-0.621-23.222c0-0.016 0.011-0.028 0.016-0.031l2.426-1.401 2.055 1.186-2.444 1.448-2.049-1.184-4e-3 -0.018zm-0.098 14.037c0-0.015 0.012-0.028 0.018-0.031l2.427-1.401 2.052 1.186-2.442 1.448-2.049-1.184-6e-3 -0.018zm-0.445-4.643c0-0.016 0.011-0.028 0.017-0.031l2.425-1.401 2.055 1.186-2.443 1.448-2.05-1.184-4e-3 -0.018zm-0.801-4.847c0-0.018 0.015-0.031 0.018-0.033l2.424-1.399 2.054 1.185-2.442 1.449-2.049-1.184-5e-3 -0.018zm-0.783 12.703c0-0.015 0.011-0.027 0.017-0.03l2.427-1.402 2.053 1.187-2.443 1.448-2.048-1.184-6e-3 -0.019zm-1.144 3.725c0-0.016 0.011-0.028 0.017-0.032l2.426-1.4 2.584 1.492-2.442 1.449-2.582-1.491-3e-3 -0.018zm-0.09-22.915c0-0.016 0.012-0.028 0.018-0.031l2.425-1.401 2.054 1.186-2.443 1.448-2.05-1.184-4e-3 -0.018zm-0.096 14.037c0-0.015 0.01-0.028 0.016-0.031l2.428-1.401 2.052 1.186-2.443 1.448-2.049-1.184-4e-3 -0.018zm-0.446-4.643c0-0.016 0.011-0.028 0.017-0.031l2.426-1.401 2.051 1.186-2.44 1.447-2.051-1.183-3e-3 -0.018zm-0.801-4.847c0-0.016 0.01-0.028 0.016-0.031l2.428-1.402 2.052 1.186-2.443 1.449-2.048-1.184-5e-3 -0.018zm-0.783 12.705c0-0.017 0.013-0.03 0.019-0.034l2.426-1.399 2.051 1.186-2.44 1.447-2.051-1.183-5e-3 -0.017zm-1.331-5.154c0-0.017 0.013-0.029 0.019-0.033l2.426-1.4 2.052 1.186-2.443 1.448-2.048-1.184-6e-3 -0.017zm-0.344 8.572c0-0.017 0.012-0.03 0.018-0.034l2.426-1.399 2.584 1.492-2.442 1.448-2.581-1.49-5e-3 -0.017zm-0.102-13.215c0-0.017 0.012-0.029 0.018-0.032l2.425-1.401 2.054 1.186-2.442 1.448-2.051-1.184-4e-3 -0.017zm-0.801-4.847c0-0.017 0.013-0.03 0.019-0.034l2.426-1.399 2.051 1.186-2.442 1.448-2.049-1.184-5e-3 -0.017zm-0.118-5.392c0-0.016 0.012-0.028 0.017-0.031l2.425-1.401 2.055 1.185-2.442 1.449-2.051-1.184-4e-3 -0.018zm-0.663 18.095c0-0.016 0.012-0.029 0.018-0.032l2.425-1.4 2.052 1.186-2.442 1.448-2.049-1.184-4e-3 -0.018zm-1.332-5.154c0-0.016 0.012-0.027 0.017-0.031l2.427-1.401 2.052 1.186-2.442 1.449-2.048-1.185-6e-3 -0.018zm-0.445-4.643c0-0.016 0.01-0.028 0.016-0.031l2.426-1.401 2.054 1.186-2.443 1.448-2.05-1.185-3e-3 -0.017zm-0.429 12.909c0-0.017 0.012-0.028 0.017-0.032l2.425-1.401 2.584 1.492-2.443 1.449-2.579-1.49-4e-3 -0.018zm-0.371-17.756c0-0.016 0.012-0.029 0.016-0.033l2.426-1.399 2.053 1.186-2.442 1.448-2.049-1.184-4e-3 -0.018zm-0.12-5.391c0-0.017 0.011-0.029 0.017-0.033l2.425-1.399 2.055 1.185-2.443 1.449-2.05-1.184-4e-3 -0.018zm-0.662 18.095c0-0.016 0.01-0.028 0.016-0.031l2.426-1.401 2.052 1.186-2.441 1.447-2.051-1.183-2e-3 -0.018zm-1.333-5.154c0-0.016 0.011-0.027 0.017-0.031l2.427-1.401 2.053 1.186-2.443 1.448-2.049-1.184-5e-3 -0.018zm-0.446-4.643c0-0.016 0.011-0.028 0.017-0.031l2.426-1.401 2.053 1.186-2.442 1.448-2.05-1.184-4e-3 -0.018zm-0.802-4.848c0-0.016 0.012-0.027 0.018-0.03l2.427-1.401 2.053 1.186-2.444 1.448-2.048-1.184-6e-3 -0.019zm-0.118-5.389c0-0.017 0.012-0.03 0.018-0.034l2.425-1.399 2.054 1.186-2.442 1.448-2.051-1.184-4e-3 -0.017zm-0.664 18.095c0-0.016 0.013-0.028 0.019-0.032l2.426-1.401 2.051 1.186-2.442 1.448-2.048-1.184-6e-3 -0.017zm-1.331-5.154c0-0.017 0.014-0.029 0.02-0.033l2.425-1.4 2.052 1.186-2.442 1.448-2.049-1.184-6e-3 -0.017zm-0.445-4.644c0-0.016 0.012-0.028 0.016-0.031l2.426-1.401 2.055 1.186-2.443 1.448-2.05-1.184-4e-3 -0.018zm-0.802-4.847c0-0.016 0.013-0.029 0.019-0.032l2.425-1.4 2.053 1.185-2.442 1.449-2.049-1.185-6e-3 -0.017zm-0.118-5.391c0-0.016 0.012-0.028 0.018-0.031l2.426-1.401 2.053 1.186-2.442 1.448-2.051-1.184-4e-3 -0.018zm-0.662 18.095c0-0.017 0.011-0.028 0.017-0.032l2.425-1.4 2.053 1.186-2.441 1.448-2.05-1.184-4e-3 -0.018zm-1.331-5.153c0-0.017 0.011-0.029 0.017-0.032l2.426-1.401 2.052 1.186-2.443 1.448-2.048-1.184-4e-3 -0.017zm-0.447-4.643c0-0.017 0.011-0.029 0.017-0.032l2.425-1.402 2.055 1.187-2.443 1.448-2.051-1.184-3e-3 -0.017zm-0.8-4.848c0-0.017 0.011-0.028 0.017-0.032l2.426-1.4 2.052 1.185-2.441 1.448-2.05-1.184-4e-3 -0.017zm-0.782 12.704c0-0.017 0.011-0.028 0.017-0.032l2.425-1.4 2.052 1.186-2.44 1.447-2.051-1.183-3e-3 -0.018zm-1.33-19.245c0-0.016 0.012-0.028 0.018-0.032l2.425-1.401 2.584 1.493-2.443 1.448-2.58-1.491-4e-3 -0.017zm-3e-3 14.092c0-0.016 0.013-0.028 0.019-0.032l2.425-1.401 2.053 1.186-2.443 1.448-2.049-1.184-5e-3 -0.017zm-0.445-4.644c0-0.016 0.01-0.028 0.017-0.031l2.425-1.401 2.054 1.186-2.443 1.448-2.05-1.184-3e-3 -0.018zm-0.8-4.847c0-0.017 0.011-0.029 0.017-0.032l2.425-1.4 2.052 1.185-2.44 1.448-2.05-1.183-4e-3 -0.018zm-0.783 12.704c0-0.017 0.012-0.028 0.017-0.032l2.426-1.4 2.052 1.186-2.443 1.448-2.048-1.184-4e-3 -0.018zm-1.33-5.154c0-0.016 0.011-0.028 0.017-0.032l2.425-1.4 2.052 1.186-2.442 1.448-2.049-1.184-3e-3 -0.018zm-0.448-4.643c0-0.016 0.012-0.028 0.017-0.031l2.426-1.401 2.054 1.186-2.443 1.448-2.05-1.184-4e-3 -0.018zm-0.799-4.847c0-0.017 0.011-0.029 0.017-0.032l2.425-1.401 2.052 1.186-2.44 1.449-2.051-1.184-3e-3 -0.018zm-0.783 12.704c0-0.017 0.012-0.028 0.017-0.032l2.426-1.4 2.052 1.186-2.441 1.447-2.05-1.183-4e-3 -0.018zm-1.331-5.154c0-0.016 0.011-0.028 0.017-0.032l2.426-1.4 2.052 1.186-2.441 1.448-2.05-1.184-4e-3 -0.018zm-0.698 8.367c0-0.015 0.011-0.027 0.017-0.03l2.425-1.401 18.679 10.783-2.445 1.448-18.673-10.781-3e-3 -0.019zm-0.987-13.725c0-0.016 0.012-0.028 0.017-0.032l2.426-1.4 3.292 1.901-2.443 1.448-3.288-1.899-4e-3 -0.018zm-0.346 8.573c0-0.017 0.013-0.03 0.019-0.033l2.425-1.4 2.053 1.186-2.441 1.447-2.051-1.183-5e-3 -0.017zm-2.559 2.906c0-0.016 0.012-0.028 0.017-0.031l2.426-1.4 2.585 1.491-2.442 1.448-2.58-1.49-6e-3 -0.018zm-0.799-4.847c0-0.016 0.011-0.028 0.017-0.031l2.425-1.401 2.054 1.185-2.442 1.449-2.051-1.184-3e-3 -0.018zm-0.094-4.439c0-0.016 0.012-0.029 0.017-0.032l2.426-1.4 4.175 2.411-2.44 1.448-4.174-2.409-4e-3 -0.018zm-2.998 7.04c0-0.016 0.011-0.028 0.017-0.031l2.427-1.401 2.584 1.492-2.443 1.448-2.579-1.49-6e-3 -0.018zm-0.8-4.847c0-0.016 0.012-0.028 0.017-0.032l2.426-1.4 2.585 1.492-2.443 1.448-2.581-1.491-4e-3 -0.017zm-3.798 2.192c0-0.016 0.011-0.028 0.017-0.031l2.426-1.401 3.291 1.901-2.44 1.447-3.288-1.898-6e-3 -0.018z" fill="#27debf"/></g><path d="m359.95 210.29 22.953-13.252-114.76-66.259-22.953 13.251 114.76 66.26z" fill="#b1b1b1" fill-rule="nonzero"/><path d="m276.04 174.03c-1e-3 -0.369-3e-3 -0.592-3e-3 -0.592l15.42-8.752c0.901-0.52 1.631-1.785 1.631-2.825v-20.203l28.621 16.538 1e-3 20.203c0 1.04-0.73 2.305-1.631 2.825l-12.881 7.499c-3.378 1.951-8.855 1.95-12.233 0l-6.092-3.522-10.299-5.951c-1.686-0.98-2.534-2.251-2.534-3.532v-1.688z" fill="#656565"/><path d="m319.73 177.26c-0 1.041-0.729 2.305-1.631 2.825l-10.903 6.358c-3.379 1.95-8.857 1.951-12.236 1e-3l-16.394-9.474c-3.379-1.95-3.379-5.111-1e-3 -7.062l10.912-6.362c0.9-0.52 1.631-1.785 1.631-2.826v-15.785l28.622 16.538v15.787z" fill="#7b7b7b" fill-rule="nonzero"/><path d="m286.16 165.47v-2e-3l3.322-1.919c0.902-0.52 1.631-1.785 1.631-2.825v-15.786l28.623 16.539v15.786c-0 1.041-0.73 2.306-1.632 2.826l-3.264 1.885-28.68-16.504z" fill="#848484" fill-rule="nonzero"/><path d="m365.69 199.06s-2.826 0.577-3.952-0.073c-14.071-8.124-96.619-55.782-110.69-63.905-1.126-0.65-2.038-2.231-2.038-3.531v-96.884c-0-1.3 0.857-2.849 1.913-3.459s2.826-0.577 3.952 0.073l110.69 63.904c1.126 0.651 2.039 2.232 2.039 3.532l2e-3 96.884c-0 1.3-0.856 2.849-1.913 3.459z" fill="#455a64" fill-rule="nonzero"/><path d="m361.74 198.98-110.69-63.904c-1.126-0.651-2.04-2.232-2.04-3.532v-96.884c-0-1.301 0.914-1.827 2.04-1.178l110.69 63.905c1.127 0.651 2.039 2.232 2.039 3.532l2e-3 96.884c-0 1.3-0.913 1.827-2.039 1.177z" fill="#37474f" fill-rule="nonzero"/><path d="m362.04 199.38s2.693 0.48 3.654-0.075c1.055-0.612 1.912-2.157 1.912-3.466v-6.668l-3.824 2.213v6.668c-0 1.187-0.753 1.724-1.742 1.328z" fill="#7b7b7b" fill-rule="nonzero"/><path d="m363.77 191.38v6.669c-0 1.3-0.913 1.827-2.039 1.177l-110.69-63.905c-1.126-0.649-2.039-2.231-2.039-3.531v-6.67l114.77 66.26z" fill="#7b7b7b" fill-rule="nonzero"/><path d="m359.95 182.96v-80.776c-0-0.78-0.547-1.729-1.223-2.119l-104.67-60.429c-0.675-0.39-1.223-0.074-1.223 0.707l-4e-3 80.777c-1e-3 0.78 0.547 1.729 1.222 2.119l104.67 60.428c0.676 0.39 1.223 0.073 1.223-0.707z" fill="#2c343c" fill-rule="nonzero"/><path d="m303.12 159.27c0.583 0.337 1.75 1.915 1.75 3.031-0 1.117-0.784 1.569-1.75 1.011-0.967-0.558-1.75-1.916-1.75-3.032s1.166-1.347 1.75-1.01z" fill="#455a64" fill-rule="nonzero"/><path d="m363.17 98.902c0.367 0.64 0.593 1.365 0.603 2.015v90.458l3.824-2.213v-90.448c0-0.65-0.237-1.375-0.604-2.016l-3.823 2.204z" fill="#263238" fill-rule="nonzero"/><path d="m396.05 190.46c0.196-0.247-131.62-173.28-131.62-173.28 0.416-0.218 2.037-1.146 2.389-1.358 0.359-0.218 0.858-0.211 1.416 0.115l129.18 74.546c1.03 0.594 1.871 2.001 1.943 3.21 4e-3 0.055 8e-3 93.653 8e-3 93.653-0 0.704-0.346 1.405-1.038 1.798l-2.278 1.314z" fill="#33478d"/><path d="m263.8 18.237s0.17-0.733 0.448-0.941c0 0 1.06-0.189 1.492 0.057l129.18 74.546c1.076 0.621 1.953 2.139 1.953 3.382l-1e-3 93.935c0 1.099-1.14 1.654-1.952 1.19l-129.18-74.577c-1.075-0.621-1.953-2.133-1.953-3.382 0 0 6e-3 -94.133 0.013-94.21z" fill="#455a64" fill-rule="nonzero"/><path d="m263.8 18.468c7e-3 -1.232 0.876-1.731 1.949-1.111l129.18 74.545c1.077 0.622 1.951 2.135 1.951 3.379l-2e-3 6.382-133.07-76.791v-6.404z" fill="#3e5dae" fill-rule="nonzero"/><path d="m392.47 93.249s1.103 1.397 1.103 2.334-0.495 1.413-1.103 1.061c-0.609-0.352-1.103-1.396-1.103-2.334 0-0.937 0.494-1.413 1.103-1.061z" fill="#8a8a8a" fill-rule="nonzero"/><path d="m388.5 90.953s1.103 1.396 1.103 2.334c-0 0.937-0.494 1.412-1.103 1.061-0.608-0.352-1.103-1.397-1.103-2.334-0-0.938 0.495-1.413 1.103-1.061z" fill="#8a8a8a" fill-rule="nonzero"/><path d="m384.53 88.657s1.103 1.396 1.103 2.334c-0 0.937-0.495 1.412-1.103 1.061-0.609-0.352-1.103-1.397-1.103-2.334s0.494-1.413 1.103-1.061z" fill="#8a8a8a" fill-rule="nonzero"/><path d="m303.36 58.144 27.234 15.694c0.383 0.221 0.694 0.736 0.694 1.151s-0.311 0.572-0.694 0.351l-27.234-15.694c-0.383-0.221-0.693-0.736-0.693-1.151s0.31-0.572 0.693-0.351z" fill="#27debf" fill-rule="nonzero"/><path d="m313.77 88.185 10.323 5.937c0.383 0.221 0.694 0.737 0.694 1.151 0 0.415-0.311 0.572-0.694 0.351l-10.323-5.937c-0.383-0.221-0.693-0.736-0.693-1.151s0.31-0.572 0.693-0.351z" fill="#e6e6e6" fill-rule="nonzero"/><path d="m313.77 94.194 10.323 5.937c0.383 0.221 0.694 0.737 0.694 1.151 0 0.415-0.311 0.572-0.694 0.351l-10.323-5.937c-0.383-0.221-0.693-0.736-0.693-1.151s0.31-0.572 0.693-0.351z" fill="#e6e6e6" fill-rule="nonzero"/><path d="m333.28 75.389 54.524 31.401c0.383 0.221 0.694 0.736 0.694 1.151s-0.311 0.572-0.694 0.351l-54.523-31.401c-0.384-0.221-0.693-0.736-0.693-1.151s0.309-0.572 0.692-0.351z" fill="#27debf" fill-rule="nonzero"/><path d="m313.99 130.32 16.604 9.606c0.382 0.221 0.693 0.737 0.693 1.152-0 0.414-0.311 0.572-0.693 0.35l-16.604-9.606c-0.383-0.221-0.693-0.736-0.693-1.151s0.31-0.572 0.693-0.351z" fill="#27debf" fill-rule="nonzero"/><path d="m333.28 141.48 54.524 31.44c0.383 0.222 0.694 0.737 0.694 1.152s-0.311 0.572-0.694 0.351l-54.523-31.441c-0.384-0.221-0.693-0.736-0.693-1.151s0.309-0.572 0.692-0.351z" fill="#27debf" fill-rule="nonzero"/><path d="m303.36 64.166 13.718 7.882c0.383 0.221 0.693 0.737 0.693 1.151-0 0.415-0.31 0.572-0.693 0.351l-13.718-7.882c-0.383-0.221-0.693-0.736-0.693-1.151s0.31-0.572 0.693-0.351z" fill="#27debf" fill-rule="nonzero"/><path d="m303.36 70.163 6.418 3.701c0.383 0.221 0.693 0.736 0.693 1.151s-0.31 0.572-0.693 0.351l-6.418-3.701c-0.383-0.221-0.693-0.737-0.693-1.151-0-0.415 0.31-0.572 0.693-0.351z" fill="#27debf" fill-rule="nonzero"/><path d="m303.36 82.179 6.418 3.701c0.383 0.221 0.693 0.737 0.693 1.152s-0.31 0.571-0.693 0.351l-6.418-3.702c-0.383-0.221-0.693-0.736-0.693-1.151s0.31-0.572 0.693-0.351z" fill="#27debf" fill-rule="nonzero"/><path d="m303.36 88.187 6.418 3.701c0.383 0.221 0.693 0.736 0.693 1.152-0 0.414-0.31 0.571-0.693 0.35l-6.418-3.701c-0.383-0.221-0.693-0.736-0.693-1.151s0.31-0.572 0.693-0.351z" fill="#27debf" fill-rule="nonzero"/><path d="m319.77 73.599 8.227 4.765c0.382 0.221 0.693 0.737 0.693 1.152s-0.311 0.571-0.693 0.351l-8.227-4.766c-0.383-0.221-0.693-0.736-0.693-1.151s0.309-0.572 0.693-0.351z" fill="#27debf" fill-rule="nonzero"/><path d="m332.49 117.03 55.318 31.85c0.383 0.221 0.694 0.736 0.694 1.151s-0.311 0.572-0.694 0.351l-55.318-31.85c-0.383-0.221-0.693-0.736-0.693-1.151s0.31-0.572 0.693-0.351z" fill="#fff" fill-rule="nonzero"/><path d="m379.58 138.1 8.227 4.765c0.382 0.221 0.693 0.737 0.693 1.152s-0.311 0.571-0.693 0.351l-8.227-4.766c-0.383-0.221-0.693-0.736-0.693-1.151s0.31-0.572 0.693-0.351z" fill="#fff" fill-rule="nonzero"/><path d="m321.57 104.7 55.319 31.85c0.383 0.221 0.694 0.736 0.694 1.151s-0.311 0.572-0.694 0.351l-55.319-31.85c-0.383-0.221-0.693-0.736-0.693-1.151s0.31-0.572 0.693-0.351z" fill="#fff" fill-rule="nonzero"/><path d="m313.77 76.172 13.718 7.882c0.383 0.221 0.693 0.737 0.693 1.151 0 0.415-0.31 0.572-0.693 0.351l-13.718-7.882c-0.383-0.221-0.693-0.737-0.693-1.151 0-0.415 0.31-0.572 0.693-0.351z" fill="#27debf" fill-rule="nonzero"/><path d="m330.17 85.605 57.225 33.105c0.383 0.221 0.693 0.737 0.693 1.151 0 0.415-0.31 0.573-0.693 0.351l-57.225-33.105c-0.383-0.221-0.693-0.736-0.693-1.151s0.31-0.572 0.693-0.351z" fill="#27debf" fill-rule="nonzero"/><path d="m313.77 112.34 74.039 42.697c0.383 0.221 0.693 0.736 0.693 1.151s-0.31 0.572-0.693 0.351l-74.039-42.697c-0.383-0.221-0.693-0.736-0.693-1.151s0.31-0.572 0.693-0.351z" fill="#e6e6e6" fill-rule="nonzero"/><path d="m303.36 106.34 6.418 3.701c0.383 0.221 0.693 0.736 0.693 1.152-0 0.414-0.31 0.571-0.693 0.35l-6.418-3.701c-0.383-0.221-0.693-0.736-0.693-1.151s0.31-0.572 0.693-0.351z" fill="#27debf" fill-rule="nonzero"/><path d="m313.77 118.35 74.039 42.696c0.383 0.221 0.693 0.737 0.693 1.152s-0.31 0.571-0.693 0.351l-74.039-42.697c-0.383-0.221-0.693-0.736-0.693-1.151s0.31-0.572 0.693-0.351z" fill="#e6e6e6" fill-rule="nonzero"/><path d="m303.36 112.34 6.418 3.701c0.383 0.221 0.693 0.737 0.693 1.152s-0.31 0.571-0.693 0.351l-6.418-3.702c-0.383-0.221-0.693-0.736-0.693-1.151s0.31-0.572 0.693-0.351z" fill="#27debf" fill-rule="nonzero"/><path d="m313.77 124.35 74.039 42.697c0.383 0.221 0.693 0.736 0.693 1.151s-0.31 0.572-0.693 0.351l-74.039-42.697c-0.383-0.221-0.693-0.736-0.693-1.151s0.31-0.572 0.693-0.351z" fill="#e6e6e6" fill-rule="nonzero"/><path d="m303.36 118.35 6.418 3.701c0.383 0.221 0.693 0.736 0.693 1.152-0 0.414-0.31 0.571-0.693 0.35l-6.418-3.701c-0.383-0.221-0.693-0.736-0.693-1.151s0.31-0.572 0.693-0.351z" fill="#27debf" fill-rule="nonzero"/><path d="m268.33 32.42 20.399 11.777c0.757 0.437 1.371 1.5 1.371 2.374v23.555c-0 0.874-0.614 1.228-1.371 0.791l-20.399-11.778c-0.757-0.437-1.37-1.499-1.37-2.373v-23.555c-0-0.874 0.613-1.228 1.37-0.791z" fill="#37474f" fill-rule="nonzero"/><path d="m270.22 55.769 1.878 1.086c0.383 0.221 0.693 0.736 0.693 1.151s-0.31 0.572-0.693 0.351l-1.878-1.086c-0.383-0.221-0.693-0.736-0.693-1.151s0.31-0.572 0.693-0.351z" fill="#27debf" fill-rule="nonzero"/><path d="m270.22 36.479 1.878 1.086c0.383 0.221 0.693 0.736 0.693 1.151s-0.31 0.572-0.693 0.351l-1.878-1.086c-0.383-0.221-0.693-0.736-0.693-1.151s0.31-0.572 0.693-0.351z" fill="#27debf" fill-rule="nonzero"/><path d="m272.86 41.852 1.878 1.086c0.383 0.221 0.693 0.737 0.693 1.151-0 0.415-0.31 0.572-0.693 0.351l-1.878-1.086c-0.383-0.221-0.693-0.736-0.693-1.151s0.31-0.572 0.693-0.351z" fill="#27debf" fill-rule="nonzero"/><path d="m272.86 45.7 1.878 1.086c0.383 0.221 0.693 0.736 0.693 1.151s-0.31 0.572-0.693 0.351l-1.878-1.086c-0.383-0.221-0.693-0.736-0.693-1.151s0.31-0.572 0.693-0.351z" fill="#27debf" fill-rule="nonzero"/><path d="m270.22 48.05 1.878 1.086c0.383 0.221 0.693 0.737 0.693 1.151 0 0.415-0.31 0.572-0.693 0.351l-1.878-1.086c-0.383-0.221-0.693-0.736-0.693-1.151s0.31-0.572 0.693-0.351z" fill="#27debf" fill-rule="nonzero"/><path d="m272.86 53.427 1.878 1.086c0.383 0.221 0.693 0.736 0.693 1.151s-0.31 0.572-0.693 0.351l-1.878-1.086c-0.383-0.221-0.693-0.736-0.693-1.151s0.31-0.572 0.693-0.351z" fill="#27debf" fill-rule="nonzero"/><path d="m275.37 39.45 11.469 6.622c0.383 0.221 0.693 0.736 0.693 1.151s-0.31 0.572-0.693 0.351l-11.469-6.622c-0.383-0.221-0.693-0.736-0.693-1.151s0.31-0.572 0.693-0.351z" fill="#27debf" fill-rule="nonzero"/><path d="m275.37 58.739 11.469 6.622c0.383 0.221 0.693 0.736 0.693 1.151s-0.31 0.572-0.693 0.351l-11.469-6.622c-0.383-0.221-0.693-0.736-0.693-1.151s0.31-0.572 0.693-0.351z" fill="#27debf" fill-rule="nonzero"/><path d="m278.01 44.822 8.829 5.107c0.383 0.221 0.693 0.737 0.693 1.151 0 0.415-0.31 0.572-0.693 0.351l-8.829-5.107c-0.383-0.221-0.693-0.736-0.694-1.151 0-0.415 0.31-0.572 0.694-0.351z" fill="#27debf" fill-rule="nonzero"/><path d="m278.01 48.68 8.829 5.107c0.383 0.221 0.693 0.737 0.693 1.151 0 0.415-0.31 0.572-0.693 0.351l-8.829-5.107c-0.383-0.221-0.693-0.736-0.694-1.151 0-0.415 0.31-0.572 0.694-0.351z" fill="#27debf" fill-rule="nonzero"/><path d="m275.37 51.024 11.469 6.622c0.383 0.221 0.693 0.736 0.693 1.151s-0.31 0.572-0.693 0.351l-11.469-6.622c-0.383-0.221-0.693-0.736-0.693-1.151s0.31-0.572 0.693-0.351z" fill="#27debf" fill-rule="nonzero"/><path d="m278.01 56.398 8.829 5.105c0.383 0.222 0.693 0.737 0.693 1.152s-0.31 0.572-0.693 0.351l-8.829-5.106c-0.383-0.221-0.693-0.736-0.694-1.151 0-0.415 0.31-0.572 0.694-0.351z" fill="#27debf" fill-rule="nonzero"/><path d="m268.33 63.571 20.399 11.777c0.757 0.437 1.371 1.5 1.371 2.374v46.545c-0 0.874-0.614 1.228-1.371 0.791l-20.399-11.778c-0.757-0.437-1.37-1.5-1.37-2.374v-46.544c-0-0.874 0.613-1.228 1.37-0.791z" fill="#37474f" fill-rule="nonzero"/><path d="m270.22 67.631 1.878 1.086c0.383 0.221 0.693 0.736 0.693 1.151s-0.31 0.572-0.693 0.351l-1.878-1.086c-0.383-0.221-0.693-0.736-0.693-1.151s0.31-0.572 0.693-0.351z" fill="#27debf" fill-rule="nonzero"/><path d="m272.86 73.004 1.878 1.086c0.383 0.221 0.693 0.737 0.693 1.151-0 0.415-0.31 0.572-0.693 0.351l-1.878-1.086c-0.383-0.221-0.693-0.736-0.693-1.151s0.31-0.572 0.693-0.351z" fill="#27debf" fill-rule="nonzero"/><path d="m272.86 76.852 1.878 1.086c0.383 0.221 0.693 0.736 0.693 1.151s-0.31 0.572-0.693 0.351l-1.878-1.086c-0.383-0.221-0.693-0.736-0.693-1.151s0.31-0.572 0.693-0.351z" fill="#27debf" fill-rule="nonzero"/><path d="m270.22 79.201 1.878 1.086c0.383 0.221 0.693 0.737 0.693 1.151 0 0.415-0.31 0.572-0.693 0.351l-1.878-1.086c-0.383-0.221-0.693-0.736-0.693-1.151s0.31-0.572 0.693-0.351z" fill="#27debf" fill-rule="nonzero"/><path d="m275.37 70.601 11.469 6.622c0.383 0.221 0.693 0.736 0.693 1.151s-0.31 0.572-0.693 0.351l-11.469-6.622c-0.383-0.221-0.693-0.736-0.693-1.151s0.31-0.572 0.693-0.351z" fill="#27debf" fill-rule="nonzero"/><path d="m278.01 75.973 8.829 5.107c0.383 0.222 0.693 0.737 0.693 1.152s-0.31 0.572-0.693 0.351l-8.829-5.108c-0.383-0.221-0.693-0.736-0.694-1.151 0-0.415 0.31-0.572 0.694-0.351z" fill="#27debf" fill-rule="nonzero"/><path d="m278.01 79.831 8.829 5.107c0.383 0.222 0.693 0.737 0.693 1.152s-0.31 0.572-0.693 0.351l-8.829-5.108c-0.383-0.221-0.693-0.736-0.694-1.151 0-0.415 0.31-0.572 0.694-0.351z" fill="#27debf" fill-rule="nonzero"/><path d="m275.37 82.175 11.469 6.622c0.383 0.221 0.693 0.736 0.693 1.151s-0.31 0.572-0.693 0.351l-11.469-6.622c-0.383-0.221-0.693-0.737-0.693-1.151-0-0.415 0.31-0.572 0.693-0.351z" fill="#27debf" fill-rule="nonzero"/><path d="m272.86 84.6 1.878 1.086c0.383 0.221 0.693 0.737 0.693 1.152-0 0.414-0.31 0.572-0.693 0.35l-1.878-1.086c-0.383-0.221-0.693-0.736-0.693-1.151s0.31-0.572 0.693-0.351z" fill="#27debf" fill-rule="nonzero"/><path d="m272.86 88.448 1.878 1.086c0.383 0.221 0.693 0.737 0.693 1.151-0 0.415-0.31 0.572-0.693 0.351l-1.878-1.086c-0.383-0.221-0.693-0.736-0.693-1.151s0.31-0.572 0.693-0.351z" fill="#27debf" fill-rule="nonzero"/><path d="m278.01 87.57 8.829 5.107c0.383 0.222 0.693 0.737 0.693 1.152 0 0.414-0.31 0.572-0.693 0.35l-8.829-5.107c-0.383-0.221-0.693-0.736-0.694-1.151 0-0.415 0.31-0.572 0.694-0.351z" fill="#27debf" fill-rule="nonzero"/><path d="m278.01 91.428 8.829 5.107c0.383 0.221 0.693 0.737 0.693 1.152 0 0.414-0.31 0.572-0.693 0.35l-8.829-5.107c-0.383-0.221-0.693-0.736-0.694-1.151 0-0.415 0.31-0.572 0.694-0.351z" fill="#27debf" fill-rule="nonzero"/><path d="m270.22 98.537 1.878 1.086c0.383 0.221 0.693 0.737 0.693 1.151 0 0.415-0.31 0.572-0.693 0.351l-1.878-1.086c-0.383-0.221-0.693-0.736-0.693-1.151s0.31-0.572 0.693-0.351z" fill="#27debf" fill-rule="nonzero"/><path d="m275.37 101.51 11.469 6.622c0.383 0.221 0.693 0.737 0.693 1.151-0 0.415-0.31 0.572-0.693 0.352l-11.469-6.623c-0.383-0.221-0.693-0.736-0.693-1.151s0.31-0.572 0.693-0.351z" fill="#27debf" fill-rule="nonzero"/><path d="m272.86 103.94 1.878 1.086c0.383 0.221 0.693 0.737 0.693 1.151-0 0.415-0.31 0.573-0.693 0.351l-1.878-1.086c-0.383-0.221-0.693-0.736-0.693-1.151s0.31-0.572 0.693-0.351z" fill="#27debf" fill-rule="nonzero"/><path d="m272.86 107.78 1.878 1.086c0.383 0.221 0.693 0.737 0.693 1.151-0 0.415-0.31 0.572-0.693 0.351l-1.878-1.086c-0.383-0.221-0.693-0.736-0.693-1.151s0.31-0.572 0.693-0.351z" fill="#27debf" fill-rule="nonzero"/><path d="m278.01 106.91 8.829 5.107c0.383 0.222 0.693 0.737 0.693 1.152 0 0.414-0.31 0.572-0.693 0.35l-8.829-5.107c-0.383-0.221-0.693-0.736-0.694-1.151 0-0.415 0.31-0.572 0.694-0.351z" fill="#27debf" fill-rule="nonzero"/><path d="m278.01 110.76 8.829 5.107c0.383 0.222 0.693 0.737 0.693 1.152 0 0.414-0.31 0.572-0.693 0.35l-8.829-5.107c-0.383-0.221-0.693-0.736-0.694-1.151 0-0.415 0.31-0.572 0.694-0.351z" fill="#27debf" fill-rule="nonzero"/><path d="m272.86 92.276 1.878 1.086c0.383 0.221 0.693 0.737 0.693 1.151-0 0.415-0.31 0.572-0.693 0.351l-1.878-1.086c-0.383-0.221-0.693-0.736-0.693-1.151s0.31-0.572 0.693-0.351z" fill="#27debf" fill-rule="nonzero"/><path d="m270.22 94.626 1.878 1.086c0.383 0.221 0.693 0.737 0.693 1.152 0 0.414-0.31 0.572-0.693 0.35l-1.878-1.086c-0.383-0.221-0.693-0.736-0.693-1.151s0.31-0.572 0.693-0.351z" fill="#27debf" fill-rule="nonzero"/><path d="m278.01 95.256 8.829 5.107c0.383 0.221 0.693 0.737 0.693 1.152 0 0.414-0.31 0.572-0.693 0.35l-8.829-5.107c-0.383-0.221-0.693-0.736-0.694-1.151 0-0.415 0.31-0.572 0.694-0.351z" fill="#27debf" fill-rule="nonzero"/><path d="m275.37 97.599 11.469 6.622c0.383 0.221 0.693 0.736 0.693 1.151s-0.31 0.572-0.693 0.351l-11.469-6.622c-0.383-0.221-0.693-0.736-0.693-1.151s0.31-0.572 0.693-0.351z" fill="#27debf" fill-rule="nonzero"/><path d="m270.22 110.19 1.878 1.086c0.383 0.221 0.693 0.737 0.693 1.151 0 0.415-0.31 0.572-0.693 0.351l-1.878-1.086c-0.383-0.221-0.693-0.736-0.693-1.151s0.31-0.572 0.693-0.351z" fill="#27debf" fill-rule="nonzero"/><path d="m275.37 113.16 11.469 6.622c0.383 0.221 0.693 0.736 0.693 1.151s-0.31 0.572-0.693 0.351l-11.469-6.622c-0.383-0.221-0.693-0.736-0.693-1.151s0.31-0.572 0.693-0.351z" fill="#27debf" fill-rule="nonzero"/><g opacity=".8"><path d="m278.01 48.68 8.829 5.107c0.383 0.221 0.693 0.737 0.693 1.151 0 0.415-0.31 0.572-0.693 0.351l-8.829-5.107c-0.383-0.221-0.693-0.736-0.694-1.151 0-0.415 0.31-0.572 0.694-0.351z" fill="#fff" fill-rule="nonzero"/></g><g opacity=".8"><path d="m275.37 51.024 11.469 6.622c0.383 0.221 0.693 0.736 0.693 1.151s-0.31 0.572-0.693 0.351l-11.469-6.622c-0.383-0.221-0.693-0.736-0.693-1.151s0.31-0.572 0.693-0.351z" fill="#fff" fill-rule="nonzero"/></g><g opacity=".8"><path d="m278.01 56.398 8.829 5.105c0.383 0.222 0.693 0.737 0.693 1.152s-0.31 0.572-0.693 0.351l-8.829-5.106c-0.383-0.221-0.693-0.736-0.694-1.151 0-0.415 0.31-0.572 0.694-0.351z" fill="#fff" fill-rule="nonzero"/></g><g opacity=".6"><path d="m270.22 67.631 1.878 1.086c0.383 0.221 0.693 0.736 0.693 1.151s-0.31 0.572-0.693 0.351l-1.878-1.086c-0.383-0.221-0.693-0.736-0.693-1.151s0.31-0.572 0.693-0.351z" fill="#fff" fill-rule="nonzero"/></g><g opacity=".6"><path d="m272.86 73.004 1.878 1.086c0.383 0.221 0.693 0.737 0.693 1.151-0 0.415-0.31 0.572-0.693 0.351l-1.878-1.086c-0.383-0.221-0.693-0.736-0.693-1.151s0.31-0.572 0.693-0.351z" fill="#fff" fill-rule="nonzero"/></g><g opacity=".6"><path d="m272.86 76.852 1.878 1.086c0.383 0.221 0.693 0.736 0.693 1.151s-0.31 0.572-0.693 0.351l-1.878-1.086c-0.383-0.221-0.693-0.736-0.693-1.151s0.31-0.572 0.693-0.351z" fill="#fff" fill-rule="nonzero"/></g><g opacity=".6"><path d="m270.22 79.201 1.878 1.086c0.383 0.221 0.693 0.737 0.693 1.151 0 0.415-0.31 0.572-0.693 0.351l-1.878-1.086c-0.383-0.221-0.693-0.736-0.693-1.151s0.31-0.572 0.693-0.351z" fill="#fff" fill-rule="nonzero"/></g><g opacity=".8"><path d="m275.37 70.601 11.469 6.622c0.383 0.221 0.693 0.736 0.693 1.151s-0.31 0.572-0.693 0.351l-11.469-6.622c-0.383-0.221-0.693-0.736-0.693-1.151s0.31-0.572 0.693-0.351z" fill="#fff" fill-rule="nonzero"/></g><g opacity=".8"><path d="m278.01 75.973 8.829 5.107c0.383 0.222 0.693 0.737 0.693 1.152s-0.31 0.572-0.693 0.351l-8.829-5.108c-0.383-0.221-0.693-0.736-0.694-1.151 0-0.415 0.31-0.572 0.694-0.351z" fill="#fff" fill-rule="nonzero"/></g><g opacity=".8"><path d="m278.01 79.831 8.829 5.107c0.383 0.222 0.693 0.737 0.693 1.152s-0.31 0.572-0.693 0.351l-8.829-5.108c-0.383-0.221-0.693-0.736-0.694-1.151 0-0.415 0.31-0.572 0.694-0.351z" fill="#fff" fill-rule="nonzero"/></g><g opacity=".8"><path d="m275.37 82.175 11.469 6.622c0.383 0.221 0.693 0.736 0.693 1.151s-0.31 0.572-0.693 0.351l-11.469-6.622c-0.383-0.221-0.693-0.737-0.693-1.151-0-0.415 0.31-0.572 0.693-0.351z" fill="#fff" fill-rule="nonzero"/></g><g opacity=".6"><path d="m272.86 84.6 1.878 1.086c0.383 0.221 0.693 0.737 0.693 1.152-0 0.414-0.31 0.572-0.693 0.35l-1.878-1.086c-0.383-0.221-0.693-0.736-0.693-1.151s0.31-0.572 0.693-0.351z" fill="#fff" fill-rule="nonzero"/></g><g opacity=".6"><path d="m272.86 88.448 1.878 1.086c0.383 0.221 0.693 0.737 0.693 1.151-0 0.415-0.31 0.572-0.693 0.351l-1.878-1.086c-0.383-0.221-0.693-0.736-0.693-1.151s0.31-0.572 0.693-0.351z" fill="#fff" fill-rule="nonzero"/></g><g opacity=".8"><path d="m278.01 87.57 8.829 5.107c0.383 0.222 0.693 0.737 0.693 1.152 0 0.414-0.31 0.572-0.693 0.35l-8.829-5.107c-0.383-0.221-0.693-0.736-0.694-1.151 0-0.415 0.31-0.572 0.694-0.351z" fill="#fff" fill-rule="nonzero"/></g><g opacity=".8"><path d="m278.01 91.428 8.829 5.107c0.383 0.221 0.693 0.737 0.693 1.152 0 0.414-0.31 0.572-0.693 0.35l-8.829-5.107c-0.383-0.221-0.693-0.736-0.694-1.151 0-0.415 0.31-0.572 0.694-0.351z" fill="#fff" fill-rule="nonzero"/></g><g opacity=".6"><path d="m270.22 98.537 1.878 1.086c0.383 0.221 0.693 0.737 0.693 1.151 0 0.415-0.31 0.572-0.693 0.351l-1.878-1.086c-0.383-0.221-0.693-0.736-0.693-1.151s0.31-0.572 0.693-0.351z" fill="#fff" fill-rule="nonzero"/></g><g opacity=".8"><path d="m275.37 101.51 11.469 6.622c0.383 0.221 0.693 0.737 0.693 1.151-0 0.415-0.31 0.572-0.693 0.352l-11.469-6.623c-0.383-0.221-0.693-0.736-0.693-1.151s0.31-0.572 0.693-0.351z" fill="#fff" fill-rule="nonzero"/></g><g opacity=".6"><path d="m272.86 103.94 1.878 1.086c0.383 0.221 0.693 0.737 0.693 1.151-0 0.415-0.31 0.573-0.693 0.351l-1.878-1.086c-0.383-0.221-0.693-0.736-0.693-1.151s0.31-0.572 0.693-0.351z" fill="#fff" fill-rule="nonzero"/></g><g opacity=".6"><path d="m272.86 107.78 1.878 1.086c0.383 0.221 0.693 0.737 0.693 1.151-0 0.415-0.31 0.572-0.693 0.351l-1.878-1.086c-0.383-0.221-0.693-0.736-0.693-1.151s0.31-0.572 0.693-0.351z" fill="#fff" fill-rule="nonzero"/></g><g opacity=".8"><path d="m278.01 106.91 8.829 5.107c0.383 0.222 0.693 0.737 0.693 1.152 0 0.414-0.31 0.572-0.693 0.35l-8.829-5.107c-0.383-0.221-0.693-0.736-0.694-1.151 0-0.415 0.31-0.572 0.694-0.351z" fill="#fff" fill-rule="nonzero"/></g><g opacity=".8"><path d="m278.01 110.76 8.829 5.107c0.383 0.222 0.693 0.737 0.693 1.152 0 0.414-0.31 0.572-0.693 0.35l-8.829-5.107c-0.383-0.221-0.693-0.736-0.694-1.151 0-0.415 0.31-0.572 0.694-0.351z" fill="#fff" fill-rule="nonzero"/></g><g opacity=".6"><path d="m272.86 92.276 1.878 1.086c0.383 0.221 0.693 0.737 0.693 1.151-0 0.415-0.31 0.572-0.693 0.351l-1.878-1.086c-0.383-0.221-0.693-0.736-0.693-1.151s0.31-0.572 0.693-0.351z" fill="#fff" fill-rule="nonzero"/></g><g opacity=".6"><path d="m270.22 94.626 1.878 1.086c0.383 0.221 0.693 0.737 0.693 1.152 0 0.414-0.31 0.572-0.693 0.35l-1.878-1.086c-0.383-0.221-0.693-0.736-0.693-1.151s0.31-0.572 0.693-0.351z" fill="#fff" fill-rule="nonzero"/></g><g opacity=".8"><path d="m278.01 95.256 8.829 5.107c0.383 0.221 0.693 0.737 0.693 1.152 0 0.414-0.31 0.572-0.693 0.35l-8.829-5.107c-0.383-0.221-0.693-0.736-0.694-1.151 0-0.415 0.31-0.572 0.694-0.351z" fill="#fff" fill-rule="nonzero"/></g><g opacity=".8"><path d="m275.37 97.599 11.469 6.622c0.383 0.221 0.693 0.736 0.693 1.151s-0.31 0.572-0.693 0.351l-11.469-6.622c-0.383-0.221-0.693-0.736-0.693-1.151s0.31-0.572 0.693-0.351z" fill="#fff" fill-rule="nonzero"/></g><g opacity=".6"><path d="m270.22 110.19 1.878 1.086c0.383 0.221 0.693 0.737 0.693 1.151 0 0.415-0.31 0.572-0.693 0.351l-1.878-1.086c-0.383-0.221-0.693-0.736-0.693-1.151s0.31-0.572 0.693-0.351z" fill="#fff" fill-rule="nonzero"/></g><g opacity=".6"><path d="m303.36 64.166 13.718 7.882c0.383 0.221 0.693 0.737 0.693 1.151-0 0.415-0.31 0.572-0.693 0.351l-13.718-7.882c-0.383-0.221-0.693-0.736-0.693-1.151s0.31-0.572 0.693-0.351z" fill="#fff" fill-rule="nonzero"/></g><g opacity=".6"><path d="m303.36 70.163 6.418 3.701c0.383 0.221 0.693 0.736 0.693 1.151s-0.31 0.572-0.693 0.351l-6.418-3.701c-0.383-0.221-0.693-0.737-0.693-1.151-0-0.415 0.31-0.572 0.693-0.351z" fill="#fff" fill-rule="nonzero"/></g><g opacity=".6"><path d="m303.36 82.179 6.418 3.701c0.383 0.221 0.693 0.737 0.693 1.152s-0.31 0.571-0.693 0.351l-6.418-3.702c-0.383-0.221-0.693-0.736-0.693-1.151s0.31-0.572 0.693-0.351z" fill="#fff" fill-rule="nonzero"/></g><g opacity=".6"><path d="m303.36 88.187 6.418 3.701c0.383 0.221 0.693 0.736 0.693 1.152-0 0.414-0.31 0.571-0.693 0.35l-6.418-3.701c-0.383-0.221-0.693-0.736-0.693-1.151s0.31-0.572 0.693-0.351z" fill="#fff" fill-rule="nonzero"/></g><g opacity=".6"><path d="m319.77 73.599 8.227 4.765c0.382 0.221 0.693 0.737 0.693 1.152s-0.311 0.571-0.693 0.351l-8.227-4.766c-0.383-0.221-0.693-0.736-0.693-1.151s0.309-0.572 0.693-0.351z" fill="#fff" fill-rule="nonzero"/></g><g opacity=".6"><path d="m313.77 76.172 13.718 7.882c0.383 0.221 0.693 0.737 0.693 1.151 0 0.415-0.31 0.572-0.693 0.351l-13.718-7.882c-0.383-0.221-0.693-0.737-0.693-1.151 0-0.415 0.31-0.572 0.693-0.351z" fill="#fff" fill-rule="nonzero"/></g><g opacity=".6"><path d="m330.17 85.605 57.225 33.105c0.383 0.221 0.693 0.737 0.693 1.151 0 0.415-0.31 0.573-0.693 0.351l-57.225-33.105c-0.383-0.221-0.693-0.736-0.693-1.151s0.31-0.572 0.693-0.351z" fill="#fff" fill-rule="nonzero"/></g><g opacity=".6"><path d="m303.36 106.34 6.418 3.701c0.383 0.221 0.693 0.736 0.693 1.152-0 0.414-0.31 0.571-0.693 0.35l-6.418-3.701c-0.383-0.221-0.693-0.736-0.693-1.151s0.31-0.572 0.693-0.351z" fill="#fff" fill-rule="nonzero"/></g><g opacity=".6"><path d="m303.36 112.34 6.418 3.701c0.383 0.221 0.693 0.737 0.693 1.152s-0.31 0.571-0.693 0.351l-6.418-3.702c-0.383-0.221-0.693-0.736-0.693-1.151s0.31-0.572 0.693-0.351z" fill="#fff" fill-rule="nonzero"/></g><g opacity=".6"><path d="m303.36 118.35 6.418 3.701c0.383 0.221 0.693 0.736 0.693 1.152-0 0.414-0.31 0.571-0.693 0.35l-6.418-3.701c-0.383-0.221-0.693-0.736-0.693-1.151s0.31-0.572 0.693-0.351z" fill="#fff" fill-rule="nonzero"/></g><g fill="#fff" fill-rule="nonzero" opacity=".6"><path d="m293.36 52.12 3.772 2.178c0.378 0.218 0.685 0.75 0.685 1.187v1.386c0 0.438-0.307 0.615-0.685 0.396l-3.772-2.177c-0.378-0.219-0.685-0.75-0.685-1.187l-1e-3 -1.387c0-0.437 0.307-0.614 0.686-0.396z"/><path d="m293.36 58.185 3.772 2.178c0.378 0.218 0.685 0.75 0.685 1.187v1.386c0 0.437-0.307 0.615-0.685 0.396l-3.772-2.178c-0.378-0.218-0.685-0.749-0.685-1.186l-1e-3 -1.387c0-0.438 0.307-0.614 0.686-0.396z"/><path d="m293.36 64.25 3.772 2.178c0.378 0.218 0.685 0.75 0.685 1.187v1.386c0 0.437-0.307 0.614-0.685 0.396l-3.772-2.178c-0.378-0.218-0.685-0.75-0.685-1.187l-1e-3 -1.386c0-0.438 0.307-0.615 0.686-0.396z"/><path d="m293.36 70.314 3.772 2.178c0.378 0.218 0.685 0.75 0.685 1.187v1.386c0 0.437-0.307 0.615-0.685 0.396l-3.772-2.177c-0.378-0.219-0.685-0.75-0.685-1.187l-1e-3 -1.387c0-0.437 0.307-0.614 0.686-0.396z"/><path d="m293.36 76.379 3.772 2.178c0.378 0.218 0.685 0.75 0.685 1.187v1.386c0 0.437-0.307 0.615-0.685 0.396l-3.772-2.178c-0.378-0.218-0.685-0.75-0.685-1.187l-1e-3 -1.386c0-0.438 0.307-0.615 0.686-0.396z"/><path d="m293.36 82.444 3.772 2.178c0.378 0.218 0.685 0.75 0.685 1.187v1.386c0 0.437-0.307 0.615-0.685 0.396l-3.772-2.177c-0.378-0.219-0.685-0.75-0.685-1.187l-1e-3 -1.387c0-0.437 0.307-0.614 0.686-0.396z"/><path d="m293.36 88.508 3.772 2.178c0.378 0.218 0.685 0.75 0.685 1.187v1.386c0 0.437-0.307 0.615-0.685 0.396l-3.772-2.177c-0.378-0.219-0.685-0.75-0.685-1.187l-1e-3 -1.387c0-0.437 0.307-0.614 0.686-0.396z"/><path d="m293.36 94.573 3.772 2.178c0.378 0.218 0.685 0.75 0.685 1.187v1.386c0 0.437-0.307 0.614-0.685 0.396l-3.772-2.178c-0.378-0.218-0.685-0.75-0.685-1.187l-1e-3 -1.386c0-0.438 0.307-0.615 0.686-0.396z"/><path d="m293.36 100.64 3.772 2.178c0.378 0.218 0.685 0.75 0.685 1.187v1.386c0 0.437-0.307 0.615-0.685 0.396l-3.772-2.177c-0.378-0.219-0.685-0.75-0.685-1.187l-1e-3 -1.387c0-0.437 0.307-0.614 0.686-0.396z"/><path d="m293.36 106.7 3.772 2.178c0.378 0.218 0.685 0.75 0.685 1.187v1.386c0 0.437-0.307 0.615-0.685 0.396l-3.772-2.178c-0.378-0.218-0.685-0.749-0.685-1.186l-1e-3 -1.387c0-0.438 0.307-0.614 0.686-0.396z"/><path d="m293.36 112.77 3.772 2.178c0.378 0.218 0.685 0.75 0.685 1.187v1.386c0 0.437-0.307 0.614-0.685 0.396l-3.772-2.178c-0.378-0.218-0.685-0.75-0.685-1.187l-1e-3 -1.386c0-0.438 0.307-0.615 0.686-0.396z"/><path d="m293.36 118.83 3.772 2.178c0.378 0.218 0.685 0.75 0.685 1.187v1.386c0 0.437-0.307 0.615-0.685 0.396l-3.772-2.177c-0.378-0.219-0.685-0.75-0.685-1.187l-1e-3 -1.387c0-0.437 0.307-0.614 0.686-0.396z"/></g><g opacity=".6"><path d="m270.22 55.769 1.878 1.086c0.383 0.221 0.693 0.736 0.693 1.151s-0.31 0.572-0.693 0.351l-1.878-1.086c-0.383-0.221-0.693-0.736-0.693-1.151s0.31-0.572 0.693-0.351z" fill="#fff" fill-rule="nonzero"/></g><g opacity=".6"><path d="m270.22 36.479 1.878 1.086c0.383 0.221 0.693 0.736 0.693 1.151s-0.31 0.572-0.693 0.351l-1.878-1.086c-0.383-0.221-0.693-0.736-0.693-1.151s0.31-0.572 0.693-0.351z" fill="#fff" fill-rule="nonzero"/></g><g opacity=".6"><path d="m272.86 41.852 1.878 1.086c0.383 0.221 0.693 0.737 0.693 1.151-0 0.415-0.31 0.572-0.693 0.351l-1.878-1.086c-0.383-0.221-0.693-0.736-0.693-1.151s0.31-0.572 0.693-0.351z" fill="#fff" fill-rule="nonzero"/></g><g opacity=".6"><path d="m272.86 45.7 1.878 1.086c0.383 0.221 0.693 0.736 0.693 1.151s-0.31 0.572-0.693 0.351l-1.878-1.086c-0.383-0.221-0.693-0.736-0.693-1.151s0.31-0.572 0.693-0.351z" fill="#fff" fill-rule="nonzero"/></g><g opacity=".6"><path d="m270.22 48.05 1.878 1.086c0.383 0.221 0.693 0.737 0.693 1.151 0 0.415-0.31 0.572-0.693 0.351l-1.878-1.086c-0.383-0.221-0.693-0.736-0.693-1.151s0.31-0.572 0.693-0.351z" fill="#fff" fill-rule="nonzero"/></g><g opacity=".6"><path d="m272.86 53.427 1.878 1.086c0.383 0.221 0.693 0.736 0.693 1.151s-0.31 0.572-0.693 0.351l-1.878-1.086c-0.383-0.221-0.693-0.736-0.693-1.151s0.31-0.572 0.693-0.351z" fill="#fff" fill-rule="nonzero"/></g><g opacity=".8"><path d="m275.37 39.45 11.469 6.622c0.383 0.221 0.693 0.736 0.693 1.151s-0.31 0.572-0.693 0.351l-11.469-6.622c-0.383-0.221-0.693-0.736-0.693-1.151s0.31-0.572 0.693-0.351z" fill="#fff" fill-rule="nonzero"/></g><g opacity=".8"><path d="m275.37 58.739 11.469 6.622c0.383 0.221 0.693 0.736 0.693 1.151s-0.31 0.572-0.693 0.351l-11.469-6.622c-0.383-0.221-0.693-0.736-0.693-1.151s0.31-0.572 0.693-0.351z" fill="#fff" fill-rule="nonzero"/></g><g opacity=".8"><path d="m278.01 44.822 8.829 5.107c0.383 0.221 0.693 0.737 0.693 1.151 0 0.415-0.31 0.572-0.693 0.351l-8.829-5.107c-0.383-0.221-0.693-0.736-0.694-1.151 0-0.415 0.31-0.572 0.694-0.351z" fill="#fff" fill-rule="nonzero"/></g><g opacity=".8"><path d="m275.37 113.16 11.469 6.622c0.383 0.221 0.693 0.736 0.693 1.151s-0.31 0.572-0.693 0.351l-11.469-6.622c-0.383-0.221-0.693-0.736-0.693-1.151s0.31-0.572 0.693-0.351z" fill="#fff" fill-rule="nonzero"/></g><path d="m417.25 225.98c0.425-0.249-45.665-105.64-45.944-105.5 0.586-0.315 2.412-1.97 3.591-1.282l43.88 25.29c0.871 0.495 1.587 1.749 1.587 2.744l1e-3 5.156-3e-3 2e-3v70.835c0 1.42-1.398 1.771-2.419 2.362l-0.693 0.396z" fill="#33478d"/><path d="m370.78 121.53v76.378c-0 1.015 0.713 2.244 1.588 2.748l43.879 25.317c0.181 0.104 0.364 0.156 0.525 0.151 0.068 0 0.136-0.01 0.203-0.026 0.047-0.01 0.094-0.026 0.136-0.047 0.031-0.015 0.057-0.031 0.083-0.046 0.031-0.021 0.063-0.042 0.094-0.063 0.031-0.026 0.062-0.047 0.088-0.078 0.125-0.115 0.218-0.255 0.292-0.417 0.104-0.234 0.167-0.51 0.167-0.801v-75.993c-0-1.01-0.714-2.244-1.588-2.749l-43.879-25.29c-0.411-0.234-0.781-0.271-1.067-0.136-0.047 0.021-0.097 0.044-0.136 0.078-0.214 0.188-0.396 0.502-0.385 0.974z" fill="#455a64" fill-rule="nonzero"/><path d="m370.79 121.52c6e-3 -1.001 0.713-1.407 1.584-0.903l43.88 25.29c0.875 0.506 1.585 1.735 1.585 2.746l-1e-3 5.188-47.048-27.115v-5.206z" fill="#3e5dae" fill-rule="nonzero"/><path d="m415.53 148.04s0.896 1.135 0.896 1.897-0.401 1.148-0.896 0.862c-0.494-0.285-0.896-1.135-0.896-1.897s0.402-1.148 0.896-0.862z" fill="#8a8a8a" fill-rule="nonzero"/><path d="m412.3 146.17s0.896 1.135 0.896 1.897-0.402 1.148-0.896 0.862c-0.495-0.285-0.896-1.134-0.896-1.897 0-0.761 0.401-1.148 0.896-0.862z" fill="#8a8a8a" fill-rule="nonzero"/><path d="m409.08 144.31s0.896 1.135 0.896 1.897-0.401 1.148-0.896 0.862c-0.495-0.285-0.896-1.134-0.896-1.897-0-0.761 0.401-1.148 0.896-0.862z" fill="#8a8a8a" fill-rule="nonzero"/><path d="m374.43 135.49c0-0.095 0.027-0.163 0.081-0.203l1.14-1.043c0.019-0.013 0.036-0.016 0.052-0.01 0.015 6e-3 0.025 0.01 0.029 0.012 0.034 0.02 0.064 0.057 0.09 0.11 0.024 0.053 0.037 0.106 0.037 0.159v0.793c0 0.101-7e-3 0.174-0.024 0.218-0.014 0.045-0.042 0.086-0.08 0.123l-0.601 0.552 0.601 1.247c0.038 0.082 0.066 0.154 0.08 0.216 0.017 0.063 0.024 0.144 0.024 0.245v0.793c0 0.054-0.013 0.092-0.037 0.117-0.026 0.024-0.056 0.025-0.09 6e-3 -4e-3 -2e-3 -0.014-0.01-0.029-0.021-0.016-0.013-0.033-0.036-0.052-0.07l-1.14-2.361c-0.054-0.102-0.081-0.2-0.081-0.295v-0.588z" fill="#27debf" fill-rule="nonzero"/><path d="m378.6 134.39c0.019-0.054 0.047-0.099 0.086-0.133s0.095-0.03 0.168 0.013l0.428 0.247c0.035 0.02 0.064 0.057 0.089 0.11 0.026 0.053 0.038 0.106 0.038 0.159-0 0.024-3e-3 0.049-0.011 0.074l-1.955 6.077c-0.016 0.051-0.043 0.095-0.082 0.132-0.038 0.036-0.096 0.033-0.173-0.012l-0.411-0.237c-0.034-0.02-0.065-0.056-0.089-0.109-0.026-0.054-0.038-0.107-0.038-0.16-0-0.024 4e-3 -0.049 0.012-0.074l1.938-6.087z" fill="#27debf" fill-rule="nonzero"/><path d="m381.62 140.23c0 0.095-0.027 0.162-0.081 0.202l-1.14 1.044c-0.019 0.012-0.037 0.016-0.052 9e-3 -0.016-5e-3 -0.025-9e-3 -0.029-0.011-0.035-0.02-0.064-0.057-0.09-0.11-0.025-0.053-0.037-0.107-0.037-0.16v-0.792c0-0.101 8e-3 -0.174 0.023-0.219s0.043-0.085 0.081-0.123l0.601-0.551-0.601-1.248c-0.038-0.082-0.066-0.154-0.081-0.216s-0.023-0.144-0.023-0.244v-0.793c0-0.054 0.012-0.093 0.037-0.117 0.026-0.024 0.055-0.026 0.09-6e-3 4e-3 2e-3 0.013 9e-3 0.029 0.021 0.015 0.012 0.033 0.035 0.052 0.07l1.14 2.36c0.054 0.102 0.081 0.201 0.081 0.296v0.588z" fill="#27debf" fill-rule="nonzero"/><path d="m384.8 143.34c0.042 0.024 0.079 0.069 0.11 0.135 0.031 0.065 0.047 0.131 0.047 0.196v0.873c0 0.066-0.016 0.112-0.047 0.143-0.031 0.028-0.068 0.031-0.11 7e-3l-0.538-0.311c-0.042-0.024-0.079-0.069-0.109-0.134-0.032-0.066-0.047-0.131-0.047-0.196v-0.873c0-0.065 0.015-0.113 0.047-0.143 0.03-0.03 0.067-0.032 0.109-8e-3l0.538 0.311z" fill="#27debf" fill-rule="nonzero"/><path d="m386.6 144.38c0.042 0.024 0.079 0.069 0.11 0.135 0.031 0.065 0.046 0.131 0.046 0.196v0.873c0 0.065-0.015 0.112-0.046 0.142-0.031 0.029-0.068 0.032-0.11 8e-3l-0.538-0.311c-0.043-0.024-0.079-0.069-0.11-0.134-0.031-0.066-0.046-0.131-0.046-0.197v-0.872c0-0.066 0.015-0.113 0.046-0.143s0.067-0.032 0.11-8e-3l0.538 0.311z" fill="#27debf" fill-rule="nonzero"/><path d="m388.39 145.42c0.042 0.024 0.079 0.069 0.11 0.135 0.031 0.065 0.046 0.131 0.046 0.196v0.873c-0 0.066-0.015 0.112-0.046 0.143-0.031 0.028-0.068 0.031-0.11 7e-3l-0.538-0.311c-0.043-0.024-0.079-0.069-0.109-0.134-0.032-0.066-0.047-0.131-0.047-0.196v-0.873c-0-0.065 0.015-0.113 0.047-0.143 0.03-0.03 0.066-0.032 0.109-8e-3l0.538 0.311z" fill="#27debf" fill-rule="nonzero"/><path d="m374.91 142.41 26.364 15.221c0.311 0.18 0.564 0.599 0.564 0.936-0 0.338-0.253 0.465-0.564 0.285l-26.364-15.221c-0.312-0.179-0.563-0.599-0.563-0.936s0.251-0.465 0.563-0.285z" fill="#27debf" fill-rule="nonzero"/><path d="m383.37 161.94 26.364 15.221c0.312 0.18 0.564 0.599 0.564 0.936s-0.252 0.465-0.564 0.285l-26.364-15.221c-0.311-0.18-0.563-0.599-0.563-0.936s0.252-0.465 0.563-0.285z" fill="#e6e6e6" fill-rule="nonzero"/><path d="m383.37 171.71 12.619 7.291c0.312 0.18 0.564 0.599 0.564 0.936s-0.252 0.464-0.564 0.285l-12.619-7.291c-0.311-0.179-0.563-0.598-0.563-0.935-0-0.338 0.252-0.466 0.563-0.286z" fill="#e6e6e6" fill-rule="nonzero"/><path d="m403.46 158.89 10.504 6.042c0.311 0.179 0.563 0.598 0.563 0.936 0 0.336-0.252 0.464-0.563 0.285l-10.504-6.042c-0.311-0.18-0.563-0.599-0.563-0.936s0.252-0.465 0.563-0.285z" fill="#27debf" fill-rule="nonzero"/><path d="m374.91 196.12 26.364 15.221c0.311 0.18 0.564 0.599 0.564 0.936s-0.253 0.465-0.564 0.285l-26.364-15.221c-0.312-0.179-0.563-0.599-0.563-0.936s0.251-0.465 0.563-0.285z" fill="#27debf" fill-rule="nonzero"/><path d="m403.46 212.61 10.504 6.042c0.311 0.18 0.563 0.599 0.563 0.936s-0.252 0.465-0.563 0.285l-10.504-6.042c-0.311-0.179-0.563-0.598-0.563-0.936 0-0.337 0.252-0.465 0.563-0.285z" fill="#27debf" fill-rule="nonzero"/><path d="m403.46 197.98 10.504 6.042c0.311 0.18 0.563 0.599 0.563 0.936s-0.252 0.465-0.563 0.285l-10.504-6.042c-0.311-0.179-0.563-0.598-0.563-0.936 0-0.337 0.252-0.465 0.563-0.285z" fill="#27debf" fill-rule="nonzero"/><path d="m403.46 202.86 10.504 6.042c0.311 0.18 0.563 0.599 0.563 0.936s-0.252 0.465-0.563 0.285l-10.504-6.042c-0.311-0.179-0.563-0.598-0.563-0.936 0-0.337 0.252-0.465 0.563-0.285z" fill="#27debf" fill-rule="nonzero"/><path d="m394.5 192.8 5.901 3.407c0.312 0.18 0.564 0.599 0.564 0.936s-0.252 0.465-0.564 0.285l-5.901-3.407c-0.312-0.179-0.563-0.599-0.563-0.936s0.251-0.465 0.563-0.285z" fill="#27debf" fill-rule="nonzero"/><path d="m374.91 147.3 15.377 8.872c0.311 0.179 0.563 0.598 0.563 0.936-0 0.337-0.252 0.464-0.563 0.285l-15.377-8.872c-0.312-0.18-0.563-0.599-0.563-0.936s0.251-0.465 0.563-0.285z" fill="#27debf" fill-rule="nonzero"/><path d="m374.91 147.3 15.377 8.872c0.311 0.179 0.563 0.598 0.563 0.936-0 0.337-0.252 0.464-0.563 0.285l-15.377-8.872c-0.312-0.18-0.563-0.599-0.563-0.936s0.251-0.465 0.563-0.285z" fill="#fff" fill-rule="nonzero"/><path d="m374.91 152.18 5.217 3.008c0.31 0.18 0.563 0.599 0.563 0.936s-0.253 0.465-0.563 0.285l-5.217-3.008c-0.312-0.18-0.563-0.599-0.563-0.936s0.251-0.465 0.563-0.285z" fill="#27debf" fill-rule="nonzero"/><path d="m374.91 152.18 5.217 3.008c0.31 0.18 0.563 0.599 0.563 0.936s-0.253 0.465-0.563 0.285l-5.217-3.008c-0.312-0.18-0.563-0.599-0.563-0.936s0.251-0.465 0.563-0.285z" fill="#fff" fill-rule="nonzero"/><path d="m374.91 157.06 5.217 3.008c0.31 0.18 0.563 0.599 0.563 0.936s-0.253 0.465-0.563 0.285l-5.217-3.008c-0.312-0.179-0.563-0.599-0.563-0.936s0.251-0.465 0.563-0.285z" fill="#27debf" fill-rule="nonzero"/><path d="m374.91 157.06 5.217 3.008c0.31 0.18 0.563 0.599 0.563 0.936s-0.253 0.465-0.563 0.285l-5.217-3.008c-0.312-0.179-0.563-0.599-0.563-0.936s0.251-0.465 0.563-0.285z" fill="#fff" fill-rule="nonzero"/><path d="m374.91 161.94 5.217 3.008c0.31 0.18 0.563 0.599 0.563 0.936s-0.253 0.465-0.563 0.285l-5.217-3.008c-0.312-0.179-0.563-0.598-0.563-0.936-0-0.337 0.251-0.465 0.563-0.285z" fill="#27debf" fill-rule="nonzero"/><path d="m374.91 161.94 5.217 3.008c0.31 0.18 0.563 0.599 0.563 0.936s-0.253 0.465-0.563 0.285l-5.217-3.008c-0.312-0.179-0.563-0.598-0.563-0.936-0-0.337 0.251-0.465 0.563-0.285z" fill="#fff" fill-rule="nonzero"/><path d="m383.37 166.83 15.378 8.872c0.311 0.179 0.563 0.598 0.563 0.936-0 0.337-0.252 0.464-0.563 0.285l-15.378-8.872c-0.311-0.18-0.563-0.599-0.563-0.936s0.252-0.465 0.563-0.285z" fill="#27debf" fill-rule="nonzero"/><path d="m400.93 176.96 6.687 3.874c0.311 0.179 0.563 0.598 0.563 0.935s-0.252 0.465-0.563 0.285l-6.687-3.873c-0.312-0.179-0.563-0.598-0.563-0.935 0-0.338 0.251-0.466 0.563-0.286z" fill="#27debf" fill-rule="nonzero"/><path d="m383.37 166.83 15.378 8.872c0.311 0.179 0.563 0.598 0.563 0.936-0 0.337-0.252 0.464-0.563 0.285l-15.378-8.872c-0.311-0.18-0.563-0.599-0.563-0.936s0.252-0.465 0.563-0.285z" fill="#fff" fill-rule="nonzero"/><path d="m400.93 176.96 6.687 3.874c0.311 0.179 0.563 0.598 0.563 0.935s-0.252 0.465-0.563 0.285l-6.687-3.873c-0.312-0.179-0.563-0.598-0.563-0.935 0-0.338 0.251-0.466 0.563-0.286z" fill="#fff" fill-rule="nonzero"/><path d="m374.91 166.83 5.217 3.009c0.31 0.179 0.563 0.598 0.563 0.935-0 0.338-0.253 0.465-0.563 0.285l-5.217-3.008c-0.312-0.179-0.563-0.598-0.563-0.936-0-0.337 0.251-0.465 0.563-0.285z" fill="#27debf" fill-rule="nonzero"/><path d="m374.91 166.83 5.217 3.009c0.31 0.179 0.563 0.598 0.563 0.935-0 0.338-0.253 0.465-0.563 0.285l-5.217-3.008c-0.312-0.179-0.563-0.598-0.563-0.936-0-0.337 0.251-0.465 0.563-0.285z" fill="#fff" fill-rule="nonzero"/><path d="m392.47 157.44 6.687 3.874c0.311 0.179 0.564 0.598 0.564 0.935s-0.253 0.465-0.564 0.285l-6.687-3.873c-0.311-0.179-0.563-0.598-0.563-0.936 0-0.337 0.251-0.465 0.563-0.285z" fill="#27debf" fill-rule="nonzero"/><path d="m392.47 157.44 6.687 3.874c0.311 0.179 0.564 0.598 0.564 0.935s-0.253 0.465-0.564 0.285l-6.687-3.873c-0.311-0.179-0.563-0.598-0.563-0.936 0-0.337 0.251-0.465 0.563-0.285z" fill="#fff" fill-rule="nonzero"/><path d="m389.71 180.25 15.378 8.872c0.311 0.179 0.563 0.598 0.563 0.936 0 0.337-0.252 0.464-0.563 0.284l-15.378-8.871c-0.312-0.18-0.563-0.599-0.563-0.936s0.251-0.465 0.563-0.285z" fill="#fff" fill-rule="nonzero"/><path d="m398.58 190.28 15.377 8.872c0.311 0.18 0.564 0.599 0.564 0.936s-0.253 0.464-0.564 0.285l-15.377-8.872c-0.312-0.179-0.563-0.598-0.563-0.936 0-0.337 0.251-0.465 0.563-0.285z" fill="#fff" fill-rule="nonzero"/><path d="m407.27 190.38 6.687 3.873c0.311 0.18 0.563 0.599 0.563 0.936s-0.252 0.465-0.563 0.285l-6.687-3.873c-0.312-0.179-0.563-0.598-0.563-0.936-1e-3 -0.337 0.251-0.465 0.563-0.285z" fill="#fff" fill-rule="nonzero"/><path d="m407.27 209.72 6.687 3.874c0.311 0.179 0.563 0.598 0.563 0.935s-0.252 0.465-0.563 0.285l-6.687-3.873c-0.312-0.179-0.563-0.598-0.563-0.936-1e-3 -0.337 0.251-0.465 0.563-0.285z" fill="#e6e6e6" fill-rule="nonzero"/><path d="m383.37 157.06 15.378 8.872c0.311 0.18 0.563 0.599 0.563 0.936s-0.252 0.464-0.563 0.285l-15.378-8.872c-0.311-0.179-0.563-0.598-0.563-0.936-0-0.337 0.252-0.465 0.563-0.285z" fill="#27debf" fill-rule="nonzero"/><path d="m383.37 157.06 15.378 8.872c0.311 0.18 0.563 0.599 0.563 0.936s-0.252 0.464-0.563 0.285l-15.378-8.872c-0.311-0.179-0.563-0.598-0.563-0.936-0-0.337 0.252-0.465 0.563-0.285z" fill="#fff" fill-rule="nonzero"/><path d="m400.93 167.19 6.687 3.873c0.311 0.18 0.563 0.599 0.563 0.936s-0.252 0.465-0.563 0.285l-6.687-3.873c-0.312-0.179-0.563-0.598-0.563-0.936 0-0.337 0.251-0.465 0.563-0.285z" fill="#27debf" fill-rule="nonzero"/><path d="m400.93 167.19 6.687 3.873c0.311 0.18 0.563 0.599 0.563 0.936s-0.252 0.465-0.563 0.285l-6.687-3.873c-0.312-0.179-0.563-0.598-0.563-0.936 0-0.337 0.251-0.465 0.563-0.285z" fill="#fff" fill-rule="nonzero"/><g fill-rule="nonzero"><path d="m291.02 232.54 9.425 5.441c2.971 1.715 7.627 1.47 10.4-0.548l15.545-11.351c2.774-2.018 2.616-5.048-0.351-6.768l-4.726-2.738c-2.968-1.72-7.859-1.868-10.926-0.331l-19.193 10.406c-3.067 1.537-3.145 4.174-0.174 5.889z" fill="#9d9d9d"/><path d="m326.64 221.15-10.757 8.409-7.936 6.211c-0.771 0.36-1.653 0.558-2.535 0.608-1.341 0.075-2.708-0.186-3.763-0.795l-8.434-4.869s-0.013 0-0.013-0.012c-0.015-0.01-0.032-0.019-0.047-0.028-2.96-1.722-3.658-5.721-1.704-8.533 0.081-0.117 0.164-0.232 0.249-0.345 1.602-2.161 3.987-3.727 6.782-4.298l4.272-0.857c6.919-1.404 12.595-2.087 13.253-1.639l10.571 6.123c0.025 0 0.049 0.013 0.062 0.025z" fill="#37474f"/><path d="m320.63 225.86 0.604-0.473-9.485-5.477 8.3-2.569c-0.287-0.165-0.567-0.327-0.84-0.484l-8.3 2.568-5.656-3.265c-0.352 0.065-0.711 0.133-1.072 0.203l16.449 9.497z" fill="#27debf"/><path d="m308.88 235.26c0.012-0.012 0.037-0.025 0.05-0.037 0-0.013 0.012-0.013 0.012-0.013l7.552-5.452 10.198-7.366v-1.155c0-0.038-0.013-0.062-0.05-0.087-0.013-0.013-0.037-0.025-0.063-0.025-0.757-0.261-5.178 1.068-10.52 3.192l-3.54 1.403c-1.106 0.436-2.124 1.044-3.018 1.789-2.547 2.099-4.087 5.267-4.087 8.683v0.186c0.882-0.05 1.764-0.248 2.534-0.609l0.932-0.509z" fill="#263238"/></g><path d="m347.06 380.64c-10.378-10.708-16.474-54.288-6.352-62.781h51.503c7.272 6.101 5.817 22.595 4.514 30.551-1.051 6.419-2.379 12.803-4.065 19.085-3.593 13.393-12.109 20.026-26.199 20.026-5.178 0-10.914-1.085-15.456-3.737h-2e-3c-1.43-0.802-2.848-1.917-3.943-3.144z" fill="#564539" fill-rule="nonzero"/><path d="m387.74 314.44s11.751 17.985-1e-3 24.846c-11.751 6.861-30.804 6.861-42.555 0-11.752-6.861-11.751-17.985 0-24.846 11.752-6.861 30.804-6.861 42.556 0z" fill="#42362d" fill-rule="nonzero"/><path d="m382.09 317.74s8.63 13.208 0 18.246c-8.63 5.039-22.622 5.039-31.252-0-8.63-5.038-8.63-13.207 1e-3 -18.246 8.629-5.039 22.621-5.039 31.251-0z" fill="#27debf" fill-rule="nonzero"/><g opacity=".3"><path d="m382.09 317.74s8.63 13.208 0 18.246c-8.63 5.039-22.622 5.039-31.252-0-8.63-5.038-8.63-13.207 1e-3 -18.246 8.629-5.039 22.621-5.039 31.251-0z" fill-rule="nonzero"/></g><path d="m350.84 326.83c8.629-5.039 22.621-5.039 31.251 0 2.397 1.399 4.103 3.044 5.169 4.793-1.066 1.749-2.772 3.394-5.169 4.793-8.63 5.039-22.622 5.039-31.251 0-2.397-1.399-4.104-3.044-5.17-4.793 1.066-1.749 2.773-3.394 5.17-4.793z" fill="#422612" fill-rule="nonzero"/><path d="m362.25 304.4c-0.576-1.171-1.062-2.388-1.313-3.758-0.578-3.137 0.205-6.734 2.744-8.665 1.01-0.768 2.325-1.338 2.755-2.533 0.236-0.658 0.147-1.384 0.025-2.073-0.472-2.679-1.376-5.436-0.631-8.052 0.69-2.42 2.722-4.275 4.995-5.353 2.274-1.079 4.796-1.492 7.279-1.901 1.323-0.219 2.677-0.449 3.847-1.104 1.44-0.806 1.887-2.228 2.783-3.476 0.988-1.375 2.272-2.648 3.531-3.772 2.622-2.344 5.907-4.272 9.538-4.111 7.575 0.335 7.361 6.853 5.174 11.795s-2.762 6.55 1.97 11.697c4.733 5.148 4.742 11.494-0.903 15.049-5.646 3.554-9.321 4.021-7.086 10.862 1.996 6.108 3.232 11.323-2.412 17.85-3.649 4.219-8.637 7.231-14.877 6.974-1.77-0.073-5.656-0.886-7.298-1.702-1.719-0.854-0.56-2.189-1.141-3.884-1.247-3.642-2.494-7.283-3.741-10.925-0.965-2.818-1.699-5.945-2.974-8.615-0.715-1.498-1.558-2.866-2.265-4.303z" fill="#1da790" fill-rule="nonzero"/><path d="m376.31 305.12c4.101-14.32 8.719-22.105 17.126-33.54 0.183-0.249 0.203-0.583-0.021-0.797-0.221-0.215-0.644-0.259-0.788 0.018-2.837 5.467-10.863 12.192-17.331 33.819l1.014 0.5z" fill="#fff" fill-rule="nonzero"/><path d="m379.96 291.88 0.623-1.375c-1.279-3.121-4.859-8.876-5.815-9.492-0.261-0.169-0.553-0.269-0.786-0.066-0.235 0.201-0.317 0.614-0.063 0.795 1.037 0.733 5.674 7.346 6.041 10.138z" fill="#fff" fill-rule="nonzero"/><path d="m379.51 295.43-0.647 1.683c6.064-2.383 12.277-4.79 18.6-7.28 0.272-0.107 0.479-0.376 0.399-0.686-0.069-0.27-0.385-0.513-0.679-0.405-5.953 2.186-11.85 4.455-17.673 6.688z" fill="#fff" fill-rule="nonzero"/><path d="m367.29 336.15s-7.003 2.65-16.429 0.608c-9.425-2.042-15.191-10.843-15.191-10.843s10.194-4.085 16.141-4.482c0 0-9.226-1.572-17.857 0.383 0 0-5.456-2.032-4.423-11.246 0 0 5.136-3.785 16.956-2.302 0 0-5.923-4.228-16.307-5.476-0.818 8e-3 0.289-11.995 1.279-17.345s2.954-4.525 7.201-4.063c4.246 0.462 16.806 3.321 18.4 6.402 1.593 3.081 0.044 10.935 0.044 10.935s3.453-4.296 3.466-10.28c0 0 4.728 1.728 7.255 3.96 2.528 2.232 3.791 4.036 4.521 5.66-0.59 4.212-2.573 10.638-5.351 14.228 0 0 6.261-4.043 7.692-11.491 0 0 5.007 6.396 4.958 14.654-0.056 9.417-4.243 16.407-12.355 20.698z" fill="#23c8ac" fill-rule="nonzero"/><path d="m369.27 335-0.4 0.25c-4.337-21.397-19.913-43.819-30.912-51.746-0.24-0.173-0.326-0.494-0.169-0.748 0.157-0.253 0.491-0.327 0.739-0.17 12.279 7.767 30.135 37.834 30.742 52.414z" fill="#fff" fill-rule="nonzero"/><path d="m187.86 324.15-3.21-11.793s1.045 1.066 7.75-0.702c3.409-0.9 7.289-3.06 7.289-3.06l1.914 8.475c1.785 3.263 7.704 1.761 14.188 1.022 1.09-0.124 2.211-0.306 3.331-0.499l0.068-8e-3c3.501-0.192 7.016 1.911 3.376 4.897-3.641 2.985-9.644 4.116-15.18 5.116-6.657 1.203-18.333 3.158-19.526-3.448z" fill="#ffa8a7" fill-rule="nonzero"/><path d="m234.41 323.12s0.703 1.342 0.485 3.562c-0.127 1.292-3.32 5.673-8.961 8.355-5.64 2.681-12.62 2.861-15.887 3.801-3.266 0.941-6.259 2.817-10.108 3.754-3.967 0.965-7.656 1.434-11.514-1.107-0.711-1.096-1.498-3.627-1.27-3.874 0.614-0.662 47.255-14.491 47.255-14.491z" fill="#263238" fill-rule="nonzero"/><path d="m202.62 318.2s7.62 0.525 13.171-0.107c5.233-0.596 11.127-2.435 14.684-1.202 3.558 1.234 6.533 5.421 1.725 10.791-1.391 1.553-4.335 4.286-6.687 5.128-5.977 2.14-11.34 2.313-15.185 3.262-5.002 1.234-7.736 3.449-12.364 3.986-5.988 0.695-9.776-0.844-10.812-2.443-1.034-1.6-1.997-14.49 0.571-14.223 0 0 1.08 4.171 10.861 0.12 4.271-1.769 4.203-4.373 4.036-5.312z" fill="#787878" fill-rule="nonzero"/><path d="m219.22 325.12s-0.562-5.445-4.584-6.886c-0-0-1.297-0.595-2.217 0.291-0-0 3.734 0.542 4.957 6.928-0-0 0.192 0.422 1.005 0.275 0.275-0.05 0.878-0.159 0.839-0.608z" fill="#fafafa" fill-rule="nonzero"/><path d="m208.98 318.95s-5e-3 -0.18 0.945-0.357c0.683-0.128 1.103 0.12 1.103 0.12s3.001 1.299 3.562 6.99c0-0-0.024 0.686-0.924 0.875-0.9 0.19-1.073-0.557-1.073-0.557s-0.618-5.987-3.613-7.071z" fill="#fafafa" fill-rule="nonzero"/><path d="m205.76 319.07s0.168-0.343 0.875-0.339c0.89 5e-3 1.095 0.349 1.095 0.349s2.136 2.19 2.161 6.945c0 0 0.089 0.807-1.032 0.888-1.12 0.082-0.96-0.828-0.96-0.828s-0.387-6.059-2.139-7.015z" fill="#fafafa" fill-rule="nonzero"/><path d="m183.72 245.32c4.901 14.73 17.901 65.458 17.901 65.458s-8.459 7.6-17.639 4.138l-21.867-63.167 21.605-6.429z" fill="#37474f" fill-rule="nonzero"/><path d="m221.5 340.53-4.76-11.804s3.925 2.242 10.671 0.638c3.431-0.815 6.637-4.541 6.637-4.541l2.881 9.918c1.704 3.306 7.209 2.212 13.709 1.634 1.092-0.098 2.216-0.253 3.341-0.418l0.069-7e-3c3.505-0.106 6.967 2.083 3.254 4.978-3.712 2.896-9.742 3.879-15.3 4.743-6.685 1.039-16.752 0.426-20.502-5.141z" fill="#ffa8a7" fill-rule="nonzero"/><path d="m271.93 340.22s0.719 1.459 0.427 3.836c-0.171 1.384-3.715 6.004-9.841 8.734s-13.624 2.74-17.155 3.663c-3.533 0.923-6.794 2.858-10.952 3.763-4.284 0.932-8.256 1.337-12.332-1.491-0.733-1.196-1.513-3.935-1.261-4.193 0.677-0.695 51.114-14.312 51.114-14.312z" fill="#263238" fill-rule="nonzero"/><path d="m237.99 334s0.807 0.545 1.229 0.762c0.444 0.227 0.873 0.217 1.365 0.276 1.089 0.131 2.179 0.137 3.274 0.083 2.747-0.136 5.473-0.55 8.21-0.794 5.635-0.502 12.011-2.321 15.797-0.903s7.244 5.976 1.94 11.613c-1.533 1.63-4.69 4.381-7.106 5.391-6.29 2.631-12.816 2.139-16.969 3.056-5.403 1.194-8.396 3.5-13.379 3.954-6.447 0.589-10.473-1.163-11.542-2.907-0.597-0.974 0.067-6.028-0.741-9.954-0.696-3.38-0.514-5.682 0.702-5.526 0.191 0.436 0.641 0.828 0.941 1.195 0.39 0.477 0.883 0.85 1.43 1.13 0.759 0.389 1.593 0.604 2.419 0.813 1.472 0.373 2.977 0.733 4.491 0.617 0.431-0.033 0.882-0.115 1.219-0.388 0.445-0.36 0.59-0.964 0.709-1.524 0.106-0.497 0.212-0.994 0.318-1.492 0.057-0.27 0.118-0.548 0.272-0.777 0.183-0.273 0.478-0.448 0.766-0.608 0.908-0.508 1.883-1.004 2.455-1.872 0.448-0.68 0.594-1.51 0.721-2.314 0.021-0.14 0.05-0.293 0.161-0.381 0.184-0.146 0.451-0.022 0.649 0.104 0.224 0.142 0.445 0.294 0.669 0.446z" fill="#787878" fill-rule="nonzero"/><path d="m255.57 341.96s-0.46-5.86-4.74-7.514c-0 0-1.376-0.673-2.388 0.255-0 0 3.994 0.68 5.14 7.568-0 0 0.195 0.458 1.072 0.321 0.296-0.046 0.945-0.147 0.916-0.63z" fill="#fafafa" fill-rule="nonzero"/><path d="m244.75 335.06s-1e-3 -0.194 1.023-0.359c0.738-0.119 1.181 0.158 1.181 0.158s3.189 1.474 3.641 7.599c0-0-0.044 0.736-1.016 0.915-0.971 0.179-1.137-0.626-1.137-0.626s-0.505-6.444-3.692-7.687z" fill="#fafafa" fill-rule="nonzero"/><path d="m241.29 335.1s0.189-0.364 0.948-0.341c0.955 0.029 1.167 0.403 1.167 0.403s2.236 2.408 2.137 7.514c0 0 0.073 0.867-1.132 0.926-1.205 0.058-1.009-0.915-1.009-0.915s-0.255-6.515-2.111-7.587z" fill="#fafafa" fill-rule="nonzero"/><path d="m218.21 262.72c3.859 11.87 13.713 45.664 18.216 63.043-0 0-8.091 7.275-18.496 6.64l-25.093-65.063 9.994-6.184 15.379 1.564z" fill="#455a64" fill-rule="nonzero"/><g fill="#455a64" fill-rule="nonzero"><path d="m135.6 425.15s1.627-0.728 1.627-1.627v-104.59c0-0.899-0.728-1.627-1.627-1.627s-1.627 0.728-1.627 1.627v104.59c0 0.899 0.728 1.627 1.627 1.627z"/><path d="m70.885 387.08s1.26-0.389 1.512-1.03l32.072-81.177c0.331-0.835-0.079-1.78-0.915-2.109-0.832-0.334-1.779 0.077-2.109 0.915l-32.073 81.177c-0.33 0.835 0.08 1.781 0.916 2.109 0.195 0.078 0.398 0.115 0.597 0.115z"/><path d="m74.738 377.33s0.863-0.172 1.182-0.51l59.678-63.151 59.57 62.884c0.618 0.654 1.648 0.681 2.299 0.062 0.653-0.618 0.68-1.648 0.062-2.299l-60.752-64.133c-0.307-0.324-0.734-0.508-1.181-0.508h-1e-3c-0.446 0-0.874 0.184-1.181 0.51l-60.858 64.401c-0.618 0.653-0.588 1.682 0.065 2.299 0.315 0.297 0.715 0.445 1.117 0.445z"/><path d="m200.31 387.08s0.402-0.037 0.598-0.115c0.835-0.328 1.245-1.274 0.915-2.109l-32.073-81.177c-0.33-0.838-1.275-1.249-2.109-0.915-0.836 0.329-1.246 1.274-0.915 2.109l32.072 81.177c0.252 0.641 0.864 1.03 1.512 1.03z"/></g><path d="m201.09 283.07s-0.841-3.708-3.223-7.941c-1.451-2.58-60.501 33-60.501 33l14.935 15c22.472-8.337 37.729-22.503 48.789-40.059z" fill="#2a7d7b" fill-rule="nonzero"/><path d="m144.25 324.03s19.23-9.255 35.211-19.626c18.086-11.737 21.632-21.342 21.632-21.342s-0 7.197-1.349 10.57c-1.35 3.373-4.273 7.196-17.317 16.191-13.042 8.996-22.487 13.493-31.258 15.163l-6.919-0.956z" fill="#27debf" fill-rule="nonzero"/><path d="m73.408 374.34-4.955 11.422c-0.337 1.074 1.056 1.618 1.892 1.657 1.196 0.057 1.152-0.15 1.912-0.802l0.04-0.157 4.599-10.711-3.488-1.409z" fill="#34647b" fill-rule="nonzero"/><path d="m198.1 374.82 4.24 11.189c0.283 1.045-1.097 1.505-1.891 1.505-1.186 0-1.138-0.196-1.799-0.856l-0.032-0.152-3.931-10.491 3.413-1.195z" fill="#34647b" fill-rule="nonzero"/><path d="m133.72 415.43v9.256c0 0.348 0.277 0.609 0.549 0.766 0.762 0.44 1.891 0.44 2.653 0 0.272-0.157 0.549-0.418 0.549-0.766v-9.256c-1.251-0.627-2.501-0.627-3.751 0z" fill="#34647b" fill-rule="nonzero"/><path d="m96.905 243.85s38.725-5.572 47.967-6.831c14.908-2.03 27.045-3.515 32.104-1.924 5.058 1.59 7.209 4.169 8.76 10.229 1.828 7.148 2.776 10.79 2.776 10.79s-24.77 9.508-44.302 11.797-47.305-24.061-47.305-24.061z" fill="#37474f" fill-rule="nonzero"/><path d="m90.396 250.4c-3.868 14.735-7.343 31.879 1.609 41.264 6.028 6.32 36.312 22.737 55.85 16.27 19.247-6.372 59.1-35.959 63.099-38.938 4.008-2.987 7.637-5.009 7.255-6.276-5.375-17.843-13.229-19.237-27.796-16.033-17.811 3.919-56.918 19.878-56.918 19.878l-43.099-16.165z" fill="#455a64" fill-rule="nonzero"/><path d="m195.56 126.78s5.5 7.945 4.914 8.751c-0.588 0.806-4.484 1.611-4.484 1.611l-0.43-10.362z" fill="#f28f8f" fill-rule="nonzero"/><path d="m201.49 125.45c-0-3.298-2.678-5.975-5.975-5.975-3.298 0-5.975 2.677-5.975 5.975s2.677 5.975 5.975 5.975c3.297 0 5.975-2.677 5.975-5.975z" fill="none" stroke="#263238" stroke-width="1.21px"/><path d="m178.88 155.65-13.435 15.192-21.704-10.298 12.262-16.966c-0.705-0.775-1.361-1.594-1.955-2.456-7.16-10.41-9.305-24.691-2.034-30.735 10.233-8.508 23.867-6.398 28.266-5.575 0-0 14.024 6.681 15.429 23.747 1.468 17.833-0.226 23.487-2.517 25.946-1.492 1.598-9.719 2.116-14.312 1.145z" fill="#ffa8a7"/><path d="m182.37 127.34 19-3.55" fill="none" stroke="#263238" stroke-width="1.03px"/><path d="m178.89 155.64c4.652 1.051 11.726 0.417 13.827-0.79-0.2 0.054-3.529 0.915-7.825-0.288-4.43-1.24-7.168-3.16-7.168-3.16l1.166 4.238z" fill="#f28f8f" fill-rule="nonzero"/><path d="m145.8 106.11c1.181-6.408 6.391-9.453 12.342-10.964 8.586-2.181 17.508 3.207 25.81-0.35 1.748-0.749 3.357-1.81 5.145-2.459 1.005-0.364 2.196-0.574 3.091 0.011 0.774 0.506 1.105 1.462 1.321 2.361 0.396 1.653 0.549 3.501-0.326 4.958 1.253-0.604 2.528-1.214 3.902-1.438 1.373-0.223 2.882-8e-3 3.945 0.89 0.988 0.835 1.462 2.15 1.583 3.438 0.338 3.637-1.893 7.152-4.895 9.235-0-0-0.021 0.015-0.031 0.021-3.017 2.081-6.698 2.948-10.32 3.511 0.286 2.894-0.626 5.757-1.526 8.523-0.623 1.913-2.872 7.924-5.319 4.624-1.768-2.384-3.376-4.554-6.762-3.969-5.581 0.964-6.173 8.119-2.545 12.374 3.629 4.256 6.879 2.518 6.879 2.518s0.515 7.692-3.542 13.129c-0-0-6.055 3.722-14.553 0.922-5.363-1.767-13.102-8.529-15.954-13.807-7.221-13.359-7.834-26.204-0.478-31.51l-4.53-2.532c1.007-1.802 3.284-2.446 5.086-1.438 0.804 0.45 1.378 1.152 1.677 1.952z" fill="#263238"/><path d="m224.23 164.52s-1.812-1.125-2.849-1.487c-1.921-0.67-3.42-2.201-5.27-3.048-2.06-0.943-4.453-0.974-6.657-0.449-0.76 0.18-1.5 0.423-2.224 0.711-1.378 0.547-2.696 1.257-3.974 2.014-5.296 3.135-9.276 10.22-14.484 13.472-1.94 1.211-3.753 2.311-5.539 3.406l12.437 11.089c2.562-2.085 5.007-4 6.135-4.672 3.062-1.822 6.151-1.863 9.591-2.361 2.388-0.346 4.707-1.052 7.014-1.756 0.813-0.248 1.718-0.573 2.067-1.348 0.442-0.982-0.332-2.165-1.334-2.56-1.073-0.422-2.485-0.313-3.636-0.498-0.896-0.144-3.296 0.394-3.827-0.513-0.278-0.474 0.067-1.06 0.41-1.488 2.157-2.689 4.885-5.571 8.338-6.38 1.071-0.251 2.187-0.508 3.037-1.205 0.85-0.698 1.329-1.984 0.765-2.927z" fill="#ffa8a7" fill-rule="nonzero"/><path d="m117.33 163.62c-4.183 12.327 27.158-12.919 21.537-12.734-7.525 0.248-16.855 1.671-19.335 6.977-0.638 1.364-1.39 3.364-2.202 5.757z" fill="#4b5781" fill-rule="nonzero"/><path d="m147.9 154.79 1.933-2.674c-14.913-7.086-28.267 2.222-40.028 20.516-12.676 19.718-19.328 48.03-19.391 77.91 0-0 2.53 13.427 19.497 20.144 17.999 7.126 43.109 4.107 50.933-14.55 0-0 0.158-18.636 5.826-27.811 3.667-5.938 12.218-19.136 18.58-28.6 5.539-8.239 9.842-26.99-1.728-33.85-3.389-2.008-4.794-2.595-9.407-4.8-10.527 3.476-27.574-2.105-26.215-6.285z" fill="#526092" fill-rule="nonzero"/><path d="m190.73 187.15s1.039-7.483 0.471-11.023c-8.299 19.442-27.734 30.111-39.012 47.654-2.515 3.912-10.214 25.348-19.345 21.122-10.063-4.657-13.581-19.933-20.563-27.74-3.437-3.844-10.644-11.014-17.017-8.058-3.806 13.538-5.634 27.685-5.663 41.74 0.941 2.638 1.9 5.325 3.436 7.666 3.841 5.853 9.839 10.312 16.35 12.778 17.432 6.603 43.433 4.921 51.688-14.767 0.173-3.545 0.346-7.098 0.799-10.619 0.997-7.74 1.854-10.606 5.113-17.604 5.984-12.849 17.728-22.905 22.423-36.418l0.031-0.09c0.493-1.38 1.014-3.201 1.289-4.641z" fill="#4b5781" fill-rule="nonzero"/><path d="m259.26 205.93s-1.999 2.203-3.1 3.2c-4.561 4.132-9.892 6.114-16.087 10.138-5.009 3.254-12.734 7.992-19.243 12.049-7.317 4.561-16.139 8.268-20.952 9.682-6.048 1.777-9.431 1.851-13.007-7.835-1.754-4.751-3.143-9.625-4.657-14.458-2.254-7.191 21.004-17.215 22.656-9.739 0.966 4.376 1.615 7.397 1.615 7.397 6.364-2.197 12.57-4.919 18.596-7.915 2.283-1.135 5.09-1.923 6.719-3.954 1.106-1.38 2.005-2.909 2.861-4.453 0.766-1.382 1.32-2.884 2.164-4.205 1.567-2.452 3.83-4.512 5.914-6.513 0.408-0.392 0.865-0.807 1.429-0.847 0.596-0.043 1.154 0.367 1.451 0.885 0.663 1.154 0.047 2.288-0.292 3.468-0.386 1.347-0.773 2.694-1.159 4.04 4.595-2.72 8.49-6.295 11.478-10.759 0.271-0.406 0.539-0.823 0.905-1.147 0.365-0.325 0.85-0.55 1.335-0.49 1.205 0.15 2.397 2.095 2.457 3.205 0.062 1.131-0.19 2.289 0.09 3.387 0.267 1.046 0.976 1.904 1.305 2.925 0.32 0.999 0.576 2.189 0.685 3.238 0.252 2.432-0.606 4.723-1.826 6.787-0.397 0.672-0.848 1.308-1.337 1.914z" fill="#ffa8a7" fill-rule="nonzero"/><path d="m184.44 166.48s11.793 5.903 14.918 16.361c3.144 10.517 6.517 27.241 6.517 27.241s0.064 3.51-8.259 8.417c-8.322 4.907-16.108 2.17-16.108 2.17l-6.285-20.197s-11.142-27.013 9.217-33.992z" fill="#4b5781" fill-rule="nonzero"/><path d="m151.17 324.99c-26.406-1.651-89.579-112-89.579-112l4.401-3.747 2e-3 0.012c4.514-3.687 11.861-0.4 17.397 2.612 15.817 8.609 28.187 16.97 37.965 47.17 7.356 22.717 12.207 43.439 22.36 54.519 9.664 8.749 26.577-3.389 35.746-9.152 8.743-5.496 21.632-21.342 21.632-21.342s0 7.196-1.349 10.57c-1.349 3.373-4.272 7.196-17.316 16.191-13.043 8.996-22.488 13.493-31.259 15.163z" fill="#298d8b"/><path d="m78.803 215.76c15.817 8.608 28.187 16.97 37.966 47.17s15.128 56.882 34.398 62.059c-0-0-8.713 3.462-35.415-7.831-8.495-3.593-18.805-10.145-25.578-13.946-13.271-7.448-21.316-13.551-22.588-15.834-7.015-12.594-11.793-49.183-10.067-65.003 1.726-15.819 13.363-10.926 21.284-6.615z" fill="#2a7d7b" fill-rule="nonzero"/><path d="m167.7 81.819-4.624-8.694-3.713 2.212 1.351 2.342c0.078 0.136 0.19 0.224 0.314 0.28l-2e-3 4e-3 6.674 3.856z" fill="#33478d" fill-rule="nonzero"/><path d="m193.39 7.874c-0-2.057-1.444-4.558-3.225-5.586l-2.626-1.517c-1.781-1.028-4.669-1.028-6.45-0l-40.274 23.293c-1.781 1.029-3.225 3.53-3.225 5.587v44.311c-0 2.058 1.445 4.558 3.225 5.587l2.627 1.516c1.781 1.028 4.669 1.028 6.45-0l12.953-7.483 4.615 7.994c0.295 0.511 1.054 0.438 1.247-0.119l4.878-14.081 16.58-9.605c1.782-1.027 3.225-3.528 3.225-5.585v-44.312z" fill="#3e5dae" fill-rule="nonzero"/><path d="m143.71 81.204c-0.089-0.044-0.176-0.09-0.26-0.139l-2.627-1.516c-1.781-1.029-3.225-3.529-3.225-5.587v-44.311c-0-1.029 0.361-2.168 0.945-3.179l9.076 5.24c-0.583 1.011-0.944 2.15-0.944 3.179v44.311c0 1.84 1.156 2.697 2.674 2.122-1.69 0.712-4.029 0.676-5.639-0.12z" fill="#33478d"/><path d="m193.29 6.957s-1.625-1.806-3.114-0.948l-40.281 23.299c-0.887 0.511-1.699 1.384-2.272 2.407l-9.072-5.236c0.587-1.023 1.384-1.896 2.271-2.408l40.265-23.298c1.791-1.024 4.68-1.024 6.455 0l2.634 1.519c1.519 0.873 2.798 2.829 3.114 4.665z" fill="#374d9a" fill-rule="nonzero"/><path d="m152.59 52.29c-0-0.736 0.249-1.177 0.636-1.781l8.756-14.156c0.25-0.338 0.7-0.416 0.7 0.204v5.459c-0 0.774-0.288 1.291-0.7 1.887l-4.515 6.886 4.515 2.075c0.538 0.157 0.7 0.374 0.7 1.046v3.878c-0 0.311-0.222 1.119-0.7 1.01l-8.756-4.044c-0.521-0.211-0.636-0.458-0.636-1.048v-1.416z" fill="#fff" fill-rule="nonzero"/><path d="m171.68 30.423c0.145-0.576 0.406-1.245 0.964-1.566l2.932-1.694c0.517-0.298 0.491 0.555 0.438 0.792l-7.399 31.536c-0.129 0.575-0.413 1.25-0.963 1.567l-2.868 1.656c-0.512 0.295-0.493-0.556-0.436-0.792l7.332-31.499z" fill="#fff" fill-rule="nonzero"/><path d="m187.77 35.524c0 0.741-0.247 1.175-0.636 1.783l-8.756 14.154c-0.247 0.343-0.699 0.415-0.699-0.202v-5.46c0-0.784 0.285-1.255 0.699-1.854l3.83-5.919-3.83-1.46c-0.54-0.158-0.699-0.432-0.699-1.079v-5.46c0-0.325 0.219-1.103 0.699-1.011l8.756 4.045c0.523 0.215 0.636 0.451 0.636 1.047v1.416z" fill="#fff" fill-rule="nonzero"/><g fill-rule="nonzero" serif:id="Box 1"><path d="m70.861 2.33-53.888 31.043c-0.739 0.427-1.338 1.463-1.338 2.316v30.082c0 0.853 0.602 1.883 1.345 2.302l5.319 3.024c0.743 0.42 1.943 0.414 2.682-0.013l53.889-31.044c0.738-0.426 1.337-1.462 1.337-2.315v-30.081c0-0.853-0.602-1.884-1.345-2.303l-5.319-3.024c-0.743-0.42-1.944-0.414-2.682 0.013z" fill="#263238"/><path d="m80.189 7.401s-0.654-0.914-1.322-0.531l-53.883 31.045c-0.371 0.216-0.704 0.581-0.945 1.001l-7.985-4.592c0.241-0.402 0.563-0.748 0.921-0.951l53.889-31.046c0.736-0.426 1.934-0.432 2.681-0.012l5.316 3.023c0.674 0.383 1.235 1.267 1.328 2.063z" fill="#455a64"/><path d="m78.87 6.872-53.889 31.043c-0.738 0.427-1.337 1.464-1.337 2.316v30.081c0 0.853 0.599 1.199 1.337 0.772l53.889-31.044c0.738-0.426 1.337-1.463 1.337-2.315v-30.081c0-0.853-0.599-1.198-1.337-0.772z" fill="#37474f"/><g fill="#fff"><path d="m36.962 45.626c-0.011 0.323-0.021 0.646-0.026 0.969-7e-3 0.421-9e-3 0.843-9e-3 1.264-0 0.908-0.398 4.371 1.222 4.354 1.468-0.015 2.527-1.634 2.934-2.846 0.207-0.617 0.131-1.535 0.783-1.909l2.254-1.302c0.271-0.155 0.397 0.182 0.379 0.365-0.095 0.937-0.174 1.885-0.431 2.791-0.751 2.644-2.484 5.438-4.938 6.825-0.898 0.507-2.93 1.215-3.872 0.116-1.61-1.877-1.515-4.192-1.515-6.517-0-3.865 0.474-7.796 3.167-10.822 1.053-1.184 2.638-2.424 4.327-2.552 1.319-0.1 2.33 0.638 2.831 1.823 0.016 0.038 0.955 2.578 0.052 3.096l-2.254 1.302c-0.699 0.401-0.65-1.757-1.772-1.626-2.185 0.256-3.036 2.829-3.132 4.669z"/><path d="m51.604 29.86c0.645-0.299 1.315-0.61 2.022-0.677 0.541-0.05 1.115 0.081 1.592 0.339 0.745 0.403 2.326 2.718 1.084 3.427l-2.255 1.302c-0.605 0.35-0.683-0.254-1.17-0.398-0.487-0.143-0.821 0.011-1.273 0.245-0.703 0.366-2.43 1.953-1.522 2.893 0.336 0.348 1.337 0.071 1.574 0.019 1.759-0.38 4.382-1.519 5.119 1.004 0.191 0.653 0.256 1.346 0.232 2.025-0.031 0.89-0.142 1.787-0.395 2.64-0.751 2.543-2.601 4.909-4.922 6.205-1.147 0.641-2.521 1.117-3.794 0.455-0.829-0.431-2.431-2.928-1.144-3.67l2.254-1.301c0.739-0.429 1.01 0.715 1.815 0.595 1.132-0.168 2.407-1.137 2.851-2.192 0.116-0.276 0.308-1.024-0.072-1.294-0.4-0.284-1.573 0.065-1.815 0.12-0.877 0.203-2.223 0.693-3.177 0.527-1.674-0.292-1.914-2.412-1.874-3.73 0.103-3.358 1.909-6.823 4.87-8.534z"/><path d="m64.062 22.667c0.645-0.299 1.315-0.61 2.022-0.677 0.541-0.05 1.115 0.081 1.592 0.339 0.742 0.401 2.33 2.724 1.084 3.427l-2.255 1.302c-0.603 0.351-0.684-0.255-1.169-0.398-0.487-0.143-0.822 0.011-1.274 0.245-0.704 0.366-2.429 1.952-1.521 2.893 0.336 0.348 1.337 0.071 1.573 0.019 1.759-0.38 4.382-1.519 5.119 1.004 0.191 0.653 0.256 1.346 0.232 2.025-0.031 0.89-0.143 1.787-0.395 2.64-0.751 2.543-2.601 4.909-4.921 6.205-1.147 0.642-2.522 1.117-3.794 0.455-0.832-0.432-2.428-2.922-1.145-3.67l2.254-1.301c0.741-0.427 1.008 0.715 1.815 0.595 1.133-0.168 2.407-1.137 2.851-2.192 0.117-0.278 0.309-1.023-0.072-1.294-0.4-0.284-1.57 0.064-1.814 0.12-0.877 0.203-2.224 0.693-3.178 0.527-1.674-0.292-1.913-2.412-1.873-3.73 0.103-3.359 1.909-6.821 4.869-8.534z"/></g></g><g fill-rule="nonzero" serif:id="Box 2"><g serif:id="Box"><path d="m70.862 64.843-53.888 31.043c-0.739 0.427-1.338 1.463-1.338 2.316v30.082c-0 0.853 0.602 1.883 1.345 2.302l5.319 3.024c0.743 0.42 1.943 0.414 2.682-0.013l53.889-31.044c0.738-0.426 1.337-1.462 1.337-2.315v-30.081c-0-0.853-0.602-1.884-1.345-2.303l-5.319-3.024c-0.743-0.42-1.944-0.414-2.682 0.013z" fill="#263238"/><path d="m80.189 69.915s-0.654-0.914-1.322-0.531l-53.883 31.045c-0.371 0.216-0.704 0.581-0.945 1.001l-7.985-4.592c0.241-0.402 0.563-0.748 0.921-0.951l53.889-31.046c0.736-0.426 1.934-0.432 2.681-0.012l5.316 3.023c0.674 0.383 1.235 1.267 1.328 2.063z" fill="#455a64"/><path d="m78.87 69.385-53.889 31.043c-0.738 0.427-1.337 1.464-1.337 2.316v30.081c0 0.853 0.599 1.199 1.337 0.772l53.889-31.044c0.738-0.426 1.337-1.463 1.337-2.315v-30.081c0-0.853-0.599-1.198-1.337-0.772z" fill="#37474f"/></g><g fill="#fff" serif:id="Text"><path d="m37.22 100.94c0.349-0.202 0.464 0.242 0.464 0.448v17.114c-0 0.307-0.165 0.81-0.464 0.983l-2.255 1.302c-0.347 0.198-0.465-0.238-0.465-0.447v-6.491l-3.819 2.205v6.491c-0 0.304-0.167 0.813-0.465 0.983l-2.254 1.302c-0.358 0.206-0.465-0.215-0.465-0.447v-17.114c-0-0.307 0.165-0.812 0.465-0.984l2.254-1.302c0.347-0.199 0.465 0.239 0.465 0.448v6.385l3.819-2.206v-6.384c-0-0.307 0.166-0.811 0.465-0.984l2.255-1.302z"/><path d="m49.798 93.682c0.349-0.203 0.465 0.24 0.465 0.448v2.807c-0 0.305-0.166 0.812-0.465 0.984l-3.028 1.749v13.591c-0 0.306-0.166 0.811-0.465 0.983l-2.253 1.301c-0.349 0.2-0.466-0.236-0.466-0.446v-13.591l-3.028 1.748c-0.349 0.202-0.464-0.242-0.464-0.448v-2.807c-0-0.308 0.164-0.811 0.464-0.984l9.24-5.335z"/><path d="m57.704 102.99s-0.175-0.195-0.232-0.304l-1.618-3.437v8.77c-0 0.309-0.164 0.809-0.464 0.983l-2.254 1.301c-0.35 0.201-0.465-0.235-0.465-0.446v-17.115c-0-0.309 0.163-0.81 0.465-0.984l1.996-1.152c0.377-0.218 0.599 0.01 0.74 0.288l2.787 5.729 2.788-8.947c0.122-0.403 0.354-0.921 0.74-1.144l1.996-1.152c0.35-0.204 0.464 0.245 0.464 0.448v17.114c-0 0.312-0.163 0.807-0.464 0.983l-2.254 1.302c-0.35 0.203-0.465-0.24-0.465-0.447v-8.769l-1.617 5.304c-0.114 0.343-0.291 0.831-0.637 1.03l-1.101 0.636c-0.173 0.099-0.307 0.103-0.405 9e-3z"/><path d="m76.348 92.658c0.349-0.202 0.465 0.242 0.465 0.448v2.808c0 0.304-0.166 0.813-0.465 0.983l-7.967 4.6c-0.348 0.2-0.465-0.236-0.465-0.446v-17.115c0-0.307 0.166-0.812 0.465-0.984l2.254-1.301c0.348-0.201 0.465 0.24 0.465 0.447v13.59l5.248-3.03z"/></g></g><g fill-rule="nonzero" serif:id="Box 3"><g serif:id="Box"><path d="m55.358 135.92-38.384 22.485c-0.739 0.427-1.338 1.463-1.338 2.316v30.082c-0 0.853 0.602 1.883 1.345 2.302l5.319 3.024c0.743 0.42 1.943 0.414 2.682-0.013l38.385-22.486c0.738-0.426 1.337-1.462 1.337-2.315v-30.081c-0-0.853-0.602-1.884-1.345-2.303l-5.319-3.024c-0.743-0.42-1.944-0.414-2.682 0.013z" fill="#263238"/><path d="m64.685 140.99s-0.654-0.914-1.322-0.531l-38.379 22.486c-0.371 0.216-0.704 0.581-0.945 1.001l-7.985-4.592c0.241-0.402 0.563-0.748 0.921-0.951l38.385-22.487c0.736-0.426 1.934-0.432 2.681-0.012l5.316 3.023c0.674 0.383 1.235 1.267 1.328 2.063z" fill="#455a64"/><path d="m63.367 140.46-38.386 22.485c-0.738 0.427-1.337 1.464-1.337 2.316v30.081c0 0.853 0.599 1.199 1.337 0.772l38.386-22.486c0.738-0.426 1.337-1.463 1.337-2.315v-30.081c-0-0.853-0.599-1.198-1.337-0.772z" fill="#37474f"/></g><g fill="#fff" serif:id="Text"><path d="m50.459 154.81c0.644-0.299 1.314-0.611 2.022-0.677 0.54-0.05 1.115 0.081 1.592 0.339 0.745 0.403 2.325 2.718 1.084 3.427l-2.255 1.302c-0.605 0.35-0.684-0.254-1.17-0.398-0.487-0.143-0.822 0.011-1.273 0.245-0.704 0.365-2.431 1.953-1.522 2.893 0.336 0.348 1.337 0.07 1.574 0.019 1.758-0.38 4.381-1.519 5.119 1.004 0.19 0.652 0.256 1.346 0.232 2.025-0.031 0.889-0.143 1.787-0.395 2.64-0.752 2.543-2.602 4.909-4.922 6.205-1.147 0.641-2.522 1.116-3.794 0.455-0.829-0.431-2.431-2.928-1.144-3.67l2.254-1.301c0.738-0.429 1.01 0.715 1.815 0.595 1.132-0.168 2.406-1.137 2.85-2.192 0.117-0.277 0.308-1.024-0.071-1.294-0.401-0.284-1.573 0.064-1.815 0.12-0.878 0.203-2.223 0.693-3.177 0.527-1.674-0.292-1.915-2.412-1.874-3.73 0.103-3.358 1.909-6.823 4.87-8.534z"/><path d="m33.574 175.12 2.793-1.5c0.736 2.189 2.897 3.089 2.959 0.581v-8.316l-4.437 2.562c-0.392 0.227-0.522-0.271-0.522-0.504v-3.013c-0-0.343 0.186-0.917 0.522-1.109l7.541-4.592s0.259-0.135 0.329-0.104c0.071 0.032 0.096 0.292 0.096 0.292l0.012 4.284v10.471c-9e-3 1.21-0.891 3.015-1.901 3.875-2.239 1.91-6.336 1.555-7.392-2.927z"/></g></g></svg>