<svg clip-rule="evenodd" fill-rule="evenodd" stroke-linejoin="round" stroke-miterlimit="2" version="1.1" viewBox="0 0 448 304" xml:space="preserve" xmlns="http://www.w3.org/2000/svg" xmlns:serif="http://www.serif.com/"><g fill="#dcdcdc" fill-rule="nonzero"><path d="m175.93 259.47h261.45l-49.335-103.03-23.729-10.174-25.187-49.218-16.612-17.867-14.641-32.588-17.143 2.778-29.308 68.28-16.365 12.209-26.58 70.329-26.186 25.436-16.365 33.842z"/><path d="m188.79 259.52h-178.74l23.174-56.965 12.243-6.712 19.27-44.547 15.581-9.153 14.811-26.798h14.626l32.5 54.868 16.535 8.543 29.996 80.764z"/></g><path d="m58.62 285.29h-21.049c-5.778-0-5.778-8.959-0-8.959h21.049c5.779-0 5.778 8.959-0 8.959zm305.22 17.727h-10.524c-5.778 0-5.779-8.959 0-8.959h10.524c5.779 0 5.779 8.959 0 8.959zm-272.36-35.548h-87.132c-5.792 0-5.792-8.959 0-8.959h438.74c5.793 0 5.792 8.959 0 8.959h-115.71c-5.178 0.191-5.743 7.818-0.759 8.862h27.251c5.793-0 5.793 8.959 0 8.959h-84.742c-4.563 0.957-4.65 7.794 2e-3 8.768h59.895c5.792 0 5.792 8.959-0 8.959h-201.49c-5.791 0-5.792-8.959-0-8.959h26.834c4.566-0.956 4.65-7.791-0-8.768h-77.07c-5.792-0-5.792-8.959 0-8.959h14.938c4.906-1.028 4.476-8.669-0.76-8.862zm160.23 0h-44.673c-5.177 0.191-5.742 7.818-0.759 8.862h46.191c4.906-1.028 4.477-8.669-0.759-8.862z" fill="#375a64"/><path d="m39.847 259.43h279.01l-50.935-125.56-24.498-12.4-26.004-59.981-17.151-21.774-15.115-39.715-17.699 3.385-30.259 83.212-16.896 14.88-36.523 85.709-27.035 30.999-16.896 41.243z" fill="#375a64" fill-rule="nonzero"/><path d="m185.16 0 2.074 62.574-19.926 32.858 9.347 25.149-18.504 55.446 16.126 45.878-9.551 37.523h-124.87l16.896-41.243 27.035-30.998 36.523-85.71 16.896-14.879 30.259-83.212 17.699-3.386z" fill="#2b454e" fill-rule="nonzero"/><path d="m180.18 159.91 13.898-28.518-1.09-12.09 5.178-8.679 6.268 24.643-18.804 24.644h-5.45z" fill="#2b454e" fill-rule="nonzero"/><path d="m407.58 259.45h-206.59l27.283-67.028 19.282-15.476 19.895-57.715 16.086-11.861 15.291-34.719h15.101l33.554 71.09 17.071 11.069 43.023 104.64z" fill="#2b454e" fill-rule="nonzero"/><path d="m201 259.45h89.595v-57.598l20.424-40.322-9.731-42.299 12.65-46.581-15.101 1e-3 -15.291 34.719-16.086 11.861-19.895 57.715-19.282 15.477-27.283 67.028z" fill="#1a2e35" fill-rule="nonzero"/><g fill="#a38643" stroke="#52421d" stroke-width="1px"><path d="m379.54 124.85c9.227 5.893 18.91-3.332 23.244-10.799 7.747-13.347 8.008-33.542-2.504-45.482-33.776-29.98-79.209 5.885-115.33 8.406-3.281 0.229-6.594 0.269-9.867-0.062-3.464-0.349-6.921-0.974-10.257-1.969-3.338-0.996-6.446-2.643-9.665-3.974-2.093-0.866-11.035-8.822-11.107-11.543-0.075-2.859 2.684-3.687 4.868-2.821 4.17 1.653 7.54 4.995 11.731 6.596 11.268 4.306 23.803 2.698 35.124-0.26 19.574-5.116 38.503-15.046 58.846-16.895 23.273-2.116 54.037 9.072 62.115 33.817 4.732 14.496 1.994 33.182-7.091 45.409-6.234 8.39-16.043 14.915-26.823 10.871-20.745-7.781-18.722-36.851-3.899-49.909 2.496-2.2 9.046-6.798 13.683-5.798 4.938 1.066 10.955 9.038 10.095 13.626-1.251 6.676-3.512 12.182-8.863 16.679-3.188 2.679-6.827 4.904-10.684 6.473-4.336 1.764-7.171 2.118-3.619 7.635zm12.796-33.392c-6.553 2.984-10.869 8.835-12.93 15.639-0.246 0.81 1.502-0.779 2.225-1.217 1.636-0.991 3.461-2.334 4.809-3.638 2.852-2.758 5.494-6.741 5.896-10.784z"/><path d="m228.61 107.28c-0.145-0.118-2.99-2.963-3.105-3.104-1.854-1.512-0.449-5.005-0.07-6.554 0.712-2.911-5.765 2.174-7.914 4.262-7.034 6.83-14.724 21.453-10.005 31.764 7.783 3.23 14.6-3.961 18.999-9.22 2.756-3.296 4.568-7.356 7.562-10.438 0.946-0.975 2.765-1.085 3.359-2.307 4.232-8.702 6.839-16.567 15.539-22.063 10.415-6.581 23.569-0.211 25.013 12.694 4.916-5.522 8.925-9.746 15.801-12.961 4.283-2.003 10.707 3.307 12.068 7.522 1.925-2.554 8.095-9.269 13.15-10.284 5.609-1.127 12.202 5.08 13.24 10.505 4.096-6.079 10.825-14.311 18.701-16.142 5.635-1.31 17.901 4.652 17.834 12.52-0.198 23.131-13.903 42.047-22.506 62.754 33.153-0.429 46.465 48.011 19.66 66.562-17.426 12.06-37.391-4.99-39.893-22.681-1.153-8.153-0.325-16.496 1.436-24.479-16.539 9.26-34.815 17.538-53.529 10.334-2.693-1.036-12.003-9.496-11.752-12.653 0.249-3.145 3.49-3.386 5.542-2.035 5.761 3.795 9.229 7.253 16.664 6.695 14.091-1.058 26.021-7.496 38.289-13.895 3.384-1.765 8.199-2.414 9.837-5.861 6.016-12.662 11.824-25.425 17.333-38.315 2.074-4.854 9.641-20.885 8.167-28.906-3.152-0.153-6.446 2.204-8.598 3.826-9.443 7.119-14.626 21.276-19.301 30.907-0.55 1.133-5.023 15.447-10.255 9.393-0.143-0.124-0.274-0.255-0.393-0.394-0.14-0.121-0.269-0.25-0.386-0.386-0.141-0.122-0.271-0.252-0.388-0.388-0.141-0.122-0.27-0.251-0.387-0.387-0.14-0.121-0.269-0.25-0.386-0.386-0.143-0.124-0.275-0.255-0.394-0.393-0.14-0.122-0.268-0.251-0.385-0.386-0.141-0.122-0.27-0.251-0.387-0.387-2.924-2.53 0.503-12.239 0.583-12.605 1.742-8.022 4.077-14.096 4.331-21.815-11.375 6.4-16.758 24.114-20.959 34.834-0.664 1.695-3.02 13.413-7.815 7.774-0.14-0.119-2.987-2.967-3.106-3.107-0.982-0.835-1.301-2.415-1.14-3.694 0.408-3.258 4.992-24.478 6.358-31.522-4.581 1.952-17.722 13.635-18.31 15.903-2.107 8.127-5.421 13.944-11.638 19.155-9.899 8.298-23.304 3.839-27.683-7.588-4.186 6.072-9.075 11.729-16.213 14.439-14.942 5.672-26.167-9.546-25.193-22.741 0.788-10.671 6.835-23.22 15.632-29.534 7.417-5.323 15.081-5.754 20.74 1.523 2.561 3.292 3.293 4.811 2.731 9.071-0.3 2.266-3.235 9.162-6.478 5.174zm37.102 3.501c0.284-0.433 0.568-0.868 0.8-1.331 0.985-1.97 1.825-3.927 1.608-6.181-0.108-1.128-0.296-2.252-0.547-3.357-0.528-2.322-3.692-4.645-6.079-3.647-0.925 0.387-1.867 1.69-2.3 2.315-1.563 2.254-1.54 4.805-0.04 7.065 1.295 1.951 2.434 3.198 4.52 4.241 0.664 0.332 1.352 0.614 2.038 0.895zm-17.845 19.967c0.85 0.275 1.794-9e-3 2.675-0.156 6.348-1.061 9.915-6.498 12.729-11.798-4.661-1.813-9.72-6.681-11.104-11.669-4.053 6.34-8.041 16.288-4.3 23.623zm88.791 65.514c-0 6.757 1.21 11.178 4.333 17.189 0.641 1.234 2.314 1.59 3.614 2.083 5.859 2.224 11.408 0.244 15.889-3.882 10.613-9.774 12.849-28.38 3.823-39.894-3.538-2.741-9.179-4.855-13.774-4.438-3.181 0.289-8.144-0.533-9.263 2.459-3.061 8.19-4.84 17.754-4.622 26.483z"/><path d="m147.34 126.07c-0.14-0.12-1.046-1.027-1.165-1.166-1.648-1.411-0.792 9.359-0.772 9.412 5.766 2.216 12.732-4.055 16.061-7.809 14.256-16.078 13.136-23.045 22.672-44.277 3.124-6.955 6.657-13.746 10.62-20.26 6.728-11.057 12.735-20.23 23.035-27.755 5.294-3.867 15.639 0.284 16.503 7.599 0.392 3.313 0.077 6.725-0.612 9.989-0.639 3.023-2.02 5.853-3.327 8.653-6.844 14.658-17.364 28.471-28.019 40.543-3.694 4.186-11.74 12.37-16.208 16.292-0.484 0.425-3.019 1.478-3.341 2.775-2.991 12.056-5.362 24.66-4.53 37.15 0.649 9.755 2.92 20.646 9.209 28.419 14.886 11.91 34.45 2.121 44.1-11.317 6.686-9.31 4.186-10.313 9.211-20.731 1.017-2.109 3.652-3.766 5.563-1.434 0.141 0.116 0.271 0.245 0.388 0.388 0.141 0.116 0.272 0.246 0.389 0.389 0.141 0.116 0.271 0.246 0.388 0.389 0.141 0.115 0.27 0.244 0.387 0.386 0.141 0.116 0.271 0.246 0.389 0.389 0.141 0.116 0.271 0.246 0.389 0.389 0.141 0.116 0.271 0.245 0.388 0.388 0.14 0.116 0.27 0.245 0.386 0.387 3.745 3.071-2.156 14.763-2.174 14.805-4.268 10.241-11.283 20.593-21.159 26.241-3.707 2.12-7.65 4.058-11.836 4.9-4.207 0.846-8.629 0.709-12.872 0.071-29.478-4.43-35.391-40.514-33.316-64.449-3.793 3.707-8.124 6.819-13.329 8.244-10.974 3.004-19.099-8.57-20.473-17.445-1.006-6.5 4.434-16.978 8.142-21.773 4.416-5.713 11.351-13.001 19.609-11.18 4.37 0.964 10.888 8.118 9.24 12.591-2.803 7.61-6.857 13.333-14.119 17.55-2 1.161-7.225 4.282-9.817 1.257zm1.603-9.152c1.302-0.667 3.305-2.185 3.977-2.709 3.155-2.455 6.265-5.535 7.828-9.301-1.393 0.505-2.792 1.488-3.907 2.361-3.279 2.568-5.835 6.067-7.898 9.649zm41.9-20.365c10.087-10.88 18.566-22.625 26.292-35.282 3.222-5.28 6.626-11.377 7.279-17.685-7.233 4.682-12.598 13.283-16.983 20.307-6.535 10.467-11.845 21.316-16.588 32.66z"/><path d="m76.758 127.16c7.887-12.317 16.202-24.413 25.929-35.373 1.686-1.9 5.431-4.389 7.811-1.597 0.139 0.119 2.986 2.966 3.105 3.106 2.882 2.457-0.116 8.771-0.596 10.559-2.693 10.018-8.45 23.994-6.666 35.258 12.498-13.062 20.986-33.448 29.868-48.318 1.22-2.043 4.416-7.75 7.555-4.006 0.145 0.123 2.992 2.97 3.106 3.107 1.438 1.213 1.216 2.966 0.364 4.407-2.227 3.766-4.476 7.519-6.681 11.297-8.183 14.023-15.162 31.278-26.972 42.811-9.242 9.024-17.237-7.689-17.815-13.73-0.208-2.175-0.179-4.383 0.055-6.556 0.41-3.808 0.998-7.607 1.872-11.336-7.503 11.074-14.995 22.984-22.625 34.086-1.744 2.536-5.809 6.141-8.645 2.853-0.139-0.121-2.986-2.967-3.104-3.104-2.293-1.984-1.106-8.25-0.807-9.665 1.57-7.425 3.469-14.785 5.634-22.058 5.585-18.761 9.224-24.114 13.492-42.688 0.223-0.968 1.17-7.243 0.604-10.214-4.572-0.532-11.878 4.153-13.817 5.384-14.727 9.355-27.599 28.728-29.766 46.027-0.375 2.991-0.634 6.062-0.173 9.04 0.774 4.992 4.98 9.736 3.844 14.657-0.51 2.206-3.605 3.165-5.096 1.327-0.139-0.112-2.985-2.958-3.103-3.103-2.14-1.729-2.677-4.87-3.387-7.529-1.994-7.467-2.58-12.449-1.458-19.998 2.987-20.098 19.099-44.033 37.958-52.496 9.008-4.042 23.461-2.558 24.884 10.149 0.477 4.255-0.105 8.63-1.073 12.801-3.239 13.955-10.015 30.921-14.297 44.902z"/><path d="m101.04 52.402c-1.873-1.589-1.354-4.186 0.222-5.407 5.34-4.135 11.503-5.555 18.171-5.893 18.201-0.226 34.444 11.349 52.723 12.184 2.654 0.121 5.303-0.562 7.876-1.224 2.216-0.571 4.07-4.602 6.61-1.533 0.165 0.137 2.989 2.965 3.104 3.104 2.738 2.265-0.161 5.468-2.047 6.762-4.305 2.955-11.136 3.168-16.073 2.572-15.552-1.876-29.845-10.228-45.284-11.435-6.021-0.471-9.037 0.113-14.323 2.282-2.224 0.913-1.268 2.09-3.537 2.751-1.573 0.458-3.302 0.159-4.336-1.059-0.143-0.12-2.984-2.961-3.106-3.104z"/></g><path d="m52.4 259.2c-1.147 1.147-14.509 1.657-19.368 1.657-4.86 0-18.222-0.51-19.369-1.657-1.146-1.147 15.036-89.96 19.369-89.96 4.332 0 20.515 88.813 19.368 89.96" fill="#1a2e35" fill-rule="nonzero"/><path d="m52.669 236.57c-3.301 1.26-15.531 6.239-18.172 7.691-2e-3 -0.556-6e-3 -1.113-7e-3 -1.669 2.949-1.737 5.91-3.454 8.869-5.176 3.175-1.847 6.584-3.496 9.545-5.673 0.144-0.106 0.064-0.403-0.135-0.32-3.264 1.359-6.295 3.374-9.339 5.16-3.006 1.762-5.979 3.579-8.943 5.41-0.013-4.256-0.026-8.512-0.054-12.769 4.767-1.912 9.554-4.464 13.938-7.084 0.152-0.091 0.05-0.371-0.126-0.298-4.651 1.921-9.485 4.184-13.816 6.81-0.016-2.213-0.024-4.426-0.048-6.639-0.121-11.396-0.144-22.804-0.434-34.202 2.9-1.463 5.886-2.753 8.785-4.224 0.189-0.096 0.056-0.428-0.148-0.349-2.941 1.147-5.774 2.51-8.66 3.778-0.157-5.88-0.381-11.758-0.739-17.629-0.012-0.193-0.296-0.196-0.303-0-0.407 10.916-0.373 21.844-0.236 32.771-3.004-2.399-6.207-4.519-9.264-6.845-0.119-0.09-0.234 0.11-0.117 0.199 3.196 2.432 6.187 5.127 9.392 7.552 8e-3 0.617 0.015 1.234 0.024 1.851-3.258-1.489-6.563-2.874-9.854-4.284-0.258-0.111-0.488 0.259-0.225 0.384 3.353 1.609 6.695 3.247 10.091 4.765 0.077 5.413 0.169 10.824 0.239 16.233 0.124 9.449 0.331 18.897 0.533 28.345-6.148-3.11-12.348-6.141-18.582-9.074-0.237-0.112-0.444 0.223-0.209 0.357 6.082 3.482 12.383 6.642 18.806 9.446 0.167 7.85 0.33 0.703 0.43 8.555 6e-3 0.476 0.746 0.477 0.741-0-0.11-10.013-0.126-5.03-0.153-15.043 3.242-0.801 15.491-6.047 18.401-7.483 0.299-0.148 0.088-0.668-0.23-0.546" fill="#2b454e" fill-rule="nonzero"/><path d="m152.38 259.13c-0.984 0.984-12.451 1.422-16.621 1.422s-15.637-0.438-16.621-1.422 12.903-77.2 16.621-77.2 17.605 76.216 16.621 77.2" fill="#1a2e35" fill-rule="nonzero"/><path d="m152.62 239.71c-2.833 1.081-13.328 5.354-15.594 6.6-2e-3 -0.477-5e-3 -0.955-7e-3 -1.432 2.532-1.49 5.073-2.964 7.611-4.442 2.725-1.585 5.651-3 8.192-4.868 0.124-0.091 0.055-0.346-0.116-0.275-2.801 1.166-5.402 2.896-8.014 4.428-2.58 1.513-5.131 3.071-7.675 4.643-0.011-3.653-0.022-7.305-0.046-10.958 4.091-1.641 8.199-3.83 11.96-6.079 0.131-0.078 0.044-0.318-0.107-0.256-3.991 1.649-8.14 3.591-11.857 5.845-0.013-1.899-0.02-3.799-0.04-5.698-0.105-9.779-0.124-19.57-0.373-29.35 2.489-1.256 5.051-2.363 7.538-3.625 0.163-0.083 0.049-0.368-0.126-0.3-2.524 0.985-4.955 2.154-7.432 3.242-0.134-5.046-0.327-10.09-0.634-15.128-0.01-0.166-0.254-0.168-0.26-0-0.35 9.367-0.32 18.745-0.203 28.122-2.578-2.058-5.326-3.878-7.95-5.874-0.101-0.077-0.2 0.095-0.1 0.171 2.743 2.087 5.309 4.4 8.06 6.481 7e-3 0.529 0.013 1.059 0.02 1.588-2.795-1.277-5.631-2.467-8.456-3.676-0.221-0.095-0.419 0.222-0.193 0.33 2.878 1.38 5.745 2.786 8.659 4.089 0.067 4.644 0.146 9.288 0.206 13.93 0.106 8.109 0.284 16.216 0.457 24.324-5.276-2.669-10.597-5.269-15.945-7.787-0.204-0.096-0.382 0.192-0.18 0.307 5.219 2.988 10.626 5.699 16.138 8.105 0.143 6.737 0.283 1.648 0.369 8.386 5e-3 0.409 0.64 0.41 0.636-0-0.094-8.593-0.108-5.36-0.132-13.953 2.783-0.687 13.295-5.189 15.791-6.422 0.257-0.126 0.076-0.572-0.197-0.468" fill="#2b454e" fill-rule="nonzero"/><path d="m44.073 259.53c0.829 0.829 10.485 1.197 13.997 1.197s13.168-0.368 13.997-1.197c0.828-0.829-10.866-65.012-13.997-65.012s-14.826 64.183-13.997 65.012" fill="#1a2e35" fill-rule="nonzero"/><path d="m43.879 243.17c2.385 0.911 11.224 4.509 13.132 5.558 1e-3 -0.402 4e-3 -0.804 5e-3 -1.206-2.131-1.255-4.271-2.496-6.409-3.74-2.294-1.335-4.759-2.527-6.898-4.1-0.104-0.077-0.047-0.291 0.097-0.232 2.359 0.982 4.549 2.439 6.749 3.729 2.173 1.274 4.321 2.587 6.463 3.91 9e-3 -3.076 0.019-6.152 0.039-9.228-3.445-1.382-6.904-3.226-10.072-5.119-0.11-0.066-0.037-0.268 0.091-0.215 3.361 1.388 6.854 3.023 9.984 4.921 0.011-1.599 0.018-3.198 0.035-4.798 0.087-8.235 0.104-16.48 0.314-24.717-2.096-1.057-4.254-1.989-6.349-3.052-0.137-0.07-0.04-0.31 0.107-0.253 2.125 0.83 4.172 1.814 6.258 2.731 0.113-4.25 0.276-8.497 0.534-12.74 9e-3 -0.14 0.214-0.141 0.219 0 0.295 7.889 0.27 15.786 0.171 23.682 2.171-1.733 4.485-3.266 6.695-4.946 0.085-0.065 0.168 0.079 0.084 0.144-2.31 1.757-4.471 3.705-6.787 5.457-6e-3 0.446-0.011 0.892-0.017 1.338 2.354-1.076 4.742-2.077 7.121-3.096 0.186-0.08 0.353 0.187 0.163 0.278-2.424 1.162-4.839 2.346-7.293 3.443-0.056 3.911-0.122 7.822-0.173 11.731-0.089 6.829-0.239 13.657-0.385 20.484 4.443-2.247 8.924-4.438 13.428-6.558 0.172-0.08 0.321 0.162 0.151 0.259-4.394 2.516-8.948 4.8-13.59 6.826-0.121 5.673-0.238 1.258-0.311 6.932-4e-3 0.344-0.539 0.346-0.535 0 0.079-7.236 0.091-4.384 0.111-11.621-2.344-0.579-11.196-4.37-13.298-5.408-0.217-0.106-0.064-0.482 0.166-0.394" fill="#375a64" fill-rule="nonzero"/><path d="m398.49 259c-1.058 1.059-13.389 1.529-17.874 1.529-4.484 0-16.815-0.47-17.874-1.529-1.058-1.058 13.876-83.019 17.874-83.019s18.933 81.961 17.874 83.019" fill="#1a2e35" fill-rule="nonzero"/><path d="m398.74 238.11c-3.046 1.163-14.333 5.758-16.77 7.098-1e-3 -0.514-5e-3 -1.027-6e-3 -1.541 2.722-1.602 5.454-3.187 8.184-4.776 2.93-1.705 6.077-3.226 8.809-5.235 0.133-0.098 0.06-0.372-0.125-0.296-3.011 1.255-5.808 3.114-8.617 4.762-2.775 1.627-5.518 3.302-8.254 4.993-0.011-3.928-0.023-7.856-0.049-11.784 4.399-1.765 8.816-4.119 12.862-6.537 0.14-0.084 0.046-0.343-0.117-0.275-4.291 1.772-8.753 3.861-12.75 6.284-0.014-2.042-0.021-4.084-0.043-6.126-0.112-10.517-0.133-21.045-0.401-31.563 2.676-1.351 5.432-2.541 8.106-3.898 0.176-0.089 0.053-0.396-0.135-0.323-2.714 1.059-5.329 2.317-7.992 3.487-0.145-5.427-0.352-10.851-0.682-16.269-0.011-0.178-0.273-0.181-0.28-0-0.376 10.074-0.344 20.158-0.218 30.242-2.772-2.213-5.728-4.17-8.549-6.317-0.109-0.083-0.216 0.102-0.108 0.184 2.95 2.244 5.709 4.732 8.668 6.969 7e-3 0.57 0.013 1.139 0.021 1.709-3.006-1.374-6.056-2.653-9.093-3.954-0.238-0.102-0.451 0.239-0.208 0.355 3.095 1.484 6.179 2.997 9.313 4.397 0.071 4.995 0.156 9.989 0.22 14.981 0.114 8.72 0.306 17.438 0.492 26.157-5.674-2.869-11.396-5.667-17.148-8.374-0.219-0.103-0.41 0.206-0.193 0.33 5.612 3.213 11.427 6.129 17.355 8.717 0.154 7.244 0.304 1.772 0.397 9.018 5e-3 0.439 0.688 0.44 0.683-0-0.1-9.241-0.116-5.765-0.141-15.006 2.992-0.739 14.296-5.58 16.982-6.905 0.276-0.137 0.081-0.616-0.213-0.504" fill="#375a64" fill-rule="nonzero"/><path d="m347.48 259c-1.058 1.059-13.389 1.529-17.874 1.529s-16.815-0.47-17.874-1.529c-1.058-1.058 13.876-83.019 17.874-83.019s18.933 81.961 17.874 83.019" fill="#1a2e35" fill-rule="nonzero"/><path d="m347.73 238.11c-3.046 1.163-14.332 5.758-16.77 7.098-1e-3 -0.514-5e-3 -1.027-6e-3 -1.541 2.722-1.602 5.454-3.187 8.184-4.776 2.93-1.705 6.077-3.226 8.809-5.235 0.134-0.098 0.059-0.372-0.124-0.296-3.012 1.255-5.809 3.114-8.618 4.762-2.775 1.627-5.518 3.302-8.254 4.993-0.012-3.928-0.023-7.856-0.05-11.784 4.4-1.765 8.817-4.119 12.862-6.537 0.141-0.084 0.047-0.343-0.116-0.275-4.291 1.772-8.753 3.861-12.749 6.284-0.015-2.042-0.022-4.084-0.044-6.126-0.113-10.517-0.133-21.045-0.401-31.563 2.676-1.351 5.432-2.541 8.106-3.898 0.176-0.089 0.053-0.396-0.135-0.323-2.714 1.059-5.329 2.317-7.992 3.487-0.145-5.427-0.352-10.851-0.683-16.269-0.011-0.178-0.272-0.181-0.279-0-0.376 10.074-0.345 20.158-0.218 30.242-2.772-2.213-5.728-4.17-8.549-6.317-0.109-0.083-0.216 0.102-0.108 0.184 2.95 2.244 5.71 4.732 8.668 6.969 7e-3 0.57 0.013 1.139 0.021 1.709-3.006-1.374-6.056-2.653-9.093-3.954-0.238-0.102-0.451 0.239-0.208 0.355 3.095 1.484 6.179 2.997 9.313 4.397 0.071 4.995 0.156 9.989 0.221 14.981 0.113 8.72 0.305 17.438 0.491 26.157-5.674-2.869-11.396-5.667-17.148-8.374-0.219-0.103-0.409 0.206-0.193 0.33 5.612 3.213 11.428 6.129 17.355 8.717 0.154 7.244 0.304 1.772 0.397 9.018 5e-3 0.439 0.688 0.44 0.683-0-0.1-9.241-0.116-5.765-0.141-15.006 2.993-0.739 14.296-5.58 16.982-6.905 0.276-0.137 0.081-0.616-0.213-0.504" fill="#375a64" fill-rule="nonzero"/><path d="m340.91 259.79c0.74 0.739 9.357 1.068 12.492 1.068 3.134-0 11.752-0.329 12.492-1.068 0.739-0.74-9.698-58.021-12.492-58.021s-13.232 57.281-12.492 58.021" fill="#1a2e35" fill-rule="nonzero"/><path d="m340.73 245.19c2.129 0.813 10.017 4.024 11.721 4.961 0-0.359 3e-3 -0.718 4e-3 -1.077-1.903-1.12-3.812-2.228-5.72-3.338-2.048-1.192-4.247-2.255-6.157-3.659-0.093-0.069-0.041-0.26 0.087-0.207 2.105 0.877 4.06 2.177 6.023 3.328 1.939 1.137 3.857 2.308 5.769 3.49 8e-3 -2.745 0.016-5.49 0.035-8.236-3.075-1.233-6.162-2.879-8.99-4.569-0.098-0.058-0.032-0.239 0.081-0.192 3 1.239 6.118 2.699 8.911 4.393 0.01-1.428 0.015-2.855 0.031-4.282 0.078-7.35 0.093-14.709 0.28-22.06-1.87-0.943-3.796-1.775-5.666-2.724-0.122-0.062-0.036-0.276 0.095-0.225 1.897 0.74 3.724 1.619 5.586 2.437 0.101-3.793 0.245-7.584 0.476-11.37 8e-3 -0.125 0.191-0.126 0.196-0 0.263 7.04 0.241 14.088 0.152 21.135 1.938-1.546 4.003-2.914 5.975-4.414 0.076-0.058 0.151 0.071 0.075 0.128-2.061 1.569-3.99 3.307-6.057 4.871l-0.015 1.194c2.1-0.96 4.232-1.854 6.355-2.764 0.166-0.071 0.315 0.168 0.145 0.249-2.163 1.037-4.318 2.094-6.508 3.073-0.05 3.491-0.109 6.981-0.155 10.47-0.079 6.094-0.213 12.187-0.343 18.281 3.965-2.006 7.964-3.961 11.984-5.853 0.153-0.072 0.287 0.144 0.135 0.231-3.922 2.245-7.987 4.283-12.129 6.092-0.108 5.063-0.212 1.008-0.277 6.071-4e-3 0.308-0.481 0.309-0.478-0 0.07-6.458 0.081-3.797 0.099-10.256-2.092-0.516-9.992-3.899-11.868-4.826-0.193-0.095-0.057-0.43 0.148-0.352" fill="#2b454e" fill-rule="nonzero"/><path d="m101.24 259.67c0.74 0.74 9.357 1.068 12.492 1.068 3.134 0 11.752-0.328 12.492-1.068 0.739-0.74-9.698-58.021-12.492-58.021s-13.232 57.281-12.492 58.021" fill="#1a2e35" fill-rule="nonzero"/><path d="m101.07 245.08c2.129 0.813 10.017 4.024 11.72 4.961 1e-3 -0.359 4e-3 -0.718 5e-3 -1.077-1.903-1.12-3.812-2.228-5.72-3.338-2.048-1.191-4.247-2.255-6.157-3.659-0.093-0.069-0.041-0.26 0.088-0.207 2.104 0.877 4.059 2.177 6.022 3.328 1.939 1.137 3.857 2.308 5.768 3.49 9e-3 -2.745 0.017-5.49 0.035-8.236-3.074-1.233-6.161-2.879-8.989-4.568-0.098-0.059-0.033-0.24 0.081-0.193 3 1.239 6.118 2.699 8.911 4.393 0.01-1.428 0.015-2.855 0.031-4.282 0.078-7.35 0.093-14.709 0.28-22.06-1.87-0.943-3.797-1.775-5.666-2.724-0.122-0.062-0.036-0.276 0.095-0.225 1.897 0.74 3.724 1.619 5.585 2.437 0.102-3.793 0.246-7.584 0.477-11.37 8e-3 -0.125 0.191-0.126 0.196 0 0.263 7.04 0.241 14.088 0.152 21.135 1.938-1.546 4.003-2.914 5.975-4.414 0.076-0.058 0.151 0.071 0.075 0.128-2.061 1.569-3.99 3.307-6.057 4.871l-0.015 1.194c2.1-0.96 4.232-1.854 6.355-2.764 0.166-0.071 0.315 0.168 0.145 0.249-2.163 1.037-4.318 2.094-6.508 3.073-0.05 3.491-0.109 6.981-0.155 10.47-0.079 6.094-0.213 12.187-0.343 18.281 3.965-2.006 7.964-3.961 11.984-5.853 0.153-0.072 0.287 0.144 0.135 0.231-3.922 2.245-7.987 4.283-12.129 6.092-0.108 5.063-0.212 1.123-0.277 6.187-4e-3 0.307-0.481 0.308-0.478 0 0.07-6.458 0.081-3.913 0.099-10.372-2.092-0.516-9.992-3.899-11.868-4.826-0.193-0.095-0.057-0.43 0.148-0.352" fill="#2b454e" fill-rule="nonzero"/><path d="m175.44 259.56c0.74 0.739 9.357 1.068 12.492 1.068 3.134 0 11.752-0.329 12.492-1.068 0.739-0.74-9.698-58.021-12.492-58.021s-13.232 57.281-12.492 58.021" fill="#1a2e35" fill-rule="nonzero"/><path d="m175.26 244.96c2.129 0.813 10.017 4.024 11.72 4.961 1e-3 -0.359 4e-3 -0.718 5e-3 -1.077-1.903-1.12-3.812-2.227-5.72-3.338-2.048-1.191-4.247-2.255-6.157-3.659-0.093-0.068-0.041-0.26 0.087-0.207 2.105 0.877 4.06 2.177 6.023 3.328 1.94 1.137 3.857 2.308 5.769 3.49 8e-3 -2.745 0.016-5.49 0.035-8.236-3.075-1.233-6.163-2.879-8.99-4.568-0.098-0.059-0.032-0.24 0.081-0.193 3 1.239 6.118 2.699 8.911 4.393 0.01-1.427 0.016-2.855 0.031-4.282 0.078-7.35 0.093-14.709 0.28-22.06-1.87-0.943-3.796-1.775-5.666-2.724-0.122-0.062-0.036-0.276 0.095-0.225 1.897 0.74 3.724 1.619 5.585 2.437 0.101-3.793 0.246-7.584 0.477-11.37 8e-3 -0.125 0.191-0.126 0.196 0 0.263 7.04 0.241 14.088 0.152 21.135 1.938-1.546 4.003-2.914 5.975-4.414 0.076-0.058 0.151 0.071 0.075 0.128-2.061 1.569-3.99 3.307-6.057 4.871l-0.015 1.194c2.101-0.96 4.232-1.854 6.355-2.764 0.166-0.071 0.315 0.168 0.145 0.249-2.163 1.037-4.318 2.094-6.508 3.073-0.05 3.491-0.109 6.981-0.155 10.47-0.079 6.094-0.213 12.188-0.343 18.281 3.965-2.006 7.964-3.961 11.984-5.853 0.153-0.072 0.286 0.144 0.135 0.231-3.922 2.246-7.987 4.283-12.129 6.092-0.108 5.063-0.212 1.239-0.277 6.302-4e-3 0.308-0.481 0.308-0.478 0 0.07-6.458 0.081-4.028 0.099-10.487-2.092-0.516-9.992-3.899-11.868-4.826-0.193-0.095-0.057-0.43 0.148-0.352" fill="#2b454e" fill-rule="nonzero"/><path d="m408.8 259.56c0.74 0.739 9.357 1.068 12.492 1.068 3.134 0 11.752-0.329 12.492-1.068 0.739-0.74-9.698-58.021-12.492-58.021s-13.232 57.281-12.492 58.021" fill="#1a2e35" fill-rule="nonzero"/><path d="m408.63 244.96c2.129 0.813 10.017 4.024 11.72 4.961 1e-3 -0.359 4e-3 -0.718 5e-3 -1.077-1.903-1.12-3.812-2.227-5.72-3.338-2.048-1.191-4.247-2.255-6.157-3.659-0.093-0.068-0.041-0.26 0.087-0.207 2.105 0.877 4.06 2.177 6.023 3.328 1.939 1.137 3.857 2.308 5.768 3.49 9e-3 -2.745 0.017-5.49 0.035-8.236-3.074-1.233-6.162-2.879-8.989-4.568-0.098-0.059-0.033-0.24 0.081-0.193 3 1.239 6.118 2.699 8.911 4.393 0.01-1.427 0.016-2.855 0.031-4.282 0.078-7.35 0.093-14.709 0.28-22.06-1.87-0.943-3.796-1.775-5.666-2.724-0.122-0.062-0.036-0.276 0.095-0.225 1.897 0.74 3.724 1.619 5.586 2.437 0.1-3.793 0.245-7.584 0.476-11.37 8e-3 -0.125 0.191-0.126 0.196 0 0.262 7.04 0.241 14.088 0.152 21.135 1.938-1.546 4.003-2.914 5.975-4.414 0.076-0.058 0.151 0.071 0.075 0.128-2.061 1.569-3.99 3.307-6.057 4.871l-0.015 1.194c2.101-0.96 4.232-1.854 6.355-2.764 0.166-0.071 0.315 0.168 0.145 0.249-2.163 1.037-4.318 2.094-6.508 3.073-0.05 3.491-0.109 6.981-0.155 10.47-0.079 6.094-0.213 12.188-0.343 18.281 3.965-2.006 7.964-3.961 11.984-5.853 0.153-0.072 0.287 0.144 0.135 0.231-3.922 2.246-7.986 4.283-12.129 6.092-0.108 5.063-0.212 1.239-0.277 6.302-4e-3 0.308-0.481 0.308-0.478 0 0.07-6.458 0.081-4.028 0.099-10.487-2.092-0.516-9.992-3.899-11.868-4.826-0.193-0.095-0.057-0.43 0.148-0.352" fill="#2b454e" fill-rule="nonzero"/><rect x="314.46" y="255.44" width="1.484" height="4.166" fill="#1a2e35"/><rect x="242.86" y="255.44" width="1.484" height="4.166" fill="#1a2e35"/><path d="m242.86 259.6 20.895-31.077 21.449 31.077h-42.344z" fill="#f6b500" fill-rule="nonzero"/><path d="m263.75 228.53h30.639l21.291 31.077h-30.481l-21.449-31.077z" fill="#ffc800" fill-rule="nonzero"/><path d="m276.81 234.18h14.004l4.26 6.217h-13.973l-4.291-6.217z" fill="#fff" fill-rule="nonzero"/><path d="m256.88 259.6h13.178l-6.312-31.077-6.866 31.077z" fill="#ad7f00" fill-rule="nonzero"/><rect x="284.46" y="255.44" width="1.484" height="4.166" fill="#1a2e35"/><path d="m263.75 228.53c-5.061 10.095-10.926 21.194-16.404 31.077 5.07-10.101 10.923-21.201 16.404-31.077" fill="#fff" fill-rule="nonzero"/><path d="m263.75 228.53c5.429 9.82 11.227 20.863 16.245 30.907-5.429-9.83-11.235-20.865-16.245-30.907" fill="#fff" fill-rule="nonzero"/><path d="m256.88 259.6s-0.95-4.404-5.501-8.282l12.367-22.795-6.866 31.077z" fill="#ffc800" fill-rule="nonzero"/><path d="m270.06 259.6-6.312-31.077 12.881 23.982s-5.699 0.733-6.569 7.095" fill="#ffc800" fill-rule="nonzero"/><path d="m230.75 259.39c-1.083 0.146-5.813 0.753-6.506 0.347-0.783-0.46-0.431-2.35-0.041-2.601 0.318-0.204 4.695 0.389 6.294 0.615 1.307-0.172 6.23-0.801 6.566-0.581 0.386 0.255 0.717 2.149-0.071 2.601-0.65 0.372-4.813-0.178-6.242-0.381z" fill="#7d5700"/><path d="m224.23 257.2c0.197-0.044 0.513 0.605 0.44 1.328-0.069 0.688-0.327 1.147-0.434 1.132-0.108-0.014-0.471-0.415-0.41-1.302 0.044-0.645 0.24-1.121 0.404-1.158" fill="#5c3b24" fill-rule="nonzero"/><path d="m237.03 257.24c-0.196-0.046-0.519 0.599-0.454 1.323 0.061 0.689 0.314 1.15 0.422 1.137 0.107-0.013 0.474-0.41 0.424-1.297-0.037-0.646-0.228-1.124-0.392-1.163" fill="#5c3b24" fill-rule="nonzero"/><g serif:id="Wood Texture"><path d="m224.91 257.39c0.373-0.026 0.746-0.032 1.12-0.013 0.187 7e-3 0.373 0.025 0.561 0.048 0.094 0.013 0.187 0.029 0.283 0.053 0.1 0.026 0.171 0.045 0.265 0.061 0.357 0.062 0.728 0.087 1.097 0.12 0.369 0.027 0.74 0.059 1.112 0.094-0.372 0.035-0.745 0.05-1.119 0.046-0.373-5e-3 -0.746-0.021-1.122-0.084-0.091-0.015-0.198-0.046-0.278-0.067-0.084-0.024-0.174-0.039-0.264-0.055-0.18-0.033-0.363-0.053-0.547-0.077l-1.108-0.126z" fill-opacity=".23"/><path d="m225.65 257.73c0.264 0.038 0.526 0.082 0.785 0.132 0.259 0.046 0.518 0.103 0.774 0.136 0.248 0.035 0.512 0.015 0.775 0.01 0.263-0.011 0.528-0.018 0.795-0.02-0.258 0.071-0.519 0.125-0.783 0.16-0.265 0.033-0.532 0.062-0.811 0.028-0.269-0.039-0.527-0.104-0.783-0.178-0.255-0.074-0.506-0.163-0.752-0.268z" fill-opacity=".23"/><path d="m230.99 258.97c-0.247 0.134-0.521 0.225-0.805 0.259-0.143 0.019-0.288 0.02-0.433 8e-3 -0.146-0.016-0.291-0.056-0.424-0.103-0.271-0.097-0.518-0.241-0.758-0.369-0.241-0.128-0.497-0.221-0.775-0.271 0.28-0.021 0.572 0.031 0.833 0.143 0.264 0.11 0.504 0.24 0.761 0.329 0.252 0.099 0.512 0.133 0.785 0.125 0.27-0.011 0.545-0.052 0.816-0.12z" fill-opacity=".23"/><path d="m224.67 259.52c0.335 1e-3 0.668 4e-3 0.999 0.01 0.33-0 0.668 0.011 0.979-0.036 0.332-0.07 0.678-0.068 1.01-0.053 0.335 0.015 0.668 0.052 0.998 0.109l-0.999 0.031c-0.333 0.014-0.658 0.019-0.979 0.09-0.348 0.048-0.681 0.026-1.016-1e-3 -0.333-0.03-0.665-0.08-0.992-0.15z" fill-opacity=".23"/><path d="m229.17 259.31c-0.277-0.068-0.551-0.142-0.829-0.198-0.138-0.03-0.276-0.059-0.414-0.078-0.141-0.023-0.264-0.021-0.405 9e-3 -0.275 0.054-0.554 0.114-0.836 0.164-0.142 0.024-0.285 0.042-0.431 0.054-0.145 0.011-0.294 0.017-0.451-0.017-0.141-0.033-0.28-0.073-0.419-0.125-0.136-0.056-0.278-0.109-0.398-0.241-0.028-0.035-0.057-0.077-0.066-0.131-0.013-0.052-0-0.109 0.019-0.153 0.053-0.103 0.14-0.136 0.211-0.168 0.148-0.053 0.295-0.068 0.442-0.074 0.146-5e-3 0.292 1e-3 0.436 0.022 0.144 0.025 0.291 0.048 0.424 0.142 0.031 0.024 0.069 0.051 0.076 0.116-7e-3 0.072-0.062 0.09-0.094 0.105-0.073 0.028-0.144 0.037-0.216 0.046-0.143 0.015-0.286 0.016-0.428 0.01 0.141-0.013 0.283-0.03 0.421-0.057 0.121-0.026 0.337-0.085 0.189-0.149-0.105-0.065-0.249-0.087-0.385-0.1-0.137-0.012-0.277-0.01-0.414 3e-3 -0.137 0.014-0.275 0.037-0.394 0.083-0.056 0.024-0.107 0.057-0.118 0.086-0.015 0.041-8e-3 0.068 0.027 0.109 0.073 0.08 0.204 0.14 0.33 0.187 0.128 0.046 0.262 0.083 0.398 0.114 0.249 0.052 0.539 6e-3 0.814-0.03 0.28-0.038 0.557-0.097 0.843-0.132 0.072-8e-3 0.145-0.017 0.222-0.014 0.079 2e-3 0.149 0.016 0.221 0.029 0.142 0.029 0.281 0.065 0.418 0.105 0.273 0.086 0.543 0.176 0.807 0.283z" fill-opacity=".23"/><path d="m227.34 258.51c-0.382-0.064-0.747-0.165-1.112-0.264l-0.546-0.148c-0.183-0.043-0.362-0.094-0.555-0.097 0.184-0.072 0.39-0.059 0.58-0.041 0.194 0.022 0.382 0.065 0.568 0.113 0.37 0.106 0.731 0.24 1.065 0.437z" fill-opacity=".23"/><path d="m230.71 259.15 0.819 0.039c0.185 7e-3 0.37 0.017 0.552 0.016 0.092-1e-3 0.183-1e-3 0.27-0.01 0.083-8e-3 0.193-0.021 0.285-0.021 0.382 2e-3 0.752 0.048 1.121 0.106s0.734 0.135 1.095 0.231c-0.372-0.027-0.743-0.058-1.112-0.092-0.369-0.029-0.74-0.067-1.102-0.065-0.094-1e-3 -0.169 7e-3 -0.271 0.015-0.098 8e-3 -0.193 9e-3 -0.288 5e-3 -0.189-8e-3 -0.376-0.022-0.561-0.046-0.372-0.044-0.445-0.09-0.808-0.178z" fill-opacity=".24"/><path d="m231.09 259.11c0.253-0.085 0.51-0.154 0.771-0.208 0.261-0.055 0.523-0.099 0.795-0.116 0.28-0.013 0.544 0.037 0.805 0.091 0.261 0.055 0.517 0.129 0.768 0.22-0.266-0.023-0.529-0.05-0.791-0.082-0.261-0.026-0.523-0.066-0.773-0.05-0.257 0.013-0.52 0.049-0.782 0.075-0.262 0.03-0.527 0.053-0.793 0.07z" fill-opacity=".24"/><path d="m236.33 258.82-1e-3 -2e-3c-5e-3 -0.01-0.017-0.03-0.031-0.046-0.113-0.139-0.286-0.254-0.461-0.303-0.089-0.025-0.18-0.032-0.267-0.013-0.095 0.021-0.193 0.048-0.283 0.083-0.086 0.034-0.184 0.087-0.212 0.145-0.013 0.023-7e-3 0.036 0.03 0.062 0.036 0.023 0.083 0.04 0.13 0.055 0.187 0.056 0.401 0.097 0.593 0.021-0.085 0.061-0.195 0.08-0.299 0.086-0.105 6e-3 -0.211-2e-3 -0.317-0.021-0.052-0.012-0.104-0.027-0.158-0.054-0.026-0.012-0.058-0.035-0.078-0.07-0.022-0.036-0.021-0.086-8e-3 -0.12 0.062-0.133 0.168-0.176 0.263-0.23 0.098-0.048 0.198-0.084 0.303-0.11 0.114-0.031 0.234-0.026 0.345 1e-3 0.222 0.06 0.41 0.181 0.56 0.358 0.019 0.023 0.036 0.047 0.053 0.083 4e-3 0.01 7e-3 0.017 0.011 0.028 4e-3 0.016 6e-3 0.033 7e-3 0.05-2e-3 0.027-0.01 0.05-0.017 0.066-0.031 0.069-0.072 0.112-0.115 0.153-0.088 0.08-0.191 0.133-0.296 0.169-0.212 0.071-0.432 0.083-0.645 0.056-0.427-0.057-0.813-0.256-1.13-0.52 0.179 0.103 0.364 0.192 0.557 0.257 0.191 0.067 0.388 0.118 0.585 0.125s0.398-7e-3 0.575-0.077c0.087-0.034 0.171-0.078 0.235-0.139 0.031-0.029 0.06-0.065 0.07-0.091 0-1e-3 1e-3 -2e-3 1e-3 -2e-3z" fill-opacity=".24"/><path d="m236.51 258.29c-0.265-0.09-0.535-0.152-0.804-0.183-0.272-0.03-0.534-0.016-0.793 0.063-0.262 0.068-0.512 0.18-0.783 0.267-0.27 0.092-0.565 0.121-0.842 0.078 0.28-0.028 0.543-0.101 0.793-0.209 0.25-0.11 0.507-0.233 0.784-0.309 0.137-0.036 0.285-0.065 0.431-0.07 0.146-0 0.291 0.012 0.431 0.042 0.282 0.058 0.547 0.168 0.783 0.322z" fill-opacity=".24"/><path d="m232.62 257.67c0.327-0.071 0.658-0.122 0.992-0.153 0.334-0.029 0.667-0.053 1.016-5e-3 0.32 0.069 0.646 0.073 0.979 0.085l0.999 0.028c-0.33 0.058-0.663 0.097-0.998 0.113-0.331 0.016-0.678 0.02-1.01-0.05-0.311-0.045-0.649-0.033-0.979-0.032-0.331 7e-3 -0.664 0.012-0.999 0.014z" fill-opacity=".24"/><path d="m232.84 258.47c-0.349 0.171-0.719 0.276-1.096 0.352-0.189 0.034-0.38 0.062-0.574 0.069-0.192 3e-3 -0.28 0.01-0.458-0.076 0.193 0.012 0.257-0.035 0.443-0.064l0.556-0.105c0.371-0.069 0.743-0.142 1.129-0.176z" fill-opacity=".24"/><path d="m234.57 259.17c0.295 0.095 0.574 0.19 0.861 0.256 0.142 0.037 0.286 0.058 0.432 0.08 0.147 0.021 0.294 0.025 0.451 0.036-0.142 0.062-0.299 0.1-0.456 0.104-0.158 7e-3 -0.316-9e-3 -0.469-0.046-0.152-0.038-0.3-0.09-0.439-0.162-0.138-0.071-0.27-0.157-0.38-0.268z" fill-opacity=".24"/><path d="m230.43 258.12c-0.136-0.043-0.284-0.062-0.43-0.068-0.198-8e-3 -0.398 0.027-0.594 0.079-0.197 0.05-0.388 0.124-0.575 0.213 0.337-0.239 0.737-0.406 1.167-0.43 0.16-9e-3 0.324 6e-3 0.482 0.05 0.012-0.016 0.025-0.032 0.035-0.048 0.083-0.124 0.579-0.217 0.798-0.232 0.444-0.032 1.39 0.077 1.742 0.265 0.142 0.076 0.26 0.053 0.403 0.042 0.139-9e-3 0.279-0.027 0.419-0.046 0.281-0.035 0.561-0.087 0.842-0.133-0.272 0.086-0.548 0.155-0.827 0.219-0.14 0.029-0.28 0.054-0.424 0.072-0.073 8e-3 -0.145 0.016-0.223 0.012-0.078-3e-3 -0.15-0.018-0.22-0.032-0.283-0.057-0.555-0.137-0.83-0.197-0.272-0.057-0.557-0.125-0.81-0.094-0.137 0.021-0.274 0.047-0.406 0.083-0.121 0.035-0.25 0.082-0.33 0.15 0.097 0.043 0.191 0.103 0.269 0.187 0.033 0.035 0.063 0.071 0.087 0.12 0.031 7e-3 0.062 0.014 0.092 0.019 0.136 0.024 0.275 0.037 0.414 0.035 0.135-2e-3 0.281-0.012 0.391-0.069 0.152-0.053-0.058-0.128-0.177-0.163-0.136-0.038-0.275-0.066-0.415-0.09 0.142 5e-3 0.284 0.017 0.426 0.043 0.071 0.015 0.141 0.029 0.212 0.063 0.03 0.017 0.084 0.04 0.085 0.112-0.012 0.064-0.052 0.088-0.084 0.109-0.14 0.084-0.289 0.096-0.434 0.109-0.146 9e-3 -0.292 4e-3 -0.437-0.012-0.017-2e-3 -0.035-4e-3 -0.053-7e-3 -0 3e-3 -1e-3 5e-3 -2e-3 8e-3 -5e-3 0.011-9e-3 0.018-0.014 0.028-0.02 0.034-0.039 0.056-0.059 0.078-0.163 0.165-0.361 0.271-0.587 0.313-0.112 0.018-0.232 0.014-0.344-0.025-0.102-0.035-0.199-0.078-0.293-0.134-0.09-0.061-0.193-0.113-0.244-0.25-0.011-0.034-8e-3 -0.084 0.017-0.118 0.023-0.034 0.057-0.055 0.083-0.065 0.056-0.023 0.109-0.033 0.162-0.041 0.107-0.011 0.213-0.01 0.318 4e-3 0.103 0.014 0.211 0.041 0.291 0.109-0.186-0.091-0.402-0.067-0.593-0.026-0.047 0.012-0.096 0.026-0.134 0.045-0.039 0.023-0.045 0.036-0.035 0.06 0.024 0.06 0.118 0.12 0.201 0.161 0.087 0.042 0.182 0.076 0.275 0.105 0.085 0.026 0.177 0.026 0.267 8e-3 0.178-0.036 0.36-0.137 0.484-0.267 9e-3 -9e-3 0.017-0.019 0.023-0.027-0.066-0.016-0.132-0.038-0.198-0.067-0.068-0.038-0.153-0.077-0.197-0.184-8e-3 -0.023-0.014-0.049-0.016-0.076zm0.19 0.041s0.018 0.041 0.059 0.073c0.041 0.031 0.116 0.057 0.116 0.057s-0.018-0.031-0.059-0.063-0.116-0.067-0.116-0.067z" fill-opacity=".23"/></g><g fill-rule="nonzero"><path d="m240.98 247.27c-0 5.871-4.759 10.63-10.63 10.63s-10.631-4.759-10.631-10.63 4.76-10.63 10.631-10.63 10.63 4.759 10.63 10.63" fill="#ffc800" fill-opacity=".2"/><path d="m238.51 249.69c0 4.509-3.655 8.164-8.164 8.164-4.508-0-8.163-3.655-8.163-8.164s3.655-8.164 8.163-8.164c4.509-0 8.164 3.655 8.164 8.164" fill="#ffc800" fill-opacity=".2"/><path d="m235.59 244.03c-0 0.111 0.09 0.201 0.201 0.201s0.201-0.09 0.201-0.201-0.09-0.201-0.201-0.201-0.201 0.09-0.201 0.201" fill="#ffc800"/><path d="m233.43 235.38c0 0.111 0.09 0.201 0.201 0.201s0.201-0.09 0.201-0.201-0.09-0.201-0.201-0.201-0.201 0.09-0.201 0.201" fill="#ffc800"/><path d="m225.74 242.71c0.088 0.068 0.214 0.051 0.282-0.037s0.051-0.214-0.037-0.281c-0.088-0.068-0.214-0.052-0.282 0.036-0.067 0.088-0.051 0.214 0.037 0.282" fill="#ffc800"/><path d="m223.93 255.01c0 0.111 0.09 0.201 0.201 0.201s0.201-0.09 0.201-0.201-0.09-0.201-0.201-0.201-0.201 0.09-0.201 0.201" fill="#ffc800"/><path d="m236.52 253.64c-0 0.111 0.09 0.201 0.201 0.201s0.201-0.09 0.201-0.201-0.09-0.201-0.201-0.201-0.201 0.09-0.201 0.201" fill="#ffc800"/><path d="m235.32 245.34c0 0.15 0.122 0.272 0.272 0.272 0.151-0 0.272-0.122 0.272-0.272s-0.121-0.272-0.272-0.272c-0.15-0-0.272 0.122-0.272 0.272" fill="#ffc800"/><path d="m226.83 240.46c0.119 0.092 0.29 0.07 0.382-0.05 0.092-0.119 0.069-0.29-0.05-0.381-0.119-0.092-0.29-0.07-0.382 0.049-0.091 0.119-0.069 0.29 0.05 0.382" fill="#ffc800"/><path d="m224.45 250.54c-0 0.15 0.122 0.272 0.272 0.272 0.151 0 0.273-0.122 0.273-0.272s-0.122-0.272-0.273-0.272c-0.15 0-0.272 0.122-0.272 0.272" fill="#ffc800"/><path d="m234.88 244.95c-0 0.065 0.053 0.118 0.118 0.118s0.118-0.053 0.118-0.118-0.053-0.118-0.118-0.118-0.118 0.053-0.118 0.118" fill="#ffc800"/><path d="m235.89 248.77c-0 0.065 0.053 0.118 0.118 0.118s0.118-0.053 0.118-0.118-0.053-0.118-0.118-0.118-0.118 0.053-0.118 0.118" fill="#ffc800"/><path d="m237.43 252.56c0 0.065 0.053 0.118 0.118 0.118s0.118-0.053 0.118-0.118-0.053-0.118-0.118-0.118-0.118 0.053-0.118 0.118" fill="#ffc800"/><path d="m224.06 249.69c-0 0.065 0.053 0.118 0.118 0.118s0.118-0.053 0.118-0.118-0.053-0.118-0.118-0.118-0.118 0.053-0.118 0.118" fill="#ffc800"/><path d="m236.48 241.22c-0 0.065 0.053 0.118 0.118 0.118s0.118-0.053 0.118-0.118-0.053-0.118-0.118-0.118-0.118 0.053-0.118 0.118" fill="#ffc800"/><path d="m231.05 240.12c0 0.065 0.053 0.118 0.118 0.118s0.118-0.053 0.118-0.118-0.053-0.118-0.118-0.118-0.118 0.053-0.118 0.118" fill="#ffc800"/><path d="m230.16 238.34c0 0.065 0.053 0.118 0.118 0.118s0.118-0.053 0.118-0.118-0.053-0.118-0.118-0.118-0.118 0.053-0.118 0.118" fill="#ffc800"/><path d="m227.83 255.03c-0.027 0.05-0.397 0.737-0.415 1.083-0.02 0.361 0.189 0.81 0.341 1.044 0.151 0.233 0.316 0.84 0.316 0.84s-0.841-0.392-0.985-1.011c-0.142-0.601 0.695-1.883 0.743-1.956m5.292 3.15s0.486-0.417 0.726-0.638c0.241-0.221 0.955-0.537 1.084-0.752s0.333-1.246 0.333-1.246 0.182 1.044 0.094 1.379c-0.089 0.334-0.91 1.074-1.175 1.213-0.266 0.139-1.062 0.044-1.062 0.044m1.674-2.775c-0.029 0.368-0.429 1.176-0.467 1.208-0 0 0.088-0.594 0.094-0.828 7e-3 -0.234-0.132-0.443-0.264-0.91-0.134-0.468 0.296-1.068 0.296-1.068s0.38 1.118 0.341 1.598m-8.582 2.712c0.841 0.531 3.866 0.922 3.866 0.922l0.792 0.013s1.978-0.473 2.263-0.569c0.284-0.095 0.966 0.208 1.279 0 0.312-0.208 1.816-1.571 1.918-1.971 0.101-0.399-0.509-1.84-0.526-2.124s0.399-2.009 0.438-2.578c0.038-0.569-1.65-3.39-1.802-3.847-0.151-0.458 0.49-2.126 0.49-2.126s-1.395 1.461-1.349 1.802c0.044 0.341 0.679 1.136 0.712 1.384 0.034 0.246-0.863 2.009-0.832 2.255 0.032 0.247 0.435 1.062 0.395 1.422-0 0-0.207-0.833-0.637-1.099-0.429-0.266-0.864-0.474-1.053-0.644-0.19-0.171-0.695-1.613-0.651-1.782 0.044-0.171 0.442-0.623 0.385-1.212-0.057-0.59-1.317-2.619-1.317-2.619s0.22 1.119-0 1.385c-0.219 0.264-1.015 0.682-1.091 0.89-0.076 0.209 0.72 1.119 0.626 1.347-0.095 0.227-1.889 0.587-2.072 0.834-0.185 0.246-0.678 2.124-0.544 2.483 0.132 0.36 0.568 1.725 0.321 1.991-0.246 0.266-0.777 0.38-0.796 0.266s0.323-0.967 0.19-1.498c-0.132-0.531-0.701-1.687-0.739-1.972-0.039-0.284 0.346-1.719 0.505-2.054 0.158-0.335-1.099 1.77-1.169 2.326-0.069 0.556 0.361 2.357 0.309 2.395-0.05 0.038-0.255-0.177-0.317-0.291-0.061-0.114-0-1.042-0-1.042s-0.719 0.84-0.801 1.206c-0.083 0.368 0.335 1.265 0.272 1.568-0.064 0.304-0.385 1.005-0.424 1.41-0.038 0.403 1.057 1.337 1.359 1.529" fill="#ffc800"/><path d="m233.51 246.19s0.87-0.619 0.896-1.087c0.027-0.468-0.544-1.441-0.486-1.82s0.25-0.733 0.25-0.733-0.922 0.632-0.917 1.15c4e-3 0.518 0.548 1.34 0.497 1.593-0.05 0.252-0.24 0.897-0.24 0.897" fill="#ffc800"/><path d="m228.32 249.04s0.202-0.616 0.174-0.859c-0.029-0.244-0.319-0.566-0.319-0.566s-0.231 0.243-0.117 0.638 0.262 0.787 0.262 0.787" fill="#ffc800"/><path d="m226.16 248.93c0.052-0.057 0.431-0.722 0.498-1.321 0.066-0.599-0.252-1.352-0.361-1.547-0.109-0.194-0.568-0.455-0.568-0.455s0.313 0.493 0.322 0.716-0.157 0.915-0.18 1.185c-0.024 0.27 0.289 1.422 0.289 1.422" fill="#ffc800"/><path d="m231.81 245.34s0.654-0.891 0.531-1.469c-0.123-0.579-0.63-1.332-0.825-1.527-0.194-0.194-0.673-0.654-0.872-0.967-0.199-0.312-0.209-1.45-0-1.734 0.209-0.285 0.569-0.459 0.569-0.459s-0.891-0.044-1.46 0.752c-0.569 0.797-1.299 3.887-0.958 4.589 0.342 0.701 1.299 1.393 1.299 1.393s-0.256-1.223-0.17-1.526c0.085-0.303 0.995-1e-3 1.222 0.184 0.228 0.186 0.664 0.764 0.664 0.764" fill="#ffc800"/><path d="m233.32 249.71s0.402-0.417 0.316-0.777c-0.085-0.361-0.597-0.901-0.625-1.072-0.029-0.17 0.118-0.864 0.118-0.864s-0.516 0.978-0.403 1.281c0.114 0.304 0.219 0.759 0.219 0.759s-0.228-0.152-0.275-0.275c-0.048-0.123-0.095-0.332-0.095-0.332s-0.389 0.484-0.266 0.825 0.797 0.995 0.797 0.995-0.019-0.199-0.01-0.313c0.01-0.113 0.082-0.048 0.224-0.227" fill="#ffc800"/><g fill="#fff" fill-opacity=".4"><path d="m230.54 259.04s2.37-0.853 2.898-2.065c0.332-0.762-0.562-2.318-0.638-2.564-0.076-0.247 0.023-1.195-0.102-1.574s-1.803-1.373-1.95-1.635c-0.147-0.261 0.293-1.304 0.293-1.304s-1.275 1.032-1.465 1.616c-0.189 0.584 0.568 1.721 0.559 1.93-8e-3 0.209-0.444 0.826-0.444 0.826s-0.338-0.428-0.349-0.826c-0.012-0.398 0.184-0.605 0.143-0.881s-0.554-0.807-0.554-0.807 0.267 0.477 0.134 0.807c-0.133 0.331-0.778 0.976-0.683 1.488s0.853 1.687 0.787 2.009c-0.066 0.323-0.238 0.553-0.238 0.553s-0.207-0.48-0.274-0.801c-0.066-0.32-0.136-0.747-0.136-0.747s-0.389 2.104 0.011 2.697c0.4 0.592 2.008 1.278 2.008 1.278"/><path d="m231.17 244.37c0.019-0.038 0.274-0.611 0.284-0.924 9e-3 -0.312-0.56-0.73-0.816-0.967s-0.805-1.005-0.758-1.403 0.106-0.701 0.106-0.701-0.789 2.256-0.741 2.967c0.047 0.711 0.464 1.166 0.464 1.166s0.151-0.685 0.484-0.663c0.445 0.028 0.977 0.525 0.977 0.525"/><path d="m233.72 245.88s0.506-0.474 0.5-0.79c-7e-3 -0.316-0.5-1.194-0.5-1.194s0.212 1.03 0.25 1.232-0.25 0.752-0.25 0.752"/><path d="m227.86 258.3s-1.029-0.641-1.216-0.809-0.471-1.074-0.452-1.254c0.018-0.179 0.35-0.983 0.35-1.204 0-0.222-0.673-1.008-0.673-1.008s0.218 0.746 0.18 0.927c-0.037 0.182-0.915 1.224-0.86 1.613s0.889 1.092 1.129 1.249c0.24 0.158 1.542 0.486 1.542 0.486"/><path d="m235.12 254.15s0.683-1.77 0.62-2.237c-0.063-0.468-0.856-2.237-0.856-2.237s0.057 1.509 0.122 1.747c0.065 0.237-0.122 0.957-0.122 0.957s-0.244-0.518-0.288-0.707c-0.044-0.19 0.136-0.923 0.136-0.923s-0.496 1.31-0.382 1.812c0.114 0.501 0.77 1.588 0.77 1.588"/></g></g></svg>
