<svg clip-rule="evenodd" fill-rule="evenodd" stroke-linejoin="round" stroke-miterlimit="2" version="1.1" viewBox="0 0 306 318" xml:space="preserve" xmlns="http://www.w3.org/2000/svg" xmlns:serif="http://www.serif.com/"><g serif:id="Main SVG"><path d="m101.38 279.28s-4e-3 -4.154-0.02-4.276c-0.126-0.947-0.816-1.873-2.07-2.598l-16.949-9.788c-1.608-0.929-3.791-1.319-5.879-1.172-1.514 0.107-2.98 0.497-4.139 1.172l0.143 29.293c1.737 1.003 4.143 1.377 6.376 1.125 1.336-0.15 2.61-0.525 3.643-1.125l16.837-9.788c1.352-0.787 2.036-1.812 2.057-2.843h1e-3z" fill="#7faad8" fill-rule="nonzero"/><path d="m94.078 274.6-47.954-0.023v3.804h1e-3c-0.025 1.074 0.672 2.152 2.09 2.972l16.948 9.789c1.737 1.002 4.143 1.377 6.376 1.125 1.336-0.15 2.61-0.527 3.643-1.125l16.838-9.789c1.351-0.785 2.036-1.811 2.056-2.841h2e-3v-3.912" fill="#a9c8e4" fill-rule="nonzero"/><path d="m94.057 274.24c-0.127-0.947-0.816-1.877-2.07-2.599l-16.948-9.788c-1.608-0.929-3.792-1.319-5.879-1.173-1.515 0.108-2.98 0.498-4.14 1.173l-16.838 9.788c-1.159 0.672-1.828 1.523-2.01 2.402-0.247 1.209 0.434 2.475 2.042 3.401l16.949 9.79c1.737 1.003 4.143 1.377 6.376 1.125 1.336-0.15 2.61-0.526 3.643-1.125l16.838-9.79c1.512-0.879 2.19-2.056 2.037-3.204" fill="#cadff1" fill-rule="nonzero"/><path d="m68.953 274.72c-1.959-0.152-3.718-0.679-5.054-1.449-1.601-0.926-2.595-2.201-2.603-3.608-0.016-2.813 3.921-5.101 8.775-5.101 2.428 0 4.632 0.573 6.232 1.495 1.599 0.925 2.595 2.2 2.603 3.606 0.014 2.582-3.301 4.723-7.6 5.057l0.014 2.548c0.087 0.036 0.168 0.076 0.244 0.121 0.365 0.209 0.592 0.502 0.594 0.822l0.029 5.207c3e-3 0.643-0.894 1.165-2.002 1.165-0.555 0-1.058-0.129-1.423-0.342-0.364-0.21-0.591-0.501-0.593-0.823l-0.029-5.207c-3e-3 -0.388 0.324-0.731 0.827-0.943l-0.014-2.548zm1.169-1.119c3.748-0 6.787-1.766 6.774-3.938-6e-3 -1.085-0.773-2.07-2.008-2.783-1.234-0.712-2.936-1.153-4.809-1.155-3.748 0-6.786 1.768-6.774 3.938 6e-3 1.087 0.773 2.07 2.008 2.785 1.235 0.712 2.936 1.153 4.809 1.153z" fill="#33478d"/><g fill-rule="nonzero"><path d="m89.164 239.64c2e-3 -0.122-2e-3 -0.242-0.019-0.364-0.126-0.947-0.815-1.874-2.07-2.599l-16.947-9.787c-1.609-0.929-3.793-1.319-5.88-1.173-1.514 0.108-2.98 0.498-4.14 1.173l0.143 29.293c1.738 1.003 4.143 1.377 6.377 1.125 1.336-0.151 2.609-0.524 3.642-1.125l16.838-9.788c1.352-0.786 2.036-1.812 2.056-2.843h2e-3v-3.912h-2e-3" fill="#7faad8"/><path d="m81.614 238.96-47.953-0.022v3.801l1e-3 3e-3c-0.025 1.073 0.671 2.152 2.089 2.971l16.949 9.787c1.736 1.003 4.142 1.38 6.376 1.127 1.336-0.15 2.61-0.526 3.642-1.127l16.838-9.787c1.352-0.786 2.036-1.812 2.056-2.842h2e-3v-3.911" fill="#a9c8e4"/><path d="m81.593 238.6c-0.126-0.947-0.815-1.876-2.07-2.6l-16.947-9.787c-1.609-0.93-3.792-1.32-5.88-1.172-1.514 0.108-2.979 0.499-4.139 1.172l-16.838 9.789c-1.16 0.672-1.829 1.523-2.01 2.402-0.247 1.209 0.434 2.473 2.042 3.402l16.949 9.787c1.737 1.003 4.142 1.379 6.376 1.127 1.336-0.15 2.61-0.527 3.642-1.127l16.838-9.787c1.512-0.879 2.19-2.057 2.037-3.206" fill="#cadff1"/><path d="m70.444 242.23-5.585-3.227c-0.378-0.218-0.593-0.639-0.281-1.005l3.551-4.064c0.966-1.102-1.602-1.287-2.015-1.165l-7.004 2.072c-0.53 0.154-1.242 0.125-1.736-0.16l-5.585-3.226c-0.501-0.289-2.868-0.464-2.529 0.747l1.257 4.507c0.139 0.495-0.457 0.806-0.793 0.907l-7.003 2.072c-1.465 0.431-0.572 1.528 0.454 1.625l7.781 0.715c0.387 0.034 1.108 0.226 1.246 0.719l1.257 4.506c0.288 1.018 2.24 0.909 2.809 0.256l3.551-4.064c0.354-0.405 1.084-0.508 1.563-0.462l7.78 0.715c0.637 0.057 2.693-0.655 1.282-1.468" fill="#33478d"/></g><g fill-rule="nonzero"><path d="m161.63 275.33c2e-3 -0.122-2e-3 -0.242-0.018-0.364-0.126-0.947-0.817-1.874-2.071-2.599l-16.948-9.787c-1.609-0.929-3.793-1.32-5.88-1.173-1.513 0.107-2.98 0.498-4.139 1.173l0.143 29.292c1.737 1.004 4.142 1.378 6.375 1.126 1.337-0.15 2.612-0.525 3.643-1.126l16.839-9.787c1.351-0.787 2.036-1.812 2.056-2.843h2e-3v-3.912h-2e-3" fill="#7faad8"/><path d="m155.04 274.06-47.952-0.019v3.801h1e-3c-0.025 1.075 0.672 2.154 2.09 2.973l16.948 9.787c1.736 1.003 4.143 1.379 6.376 1.128 1.336-0.151 2.61-0.527 3.642-1.128l16.838-9.787c1.353-0.787 2.035-1.812 2.056-2.841l1e-3 -2e-3v-3.912" fill="#a9c8e4"/><path d="m155.03 273.69c-0.126-0.948-0.817-1.874-2.07-2.599l-16.947-9.787c-1.61-0.929-3.793-1.319-5.881-1.171-1.514 0.106-2.98 0.496-4.139 1.171l-16.838 9.787c-1.159 0.675-1.829 1.526-2.009 2.405-0.248 1.209 0.434 2.472 2.042 3.401l16.948 9.787c1.736 1.004 4.143 1.38 6.376 1.128 1.336-0.15 2.61-0.527 3.642-1.128l16.838-9.787c1.513-0.879 2.191-2.058 2.038-3.207" fill="#cadff1"/><path d="m139.63 276.7-5.539-9.583c-0.638-1.106-2.674-1.032-3.599-0.496l-9.949 5.784c-1.603 0.932-0.272 2.245 0.957 2.511l15.398 3.317c0.645 0.139 3.568-0.09 2.732-1.533" fill="#33478d"/></g><g serif:id="Flour BG"><path d="m60.28 108.07c-20.308 17.943-28.871 53.66-8.335 78.496 19.637 24.236 44.195 19.545 75.281 22.407 41.524 3.824 79.589 21.72 112.43-4.908 33.566-27.214 38.982-76.181 12.09-109.37-11.59-14.307-31.774-14.987-44.1-26.817-6.688-6.419-6.425-17.679-12.642-25.354-22.933-28.302-64.732-32.431-93.361-9.221-19.405 15.733-23.357 58.851-41.366 74.764z" fill="#cadff1" fill-rule="nonzero"/><path d="m126.77 37.286s-2.737 2.907-6.104 4.185c1.498-6.048 1.854-5.995 2.931-10.465-2.829-5.644-5.447-9.455-6.628-10.195-2.249 3.052-2.317 3.991-5.181 6.558-1.046 0.351 1.425-7.527 0.89-11.95-2.549-2.683-6.062-9.599-15.735-12.84-0.775 2.392 0.107 5.479-0.925 8.206-3.597-5.396-8.156-11.657-9.144-10.684-3.854 3.793-3.883 10.975-3.694 14.069 5.245 2.215 10.52 3.268 13.846 7.615-4.476 0.368-9.516 0.664-12.31 0.569 0.524 5.699 7.927 16.094 8.885 17.213 2.677-0.58 7.667-1.103 10.881-0.793-4.083 4.976-6.176 6.268-7.464 7.146 0.101 1.399 5.366 8.46 7.034 9.189 1.295-0.409 7.311-1.221 8.168-1.502 0.857-0.277-2.388 5.081-4.033 6.421 3.996 5.088 18.475 17.317 21.563 16.945 5.724-7.633 3.12-29.862-2.98-39.687z" fill="#a9c8e4" fill-rule="nonzero"/><path d="m252.75 131.58c1.294 3.232 1.142 3.827 3.573 6.482 1.378-6.076 1.036-6.188 2.084-10.666 5.064-3.77 9.114-5.997 10.499-6.127 0.639 3.736 0.279 4.607 1.683 8.189 0.778 0.782 2.112-7.367 4.575-11.077 3.481-1.252 9.727-5.849 19.824-4.396-0.381 2.484-2.556 4.848-2.86 7.746 5.639-3.204 12.524-6.746 12.969-5.435 1.737 5.124-1.463 11.552-3.022 14.23-5.68-0.378-10.865-1.809-15.791 0.58 3.835 2.339 8.205 4.869 10.741 6.041-3.027 4.854-14.309 10.813-15.67 11.382-2.13-1.722-6.354-4.432-9.362-5.599 1.408 6.281 2.7 8.373 3.456 9.739-0.717 1.203-8.593 5.144-10.412 5.046-0.973-0.947-5.982-4.378-6.623-5.013-0.639-0.634-0.148 5.611 0.719 7.549-5.853 2.747-24.285 7.161-26.877 5.441-1.682-9.391 10.632-28.078 20.494-34.112" fill="#a9c8e4" fill-rule="nonzero"/><path d="m223.26 27.912s-3.104 2.108-2.762 3.916c0.041 0.228 0.106 0.445 0.192 0.649-5.958 5.731-12.279 6.54-15.517 6.512 2.827-1.674 8.459-5.023 12.734-12.5 0.315 0.026 0.637 0.014 0.964-0.046 1.846-0.349 3.073-2.064 2.739-3.831-0.332-1.768-2.101-2.918-3.949-2.569-1.847 0.348-3.073 2.064-2.739 3.831 0.133 0.718 0.509 1.333 1.028 1.788-3.974 6.845-9.047 9.85-11.879 11.526-0.07 0.043-0.144 0.085-0.212 0.125 0.739-3.216 2.424-9.147 5.775-14.998 0.316 0.04 0.644 0.032 0.974-0.031 1.71-0.321 2.835-1.964 2.513-3.664-0.321-1.702-1.967-2.82-3.676-2.497-1.708 0.322-2.832 1.962-2.511 3.665 0.117 0.616 0.409 1.154 0.812 1.576-3.641 6.377-5.354 12.71-6.053 15.926-0.494-0.59-1.038-1.39-1.53-2.444-1.082-2.301-2.089-6.241-1.34-12.447 1.467-0.485 2.392-1.954 2.107-3.471-0.313-1.654-1.946-2.735-3.653-2.415-1.704 0.324-2.833 1.927-2.522 3.582 0.205 1.075 0.968 1.905 1.944 2.268-1.22 10.492 2.247 15.344 4.244 17.214-2.61 6.826-4.818 13.52-6.684 20.033-2.233-3.541-5.502-9.818-4.188-19.735 1.663-0.601 2.702-2.289 2.372-4.029-0.365-1.939-2.282-3.204-4.285-2.826-1.998 0.378-3.325 2.256-2.96 4.195 0.269 1.418 1.373 2.476 2.729 2.792-1.429 11.656 3.09 18.53 5.336 21.948 0.082 0.122 0.161 0.244 0.238 0.362-2.816 10.275-4.783 20.07-6.137 29.183-2.604-3.163-6.25-8.954-7.577-16.813 1.468-0.724 2.337-2.348 2.019-4.021-0.379-2.016-2.336-3.341-4.371-2.957-2.035 0.386-3.374 2.331-2.993 4.349 0.311 1.648 1.675 2.831 3.271 3 0.977 5.699 3.088 10.223 4.861 13.22 1.519 2.567 3.136 4.61 4.395 5.958-2.171 15.818-2.509 29.449-2.286 39.774-3.669-2.064-9.913-6.077-12.732-16.273 1.258-0.786 1.97-2.308 1.673-3.879-0.385-2.035-2.311-3.376-4.307-3.001-1.995 0.378-3.302 2.331-2.919 4.365 0.334 1.764 1.826 3.008 3.519 3.062 3.273 11.794 10.997 16.058 14.48 17.979 0.119 0.068 0.238 0.132 0.35 0.195 0.18 5.78 0.518 10.375 0.752 13.552 0.144 1.945 0.258 3.482 0.261 4.306 6e-3 1.108 0.907 2.002 2.013 1.998 0.127-2e-3 0.248-0.014 0.367-0.036 0.932-0.176 1.635-0.996 1.631-1.978-4e-3 -0.965-0.116-2.483-0.271-4.585-0.454-6.154-1.306-17.707-0.584-32.927 6.644-2.396 11.279-7.548 13.998-11.45 2.601-3.737 4.329-7.542 5.236-10.28 0.321 0.021 0.647 3e-3 0.976-0.06 2.126-0.401 3.524-2.444 3.126-4.562-0.401-2.118-2.446-3.51-4.571-3.11-2.124 0.402-3.524 2.444-3.123 4.563 0.196 1.045 0.795 1.911 1.606 2.474-1.913 5.877-7.667 16.239-17.125 20.117 0.578-10.175 1.871-21.876 4.427-34.62 0.052-2e-3 0.104-6e-3 0.159-0.017 0.022-4e-3 0.043-8e-3 0.064-0.014 8.73-2.203 14.511-8.474 18.538-20.205 0.177-6e-3 0.354-0.022 0.535-0.056 1.893-0.359 3.155-2.105 2.815-3.902-0.34-1.799-2.151-2.966-4.043-2.608-1.892 0.356-3.152 2.103-2.813 3.902 0.17 0.907 0.717 1.652 1.459 2.124-3.648 10.536-8.737 16.314-16.247 18.493 2.416-11.469 5.858-23.745 10.721-36.485 1.216 0.044 2.887-0.012 4.841-0.382 0.093-0.017 0.183-0.033 0.272-0.052 3.275-0.658 7.875-2.352 12.321-6.601 0.697 0.405 1.543 0.574 2.409 0.412 1.869-0.353 3.107-2.108 2.764-3.918-0.34-1.811-2.134-2.992-4.001-2.639z" fill="#a9c8e4"/><path d="m103.08 82.199c-5.203 1.512-7.201 11.339-7.709 15.496-2.686-3.143-5.902-6.645-9.638-10.252 2.86-2.004 13.674-10.146 7.087-14.374-6.477-4.158-7.546 9.739-7.72 13.767-1.509-1.44-3.099-2.893-4.772-4.346-1.935-1.679-3.891-3.281-5.866-4.805 2.6-1.531 13.007-8.16 6.397-12.454-6.564-4.266-6.973 8.677-6.971 12.014-3.435-2.619-6.926-5.001-10.472-7.143 2.824-2.341 10.968-9.796 4.152-12.935-6.726-3.096-5.783 8.247-5.252 12.278-3.952-2.326-7.968-4.358-12.045-6.092 2.193-2.32 10.111-11.361 2.665-13.653-7.374-2.268-4.417 9.899-3.453 13.323-3.867-1.605-7.787-2.943-11.756-4.012 1.503-2.745 5.993-11.964-1.626-11.747-7.301 0.208-1.896 8.4 0.343 11.411-2.616-0.665-5.253-1.214-7.908-1.642-0.121-0.02-0.239-8e-3 -0.347 0.032-3.269-2.236-13.157-8.366-13.419-0.895-0.261 7.435 9.874 3.65 13.324 2.148 0.067 0.039 0.141 0.065 0.221 0.079 2.651 0.428 5.282 0.976 7.891 1.641-3.482 1.099-12.929 4.633-7.052 9.111 6.214 4.732 7.872-5.996 8.194-8.813 3.905 1.049 7.759 2.361 11.556 3.93-3.396 1.816-13.635 7.858-7.06 11.562 6.66 3.749 7.847-7.702 8.052-11.146 4.07 1.734 8.072 3.767 11.998 6.087-3.23 1.391-14.612 6.784-8.185 11.09 6.459 4.327 8.488-7.465 8.912-10.658 3.58 2.152 7.094 4.549 10.537 7.181-3.151 1.307-14.806 6.606-8.386 11.018 6.387 4.393 8.564-7.286 9.034-10.519 3.542 2.746 7.006 5.743 10.383 8.984-3.79 0.613-17.835 3.329-12.877 9.335 5.001 6.058 11.822-5.761 13.438-8.79 3.346 3.249 6.606 6.738 9.772 10.466-4.014 0.626-19.564 3.492-14.773 9.699 4.809 6.227 13.24-6.009 15.253-9.133 2.718 3.231 5.367 6.635 7.941 10.212 1.124 1.564 1.256 1.738 1.511 1.864 0.168 0.084 0.355 0.092 0.52 0.038 0.171-0.056 0.319-0.176 0.405-0.35 0.15-0.304 0.057-0.665-0.206-0.859-0.145-0.158-0.614-0.811-1.11-1.5-1.486-2.066-4.186-5.817-8.064-10.414 2.936-2.068 11.272-8.816 9.573-14.466-0.206-0.688-1.991-1.914-2.492-1.768z" fill="#a9c8e4" fill-rule="nonzero"/><path d="m205.32 113.29c0.098-0.789 1.844-3.207 2.217-3.459 4.99-3.372 10.866 9.607 12.607 13.818 1.886-4.044 4.221-8.614 7.068-13.446-3.555-1.258-17.151-6.607-11.52-12.907 5.539-6.194 10.662 7.954 12.003 12.093 1.155-1.931 2.389-3.903 3.71-5.896 1.53-2.307 3.103-4.537 4.718-6.693-3.147-0.844-15.885-4.733-10.248-11.109 5.598-6.333 9.756 7.014 10.718 10.486 2.819-3.715 5.763-7.203 8.832-10.455-3.613-1.618-14.236-7.024-8.051-12.258 6.104-5.163 8.395 6.912 9.006 11.258 3.439-3.56 7.032-6.832 10.773-9.812-2.952-1.781-13.796-8.903-6.712-13.435 7.018-4.49 7.453 9.022 7.435 12.861 3.562-2.786 7.254-5.309 11.072-7.565-2.353-2.422-9.684-10.718-1.695-12.691 7.655-1.89 4.396 8.192 2.935 11.971 2.529-1.446 5.115-2.779 7.753-3.993 0.118-0.055 0.247-0.075 0.37-0.064 2.757-3.272 11.273-12.503 13.7-4.804 2.417 7.658-9.218 6.645-13.241 6.08-0.059 0.057-0.128 0.108-0.207 0.143-2.633 1.212-5.211 2.541-7.735 3.987 3.941 0.137 14.786 1.088 9.964 7.441-5.098 6.718-9.918-3.964-11.065-6.801-3.759 2.219-7.391 4.695-10.889 7.421 4.057 0.91 16.45 4.241 10.681 9.99-5.848 5.825-10.385-5.744-11.593-9.269-3.733 2.979-7.311 6.246-10.725 9.794 3.761 0.517 17.159 2.842 11.714 9.174-5.471 6.367-10.983-5.313-12.345-8.514-3.102 3.274-6.069 6.78-8.891 10.512 3.656 0.451 17.308 2.598 11.901 9.042-5.375 6.413-11.007-5.108-12.431-8.336-2.892 3.879-5.631 7.997-8.209 12.345 4.118-0.457 19.513-1.686 16.088 5.991-3.454 7.748-13.958-2.58-16.514-5.263-2.544 4.344-4.928 8.916-7.146 13.707 4.355-0.508 21.358-2.013 18.165 5.826-3.206 7.864-15.508-2.429-18.5-5.097-1.897 4.145-3.672 8.449-5.316 12.914-0.719 1.951-0.806 2.172-1.035 2.376-0.15 0.136-0.342 0.198-0.53 0.19-0.192-9e-3 -0.383-0.093-0.523-0.247-0.243-0.274-0.249-0.675-0.033-0.955 0.106-0.206 0.406-1.02 0.721-1.88 0.952-2.578 2.677-7.26 5.385-13.16-3.448-1.232-15.067-5.808-14.382-11.311z" fill="#a9c8e4" fill-rule="nonzero"/></g><path d="m251.2 225.15c-0.59-2.59-2.754-4.596-4.962-5.876-26.8-15.532-53.61-31.045-80.47-46.473-7.383-4.24-17.005-4.238-24.387 2e-3 -12.402 7.124-24.766 14.314-37.095 21.563-4.83 2.84-5.632 8.873-4.662 13.955 0.448 2.351 2.887 4.028 4.741 5.108 26.766 15.591 53.611 31.046 80.472 46.473 7.377 4.238 17.005 4.238 24.382 0 12.402-7.124 24.76-14.324 37.095-21.563 1.179-0.692 2.79-1.871 3.57-3.032 1.937-2.882 2.062-6.872 1.316-10.157z" fill="#cadff1" fill-rule="nonzero"/><path d="m110.16 86.204 1.108 1.982 41.997-24.045 0.424-3.516-43.529 25.579z" fill="#a9c8e4" fill-rule="nonzero"/><path d="m167.6 68.707-44.707 25.576 0.687 69.578 44.029-25.716-9e-3 -69.438z" fill="#cadff1" fill-rule="nonzero"/><path d="m108.89 155.98c-2e-3 -0.027-2e-3 -0.052 0-0.075v-69.229c2.543 3.995 13.879 8.476 14.493 7.708l0.195 69.48c-1.867 0.893-4.493-0.26-9.302-2.971-0.192-0.109-0.379-0.218-0.562-0.324-3.145-1.837-4.726-3.34-4.824-4.589z" fill="#a9c8e4"/><path d="m115.23 84.952s-0.421 0.447-0.728 0.628c-0.723 0.43-1.443 0.652-1.875 0.785-0.077 0.023-0.171 0.053-0.218 0.069-0.526 0.316-1.497 0.923-1.012 1.852 0.31 0.587 1.142 1.082 4.563 3.08 0.168 0.097 0.34 0.197 0.521 0.299 6.067 3.42 7.056 2.985 8.068 2.388l0.045-0.053c0.203-0.245 0.678-0.822 1.69-1.418 0.318-0.187 0.719-0.3 1.109-0.412 0.349-0.099 0.68-0.192 0.908-0.328 8.859-5.214 31.287-18.415 37.285-21.944l-12.602-7.363c-9.975 5.782-30.196 17.753-37.074 21.826-0.277 0.165-0.481 0.383-0.68 0.591z" fill="#fff" fill-rule="nonzero"/><path d="m167.32 68.238s-0.924-0.222-1.26-0.026c-0.284 0.168-28.558 16.808-38.775 22.824-0.229 0.135-0.56 0.228-0.909 0.328-0.387 0.111-0.791 0.224-1.108 0.412-1.013 0.596-1.733 1.47-1.733 1.47-1.015 0.595-2.004 1.033-8.071-2.387-0.179-0.102-0.353-0.204-0.521-0.302-3.421-1.997-4.217-3.195-4.271-3.856-0.034-0.417 0.197-0.759 0.721-1.074 0.046-0.016 1.369-0.426 2.095-0.854 0.304-0.181 0.52-0.408 0.725-0.627 0.2-0.211 0.406-0.428 0.68-0.591 7.243-4.287 29.28-17.335 38.572-22.694 0.339-0.194 0.323-0.525-0.036-0.739l-6e-3 -1e-3c-0.358-0.211-0.918-0.222-1.254-0.03-9.302 5.361-31.343 18.413-38.587 22.703-0.432 0.256-0.705 0.543-0.945 0.797-0.161 0.17-0.313 0.331-0.461 0.421-0.551 0.327-1.113 0.498-1.484 0.614-0.249 0.075-0.428 0.131-0.576 0.22-0.87 0.509-1.282 1.125-1.226 1.83 0.098 1.246 1.679 2.749 4.824 4.588 0.183 0.106 0.37 0.213 0.562 0.322 5.757 3.245 8.243 3.803 10.638 2.38 0.121-0.073 0.183-0.147 0.28-0.265 0.181-0.22 0.559-0.677 1.381-1.162 0.127-0.074 0.392-0.15 0.669-0.228 0.435-0.125 0.927-0.263 1.35-0.512 10.218-6.016 38.491-22.655 38.775-22.823 0.334-0.198 0.314-0.528-0.049-0.738z" fill="#ebf5ff" fill-rule="nonzero"/><path d="m126.49 162.16-0.566 0.331v-69.508c0.158-0.125 0.344-0.258 0.566-0.392v69.569z" fill="#a9bbcb" fill-rule="nonzero"/><path d="m154.53 63.438-14.934 8.913 15.395-8.643-0.461-0.27z" fill="#dadfe3" fill-rule="nonzero"/><path d="m156.74 64.727-25.72 15.514 26.27-15.192-0.55-0.322z" fill="#dadfe3" fill-rule="nonzero"/><path d="m158.41 65.708-20.877 13.181 21.513-12.812-0.636-0.369z" fill="#dadfe3" fill-rule="nonzero"/><path d="m161.64 67.592-15.188 9.325 15.876-8.924-0.688-0.401z" fill="#dadfe3" fill-rule="nonzero"/><g serif:id="Book"><path d="m131.35 83.235 1.232 2.203 51.611-29.522 0.472-3.91-53.315 31.229z" fill="#698ce0" fill-rule="nonzero"/><path d="m200.13 60.993-55.184 31.17 1.323 81.681 53.871-31.38-0.01-81.471z" fill="#7196f1" fill-rule="nonzero"/><path d="m129.94 165.08c-2e-3 -0.03-2e-3 -0.058 0-0.083v-81.239c2.828 4.442 15.432 9.424 16.115 8.571l0.217 81.517c-2.076 0.994-4.996-0.289-10.343-3.303-0.214-0.121-0.421-0.242-0.625-0.36-3.497-2.043-5.255-3.715-5.364-5.103z" fill="#698ce0"/><path d="m136.99 81.842s-0.468 0.497-0.809 0.698c-0.805 0.478-1.606 0.725-2.086 0.874-0.085 0.024-0.19 0.058-0.242 0.076-0.585 0.352-1.665 1.027-1.125 2.06 0.344 0.652 1.269 1.203 5.074 3.424 0.186 0.108 0.378 0.219 0.579 0.333 6.746 3.803 7.846 3.319 8.971 2.655l0.051-0.059c0.225-0.272 0.753-0.914 1.878-1.576 0.354-0.209 0.799-0.335 1.233-0.459 0.388-0.11 0.757-0.213 1.01-0.365 9.85-5.797 39.702-23.261 46.372-27.185l-14.013-8.187c-11.092 6.429-38.489 22.525-46.137 27.054-0.308 0.184-0.535 0.426-0.756 0.657z" fill="#fff" fill-rule="nonzero"/><path d="m199.82 60.472s-1.028-0.247-1.401-0.029c-0.316 0.187-36.668 21.475-48.029 28.164-0.254 0.151-0.623 0.254-1.011 0.365-0.43 0.123-0.879 0.249-1.232 0.458-1.126 0.663-1.927 1.634-1.927 1.634-1.128 0.662-2.228 1.15-8.974-2.654-0.199-0.113-0.393-0.226-0.579-0.335-3.804-2.22-4.69-3.553-4.75-4.288-0.037-0.464 0.219-0.844 0.802-1.195 0.051-0.017 1.523-0.473 2.33-0.949 0.338-0.202 0.577-0.454 0.806-0.697 0.221-0.235 0.451-0.477 0.756-0.658 8.053-4.767 37.471-22.06 47.803-28.018 0.376-0.217 0.359-0.585-0.04-0.822l-7e-3 -2e-3c-0.398-0.234-1.021-0.247-1.394-0.033-10.343 5.961-39.765 23.259-47.82 28.029-0.481 0.285-0.784 0.604-1.05 0.887-0.179 0.189-0.348 0.368-0.513 0.468-0.613 0.363-1.238 0.554-1.651 0.683-0.276 0.082-0.476 0.145-0.64 0.244-0.967 0.567-1.425 1.251-1.363 2.035 0.109 1.385 1.867 3.057 5.364 5.102 0.204 0.118 0.411 0.237 0.625 0.358 6.402 3.608 9.165 4.228 11.828 2.646 0.135-0.08 0.205-0.163 0.312-0.294 0.201-0.245 0.622-0.753 1.536-1.293 0.141-0.082 0.436-0.166 0.744-0.253 0.483-0.139 1.031-0.293 1.501-0.57 11.361-6.688 47.713-27.976 48.028-28.163 0.372-0.219 0.35-0.586-0.054-0.82z" fill="#96c1f6" fill-rule="nonzero"/><path d="m149.48 109.82c-0.142 0.285-0.362 0.482-0.63 0.624l0.032-19.672c0.176-0.139 0.383-0.287 0.629-0.435l-0.031 19.483z" fill="#5e7dcb" fill-rule="nonzero"/><path d="m185.6 55.135-16.605 9.911 17.119-9.611-0.514-0.3z" fill="#dadfe3" fill-rule="nonzero"/><path d="m188.06 56.568-28.599 17.251 29.211-16.893-0.612-0.358z" fill="#dadfe3" fill-rule="nonzero"/><path d="m189.92 57.659-23.214 14.656 23.921-14.246-0.707-0.41z" fill="#dadfe3" fill-rule="nonzero"/><path d="m193.51 59.754-16.888 10.369 17.653-9.924-0.765-0.445z" fill="#dadfe3" fill-rule="nonzero"/></g><g serif:id="Book"><path d="m145.78 112.26 0.012 4.495 44.03-25.719 0.446-3.903-44.488 25.127z" fill="#33478d" fill-rule="nonzero"/><path d="m204.18 95.197-44.215 25.674-0.186 69.574 0.381-0.094 44.029-25.716-9e-3 -69.438z" fill="#3e5dae" fill-rule="nonzero"/><path d="m145.48 182.47c-2e-3 -0.027-2e-3 -0.052 0-0.075v-69.229c2.543 3.995 14.452 8.188 15.066 7.421l-0.376 69.765-2e-3 1e-3c-1.867 0.894-4.493-0.26-9.302-2.971-0.192-0.108-0.378-0.217-0.562-0.323-3.145-1.838-4.726-3.341-4.824-4.589z" fill="#33478d"/><path d="m151.82 111.44s-0.421 0.447-0.727 0.628c-0.724 0.43-1.444 0.652-1.876 0.786-0.076 0.022-0.171 0.052-0.218 0.068-0.525 0.317-1.497 0.923-1.012 1.853 0.31 0.586 1.142 1.081 4.563 3.079 0.168 0.097 0.34 0.198 0.521 0.299 6.067 3.42 7.056 2.985 8.068 2.388l0.046-0.052c0.202-0.245 0.677-0.823 1.689-1.418 0.318-0.188 0.719-0.301 1.109-0.413 0.349-0.099 0.68-0.192 0.908-0.328 8.859-5.213 31.287-18.415 37.285-21.944l-12.602-7.362c-9.975 5.781-30.196 17.753-37.074 21.825-0.277 0.165-0.481 0.383-0.68 0.591z" fill="#fff" fill-rule="nonzero"/><path d="m203.91 94.728s-0.924-0.222-1.26-0.025c-0.284 0.168-28.558 16.807-38.775 22.823-0.229 0.135-0.56 0.228-0.909 0.328-0.387 0.111-0.79 0.224-1.108 0.413-1.012 0.595-1.733 1.469-1.733 1.469-1.014 0.596-2.003 1.034-8.07-2.387-0.18-0.102-0.354-0.203-0.521-0.302-3.421-1.996-4.218-3.195-4.272-3.856-0.034-0.417 0.197-0.759 0.721-1.074 0.046-0.016 1.37-0.425 2.095-0.854 0.305-0.181 0.52-0.408 0.725-0.627 0.2-0.21 0.406-0.428 0.681-0.591 7.242-4.287 29.279-17.335 38.571-22.693 0.339-0.195 0.323-0.526-0.036-0.739l-6e-3 -2e-3c-0.358-0.21-0.918-0.222-1.254-0.03-9.301 5.361-31.343 18.413-38.587 22.703-0.432 0.256-0.705 0.543-0.944 0.797-0.161 0.17-0.313 0.331-0.461 0.422-0.551 0.326-1.113 0.498-1.485 0.614-0.249 0.074-0.428 0.13-0.576 0.219-0.87 0.51-1.281 1.125-1.226 1.83 0.098 1.246 1.679 2.749 4.824 4.588 0.184 0.107 0.37 0.214 0.562 0.322 5.758 3.245 8.243 3.803 10.638 2.38 0.121-0.072 0.184-0.146 0.28-0.264 0.181-0.221 0.56-0.678 1.382-1.163 0.126-0.074 0.391-0.149 0.669-0.228 0.434-0.125 0.927-0.263 1.35-0.512 10.217-6.015 38.49-22.655 38.774-22.823 0.334-0.197 0.314-0.527-0.049-0.738z" fill="#6786d8" fill-rule="nonzero"/><path d="m162.51 188.98v-8.105l0.566 0.896v6.878l-0.3 0.177-0.266 0.154z" fill="#334d91" fill-rule="nonzero"/><path d="m191.12 89.929-14.933 8.912 15.395-8.642-0.462-0.27z" fill="#dadfe3" fill-rule="nonzero"/><path d="m193.33 91.218-25.72 15.514 26.27-15.193-0.55-0.321z" fill="#dadfe3" fill-rule="nonzero"/><path d="m195 92.198-20.877 13.181 21.512-12.812-0.635-0.369z" fill="#dadfe3" fill-rule="nonzero"/><path d="m198.23 94.082-15.188 9.325 15.876-8.924-0.688-0.401z" fill="#dadfe3" fill-rule="nonzero"/></g><g serif:id="Book"><path d="m162.67 110.08 0.013 4.496 44.029-25.72 0.446-3.902-44.488 25.126z" fill="#f0b028" fill-rule="nonzero"/><path d="m221.07 93.018-44.216 25.674 0.195 69.48 44.029-25.717-8e-3 -69.437z" fill="#ffc73c" fill-rule="nonzero"/><path d="m162.36 180.29c-2e-3 -0.027-2e-3 -0.052-0-0.075v-69.229c2.543 3.995 14.451 8.189 15.065 7.421l-0.375 69.765-3e-3 2e-3c-1.867 0.893-4.492-0.261-9.301-2.971-0.193-0.109-0.379-0.218-0.563-0.324-3.144-1.837-4.725-3.34-4.823-4.589z" fill="#f0b028"/><path d="m168.7 109.26s-0.42 0.446-0.727 0.628c-0.723 0.43-1.444 0.652-1.876 0.785-0.076 0.022-0.17 0.053-0.218 0.068-0.525 0.317-1.497 0.924-1.011 1.853 0.309 0.587 1.142 1.082 4.563 3.08 0.168 0.097 0.34 0.197 0.521 0.299 6.067 3.42 7.056 2.985 8.068 2.388l0.045-0.053c0.203-0.245 0.678-0.822 1.69-1.418 0.318-0.187 0.718-0.301 1.108-0.412 0.349-0.099 0.681-0.192 0.909-0.328 8.858-5.214 31.286-18.415 37.284-21.944l-12.602-7.363c-9.974 5.782-30.196 17.753-37.073 21.826-0.277 0.165-0.481 0.383-0.681 0.591z" fill="#fff" fill-rule="nonzero"/><path d="m220.79 92.549s-0.925-0.222-1.26-0.026c-0.285 0.168-28.559 16.808-38.776 22.824-0.228 0.135-0.559 0.228-0.908 0.328-0.388 0.11-0.791 0.224-1.108 0.412-1.013 0.596-1.734 1.47-1.734 1.47-1.014 0.595-2.003 1.033-8.07-2.387-0.179-0.102-0.353-0.204-0.521-0.302-3.421-1.997-4.218-3.195-4.272-3.856-0.033-0.417 0.198-0.76 0.721-1.074 0.047-0.016 1.37-0.426 2.096-0.854 0.304-0.182 0.519-0.408 0.725-0.627 0.199-0.211 0.406-0.429 0.68-0.591 7.242-4.288 29.28-17.335 38.572-22.694 0.338-0.194 0.322-0.525-0.036-0.739l-6e-3 -1e-3c-0.359-0.211-0.918-0.222-1.254-0.03-9.302 5.361-31.344 18.413-38.588 22.703-0.432 0.256-0.705 0.543-0.944 0.797-0.161 0.17-0.313 0.331-0.461 0.421-0.551 0.326-1.113 0.498-1.485 0.614-0.248 0.074-0.428 0.131-0.575 0.22-0.87 0.509-1.282 1.125-1.226 1.83 0.098 1.246 1.679 2.749 4.823 4.588 0.184 0.106 0.37 0.213 0.563 0.322 5.757 3.245 8.242 3.802 10.637 2.38 0.121-0.073 0.184-0.147 0.28-0.265 0.181-0.22 0.56-0.677 1.382-1.162 0.127-0.075 0.392-0.15 0.669-0.229 0.434-0.124 0.927-0.262 1.35-0.512 10.217-6.015 38.49-22.654 38.775-22.822 0.334-0.198 0.314-0.528-0.049-0.738z" fill="#ffd15e" fill-rule="nonzero"/><path d="m179.4 186.8v-69.508c0.158-0.125 0.344-0.258 0.565-0.392v69.57l-0.3 0.176-0.265 0.154z" fill="#d7a731" fill-rule="nonzero"/><path d="m208 87.749-14.933 8.913 15.395-8.643-0.462-0.27z" fill="#dadfe3" fill-rule="nonzero"/><path d="m210.21 89.038-25.719 15.514 26.269-15.193-0.55-0.321z" fill="#dadfe3" fill-rule="nonzero"/><path d="m211.89 90.019-20.877 13.181 21.513-12.813-0.636-0.368z" fill="#dadfe3" fill-rule="nonzero"/><path d="m215.11 91.903-15.189 9.325 15.876-8.924-0.687-0.401z" fill="#dadfe3" fill-rule="nonzero"/></g><g serif:id="Book"><path d="m184.12 120 1.232 2.203 51.611-29.521 0.472-3.91-53.315 31.228z" fill="#698ce0" fill-rule="nonzero"/><path d="m252.9 97.754-55.183 31.169 1.322 81.682 53.871-31.381-0.01-81.47z" fill="#7196f1" fill-rule="nonzero"/><path d="m182.71 201.84c-2e-3 -0.031-2e-3 -0.058 0-0.084v-81.238c2.828 4.442 15.432 9.424 16.115 8.57l0.217 81.518c-2.076 0.993-4.996-0.29-10.343-3.304-0.214-0.121-0.421-0.242-0.625-0.36-3.497-2.043-5.255-3.714-5.364-5.102z" fill="#698ce0"/><path d="m189.76 118.6s-0.468 0.497-0.809 0.699c-0.805 0.478-1.606 0.725-2.086 0.873-0.085 0.025-0.19 0.058-0.242 0.076-0.585 0.352-1.665 1.027-1.125 2.06 0.344 0.652 1.27 1.203 5.074 3.424 0.186 0.108 0.378 0.22 0.579 0.333 6.746 3.803 7.846 3.319 8.971 2.655l0.051-0.058c0.225-0.273 0.753-0.915 1.878-1.577 0.354-0.209 0.8-0.334 1.233-0.459 0.388-0.11 0.757-0.213 1.01-0.365 9.851-5.797 39.702-23.261 46.372-27.185l-14.013-8.187c-11.091 6.429-38.489 22.526-46.137 27.054-0.308 0.184-0.535 0.426-0.756 0.657z" fill="#fff" fill-rule="nonzero"/><path d="m252.6 97.232s-1.028-0.247-1.401-0.028c-0.316 0.187-36.668 21.474-48.029 28.163-0.254 0.151-0.623 0.254-1.011 0.365-0.43 0.123-0.879 0.249-1.232 0.459-1.126 0.662-1.927 1.634-1.927 1.634-1.128 0.662-2.228 1.149-8.974-2.654-0.199-0.114-0.393-0.227-0.579-0.336-3.804-2.22-4.69-3.553-4.75-4.288-0.037-0.463 0.22-0.844 0.802-1.194 0.051-0.018 1.523-0.473 2.33-0.95 0.338-0.201 0.577-0.453 0.806-0.697 0.222-0.234 0.451-0.476 0.756-0.657 8.053-4.767 37.471-22.061 47.803-28.019 0.376-0.217 0.359-0.584-0.04-0.822l-7e-3 -1e-3c-0.398-0.235-1.021-0.248-1.394-0.034-10.343 5.962-39.765 23.26-47.82 28.03-0.481 0.284-0.784 0.604-1.05 0.886-0.179 0.189-0.348 0.368-0.513 0.468-0.613 0.363-1.238 0.554-1.651 0.683-0.276 0.083-0.475 0.146-0.64 0.244-0.967 0.567-1.425 1.251-1.363 2.036 0.109 1.385 1.867 3.056 5.364 5.101 0.204 0.118 0.411 0.237 0.625 0.358 6.402 3.609 9.165 4.228 11.829 2.646 0.134-0.08 0.204-0.163 0.311-0.294 0.201-0.245 0.622-0.753 1.536-1.292 0.141-0.083 0.436-0.167 0.744-0.254 0.483-0.139 1.031-0.292 1.501-0.57 11.361-6.688 47.713-27.975 48.029-28.162 0.371-0.22 0.349-0.587-0.055-0.821z" fill="#96c1f6" fill-rule="nonzero"/><path d="m202.28 139.7-0.629 0.237v-12.406c0.176-0.139 0.383-0.288 0.629-0.436v12.605z" fill="#5e7dcb" fill-rule="nonzero"/><path d="m238.38 91.895-16.605 9.911 17.119-9.611-0.514-0.3z" fill="#dadfe3" fill-rule="nonzero"/><path d="m240.83 93.329-28.6 17.251 29.211-16.894-0.611-0.357z" fill="#dadfe3" fill-rule="nonzero"/><path d="m242.69 94.419-23.215 14.657 23.922-14.247-0.707-0.41z" fill="#dadfe3" fill-rule="nonzero"/><path d="m246.28 96.514-16.889 10.369 17.653-9.923-0.764-0.446z" fill="#dadfe3" fill-rule="nonzero"/></g><g serif:id="Book"><path d="m201.7 141.3 1.109 1.982 41.996-24.045 0.425-3.516-43.53 25.579z" fill="#a9c8e4" fill-rule="nonzero"/><path d="m259.14 123.8-44.707 25.576 0.686 69.578 44.029-25.716-8e-3 -69.438z" fill="#cadff1" fill-rule="nonzero"/><path d="m200.43 211.07c-2e-3 -0.027-2e-3 -0.052-0-0.075v-69.229c2.543 3.995 13.878 8.476 14.492 7.708l0.195 69.48c-1.867 0.893-4.493-0.26-9.302-2.971-0.192-0.109-0.378-0.218-0.562-0.324-3.144-1.837-4.725-3.34-4.823-4.589z" fill="#a9c8e4"/><path d="m206.77 140.04s-0.42 0.446-0.727 0.628c-0.723 0.43-1.444 0.652-1.876 0.785-0.076 0.023-0.171 0.053-0.218 0.069-0.525 0.316-1.497 0.923-1.011 1.852 0.309 0.587 1.142 1.082 4.563 3.08 0.168 0.097 0.34 0.197 0.521 0.299 6.067 3.42 7.056 2.985 8.068 2.388l0.045-0.053c0.203-0.245 0.678-0.822 1.689-1.418 0.319-0.187 0.719-0.3 1.109-0.412 0.349-0.099 0.681-0.192 0.909-0.328 8.858-5.214 31.286-18.415 37.284-21.944l-12.602-7.363c-9.975 5.782-30.196 17.753-37.073 21.826-0.277 0.165-0.481 0.383-0.681 0.591z" fill="#fff" fill-rule="nonzero"/><path d="m258.86 123.33s-0.925-0.222-1.26-0.026c-0.285 0.168-28.559 16.808-38.776 22.824-0.228 0.135-0.56 0.228-0.909 0.328-0.387 0.111-0.79 0.224-1.107 0.412-1.013 0.596-1.734 1.47-1.734 1.47-1.014 0.595-2.003 1.033-8.07-2.387-0.179-0.102-0.353-0.204-0.521-0.302-3.421-1.997-4.218-3.195-4.272-3.856-0.033-0.417 0.198-0.759 0.721-1.074 0.047-0.016 1.37-0.426 2.096-0.854 0.304-0.181 0.519-0.408 0.725-0.627 0.199-0.211 0.405-0.428 0.68-0.591 7.242-4.287 29.279-17.335 38.572-22.694 0.338-0.194 0.322-0.525-0.036-0.739l-7e-3 -1e-3c-0.358-0.211-0.918-0.222-1.253-0.03-9.302 5.361-31.344 18.413-38.588 22.703-0.432 0.256-0.705 0.543-0.944 0.797-0.161 0.17-0.313 0.331-0.461 0.421-0.551 0.327-1.113 0.498-1.485 0.614-0.248 0.074-0.428 0.131-0.575 0.22-0.87 0.509-1.282 1.125-1.226 1.83 0.098 1.246 1.679 2.749 4.823 4.588 0.184 0.106 0.37 0.213 0.562 0.322 5.758 3.245 8.243 3.802 10.638 2.38 0.121-0.073 0.184-0.147 0.28-0.265 0.181-0.22 0.56-0.677 1.382-1.162 0.127-0.074 0.392-0.15 0.669-0.228 0.434-0.125 0.927-0.263 1.35-0.513 10.217-6.015 38.49-22.654 38.774-22.822 0.334-0.198 0.315-0.528-0.048-0.738z" fill="#ebf5ff" fill-rule="nonzero"/><path d="m218.03 150.01c-0.177 0.13-0.367 0.219-0.566 0.282v-2.22c0.159-0.125 0.345-0.258 0.566-0.392v2.33z" fill="#a9bbcb" fill-rule="nonzero"/><path d="m246.07 118.53-14.933 8.913 15.395-8.643-0.462-0.27z" fill="#dadfe3" fill-rule="nonzero"/><path d="m248.28 119.82-25.719 15.514 26.269-15.193-0.55-0.321z" fill="#dadfe3" fill-rule="nonzero"/><path d="m249.96 120.8-20.877 13.181 21.513-12.813-0.636-0.368z" fill="#dadfe3" fill-rule="nonzero"/><path d="m253.18 122.68-15.189 9.325 15.876-8.924-0.687-0.401z" fill="#dadfe3" fill-rule="nonzero"/></g><g serif:id="Book"><path d="m215.08 151.75 0.013 4.496 44.029-25.72 0.446-3.902-44.488 25.126z" fill="#33478d" fill-rule="nonzero"/><path d="m273.48 134.69-44.216 25.674-0.186 69.573 0.381-0.093 44.029-25.717-8e-3 -69.437z" fill="#3e5dae" fill-rule="nonzero"/><path d="m214.77 221.96c-2e-3 -0.027-2e-3 -0.052-0-0.075v-69.229c2.543 3.995 14.451 8.189 15.065 7.421l-0.375 69.765-3e-3 2e-3c-1.867 0.893-4.493-0.261-9.302-2.971-0.192-0.109-0.378-0.218-0.562-0.324-3.144-1.837-4.725-3.34-4.823-4.589z" fill="#33478d"/><path d="m221.11 150.94s-0.42 0.446-0.727 0.628c-0.724 0.43-1.444 0.652-1.876 0.785-0.076 0.022-0.171 0.053-0.218 0.068-0.525 0.317-1.497 0.924-1.011 1.853 0.309 0.587 1.141 1.082 4.563 3.08 0.167 0.097 0.34 0.197 0.521 0.299 6.067 3.42 7.056 2.985 8.067 2.388l0.046-0.053c0.203-0.245 0.678-0.822 1.689-1.418 0.319-0.187 0.719-0.301 1.109-0.412 0.349-0.099 0.68-0.192 0.909-0.328 8.858-5.214 31.286-18.415 37.284-21.944l-12.602-7.363c-9.975 5.782-30.196 17.753-37.073 21.826-0.278 0.165-0.481 0.383-0.681 0.591z" fill="#fff" fill-rule="nonzero"/><path d="m273.2 134.22s-0.925-0.222-1.261-0.026c-0.284 0.168-28.558 16.808-38.775 22.824-0.228 0.135-0.56 0.228-0.909 0.328-0.387 0.11-0.79 0.224-1.108 0.412-1.012 0.596-1.733 1.47-1.733 1.47-1.014 0.595-2.003 1.033-8.07-2.387-0.179-0.102-0.353-0.204-0.521-0.302-3.421-1.997-4.218-3.195-4.272-3.856-0.033-0.417 0.198-0.76 0.721-1.074 0.047-0.016 1.37-0.426 2.096-0.854 0.304-0.182 0.519-0.408 0.724-0.627 0.2-0.211 0.406-0.429 0.681-0.591 7.242-4.288 29.279-17.335 38.571-22.694 0.339-0.194 0.323-0.525-0.035-0.739l-7e-3 -1e-3c-0.358-0.211-0.918-0.222-1.253-0.03-9.302 5.361-31.344 18.413-38.588 22.703-0.432 0.256-0.705 0.543-0.944 0.797-0.161 0.17-0.313 0.331-0.461 0.421-0.551 0.326-1.113 0.498-1.485 0.614-0.248 0.074-0.428 0.131-0.575 0.22-0.87 0.509-1.282 1.125-1.226 1.83 0.098 1.246 1.679 2.749 4.823 4.588 0.184 0.106 0.37 0.213 0.562 0.322 5.758 3.245 8.243 3.802 10.638 2.38 0.121-0.073 0.184-0.147 0.28-0.265 0.181-0.22 0.56-0.677 1.382-1.162 0.127-0.075 0.392-0.15 0.669-0.229 0.434-0.124 0.927-0.262 1.35-0.512 10.217-6.015 38.49-22.654 38.774-22.822 0.334-0.198 0.314-0.528-0.048-0.738z" fill="#6786d8" fill-rule="nonzero"/><path d="m231.81 228.47v-69.508c0.159-0.125 0.345-0.258 0.566-0.392v69.57l-0.3 0.176-0.266 0.154z" fill="#334d91" fill-rule="nonzero"/><path d="m260.42 129.42-14.933 8.913 15.395-8.643-0.462-0.27z" fill="#dadfe3" fill-rule="nonzero"/><path d="m262.62 130.71-25.719 15.514 26.269-15.193-0.55-0.321z" fill="#dadfe3" fill-rule="nonzero"/><path d="m264.3 131.69-20.877 13.181 21.513-12.813-0.636-0.368z" fill="#dadfe3" fill-rule="nonzero"/><path d="m267.52 133.58-15.189 9.325 15.876-8.924-0.687-0.401z" fill="#dadfe3" fill-rule="nonzero"/></g><path d="m181.88 231.34-95.142-15.473s-0.012 2.92 0 3.087c0.114 1.514 1.173 3.011 3.175 4.166l50.36 29.085c2.113 1.221 4.877 1.83 7.639 1.832 2.761-2e-3 5.52-0.613 7.619-1.832l23.215-13.495c1.941-1.13 2.978-2.579 3.119-4.057l0.015-3.313z" fill="#33478d" fill-rule="nonzero"/><path d="m208.01 129.39c-0.857-1.644-2.039-3.039-3.35-3.796l-124.7-72.017c-1.07-0.616-2.428-0.84-3.45-0.01l-0.018 0.019-3.443 2.364 130.86 176.43 3.539-2.422c1.315-0.729 1.678-2.519 1.683-3.863l0.258-91.412c6e-3 -1.752-0.521-3.645-1.377-5.289" fill="#33478d" fill-rule="nonzero"/><path d="m135.21 201.66-2.238-8.262-57.214-33.043c-2.978-1.719-4.737-5.765-4.726-9.083l0.259-91.414c7e-3 -2.735 1.845-5.287 4.762-3.603l125.52 71.609c1.309 0.755 3.348 3.796 3.348 3.796 0.857 1.642 1.383 3.536 1.377 5.287l-1.077 91.821c-0.01 2.734-1.845 5.29-4.763 3.604l-49.194-28.411 2.227 8.257 25.215 14.562c1.785 1.029 2.817 2.332 3.103 3.676 0.389 1.839-0.628 3.755-3.056 5.166l-23.215 13.494c-2.099 1.221-4.858 1.832-7.619 1.832-2.762-0-5.526-0.611-7.639-1.832l-50.36-29.083c-2.002-1.157-3.061-2.653-3.175-4.166-0.127-1.685 0.914-3.391 3.125-4.676l23.215-13.495c2.31-1.342 5.415-1.946 8.446-1.812 2.481 0.107 4.911 0.713 6.815 1.812l6.865 3.964zm67.63 20.141 0.237-83.471c0.012-3.144-1.784-6.832-4.559-8.439l-120.25-69.445c-2.664-1.541-4.582 0.464-4.591 3.15l-0.237 83.474c-8e-3 3.14 1.777 6.827 4.559 8.434l120.25 69.446c2.664 1.541 4.587-0.459 4.593-3.149z" fill="#3e5dae"/><path d="m122.12 187.13 10.845 6.264 7.873 29.069-10.802-6.106-7.916-29.227z" fill="#33478d" fill-rule="nonzero"/><path d="m201.74 133.45c-0.824-1.526-1.967-2.835-3.229-3.566l-120.25-69.445c-1.307-0.756-2.488-0.742-3.324-0.111-0.781 0.591-1.262 1.718-1.267 3.261l-0.237 83.474c-4e-3 1.786 0.629 3.752 1.631 5.397 0.791 1.297 1.812 2.393 2.928 3.037l120.25 69.446c1.309 0.757 2.492 0.743 3.329 0.11 0.778-0.591 1.261-1.715 1.264-3.259l0.237-83.471c6e-3 -1.602-0.505-3.346-1.33-4.873" fill="#ebf5ff" fill-rule="nonzero"/><g fill-rule="nonzero"><g serif:id="Panel 4"><path d="m195.5 217.76s-0.803-0.193-1.159-0.391c-4.642-2.583-9.254-5.221-13.817-7.942-1.223-0.73-2.257-2.802-2.601-4.143-0.083-0.325 16.295 5.182 16.295 5.182s-0.096-24.953 0.204-25.543c0.137-0.269 3.572 2.611 3.601 4.121 0.244 12.28-0.051 13.753-0.104 26.035-5e-3 1.149-1.089 2.681-2.419 2.681z" fill="#d7e4f1"/><path d="m193.68 180.77s-1.09-1.304-1.801-1.743c-7.574-4.67-15.295-9.1-23.001-13.55-0.846-0.489-3.032-0.51-3.428 0.764-0.176 0.567 0.188 1.175 0.342 1.748 0.012 0.045 0.101-0.138 0.104-0.092 0.034 0.607-4e-3 1.216-6e-3 1.824-0.033 11.497-0.138 12.182-0.098 23.679 4e-3 1.03 0.334 2.048 0.845 2.932 0.522 0.903 1.219 1.661 2.117 2.2 7.632 4.574 23.457 14.605 23.934 14.64 1.1 0.081 2.039-1.954 2.045-2.789 0.089-11.497 0.065-12.182 0.098-23.679 6e-3 -2.193 0.139-4.046-1.151-5.934z" fill="#a9c8e4"/><path d="m192.39 181.73s-1.123-1.349-1.802-1.741l-22.999-13.549c-0.74-0.429-1.419-0.509-1.941-0.293-0.635 0.261-1.037 0.957-1.041 1.99l-6e-3 2.547 28.942 16.98 8e-3 -2.547c2e-3 -1.105-0.453-2.352-1.161-3.387z" fill="#6786d8"/><path d="m164.6 170.68-0.098 23.679c-2e-3 0.755 0.21 1.576 0.568 2.35 0.539 1.16 1.409 2.211 2.394 2.78l23 13.549c1.026 0.594 1.935 0.518 2.471-0.086 0.318-0.361 0.507-0.907 0.508-1.612l0.099-23.68-28.942-16.98z" fill="#fff"/><path d="m185.37 185.95-16.999-9.631c-0.219-0.126-0.221 0.632-2e-3 0.758l16.999 9.632c0.219 0.127 0.221-0.632 2e-3 -0.759z" fill="#f0b028"/><path d="m189.69 191.98-21.332-12.133c-0.219-0.127-0.221 0.631-2e-3 0.758l21.332 12.134c0.219 0.126 0.221-0.632 2e-3 -0.759z" fill="#6786d8"/><path d="m189.68 194.24-21.332-12.134c-0.218-0.127-0.22 0.63-2e-3 0.756l21.332 12.135c0.219 0.126 0.221-0.631 2e-3 -0.757z" fill="#6786d8"/><path d="m185.33 198.27-16.997-9.632c-0.22-0.127-0.221 0.631-3e-3 0.759l16.999 9.631c0.218 0.127 0.22-0.632 1e-3 -0.758z" fill="#f0b028"/><path d="m189.66 204.3-21.333-12.133c-0.218-0.128-0.22 0.632-1e-3 0.758l21.33 12.134c0.219 0.126 0.223-0.632 4e-3 -0.759z" fill="#6786d8"/><path d="m189.65 206.56-21.33-12.135c-0.219-0.126-0.222 0.633-2e-3 0.76l21.33 12.133c0.219 0.127 0.221-0.632 2e-3 -0.758z" fill="#6786d8"/></g><g serif:id="Panel 3"><path d="m120.18 174.14c-0.365 0.185-0.86 0.047-1.219-0.15-4.889-2.684-28.115-15.955-28.115-15.955-0.809-0.514-1.526-1.467-1.97-2.516-0.297-0.703-0.471-1.448-0.47-2.132l31.205-10.837 1.267 0.805c0.559 0.356 1.074 0.919 1.485 1.58 0.582 0.937 0.958 2.066 0.955 3.069l-6e-3 2.306-0.261 21.601c-2e-3 0.638-2.189 1.882-2.871 2.229z" fill="#d7e4f1"/><path d="m119.08 139.13s-1.061-1.277-1.703-1.648l-37.372-21.583c-0.701-0.404-1.343-0.48-1.835-0.278-0.114 0.048-1.406 0.999-1.406 0.999l41.198 53.726s1.404-1.059 1.453-1.113c0.302-0.342 0.48-0.858 0.482-1.525l0.273-22.966 7e-3 -2.409c3e-3 -1.047-0.427-2.227-1.097-3.203z" fill="#a9c8e4"/><path d="m117.86 140.04s-1.063-1.278-1.705-1.648l-37.371-21.583c-0.701-0.405-1.342-0.48-1.835-0.276-0.6 0.246-0.981 0.904-0.984 1.882l-7e-3 2.408 42.991 24.828 7e-3 -2.408c3e-3 -1.046-0.428-2.224-1.096-3.203z" fill="#6786d8"/><path d="m75.962 120.82-0.273 22.967c-2e-3 0.715 0.198 1.491 0.539 2.224 0.509 1.095 1.331 2.089 2.261 2.626l37.372 21.585c0.971 0.561 1.83 0.489 2.337-0.082 0.302-0.34 0.479-0.859 0.482-1.525l0.273-22.967-42.991-24.828z" fill="#fff"/><path d="m92.146 135.77-14.628-8.29c-0.189-0.108-0.191 0.546-2e-3 0.653l14.629 8.29c0.189 0.108 0.19-0.545 1e-3 -0.653z" fill="#f0b028"/><path d="m95.867 140.96-18.358-10.442c-0.188-0.11-0.189 0.543-2e-3 0.653l18.358 10.442c0.189 0.109 0.19-0.545 2e-3 -0.653z" fill="#6786d8"/><path d="m95.861 142.9-18.357-10.442c-0.187-0.109-0.19 0.544-2e-3 0.651l18.358 10.444c0.188 0.109 0.19-0.545 1e-3 -0.653z" fill="#6786d8"/><path d="m92.117 146.37-14.629-8.288c-0.189-0.108-0.191 0.545-2e-3 0.653l14.628 8.288c0.188 0.11 0.19-0.543 3e-3 -0.653z" fill="#f0b028"/><path d="m95.837 151.56-18.358-10.442c-0.188-0.108-0.19 0.545-1e-3 0.652l18.357 10.442c0.187 0.111 0.19-0.542 2e-3 -0.652z" fill="#6786d8"/><path d="m95.832 153.5-18.358-10.443c-0.189-0.107-0.191 0.545-3e-3 0.653l18.359 10.443c0.187 0.111 0.189-0.542 2e-3 -0.653z" fill="#6786d8"/><path d="m113.08 147.39-14.628-8.288c-0.188-0.11-0.189 0.542-2e-3 0.653l14.629 8.287c0.188 0.108 0.19-0.544 1e-3 -0.652z" fill="#f0b028"/><path d="m116.8 152.58-18.358-10.442c-0.187-0.111-0.189 0.542-1e-3 0.652l18.357 10.442c0.189 0.108 0.191-0.544 2e-3 -0.652z" fill="#6786d8"/><path d="m116.8 154.53-18.358-10.442c-0.187-0.111-0.189 0.543-2e-3 0.652l18.358 10.443c0.189 0.107 0.19-0.545 2e-3 -0.653z" fill="#6786d8"/><path d="m113.05 157.99-14.629-8.289c-0.188-0.109-0.191 0.544-2e-3 0.652l14.629 8.29c0.189 0.108 0.19-0.544 2e-3 -0.653z" fill="#f0b028"/><path d="m116.77 163.19-18.357-10.445c-0.19-0.108-0.191 0.544-3e-3 0.655l18.359 10.442c0.188 0.108 0.19-0.544 1e-3 -0.652z" fill="#6786d8"/><path d="m116.77 165.13-18.358-10.442c-0.188-0.11-0.189 0.543-1e-3 0.653l18.356 10.442c0.189 0.107 0.192-0.545 3e-3 -0.653z" fill="#6786d8"/></g><g serif:id="Panel 2"><path d="m197.36 177.6s-0.737-0.124-1.15-0.388l-30.126-17.095c-0.85-0.541-1.604-1.542-2.069-2.643-0.312-0.736-0.494-1.519-0.492-2.238l32.359-21.655 1.55 0.985c0.587 0.372 1.127 0.965 1.559 1.658 0.612 0.983 1.005 2.17 1.003 3.222l-0.091 35.241c-1e-3 0.671-0.164 1.191-0.441 1.534-0.045 0.056-1.296 1.093-1.296 1.093s-0.512 0.286-0.806 0.286z" fill="#d7e4f1"/><path d="m195.55 130.13s-1.114-1.344-1.788-1.732l-39.245-22.664c-0.737-0.426-1.409-0.505-1.927-0.293-0.12 0.05-0.23 0.114-0.333 0.194l-1.144 0.856 0.34 1.737 0.102-0.092-6e-3 1.812-0.096 34.253c-2e-3 0.751 0.208 1.568 0.564 2.337 0.535 1.148 1.4 2.194 2.376 2.758l39.246 22.667 0.927 1.083 1.245-0.923c0.04-0.027 0.078-0.057 0.116-0.087l2e-3 -2e-3c0.058-0.048 0.112-0.1 0.164-0.157 0.316-0.359 0.503-0.901 0.504-1.602l0.099-34.254 8e-3 -2.528c1e-3 -1.099-0.451-2.338-1.154-3.363z" fill="#a9c8e4"/><path d="m194.27 131.08s-1.115-1.341-1.787-1.729l-39.247-22.666c-0.736-0.425-1.409-0.503-1.927-0.29-0.631 0.259-1.029 0.951-1.033 1.977l-8e-3 2.529 45.147 26.074 7e-3 -2.529c3e-3 -1.099-0.448-2.339-1.152-3.366z" fill="#6786d8"/><path d="m150.27 110.9-0.096 34.253c-2e-3 0.751 0.208 1.568 0.566 2.336 0.535 1.15 1.397 2.195 2.374 2.759l39.247 22.666c1.021 0.589 1.921 0.513 2.454-0.086 0.318-0.358 0.504-0.901 0.505-1.601l0.097-34.253-45.147-26.074z" fill="#fff"/><path d="m166.93 125.95-14.452-8.188c-0.115-0.067-0.211 0.022-0.214 0.201 0 0.178 0.096 0.376 0.214 0.444l14.451 8.188c0.118 0.068 0.213-0.02 0.213-0.198 0-0.179-0.094-0.379-0.212-0.447z" fill="#f0b028"/><path d="m170.6 131.08-18.134-10.316c-0.118-0.068-0.215 0.022-0.215 0.199 0 0.178 0.094 0.378 0.213 0.446l18.136 10.316c0.116 0.068 0.212-0.022 0.212-0.2 2e-3 -0.179-0.094-0.377-0.212-0.445z" fill="#6786d8"/><path d="m170.6 133-18.134-10.316c-0.118-0.068-0.214 0.023-0.217 0.2 0 0.178 0.096 0.377 0.214 0.445l18.135 10.316c0.118 0.068 0.212-0.022 0.214-0.2-0-0.178-0.096-0.377-0.212-0.445z" fill="#6786d8"/><path d="m166.9 136.43-14.451-8.187c-0.118-0.068-0.213 0.019-0.213 0.198-2e-3 0.178 0.094 0.378 0.212 0.446l14.449 8.189c0.118 0.068 0.215-0.023 0.215-0.201s-0.094-0.376-0.212-0.445z" fill="#f0b028"/><path d="m170.57 141.55-18.135-10.315c-0.117-0.068-0.213 0.022-0.214 0.2-0 0.178 0.096 0.379 0.212 0.447l18.136 10.313c0.116 0.069 0.212-0.021 0.214-0.2 0-0.176-0.096-0.377-0.213-0.445z" fill="#6786d8"/><path d="m170.57 143.47-18.134-10.314c-0.118-0.068-0.214 0.02-0.214 0.199-2e-3 0.178 0.094 0.378 0.212 0.446l18.134 10.314c0.118 0.068 0.214-0.02 0.214-0.198 0-0.179-0.094-0.379-0.212-0.447z" fill="#6786d8"/><path d="m166.87 146.9-14.449-8.188c-0.118-0.068-0.215 0.022-0.215 0.2s0.094 0.376 0.213 0.444l14.45 8.189c0.118 0.068 0.214-0.022 0.214-0.201 1e-3 -0.175-0.095-0.376-0.213-0.444z" fill="#f0b028"/><path d="m170.54 152.03-18.134-10.314c-0.118-0.068-0.215 0.02-0.215 0.198-2e-3 0.178 0.094 0.378 0.212 0.446l18.134 10.315c0.119 0.068 0.213-0.021 0.215-0.198-0-0.179-0.096-0.379-0.212-0.447z" fill="#6786d8"/><path d="m170.54 153.95-18.135-10.316c-0.117-0.068-0.214 0.022-0.214 0.198 0 0.178 0.095 0.378 0.213 0.446l18.134 10.317c0.118 0.068 0.214-0.023 0.214-0.201s-0.094-0.376-0.212-0.444z" fill="#6786d8"/><path d="m189.17 138.27-14.452-8.189c-0.115-0.068-0.211 0.02-0.214 0.199 0 0.178 0.097 0.378 0.213 0.446l14.451 8.188c0.118 0.068 0.214-0.022 0.214-0.2s-0.094-0.376-0.212-0.444z" fill="#f0b028"/><path d="m192.84 143.39-18.134-10.314c-0.118-0.067-0.214 0.02-0.214 0.198-0 0.179 0.093 0.379 0.211 0.447l18.135 10.314c0.118 0.068 0.214-0.02 0.214-0.198 2e-3 -0.178-0.094-0.378-0.212-0.447z" fill="#6786d8"/><path d="m192.84 145.31-18.137-10.314c-0.115-0.068-0.211 0.021-0.214 0.198 0 0.178 0.096 0.379 0.214 0.447l18.134 10.314c0.119 0.068 0.213-0.02 0.215-0.198-0-0.178-0.096-0.379-0.212-0.447z" fill="#6786d8"/><path d="m189.14 148.74-14.451-8.187c-0.118-0.068-0.214 0.022-0.214 0.2-1e-3 0.178 0.095 0.376 0.213 0.444l14.449 8.189c0.118 0.068 0.215-0.021 0.215-0.199s-0.094-0.378-0.212-0.447z" fill="#f0b028"/><path d="m192.82 153.87-18.136-10.315c-0.116-0.068-0.213 0.022-0.214 0.199-0 0.178 0.095 0.379 0.212 0.447l18.136 10.315c0.116 0.068 0.212-0.022 0.212-0.2 2e-3 -0.178-0.094-0.376-0.21-0.446z" fill="#6786d8"/><path d="m192.81 155.79-18.135-10.317c-0.118-0.068-0.214 0.022-0.214 0.2-2e-3 0.179 0.095 0.377 0.213 0.446l18.134 10.315c0.118 0.068 0.214-0.022 0.214-0.2-0-0.179-0.094-0.376-0.212-0.444z" fill="#6786d8"/><path d="m189.11 159.21-14.449-8.186c-0.118-0.068-0.215 0.02-0.215 0.198s0.094 0.378 0.212 0.447l14.451 8.187c0.118 0.068 0.213-0.022 0.213-0.2 2e-3 -0.177-0.094-0.378-0.212-0.446z" fill="#f0b028"/><path d="m192.79 164.34-18.134-10.316c-0.118-0.068-0.214 0.022-0.214 0.2-3e-3 0.178 0.094 0.376 0.212 0.444l18.134 10.317c0.118 0.068 0.212-0.023 0.214-0.199-0-0.178-0.096-0.378-0.212-0.446z" fill="#6786d8"/><path d="m192.78 166.26-18.134-10.316c-0.118-0.067-0.215 0.022-0.215 0.2-1e-3 0.178 0.094 0.378 0.212 0.447l18.135 10.314c0.118 0.068 0.214-0.021 0.214-0.199s-0.094-0.378-0.212-0.446z" fill="#6786d8"/></g><g serif:id="Panel 1"><path d="m107.11 128.4s-0.803-0.192-1.159-0.391c-4.642-2.582-9.254-5.22-13.817-7.942-1.223-0.729-2.256-2.802-2.601-4.143-0.083-0.325 16.295 5.182 16.295 5.182s-0.096-35.765 0.204-36.355c0.137-0.269 3.572 2.611 3.602 4.122 0.243 12.279-0.052 24.564-0.105 36.846-4e-3 1.149-1.089 2.681-2.419 2.681z" fill="#d7e4f1"/><path d="m105.29 80.6s-1.09-1.304-1.801-1.742c-7.574-4.671-15.295-9.101-23.001-13.551-0.846-0.489-3.032-0.509-3.428 0.765-0.176 0.567 0.188 1.174 0.342 1.747 0.012 0.045 0.102-0.138 0.104-0.092 0.034 0.607-4e-3 1.216-6e-3 1.824-0.033 11.497-0.138 22.994-0.098 34.491 4e-3 1.031 0.334 2.048 0.845 2.932 0.522 0.903 1.219 1.662 2.117 2.2 7.632 4.574 23.457 14.605 23.934 14.64 1.1 0.082 2.039-1.954 2.046-2.789 0.088-11.496 0.064-22.994 0.097-34.491 6e-3 -2.193 0.139-4.046-1.151-5.934z" fill="#a9c8e4"/><path d="m104 81.555s-1.123-1.35-1.801-1.742l-23-13.549c-0.74-0.429-1.418-0.509-1.941-0.292-0.634 0.26-1.037 0.956-1.041 1.989l-6e-3 2.547 28.942 16.981 8e-3 -2.547c2e-3 -1.105-0.453-2.353-1.161-3.387z" fill="#6786d8"/><path d="m76.208 70.508-0.098 34.492c-2e-3 0.754 0.21 1.575 0.568 2.349 0.539 1.16 1.409 2.211 2.394 2.78l23 13.549c1.027 0.594 1.935 0.518 2.471-0.086 0.318-0.361 0.507-0.907 0.508-1.612l0.099-34.491-28.942-16.981z" fill="#fff"/><path d="m96.974 85.778-16.999-9.631c-0.219-0.126-0.221 0.632-2e-3 0.759l16.999 9.632c0.219 0.127 0.221-0.632 2e-3 -0.76z" fill="#f0b028"/><path d="m101.3 91.811-21.332-12.134c-0.219-0.127-0.221 0.631-2e-3 0.759l21.332 12.133c0.219 0.127 0.221-0.631 2e-3 -0.758z" fill="#6786d8"/><path d="m101.29 94.071-21.332-12.134c-0.218-0.126-0.22 0.631-2e-3 0.756l21.333 12.135c0.218 0.127 0.22-0.631 1e-3 -0.757z" fill="#6786d8"/><path d="m96.938 98.099-16.997-9.632c-0.22-0.126-0.221 0.631-3e-3 0.759l16.999 9.632c0.218 0.127 0.22-0.633 1e-3 -0.759z" fill="#f0b028"/><path d="m101.26 104.13-21.332-12.134c-0.219-0.128-0.221 0.632-2e-3 0.759l21.33 12.133c0.219 0.126 0.223-0.632 4e-3 -0.758z" fill="#6786d8"/><path d="m101.26 106.39-21.33-12.134c-0.219-0.127-0.222 0.633-2e-3 0.759l21.33 12.134c0.219 0.126 0.221-0.633 2e-3 -0.759z" fill="#6786d8"/><path d="m96.905 110.42-17-9.631c-0.219-0.128-0.221 0.631-3e-3 0.758l17 9.63c0.219 0.126 0.221-0.63 3e-3 -0.757z" fill="#f0b028"/><path d="m101.23 116.45-21.332-12.134c-0.219-0.127-0.22 0.63-2e-3 0.757l21.332 12.134c0.219 0.126 0.22-0.63 2e-3 -0.757z" fill="#6786d8"/><path d="m101.22 118.71-21.333-12.134c-0.218-0.127-0.22 0.633-1e-3 0.759l21.332 12.134c0.219 0.126 0.221-0.632 2e-3 -0.759z" fill="#6786d8"/></g><g serif:id="Panel 5"><path d="m167.74 130.42s-1.625-1.956-2.606-2.523l-57.206-33.036c-1.071-0.62-2.055-0.733-2.808-0.421-0.175 0.071-2.153 1.527-2.153 1.527l0.493 54.966c0 1.094 0.304 2.285 0.825 3.405 0.782 1.676 2.04 3.199 3.465 4.02l58.555 34.618s2.15-1.619 2.226-1.703c0.463-0.521 0.733-1.315 0.736-2.336l0.153-53.614c3e-3 -1.6-0.655-3.405-1.68-4.903z" fill="#a9c8e4"/><path d="m162.26 150.12-14.864-8.588c-0.176-0.099-0.312-0.388-0.312-0.65 0-0.258 0.141-0.388 0.312-0.288l14.864 8.584c0.17 0.098 0.311 0.39 0.311 0.65-3e-3 0.259-0.141 0.39-0.311 0.292zm-0.01 2.797-14.862-8.584c-0.175-0.1-0.312-0.392-0.312-0.65 0-0.259 0.141-0.388 0.312-0.29l14.864 8.584c0.171 0.1 0.312 0.39 0.309 0.651 0 0.258-0.138 0.387-0.311 0.289zm-15.196-1.14c0-0.258 0.14-0.392 0.312-0.289l9.497 5.483c0.171 0.099 0.307 0.387 0.307 0.647-0 0.261-0.141 0.39-0.312 0.292l-9.492-5.483c-0.175-0.099-0.312-0.392-0.312-0.65zm15.161 13.607-14.865-8.584c-0.171-0.098-0.308-0.392-0.308-0.65s0.141-0.39 0.312-0.292l14.865 8.584c0.17 0.102 0.306 0.391 0.306 0.65 0 0.262-0.139 0.392-0.31 0.292zm-9e-3 2.797-14.864-8.584c-0.171-0.098-0.311-0.388-0.307-0.649 0-0.26 0.141-0.389 0.312-0.289l14.864 8.584c0.17 0.099 0.307 0.391 0.307 0.65 0 0.258-0.14 0.387-0.312 0.288zm-15.195-1.14c0-0.259 0.141-0.388 0.312-0.288l9.494 5.483c0.171 0.098 0.311 0.387 0.311 0.65 0 0.258-0.14 0.388-0.316 0.288l-9.492-5.483c-0.171-0.098-0.312-0.392-0.309-0.65zm15.161 13.608-14.864-8.584c-0.171-0.099-0.312-0.392-0.312-0.65 5e-3 -0.258 0.141-0.387 0.316-0.289l14.86 8.584c0.175 0.099 0.312 0.387 0.312 0.65 0 0.258-0.139 0.387-0.312 0.289zm-7e-3 2.8-14.864-8.584c-0.171-0.103-0.312-0.391-0.312-0.649 0-0.263 0.141-0.392 0.312-0.294l14.864 8.586c0.171 0.098 0.311 0.39 0.311 0.648 0 0.259-0.14 0.392-0.311 0.293zm-16.167-39.409c-5e-3 0.217-0.156 0.303-0.346 0.193l-7.541-4.355c-0.19-0.109-0.342-0.371-0.342-0.588l0.027-8.671c-0-0.217 0.152-0.304 0.341-0.195l7.542 4.356c0.189 0.109 0.341 0.372 0.341 0.589l-0.022 8.671zm-0.046 15.264c-0 0.217-0.152 0.305-0.341 0.198l-7.545-4.358c-0.187-0.107-0.338-0.373-0.338-0.59l0.022-8.671c0-0.217 0.156-0.305 0.346-0.193l7.541 4.353c0.19 0.112 0.342 0.377 0.342 0.594l-0.027 8.667zm-0.042 15.265c0 0.217-0.156 0.303-0.341 0.198l-7.546-4.36c-0.19-0.105-0.341-0.371-0.341-0.588l0.027-8.668c-0-0.217 0.151-0.303 0.341-0.198l7.546 4.36c0.185 0.105 0.336 0.371 0.336 0.588l-0.022 8.668zm-15.461-42.822-14.864-8.584c-0.172-0.1-0.312-0.392-0.312-0.65 3e-3 -0.259 0.14-0.39 0.312-0.288l14.864 8.584c0.176 0.098 0.312 0.388 0.312 0.646-0 0.263-0.141 0.392-0.312 0.292zm-7e-3 2.797-14.866-8.585c-0.174-0.097-0.31-0.387-0.31-0.65 0-0.258 0.139-0.387 0.31-0.287l14.866 8.583c0.17 0.098 0.311 0.393 0.311 0.651-4e-3 0.258-0.141 0.39-0.311 0.288zm-15.2-1.14c0-0.258 0.141-0.388 0.312-0.288l9.497 5.483c0.171 0.098 0.307 0.387 0.307 0.649-0 0.259-0.139 0.389-0.31 0.289l-9.494-5.483c-0.175-0.1-0.312-0.387-0.312-0.65zm15.162 13.608-14.865-8.584c-0.171-0.099-0.309-0.392-0.309-0.65s0.141-0.388 0.312-0.289l14.866 8.584c0.17 0.099 0.312 0.387 0.307 0.65 0 0.258-0.141 0.387-0.311 0.289zm-8e-3 2.8-14.864-8.584c-0.171-0.098-0.309-0.391-0.309-0.65 0-0.262 0.141-0.391 0.312-0.293l14.865 8.584c0.171 0.104 0.31 0.392 0.307 0.65 0 0.263-0.141 0.392-0.311 0.293zm-15.195-1.14c-0-0.262 0.141-0.39 0.311-0.293l9.493 5.484c0.175 0.099 0.312 0.391 0.312 0.65-0 0.258-0.14 0.392-0.312 0.289l-9.497-5.485c-0.171-0.098-0.307-0.387-0.307-0.645zm15.161 13.604-14.865-8.584c-0.172-0.1-0.311-0.388-0.308-0.65-0-0.259 0.136-0.388 0.311-0.288l14.866 8.584c0.171 0.098 0.307 0.39 0.307 0.65 0 0.258-0.141 0.387-0.311 0.288zm-7e-3 2.801-14.865-8.584c-0.172-0.1-0.312-0.392-0.312-0.65 3e-3 -0.259 0.14-0.392 0.315-0.29l14.862 8.584c0.175 0.1 0.311 0.389 0.311 0.65 0 0.259-0.141 0.388-0.311 0.29zm-16.169-39.41c-0 0.217-0.155 0.305-0.341 0.197l-7.545-4.357c-0.19-0.108-0.341-0.373-0.341-0.59l0.025-8.667c0-0.221 0.153-0.309 0.343-0.197l7.544 4.358c0.185 0.107 0.339 0.372 0.339 0.589l-0.024 8.667zm-0.045 15.268c0 0.217-0.153 0.304-0.342 0.195l-7.54-4.355c-0.19-0.11-0.343-0.377-0.343-0.593l0.024-8.668c3e-3 -0.217 0.155-0.305 0.345-0.198l7.54 4.358c0.19 0.107 0.343 0.373 0.343 0.59l-0.027 8.671zm-0.041 15.265c-0 0.217-0.156 0.303-0.343 0.193l-7.544-4.355c-0.186-0.11-0.342-0.371-0.339-0.588l0.024-8.671c0-0.217 0.156-0.305 0.341-0.195l7.545 4.355c0.187 0.11 0.342 0.373 0.342 0.59l-0.026 8.671zm1.5-38.349 9.492 5.483c0.171 0.099 0.312 0.387 0.312 0.65-3e-3 0.258-0.141 0.387-0.312 0.289l-9.497-5.484c-0.17-0.099-0.311-0.391-0.307-0.649 0-0.258 0.141-0.387 0.312-0.289zm31.81 18.368 9.494 5.484c0.171 0.099 0.312 0.391 0.308 0.65-0 0.258-0.141 0.392-0.312 0.292l-9.493-5.487c-0.172-0.095-0.311-0.388-0.311-0.646 3e-3 -0.261 0.139-0.39 0.314-0.293zm-45.68-33.827 0.012-3.685-0.152 53.613c-4e-3 1.094 0.303 2.283 0.824 3.405 0.779 1.676 2.04 3.199 3.465 4.02l57.201 33.038c1.486 0.858 2.801 0.748 3.575-0.122 0.465-0.524 0.738-1.315 0.738-2.338l0.144-49.926-65.807-38.005z" fill="#fff"/><path d="m165.87 131.81s-1.625-1.956-2.609-2.524l-57.203-33.035c-1.072-0.621-2.055-0.735-2.811-0.423-0.915 0.377-1.501 1.383-1.504 2.881l-0.012 3.685 65.807 38.005 7e-3 -3.688c8e-3 -1.598-0.653-3.403-1.675-4.901z" fill="#3e5dae"/></g></g><g serif:id="Gear 1"><path d="m22.486 207.94c-1.072-0.618-1.891-1.327-2.466-2.084 0.565-0.74 1.367-1.435 2.412-2.042 4.575-2.66 12.015-2.66 16.62 0 1.07 0.619 1.097 3.516 0.051 4.125-4.574 2.658-12.014 2.658-16.617 1e-3zm33.879 3.636-0.036-11.399h-4.012l0.175-5.45-0.109 0.015 0.023-0.015-7.219-4.168-2.894 1.682c-2.043-0.728-4.238-1.249-6.509-1.557l-0.013-2.381h-10.173l0.012 2.378c-2.263 0.311-4.458 0.832-6.488 1.56l-2.912-1.682-7.172 4.168 10.204 24.782c2.044 0.729 4.239 1.252 6.509 1.561l0.013 2.375v3e-3l10.174 2e-3v-2.38c2.259-0.311 4.449-0.832 6.478-1.561l2.913 1.683 7.171-4.169v-5.447h3.865z" fill="#7faad8" fill-rule="nonzero"/><path d="m36.932 207.36c-7.862 4.748-15.398 4.988-22.532-0.31-0-0 1.501-1.933 2.862-2.724 4.575-2.659 12.015-2.659 16.619 0 1.511 0.872 3.051 3.034 3.051 3.034zm10.157 4.728h4.105l-0.036-5.896-4.014-5.395 0.092-0.052-0.089-0.052 0.175-5.454h-43.454l0.092 11.345h-3.96l0.037 5.504 3.923-1e-3v5.45l7.218 4.168 2.894-1.682c2.043 0.729 4.239 1.249 6.508 1.558l0.014 2.378 10.174 2e-3 -0.014-2.378c2.264-0.311 4.459-0.831 6.491-1.562l2.913 1.682 7.172-4.168-0.241-5.447" fill="#3e5dae" fill-rule="nonzero"/><path d="m33.933 208.45c-4.575 2.658-12.015 2.658-16.617 2e-3 -4.605-2.661-4.629-6.971-0.054-9.629 4.575-2.661 12.015-2.661 16.619 0 4.603 2.656 4.627 6.966 0.052 9.627zm13.156-1.866h4.105l-0.036-5.896h-4.104c-0.539-1.313-1.448-2.584-2.713-3.765l2.895-1.684-7.219-4.168-2.894 1.682c-2.043-0.729-4.239-1.25-6.509-1.558l-0.013-2.378-10.174-2e-3 0.013 2.378c-2.263 0.31-4.458 0.831-6.488 1.561l-2.913-1.683-7.171 4.168 2.912 1.684c-1.253 1.179-2.145 2.452-2.674 3.765h-4.106l0.037 5.896h4.105c0.54 1.313 1.447 2.585 2.712 3.766l-2.894 1.681 7.218 4.171 2.894-1.684c2.043 0.729 4.239 1.251 6.508 1.559l0.014 2.378 10.174 3e-3 -0.014-2.378c2.264-0.311 4.459-0.833 6.491-1.564l2.913 1.683 7.172-4.169-2.913-1.683c1.251-1.178 2.143-2.452 2.672-3.763" fill="#6786d8" fill-rule="nonzero"/><path d="m40.158 216.2v5.504l7.172-4.168v-5.505l-7.172 4.169" fill="#33478d" fill-rule="nonzero"/><rect x="47.089" y="206.59" width="4.105" height="5.503" fill="#33478d"/><path d="m3.96 212.03v5.506l7.218 4.168v-5.503l-7.218-4.171" fill="#33478d" fill-rule="nonzero"/><path d="m20.594 218.46v5.504l10.174 2e-3v-5.503l-10.174-3e-3" fill="#33478d" fill-rule="nonzero"/></g><g serif:id="Gear 2"><path d="m160.34 307.05c-0.68-0.392-1.2-0.842-1.565-1.322 0.359-0.47 0.868-0.91 1.53-1.295 2.903-1.688 7.622-1.688 10.544-0 0.679 0.392 0.696 2.23 0.032 2.616-2.901 1.686-7.621 1.686-10.541 1e-3zm21.492 2.306-0.023-7.231h-2.545l0.111-3.457-0.069 9e-3 0.014-9e-3 -4.579-2.644-1.836 1.067c-1.296-0.462-2.689-0.793-4.129-0.988l-8e-3 -1.511h-6.454l8e-3 1.509c-1.436 0.197-2.829 0.528-4.116 0.99l-1.848-1.067-4.549 2.644 6.473 15.721c1.296 0.463 2.689 0.794 4.129 0.99l9e-3 1.507v2e-3l6.454 1e-3v-1.51c1.433-0.197 2.822-0.527 4.109-0.99l1.848 1.067 4.549-2.644v-3.456h2.452z" fill="#7faad8" fill-rule="nonzero"/><path d="m169.51 306.68c-4.987 3.012-9.768 3.164-14.294-0.197 0-0 0.953-1.226 1.816-1.728 2.902-1.687 7.622-1.687 10.543 0 0.958 0.553 1.935 1.925 1.935 1.925zm6.443 2.999h2.605l-0.023-3.74-2.547-3.423 0.059-0.033-0.056-0.033 0.11-3.46h-27.566l0.058 7.198h-2.512l0.023 3.491h2.489v3.457l4.579 2.644 1.836-1.067c1.296 0.463 2.689 0.793 4.129 0.989l8e-3 1.508 6.455 1e-3 -9e-3 -1.509c1.436-0.196 2.829-0.526 4.118-0.99l1.848 1.067 4.549-2.644-0.153-3.456" fill="#3e5dae" fill-rule="nonzero"/><path d="m167.6 307.38c-2.903 1.687-7.623 1.687-10.542 2e-3 -2.921-1.688-2.937-4.423-0.034-6.109 2.902-1.688 7.622-1.688 10.543 0 2.92 1.685 2.935 4.419 0.033 6.107zm8.345-1.183h2.605l-0.023-3.741h-2.604c-0.342-0.833-0.918-1.639-1.721-2.388l1.837-1.069-4.58-2.644-1.836 1.067c-1.296-0.462-2.689-0.793-4.129-0.988l-8e-3 -1.509-6.454-1e-3 8e-3 1.509c-1.436 0.196-2.828 0.527-4.116 0.99l-1.848-1.068-4.549 2.644 1.847 1.069c-0.795 0.748-1.361 1.555-1.696 2.388h-2.605l0.023 3.741h2.605c0.342 0.833 0.918 1.639 1.72 2.388l-1.836 1.067 4.579 2.646 1.836-1.068c1.296 0.462 2.689 0.793 4.129 0.989l8e-3 1.509 6.455 1e-3 -9e-3 -1.509c1.436-0.197 2.829-0.528 4.118-0.992l1.848 1.068 4.549-2.645-1.848-1.067c0.794-0.748 1.36-1.556 1.695-2.387" fill="#6786d8" fill-rule="nonzero"/><path d="m171.55 312.29v3.492l4.549-2.644v-3.493l-4.549 2.645" fill="#33478d" fill-rule="nonzero"/><rect x="175.95" y="306.19" width="2.604" height="3.491" fill="#33478d"/><path d="m148.59 309.65v3.493l4.579 2.644v-3.491l-4.579-2.646" fill="#33478d" fill-rule="nonzero"/><path d="m159.14 313.72v3.491l6.455 1e-3v-3.491l-6.455-1e-3" fill="#33478d" fill-rule="nonzero"/></g><g serif:id="Gear 3"><path d="m185.87 281.6c-0.68-0.393-1.2-0.842-1.565-1.322 0.359-0.47 0.867-0.911 1.53-1.296 2.903-1.687 7.622-1.687 10.544 0 0.679 0.393 0.696 2.23 0.032 2.617-2.902 1.686-7.622 1.686-10.541 1e-3zm21.492 2.306-0.023-7.231h-2.545l0.111-3.457-0.069 9e-3 0.014-9e-3 -4.579-2.644-1.836 1.067c-1.296-0.463-2.689-0.793-4.129-0.989l-9e-3 -1.51h-6.453l7e-3 1.509c-1.435 0.197-2.828 0.527-4.115 0.99l-1.848-1.067-4.55 2.644 6.474 15.721c1.296 0.463 2.689 0.794 4.129 0.99l8e-3 1.507v1e-3l6.455 2e-3v-1.51c1.432-0.197 2.822-0.527 4.109-0.99l1.848 1.067 4.549-2.644v-3.456h2.452z" fill="#7faad8" fill-rule="nonzero"/><path d="m195.03 281.24c-4.988 3.012-9.768 3.164-14.294-0.197-0-0 0.952-1.227 1.815-1.728 2.903-1.687 7.622-1.687 10.544-0 0.958 0.553 1.935 1.925 1.935 1.925zm6.443 2.999h2.604l-0.022-3.74-2.547-3.423 0.058-0.033-0.056-0.033 0.111-3.46h-27.567l0.059 7.198h-2.512l0.023 3.491h2.489v3.456l4.579 2.645 1.836-1.067c1.296 0.462 2.689 0.792 4.129 0.988l8e-3 1.509 6.454 1e-3 -8e-3 -1.509c1.436-0.197 2.828-0.527 4.118-0.99l1.848 1.067 4.549-2.644-0.153-3.456" fill="#3e5dae" fill-rule="nonzero"/><path d="m193.13 281.93c-2.902 1.687-7.622 1.687-10.541 1e-3 -2.922-1.687-2.937-4.422-0.035-6.108 2.903-1.688 7.622-1.688 10.544-0 2.919 1.685 2.935 4.419 0.032 6.107zm8.346-1.183h2.604l-0.022-3.741h-2.604c-0.342-0.833-0.919-1.64-1.721-2.389l1.836-1.068-4.579-2.644-1.836 1.067c-1.296-0.462-2.689-0.793-4.129-0.988l-8e-3 -1.509-6.455-1e-3 9e-3 1.508c-1.436 0.197-2.829 0.528-4.117 0.991l-1.847-1.068-4.55 2.644 1.848 1.068c-0.795 0.748-1.361 1.556-1.697 2.389h-2.604l0.023 3.741h2.604c0.343 0.833 0.918 1.639 1.721 2.388l-1.836 1.067 4.579 2.646 1.836-1.068c1.296 0.462 2.689 0.793 4.129 0.989l8e-3 1.508 6.454 2e-3 -8e-3 -1.509c1.436-0.197 2.828-0.528 4.118-0.992l1.848 1.068 4.549-2.645-1.848-1.067c0.794-0.748 1.36-1.556 1.695-2.387" fill="#6786d8" fill-rule="nonzero"/><path d="m197.08 286.84v3.492l4.549-2.644v-3.493l-4.549 2.645" fill="#33478d" fill-rule="nonzero"/><rect x="201.48" y="280.74" width="2.604" height="3.491" fill="#33478d"/><path d="m174.12 284.2v3.492l4.579 2.645v-3.491l-4.579-2.646" fill="#33478d" fill-rule="nonzero"/><path d="m184.67 288.28v3.492l6.454 1e-3v-3.491l-6.454-2e-3" fill="#33478d" fill-rule="nonzero"/></g></g></svg>